<svg xmlns="http://www.w3.org/2000/svg" xmlns:xlink="http://www.w3.org/1999/xlink" width="1440" height="2800" viewBox="0 0 1440 2800">
  <defs>
    <clipPath id="clip-path">
      <rect id="Rectangle_91" data-name="Rectangle 91" width="1116.352" height="1116.352" fill="none"/>
    </clipPath>
    <clipPath id="clip-bg">
      <rect width="1440" height="2800"/>
    </clipPath>
  </defs>
  <g id="bg" clip-path="url(#clip-bg)">
    <rect width="1440" height="2800" fill="#fff"/>
    <rect id="Rectangle_58" data-name="Rectangle 58" width="1440" height="2800" fill="#f1f1f1"/>
    <g id="X_O" data-name="X/O" transform="matrix(0.946, -0.326, 0.326, 0.946, -332.958, 527.805)" opacity="0.1" clip-path="url(#clip-path)">
      <path id="Path_5240" data-name="Path 5240" d="M9.711,122.451A9.711,9.711,0,1,1,0,132.162a9.71,9.71,0,0,1,9.711-9.711" transform="translate(0 229.366)"/>
      <path id="Path_5241" data-name="Path 5241" d="M23.346,122.451a9.711,9.711,0,1,1-9.711,9.711,9.71,9.71,0,0,1,9.711-9.711" transform="translate(25.54 229.366)"/>
      <path id="Path_5242" data-name="Path 5242" d="M36.982,122.451a9.711,9.711,0,1,1-9.711,9.711,9.71,9.71,0,0,1,9.711-9.711" transform="translate(51.082 229.366)"/>
      <path id="Path_5243" data-name="Path 5243" d="M50.617,122.451a9.711,9.711,0,1,1-9.711,9.711,9.71,9.71,0,0,1,9.711-9.711" transform="translate(76.622 229.366)"/>
      <path id="Path_5244" data-name="Path 5244" d="M64.252,122.451a9.711,9.711,0,1,1-9.711,9.711,9.71,9.71,0,0,1,9.711-9.711" transform="translate(102.162 229.366)"/>
      <path id="Path_5245" data-name="Path 5245" d="M77.888,122.451a9.711,9.711,0,1,1-9.711,9.711,9.71,9.71,0,0,1,9.711-9.711" transform="translate(127.704 229.366)"/>
      <path id="Path_5246" data-name="Path 5246" d="M91.523,122.451a9.711,9.711,0,1,1-9.711,9.711,9.71,9.71,0,0,1,9.711-9.711" transform="translate(153.244 229.366)"/>
      <path id="Path_5247" data-name="Path 5247" d="M105.158,122.451a9.711,9.711,0,1,1-9.711,9.711,9.71,9.71,0,0,1,9.711-9.711" transform="translate(178.784 229.366)"/>
      <path id="Path_5248" data-name="Path 5248" d="M118.794,122.451a9.711,9.711,0,1,1-9.711,9.711,9.71,9.71,0,0,1,9.711-9.711" transform="translate(204.326 229.366)"/>
      <path id="Path_5249" data-name="Path 5249" d="M132.429,122.451a9.711,9.711,0,1,1-9.711,9.711,9.71,9.71,0,0,1,9.711-9.711" transform="translate(229.866 229.366)"/>
      <path id="Path_5250" data-name="Path 5250" d="M146.065,122.451a9.711,9.711,0,1,1-9.711,9.711,9.71,9.71,0,0,1,9.711-9.711" transform="translate(255.408 229.366)"/>
      <path id="Path_5251" data-name="Path 5251" d="M159.7,122.451a9.711,9.711,0,1,1-9.711,9.711,9.71,9.71,0,0,1,9.711-9.711" transform="translate(280.948 229.366)"/>
      <path id="Path_5252" data-name="Path 5252" d="M173.335,122.451a9.711,9.711,0,1,1-9.711,9.711,9.71,9.71,0,0,1,9.711-9.711" transform="translate(306.488 229.366)"/>
      <path id="Path_5253" data-name="Path 5253" d="M186.971,122.451a9.711,9.711,0,1,1-9.711,9.711,9.71,9.71,0,0,1,9.711-9.711" transform="translate(332.03 229.366)"/>
      <path id="Path_5254" data-name="Path 5254" d="M200.606,122.451a9.711,9.711,0,1,1-9.711,9.711,9.71,9.71,0,0,1,9.711-9.711" transform="translate(357.57 229.366)"/>
      <path id="Path_5255" data-name="Path 5255" d="M214.242,122.451a9.711,9.711,0,1,1-9.711,9.711,9.71,9.71,0,0,1,9.711-9.711" transform="translate(383.112 229.366)"/>
      <path id="Path_5256" data-name="Path 5256" d="M227.877,122.451a9.711,9.711,0,1,1-9.711,9.711,9.71,9.71,0,0,1,9.711-9.711" transform="translate(408.652 229.366)"/>
      <path id="Path_5257" data-name="Path 5257" d="M241.512,122.451a9.711,9.711,0,1,1-9.711,9.711,9.71,9.71,0,0,1,9.711-9.711" transform="translate(434.192 229.366)"/>
      <path id="Path_5258" data-name="Path 5258" d="M255.148,122.451a9.711,9.711,0,1,1-9.711,9.711,9.71,9.71,0,0,1,9.711-9.711" transform="translate(459.734 229.366)"/>
      <path id="Path_5259" data-name="Path 5259" d="M268.783,122.451a9.711,9.711,0,1,1-9.711,9.711,9.71,9.71,0,0,1,9.711-9.711" transform="translate(485.274 229.366)"/>
      <path id="Path_5260" data-name="Path 5260" d="M282.418,122.451a9.711,9.711,0,1,1-9.711,9.711,9.71,9.71,0,0,1,9.711-9.711" transform="translate(510.814 229.366)"/>
      <path id="Path_5261" data-name="Path 5261" d="M296.054,122.451a9.711,9.711,0,1,1-9.711,9.711,9.71,9.71,0,0,1,9.711-9.711" transform="translate(536.356 229.366)"/>
      <path id="Path_5262" data-name="Path 5262" d="M309.689,122.451a9.711,9.711,0,1,1-9.711,9.711,9.71,9.71,0,0,1,9.711-9.711" transform="translate(561.896 229.366)"/>
      <path id="Path_5263" data-name="Path 5263" d="M323.325,122.451a9.711,9.711,0,1,1-9.711,9.711,9.71,9.71,0,0,1,9.711-9.711" transform="translate(587.438 229.366)"/>
      <path id="Path_5264" data-name="Path 5264" d="M336.96,122.451a9.711,9.711,0,1,1-9.711,9.711,9.71,9.71,0,0,1,9.711-9.711" transform="translate(612.978 229.366)"/>
      <path id="Path_5265" data-name="Path 5265" d="M350.6,122.451a9.711,9.711,0,1,1-9.711,9.711,9.71,9.71,0,0,1,9.711-9.711" transform="translate(638.518 229.366)"/>
      <path id="Path_5266" data-name="Path 5266" d="M364.231,122.451a9.711,9.711,0,1,1-9.711,9.711,9.71,9.71,0,0,1,9.711-9.711" transform="translate(664.06 229.366)"/>
      <path id="Path_5267" data-name="Path 5267" d="M377.866,122.451a9.711,9.711,0,1,1-9.711,9.711,9.71,9.71,0,0,1,9.711-9.711" transform="translate(689.6 229.366)"/>
      <path id="Path_5268" data-name="Path 5268" d="M391.5,122.451a9.711,9.711,0,1,1-9.711,9.711,9.71,9.71,0,0,1,9.711-9.711" transform="translate(715.142 229.366)"/>
      <path id="Path_5269" data-name="Path 5269" d="M9.711,245.7A9.711,9.711,0,1,1,0,255.411,9.71,9.71,0,0,1,9.711,245.7" transform="translate(0 460.227)"/>
      <path id="Path_5270" data-name="Path 5270" d="M23.346,245.7a9.711,9.711,0,1,1-9.711,9.711,9.71,9.71,0,0,1,9.711-9.711" transform="translate(25.54 460.227)"/>
      <path id="Path_5271" data-name="Path 5271" d="M36.982,245.7a9.711,9.711,0,1,1-9.711,9.711,9.71,9.71,0,0,1,9.711-9.711" transform="translate(51.082 460.227)"/>
      <path id="Path_5272" data-name="Path 5272" d="M50.617,245.7a9.711,9.711,0,1,1-9.711,9.711,9.71,9.71,0,0,1,9.711-9.711" transform="translate(76.622 460.227)"/>
      <path id="Path_5273" data-name="Path 5273" d="M64.252,245.7a9.711,9.711,0,1,1-9.711,9.711,9.71,9.71,0,0,1,9.711-9.711" transform="translate(102.162 460.227)"/>
      <path id="Path_5274" data-name="Path 5274" d="M77.888,245.7a9.711,9.711,0,1,1-9.711,9.711,9.71,9.71,0,0,1,9.711-9.711" transform="translate(127.704 460.227)"/>
      <path id="Path_5275" data-name="Path 5275" d="M91.523,245.7a9.711,9.711,0,1,1-9.711,9.711,9.71,9.71,0,0,1,9.711-9.711" transform="translate(153.244 460.227)"/>
      <path id="Path_5276" data-name="Path 5276" d="M105.158,245.7a9.711,9.711,0,1,1-9.711,9.711,9.71,9.71,0,0,1,9.711-9.711" transform="translate(178.784 460.227)"/>
      <path id="Path_5277" data-name="Path 5277" d="M118.794,245.7a9.711,9.711,0,1,1-9.711,9.711,9.71,9.71,0,0,1,9.711-9.711" transform="translate(204.326 460.227)"/>
      <path id="Path_5278" data-name="Path 5278" d="M132.429,245.7a9.711,9.711,0,1,1-9.711,9.711,9.71,9.71,0,0,1,9.711-9.711" transform="translate(229.866 460.227)"/>
      <path id="Path_5279" data-name="Path 5279" d="M146.065,245.7a9.711,9.711,0,1,1-9.711,9.711,9.71,9.71,0,0,1,9.711-9.711" transform="translate(255.408 460.227)"/>
      <path id="Path_5280" data-name="Path 5280" d="M159.7,245.7a9.711,9.711,0,1,1-9.711,9.711A9.71,9.71,0,0,1,159.7,245.7" transform="translate(280.948 460.227)"/>
      <path id="Path_5281" data-name="Path 5281" d="M173.335,245.7a9.711,9.711,0,1,1-9.711,9.711,9.71,9.71,0,0,1,9.711-9.711" transform="translate(306.488 460.227)"/>
      <path id="Path_5282" data-name="Path 5282" d="M186.971,245.7a9.711,9.711,0,1,1-9.711,9.711,9.71,9.71,0,0,1,9.711-9.711" transform="translate(332.03 460.227)"/>
      <path id="Path_5283" data-name="Path 5283" d="M200.606,245.7a9.711,9.711,0,1,1-9.711,9.711,9.71,9.71,0,0,1,9.711-9.711" transform="translate(357.57 460.227)"/>
      <path id="Path_5284" data-name="Path 5284" d="M214.242,245.7a9.711,9.711,0,1,1-9.711,9.711,9.71,9.71,0,0,1,9.711-9.711" transform="translate(383.112 460.227)"/>
      <path id="Path_5285" data-name="Path 5285" d="M227.877,245.7a9.711,9.711,0,1,1-9.711,9.711,9.71,9.71,0,0,1,9.711-9.711" transform="translate(408.652 460.227)"/>
      <path id="Path_5286" data-name="Path 5286" d="M241.512,245.7a9.711,9.711,0,1,1-9.711,9.711,9.71,9.71,0,0,1,9.711-9.711" transform="translate(434.192 460.227)"/>
      <path id="Path_5287" data-name="Path 5287" d="M255.148,245.7a9.711,9.711,0,1,1-9.711,9.711,9.71,9.71,0,0,1,9.711-9.711" transform="translate(459.734 460.227)"/>
      <path id="Path_5288" data-name="Path 5288" d="M268.783,245.7a9.711,9.711,0,1,1-9.711,9.711,9.71,9.71,0,0,1,9.711-9.711" transform="translate(485.274 460.227)"/>
      <path id="Path_5289" data-name="Path 5289" d="M282.418,245.7a9.711,9.711,0,1,1-9.711,9.711,9.71,9.71,0,0,1,9.711-9.711" transform="translate(510.814 460.227)"/>
      <path id="Path_5290" data-name="Path 5290" d="M296.054,245.7a9.711,9.711,0,1,1-9.711,9.711,9.71,9.71,0,0,1,9.711-9.711" transform="translate(536.356 460.227)"/>
      <path id="Path_5291" data-name="Path 5291" d="M309.689,245.7a9.711,9.711,0,1,1-9.711,9.711,9.71,9.71,0,0,1,9.711-9.711" transform="translate(561.896 460.227)"/>
      <path id="Path_5292" data-name="Path 5292" d="M323.325,245.7a9.711,9.711,0,1,1-9.711,9.711,9.71,9.71,0,0,1,9.711-9.711" transform="translate(587.438 460.227)"/>
      <path id="Path_5293" data-name="Path 5293" d="M336.96,245.7a9.711,9.711,0,1,1-9.711,9.711,9.71,9.71,0,0,1,9.711-9.711" transform="translate(612.978 460.227)"/>
      <path id="Path_5294" data-name="Path 5294" d="M350.6,245.7a9.711,9.711,0,1,1-9.711,9.711A9.71,9.71,0,0,1,350.6,245.7" transform="translate(638.518 460.227)"/>
      <path id="Path_5295" data-name="Path 5295" d="M364.231,245.7a9.711,9.711,0,1,1-9.711,9.711,9.71,9.71,0,0,1,9.711-9.711" transform="translate(664.06 460.227)"/>
      <path id="Path_5296" data-name="Path 5296" d="M377.866,245.7a9.711,9.711,0,1,1-9.711,9.711,9.71,9.71,0,0,1,9.711-9.711" transform="translate(689.6 460.227)"/>
      <path id="Path_5297" data-name="Path 5297" d="M391.5,245.7a9.711,9.711,0,1,1-9.711,9.711A9.71,9.71,0,0,1,391.5,245.7" transform="translate(715.142 460.227)"/>
      <path id="Path_5298" data-name="Path 5298" d="M122.581,391.5a9.711,9.711,0,1,1,9.711,9.711,9.71,9.71,0,0,1-9.711-9.711" transform="translate(229.609 715.14)"/>
      <path id="Path_5299" data-name="Path 5299" d="M122.581,377.866a9.711,9.711,0,1,1,9.711,9.711,9.71,9.71,0,0,1-9.711-9.711" transform="translate(229.609 689.6)"/>
      <path id="Path_5300" data-name="Path 5300" d="M122.581,364.23a9.711,9.711,0,1,1,9.711,9.711,9.71,9.71,0,0,1-9.711-9.711" transform="translate(229.609 664.058)"/>
      <path id="Path_5301" data-name="Path 5301" d="M122.581,350.6a9.711,9.711,0,1,1,9.711,9.711,9.71,9.71,0,0,1-9.711-9.711" transform="translate(229.609 638.518)"/>
      <path id="Path_5302" data-name="Path 5302" d="M122.581,336.96a9.711,9.711,0,1,1,9.711,9.711,9.71,9.71,0,0,1-9.711-9.711" transform="translate(229.609 612.978)"/>
      <path id="Path_5303" data-name="Path 5303" d="M122.581,323.324a9.711,9.711,0,1,1,9.711,9.711,9.71,9.71,0,0,1-9.711-9.711" transform="translate(229.609 587.436)"/>
      <path id="Path_5304" data-name="Path 5304" d="M122.581,309.689a9.711,9.711,0,1,1,9.711,9.711,9.71,9.71,0,0,1-9.711-9.711" transform="translate(229.609 561.896)"/>
      <path id="Path_5305" data-name="Path 5305" d="M122.581,296.053a9.711,9.711,0,1,1,9.711,9.711,9.71,9.71,0,0,1-9.711-9.711" transform="translate(229.609 536.354)"/>
      <path id="Path_5306" data-name="Path 5306" d="M122.581,282.418a9.711,9.711,0,1,1,9.711,9.711,9.71,9.71,0,0,1-9.711-9.711" transform="translate(229.609 510.814)"/>
      <path id="Path_5307" data-name="Path 5307" d="M122.581,268.783a9.711,9.711,0,1,1,9.711,9.711,9.71,9.71,0,0,1-9.711-9.711" transform="translate(229.609 485.274)"/>
      <path id="Path_5308" data-name="Path 5308" d="M122.581,255.147a9.711,9.711,0,1,1,9.711,9.711,9.71,9.71,0,0,1-9.711-9.711" transform="translate(229.609 459.732)"/>
      <path id="Path_5309" data-name="Path 5309" d="M122.581,241.512a9.711,9.711,0,1,1,9.711,9.711,9.71,9.71,0,0,1-9.711-9.711" transform="translate(229.609 434.192)"/>
      <path id="Path_5310" data-name="Path 5310" d="M122.581,227.877a9.711,9.711,0,1,1,9.711,9.711,9.71,9.71,0,0,1-9.711-9.711" transform="translate(229.609 408.652)"/>
      <path id="Path_5311" data-name="Path 5311" d="M122.581,214.241a9.711,9.711,0,1,1,9.711,9.711,9.71,9.71,0,0,1-9.711-9.711" transform="translate(229.609 383.11)"/>
      <path id="Path_5312" data-name="Path 5312" d="M122.581,200.606a9.711,9.711,0,1,1,9.711,9.711,9.71,9.71,0,0,1-9.711-9.711" transform="translate(229.609 357.57)"/>
      <path id="Path_5313" data-name="Path 5313" d="M122.581,186.97a9.711,9.711,0,1,1,9.711,9.711,9.71,9.71,0,0,1-9.711-9.711" transform="translate(229.609 332.028)"/>
      <path id="Path_5314" data-name="Path 5314" d="M122.581,173.335a9.711,9.711,0,1,1,9.711,9.711,9.71,9.71,0,0,1-9.711-9.711" transform="translate(229.609 306.488)"/>
      <path id="Path_5315" data-name="Path 5315" d="M122.581,159.7a9.711,9.711,0,1,1,9.711,9.711,9.71,9.71,0,0,1-9.711-9.711" transform="translate(229.609 280.948)"/>
      <path id="Path_5316" data-name="Path 5316" d="M122.581,146.064a9.711,9.711,0,1,1,9.711,9.711,9.71,9.71,0,0,1-9.711-9.711" transform="translate(229.609 255.406)"/>
      <path id="Path_5317" data-name="Path 5317" d="M122.581,132.429a9.711,9.711,0,1,1,9.711,9.711,9.71,9.71,0,0,1-9.711-9.711" transform="translate(229.609 229.866)"/>
      <path id="Path_5318" data-name="Path 5318" d="M122.581,118.791a9.711,9.711,0,1,1,9.711,9.711,9.71,9.71,0,0,1-9.711-9.711" transform="translate(229.609 204.326)"/>
      <path id="Path_5319" data-name="Path 5319" d="M122.581,105.158a9.711,9.711,0,1,1,9.711,9.711,9.71,9.71,0,0,1-9.711-9.711" transform="translate(229.609 178.784)"/>
      <path id="Path_5320" data-name="Path 5320" d="M122.581,91.523a9.711,9.711,0,1,1,9.711,9.711,9.71,9.71,0,0,1-9.711-9.711" transform="translate(229.609 153.244)"/>
      <path id="Path_5321" data-name="Path 5321" d="M122.581,77.887a9.711,9.711,0,1,1,9.711,9.711,9.71,9.71,0,0,1-9.711-9.711" transform="translate(229.609 127.702)"/>
      <path id="Path_5322" data-name="Path 5322" d="M122.581,64.252a9.711,9.711,0,1,1,9.711,9.711,9.71,9.71,0,0,1-9.711-9.711" transform="translate(229.609 102.162)"/>
      <path id="Path_5323" data-name="Path 5323" d="M122.581,50.617a9.711,9.711,0,1,1,9.711,9.711,9.71,9.71,0,0,1-9.711-9.711" transform="translate(229.609 76.622)"/>
      <path id="Path_5324" data-name="Path 5324" d="M122.581,36.981a9.711,9.711,0,1,1,9.711,9.711,9.71,9.71,0,0,1-9.711-9.711" transform="translate(229.609 51.08)"/>
      <path id="Path_5325" data-name="Path 5325" d="M122.581,23.346a9.711,9.711,0,1,1,9.711,9.711,9.71,9.71,0,0,1-9.711-9.711" transform="translate(229.609 25.54)"/>
      <path id="Path_5326" data-name="Path 5326" d="M122.581,9.71a9.711,9.711,0,1,1,9.711,9.711,9.71,9.71,0,0,1-9.711-9.711" transform="translate(229.609 -0.002)"/>
      <path id="Path_5327" data-name="Path 5327" d="M259.21,391.5a9.711,9.711,0,1,1,9.711,9.711,9.71,9.71,0,0,1-9.711-9.711" transform="translate(485.533 715.14)"/>
      <path id="Path_5328" data-name="Path 5328" d="M259.21,377.866a9.711,9.711,0,1,1,9.711,9.711,9.71,9.71,0,0,1-9.711-9.711" transform="translate(485.533 689.6)"/>
      <path id="Path_5329" data-name="Path 5329" d="M259.21,364.23a9.711,9.711,0,1,1,9.711,9.711,9.71,9.71,0,0,1-9.711-9.711" transform="translate(485.533 664.058)"/>
      <path id="Path_5330" data-name="Path 5330" d="M259.21,350.6a9.711,9.711,0,1,1,9.711,9.711,9.71,9.71,0,0,1-9.711-9.711" transform="translate(485.533 638.518)"/>
      <path id="Path_5331" data-name="Path 5331" d="M259.21,336.96a9.711,9.711,0,1,1,9.711,9.711,9.71,9.71,0,0,1-9.711-9.711" transform="translate(485.533 612.978)"/>
      <path id="Path_5332" data-name="Path 5332" d="M259.21,323.324a9.711,9.711,0,1,1,9.711,9.711,9.71,9.71,0,0,1-9.711-9.711" transform="translate(485.533 587.436)"/>
      <path id="Path_5333" data-name="Path 5333" d="M259.21,309.689a9.711,9.711,0,1,1,9.711,9.711,9.71,9.71,0,0,1-9.711-9.711" transform="translate(485.533 561.896)"/>
      <path id="Path_5334" data-name="Path 5334" d="M259.21,296.053a9.711,9.711,0,1,1,9.711,9.711,9.71,9.71,0,0,1-9.711-9.711" transform="translate(485.533 536.354)"/>
      <path id="Path_5335" data-name="Path 5335" d="M259.21,282.418a9.711,9.711,0,1,1,9.711,9.711,9.71,9.71,0,0,1-9.711-9.711" transform="translate(485.533 510.814)"/>
      <path id="Path_5336" data-name="Path 5336" d="M259.21,268.783a9.711,9.711,0,1,1,9.711,9.711,9.71,9.71,0,0,1-9.711-9.711" transform="translate(485.533 485.274)"/>
      <path id="Path_5337" data-name="Path 5337" d="M259.21,255.147a9.711,9.711,0,1,1,9.711,9.711,9.71,9.71,0,0,1-9.711-9.711" transform="translate(485.533 459.732)"/>
      <path id="Path_5338" data-name="Path 5338" d="M259.21,241.512a9.711,9.711,0,1,1,9.711,9.711,9.71,9.71,0,0,1-9.711-9.711" transform="translate(485.533 434.192)"/>
      <path id="Path_5339" data-name="Path 5339" d="M259.21,227.877a9.711,9.711,0,1,1,9.711,9.711,9.71,9.71,0,0,1-9.711-9.711" transform="translate(485.533 408.652)"/>
      <path id="Path_5340" data-name="Path 5340" d="M259.21,214.241a9.711,9.711,0,1,1,9.711,9.711,9.71,9.71,0,0,1-9.711-9.711" transform="translate(485.533 383.11)"/>
      <path id="Path_5341" data-name="Path 5341" d="M259.21,200.606a9.711,9.711,0,1,1,9.711,9.711,9.71,9.71,0,0,1-9.711-9.711" transform="translate(485.533 357.57)"/>
      <path id="Path_5342" data-name="Path 5342" d="M259.21,186.97a9.711,9.711,0,1,1,9.711,9.711,9.71,9.71,0,0,1-9.711-9.711" transform="translate(485.533 332.028)"/>
      <path id="Path_5343" data-name="Path 5343" d="M259.21,173.335a9.711,9.711,0,1,1,9.711,9.711,9.71,9.71,0,0,1-9.711-9.711" transform="translate(485.533 306.488)"/>
      <path id="Path_5344" data-name="Path 5344" d="M259.21,159.7a9.711,9.711,0,1,1,9.711,9.711,9.71,9.71,0,0,1-9.711-9.711" transform="translate(485.533 280.948)"/>
      <path id="Path_5345" data-name="Path 5345" d="M259.21,146.064a9.711,9.711,0,1,1,9.711,9.711,9.71,9.71,0,0,1-9.711-9.711" transform="translate(485.533 255.406)"/>
      <path id="Path_5346" data-name="Path 5346" d="M259.21,132.429a9.711,9.711,0,1,1,9.711,9.711,9.71,9.71,0,0,1-9.711-9.711" transform="translate(485.533 229.866)"/>
      <path id="Path_5347" data-name="Path 5347" d="M259.21,118.791a9.711,9.711,0,1,1,9.711,9.711,9.71,9.71,0,0,1-9.711-9.711" transform="translate(485.533 204.326)"/>
      <path id="Path_5348" data-name="Path 5348" d="M259.21,105.158a9.711,9.711,0,1,1,9.711,9.711,9.71,9.71,0,0,1-9.711-9.711" transform="translate(485.533 178.784)"/>
      <path id="Path_5349" data-name="Path 5349" d="M259.21,91.523a9.711,9.711,0,1,1,9.711,9.711,9.71,9.71,0,0,1-9.711-9.711" transform="translate(485.533 153.244)"/>
      <path id="Path_5350" data-name="Path 5350" d="M259.21,77.887a9.711,9.711,0,1,1,9.711,9.711,9.71,9.71,0,0,1-9.711-9.711" transform="translate(485.533 127.702)"/>
      <path id="Path_5351" data-name="Path 5351" d="M259.21,64.252a9.711,9.711,0,1,1,9.711,9.711,9.71,9.71,0,0,1-9.711-9.711" transform="translate(485.533 102.162)"/>
      <path id="Path_5352" data-name="Path 5352" d="M259.21,50.617a9.711,9.711,0,1,1,9.711,9.711,9.71,9.71,0,0,1-9.711-9.711" transform="translate(485.533 76.622)"/>
      <path id="Path_5353" data-name="Path 5353" d="M259.21,36.981a9.711,9.711,0,1,1,9.711,9.711,9.71,9.71,0,0,1-9.711-9.711" transform="translate(485.533 51.08)"/>
      <path id="Path_5354" data-name="Path 5354" d="M259.21,23.346a9.711,9.711,0,1,1,9.711,9.711,9.71,9.71,0,0,1-9.711-9.711" transform="translate(485.533 25.54)"/>
      <path id="Path_5355" data-name="Path 5355" d="M259.21,9.71a9.711,9.711,0,1,1,9.711,9.711A9.71,9.71,0,0,1,259.21,9.71" transform="translate(485.533 -0.002)"/>
      <path id="Path_5356" data-name="Path 5356" d="M272.306,19.71h-3.448c-63.439.919-115.27,52.607-116.16,116.045A117.84,117.84,0,1,0,272.306,19.71M270.094,215A77.316,77.316,0,1,1,347.41,137.68,77.323,77.323,0,0,1,270.094,215" transform="translate(285.997 36.919)" fill="#eb733a"/>
      <path id="Path_5357" data-name="Path 5357" d="M272.306,147.487h-3.448c-63.439.919-115.27,52.607-116.16,116.045A117.84,117.84,0,1,0,272.306,147.487m-2.212,195.286a77.316,77.316,0,1,1,77.316-77.316,77.323,77.323,0,0,1-77.316,77.316" transform="translate(285.997 276.261)" fill="#eb733a"/>
      <path id="Path_5358" data-name="Path 5358" d="M272.306,276.769h-3.448c-63.439.919-115.27,52.607-116.16,116.045A117.84,117.84,0,1,0,272.306,276.769m-2.212,195.286a77.316,77.316,0,1,1,77.316-77.316,77.323,77.323,0,0,1-77.316,77.316" transform="translate(285.997 518.423)" fill="#eb733a"/>
      <path id="Path_5359" data-name="Path 5359" d="M139,276.769h-3.448c-63.439.919-115.27,52.607-116.16,116.045A117.84,117.84,0,1,0,139,276.769m-2.212,195.286a77.316,77.316,0,1,1,77.316-77.316,77.323,77.323,0,0,1-77.316,77.316" transform="translate(36.304 518.423)" fill="#eb733a"/>
      <path id="Path_5360" data-name="Path 5360" d="M402.117,19.71h-3.448c-63.439.919-115.27,52.607-116.16,116.045A117.84,117.84,0,1,0,402.117,19.71M399.9,215A77.316,77.316,0,1,1,477.22,137.68,77.323,77.323,0,0,1,399.9,215" transform="translate(529.149 36.919)" fill="#eb733a"/>
      <path id="Path_5361" data-name="Path 5361" d="M210.235,196.528a14.026,14.026,0,0,1-25.2,8.5l-65.421-65.421L53.477,205.722a13.88,13.88,0,0,1-10.6,4.856,14.052,14.052,0,0,1-14.05-14.05,13.862,13.862,0,0,1,5.66-11.234l65.421-65.421L34.371,54.366A14.041,14.041,0,1,1,53.477,34a1.859,1.859,0,0,1,.23.259l65.909,65.909,65.249-65.249A14.032,14.032,0,1,1,206.127,53.1l-.345.345-66.455,66.427L205.121,185.7a1.86,1.86,0,0,1,.259.23,13.881,13.881,0,0,1,4.856,10.6" transform="translate(53.995 54.583)"/>
      <path id="Path_5362" data-name="Path 5362" d="M210.235,323.253a14.026,14.026,0,0,1-25.2,8.5l-65.421-65.421L53.477,332.447a13.88,13.88,0,0,1-10.6,4.856,14.052,14.052,0,0,1-14.05-14.05,13.862,13.862,0,0,1,5.66-11.234L99.907,246.6,34.371,181.091a14.041,14.041,0,1,1,19.106-20.37,1.862,1.862,0,0,1,.23.259l65.909,65.91,65.249-65.249a14.032,14.032,0,1,1,21.261,18.187l-.345.345L139.326,246.6l65.795,65.823a1.861,1.861,0,0,1,.259.23,13.88,13.88,0,0,1,4.856,10.6" transform="translate(53.995 291.954)"/>
      <path id="Path_5363" data-name="Path 5363" d="M473.2,323.253a14.026,14.026,0,0,1-25.2,8.5l-65.421-65.421-66.139,66.111a13.88,13.88,0,0,1-10.6,4.856,14.052,14.052,0,0,1-14.05-14.05,13.862,13.862,0,0,1,5.66-11.234L362.871,246.6l-65.536-65.507a14.041,14.041,0,1,1,19.106-20.37,1.868,1.868,0,0,1,.23.259l65.909,65.91,65.249-65.249a14.032,14.032,0,1,1,21.261,18.187l-.345.345L402.29,246.6l65.795,65.823a1.86,1.86,0,0,1,.259.23,13.88,13.88,0,0,1,4.856,10.6" transform="translate(546.559 291.954)"/>
      <path id="Path_5364" data-name="Path 5364" d="M473.2,453.594a14.026,14.026,0,0,1-25.2,8.5l-65.421-65.421-66.139,66.111a13.88,13.88,0,0,1-10.6,4.856,14.052,14.052,0,0,1-14.05-14.05,13.862,13.862,0,0,1,5.66-11.234l65.421-65.421-65.536-65.507a14.041,14.041,0,1,1,19.106-20.37,1.864,1.864,0,0,1,.23.259l65.909,65.909,65.249-65.249a14.032,14.032,0,1,1,21.261,18.187l-.345.345L402.29,376.939l65.795,65.823a1.851,1.851,0,0,1,.259.23,13.88,13.88,0,0,1,4.856,10.6" transform="translate(546.559 536.099)"/>
    </g>
  </g>
</svg>
