<svg xmlns="http://www.w3.org/2000/svg" xmlns:xlink="http://www.w3.org/1999/xlink" width="155" height="191" viewBox="0 0 155 191">
  <defs>
    <clipPath id="clip-coin_1">
      <rect width="155" height="191"/>
    </clipPath>
  </defs>
  <g id="coin_1" clip-path="url(#clip-coin_1)">
    <g id="coin_1-2" data-name="coin_1" transform="translate(0.579 0.032)">
      <g id="Layer_1">
        <path id="Path_3043" data-name="Path 3043" d="M134.23,163.02a24.739,24.739,0,0,0-6.71-4.94,60.366,60.366,0,0,0-10.2-4.17,110.919,110.919,0,0,0-13.06-3.22c-2.4-.45-4.89-.86-7.47-1.21s-5.23-.66-7.96-.9c-.83-.08-1.68-.13-2.52-.2-1.93-.15-3.88-.28-5.87-.37-2.86-.13-5.78-.21-8.74-.22a190.578,190.578,0,0,0-25.01,1.51,125.626,125.626,0,0,0-20.59,4.29,49.95,49.95,0,0,0-14.14,6.47c-3.41,2.46-5.37,5.18-5.53,8.06-.14,2.67,1.28,5.24,4.02,7.61a39.558,39.558,0,0,0,11.91,6.47,106.788,106.788,0,0,0,18.22,4.74c4.18.74,8.64,1.33,13.31,1.77,3.09.29,6.27.51,9.52.65.67.03,1.33.05,2,.08l2.02.06c.68.02,1.36.03,2.04.04s1.37.02,2.06.02a188.953,188.953,0,0,0,25.76-1.61q5.49-.735,10.41-1.78a102.814,102.814,0,0,0,10.47-2.74,58.131,58.131,0,0,0,9.38-3.87,29.841,29.841,0,0,0,4.46-2.84c3.2-2.51,4.91-5.27,4.77-8.16a8.9,8.9,0,0,0-2.57-5.52Z" fill="#a6a6a6" opacity="0.5"/>
        <path id="Path_3044" data-name="Path 3044" d="M63.26,163.45c-4.46-.42-8.67-1-12.49-1.74a76.991,76.991,0,0,1-12.13-3.25c-.42-.16-.84-.32-1.24-.48-.8-.32-1.56-.66-2.27-1a20.534,20.534,0,0,1-4.38-2.72,8.008,8.008,0,0,1-2.35-2.96,4.367,4.367,0,0,1-.34-1.87,1.477,1.477,0,0,1,.01-.21,1.517,1.517,0,0,1,.03-.21,1.553,1.553,0,0,1,.04-.21c.02-.07.03-.14.05-.21h0a5.1,5.1,0,0,1-.19-.5,4.767,4.767,0,0,1-.13-.51,4.462,4.462,0,0,1-.07-.51,3.009,3.009,0,0,1,0-.52c.09-2.01,1.6-3.91,4.27-5.63a41.363,41.363,0,0,1,11.11-4.53,109.025,109.025,0,0,1,16.26-3.01,168.587,168.587,0,0,1,19.8-1.05c2.7,0,5.35.08,7.93.2q3.03-1.92,6.38-3.69c-1.82-.15-3.66-.28-5.54-.37-2.7-.13-5.45-.21-8.25-.22a170.177,170.177,0,0,0-23.62,1.51,112.427,112.427,0,0,0-19.44,4.29,45.862,45.862,0,0,0-13.35,6.47c-3.22,2.46-5.07,5.18-5.22,8.06-.14,2.67,1.21,5.24,3.8,7.61a36.685,36.685,0,0,0,11.25,6.47,96.4,96.4,0,0,0,17.21,4.74c3.95.74,8.16,1.33,12.57,1.77-.01-.4-.03-.81-.02-1.21a29.628,29.628,0,0,1,.36-4.52Z" fill="#fd0"/>
        <path id="Path_3045" data-name="Path 3045" d="M141.22,149.41l-.21,18.97a8.388,8.388,0,0,1-1.31,4.3,15.79,15.79,0,0,1-3.71,4.01,32.961,32.961,0,0,1-5.86,3.62,60.306,60.306,0,0,1-7.77,3.14l.17-19.2a61.679,61.679,0,0,0,7.79-3.09,32.669,32.669,0,0,0,5.87-3.57,15.617,15.617,0,0,0,3.71-3.95,8.172,8.172,0,0,0,1.32-4.24" fill="#b56600"/>
        <path id="Path_3046" data-name="Path 3046" d="M43.65,165.97l.02,19.23a84.215,84.215,0,0,1-10.55-3.36,44.85,44.85,0,0,1-8.04-4.1,19.61,19.61,0,0,1-5.12-4.68,8.726,8.726,0,0,1-1.8-5.09l-.08-18.98a8.452,8.452,0,0,0,1.81,5.02,19.356,19.356,0,0,0,5.13,4.61,44.782,44.782,0,0,0,8.06,4.04,82.661,82.661,0,0,0,10.57,3.31" fill="#b56600"/>
        <path id="Path_3047" data-name="Path 3047" d="M56.9,168.47c-2.37-.33-4.67-.7-6.88-1.12s-4.34-.88-6.37-1.39l.02,19.23q3.045.765,6.36,1.41t6.86,1.14c.87.12,1.77.23,2.66.34l.07-19.27c-.91-.11-1.82-.22-2.71-.34Z" fill="#d48d00"/>
        <path id="Path_3048" data-name="Path 3048" d="M113.35,185.93a91.48,91.48,0,0,0,9-2.47l.17-19.2c-2.77.9-5.79,1.72-9.02,2.43-2.38.53-4.88.99-7.48,1.4l-.07,19.25c2.57-.41,5.04-.89,7.4-1.42Z" fill="#d48d00"/>
        <path id="Path_3049" data-name="Path 3049" d="M71.87,189.12c.63.03,1.26.05,1.89.08l1.9.06c.64.02,1.28.03,1.92.04s1.29.02,1.94.02c4.17.01,8.24-.11,12.18-.37s7.73-.65,11.36-1.16c.98-.14,1.94-.28,2.9-.44l.07-19.25c-.94.15-1.88.29-2.84.42-3.63.5-7.44.88-11.39,1.14s-8.03.38-12.2.37c-.65,0-1.3,0-1.94-.02-.64,0-1.29-.02-1.92-.04l-1.91-.06c-.63-.02-1.26-.05-1.89-.08-2.62-.12-5.19-.29-7.69-.52-1.56-.14-3.1-.31-4.61-.49l-.07,19.27c1.53.19,3.07.36,4.64.5q3.75.345,7.68.53Z" fill="#e49c00"/>
        <path id="Path_3050" data-name="Path 3050" d="M132.49,160.02a27.782,27.782,0,0,0,4.21-2.84c3.03-2.51,4.64-5.27,4.51-8.16a9.164,9.164,0,0,0-2.42-5.52,23.513,23.513,0,0,0-6.34-4.94,55.06,55.06,0,0,0-9.64-4.17,99.745,99.745,0,0,0-12.34-3.22c-2.26-.45-4.62-.86-7.05-1.21s-4.94-.66-7.52-.9c-.78-.08-1.58-.13-2.38-.2q-3.345,1.77-6.38,3.69c4.14.2,8.12.53,11.86.99a108.906,108.906,0,0,1,16.24,3.12,41.287,41.287,0,0,1,11.08,4.61c2.65,1.74,3.38,3.65,3.46,5.65a4.348,4.348,0,0,1-.04.72,4.65,4.65,0,0,1-.16.72,4.277,4.277,0,0,1-.28.72c-.11.24.52.48.37.72a4.9,4.9,0,0,1-1.03,3.04,10.235,10.235,0,0,1,3.83,7.19Z" fill="#ffee7a"/>
        <path id="Path_3051" data-name="Path 3051" d="M113.74,166.63a10.219,10.219,0,0,1-1.77-5.8h0a114.49,114.49,0,0,1-13.16,2.29,168.806,168.806,0,0,1-19.99,1.09h0c-1.09,0-2.18-.02-3.26-.04s-2.14-.06-3.2-.1-2.1-.09-3.14-.15-2.06-.13-3.07-.21c-.98-.07-1.94-.17-2.89-.26a29.628,29.628,0,0,0-.36,4.52c0,.41,0,.81.02,1.21q4.38.435,8.99.65c.63.03,1.26.05,1.89.08l1.91.06c.64.02,1.28.03,1.92.04s1.29.02,1.94.02a168.714,168.714,0,0,0,24.33-1.61c3.46-.49,6.74-1.09,9.83-1.78Z" fill="#ffee7a"/>
        <path id="Path_3052" data-name="Path 3052" d="M113.74,166.63a92.531,92.531,0,0,0,9.89-2.74,53.179,53.179,0,0,0,8.86-3.87,10.272,10.272,0,0,0-3.83-7.19,11.318,11.318,0,0,1-2.78,2.59,38.33,38.33,0,0,1-10.83,4.61c-.98.28-2.02.55-3.08.8h0a10.3,10.3,0,0,0,1.77,5.8Z" fill="#ffffb7"/>
        <path id="Path_3053" data-name="Path 3053" d="M130.72,149.22a6.629,6.629,0,0,0-1.4-5.25,17.79,17.79,0,0,0-5.86-4.6,50.641,50.641,0,0,0-9.78-3.73,101.594,101.594,0,0,0-13.02-2.63c-1.63-.23-3.31-.43-5.02-.61s-3.48-.33-5.28-.45-3.63-.21-5.5-.28c-.44-.01-.89-.01-1.34-.02-1.44-.04-2.87-.07-4.34-.08a161.459,161.459,0,0,0-20.58,1.24,100.706,100.706,0,0,0-16.65,3.45,37,37,0,0,0-11.01,5.18c-2.55,1.97-3.95,4.14-3.99,6.45v.25a2.09,2.09,0,0,0,.01.25,2.275,2.275,0,0,0,.02.26,1.66,1.66,0,0,0,.03.22h0l103.69.34Z" fill="#c27400"/>
        <path id="Path_3054" data-name="Path 3054" d="M27.06,147.68a6.629,6.629,0,0,0,1.4,5.25,17.79,17.79,0,0,0,5.86,4.6,50.641,50.641,0,0,0,9.78,3.73,101.594,101.594,0,0,0,13.02,2.63c1.63.23,3.31.43,5.02.61s3.48.33,5.28.45,3.63.21,5.5.28c.44.01.89.01,1.34.02,1.44.04,2.87.07,4.34.08a161.459,161.459,0,0,0,20.58-1.24,100.706,100.706,0,0,0,16.65-3.45,37,37,0,0,0,11.01-5.18c2.55-1.97,3.95-4.14,3.99-6.45v-.25a2.091,2.091,0,0,0-.01-.25,2.273,2.273,0,0,0-.02-.26,1.661,1.661,0,0,0-.03-.22h0l-103.69-.34Z" fill="#ffffb7"/>
        <path id="Path_3055" data-name="Path 3055" d="M78.93,133.94a172.78,172.78,0,0,0-19.33.99,114.461,114.461,0,0,0-16.06,2.84,46.054,46.054,0,0,0-11.32,4.31c-2.82,1.64-4.6,3.45-5.07,5.38-.02.07-.03.14-.05.21s-.03.14-.04.21l-.03.21c0,.07-.01.14-.01.21a4.4,4.4,0,0,0,.35,1.91,8.133,8.133,0,0,0,2.4,3.02A21.54,21.54,0,0,0,34.24,156c.72.35,1.5.69,2.31,1.02.41.17.83.33,1.26.49a79.333,79.333,0,0,0,12.38,3.31c3.9.75,8.19,1.34,12.74,1.77,1.05-6.8,4.36-13.25,9.53-19.14l4.61-4.67A68.341,68.341,0,0,1,82.98,134c-1.34-.03-2.69-.07-4.06-.07Z" fill="#fac500"/>
        <path id="Path_3056" data-name="Path 3056" d="M115.78,159.1a39.082,39.082,0,0,0,11.05-4.71c2.57-1.77,3.96-3.72,3.89-5.77a6.372,6.372,0,0,0-2.49-4.34,23.785,23.785,0,0,0-6.56-3.81,65.369,65.369,0,0,0-9.92-3.1,120.9,120.9,0,0,0-12.59-2.21q-2.325-.285-4.77-.51c-1.62-.15-3.28-.28-4.97-.38s-3.41-.19-5.16-.24c-.41-.01-.84-.01-1.25-.02a70.274,70.274,0,0,0-5.91,4.78s-4.24,4.48-4.61,4.67c-5.16,5.89-8.48,12.34-9.53,19.14.98.09,1.95.19,2.95.26,1.03.08,2.08.15,3.13.21s2.12.11,3.2.16,2.17.08,3.26.1,2.2.04,3.32.04a169.02,169.02,0,0,0,20.39-1.11,107.56,107.56,0,0,0,16.57-3.16Z" fill="#fad351"/>
        <path id="Path_3057" data-name="Path 3057" d="M68.67,150.87c12.49-.19,19.84-2.44,19.86-5.92l9.12-.08v-1.53l-.86-.18-8.78.09c-.87-1.56-2.71-2.66-4.97-3.41l12-.16v-1.53l-.86-.18-29,.43-.99.65v1.53l5.25-.07c6.43-.08,10.37.85,11.56,2.8l-18.13.18-.76.14v1.53L81.36,145c-.47,2.34-5.79,3.9-15.86,3.96l-5.13.03-.94.55v1.53c.68.29,1.33.57,2,.85,7.63,2.98,14.67,5.66,23.02,8.56H95.93v-1.54c-6.22-2.05-14.4-3.32-19.56-5.16-2.74-1.04-5.31-2.03-7.69-2.93Z" fill="#c27400"/>
        <path id="Path_3058" data-name="Path 3058" d="M84.44,158.96H95.92c-7.14-2.33-13.74-4.62-19.56-6.69-5.39-.48-10.39-1.11-14.94-1.87C69.05,153.38,76.09,156.06,84.44,158.96Z" fill="#ffed45"/>
        <path id="Path_3059" data-name="Path 3059" d="M88.53,143.42l9.12-.08-.86-1.71-8.78.09c-.87-1.56-2.71-2.66-4.97-3.41l12-.16-.86-1.71-29,.43-.99,2.18,5.25-.07c6.43-.08,10.37.85,11.56,2.8l-18.13.18-.76,1.68,19.25-.16c-.47,2.34-5.79,3.9-15.86,3.96l-5.13.03-.94,2.08c.68.29,1.33.57,2,.85,4.55.75,9.55,1.38,14.94,1.87-2.74-1.04-5.31-2.03-7.69-2.93,12.49-.19,19.84-2.44,19.86-5.92Z" fill="#fff1a1"/>
        <path id="Path_3060" data-name="Path 3060" d="M60.96,142.24c-4.46-.42-8.67-1-12.49-1.74a76.991,76.991,0,0,1-12.13-3.25c-.42-.16-.84-.32-1.24-.48-.8-.32-1.56-.66-2.27-1a20.534,20.534,0,0,1-4.38-2.72,8.008,8.008,0,0,1-2.35-2.96,4.367,4.367,0,0,1-.34-1.87,1.477,1.477,0,0,1,.01-.21,1.517,1.517,0,0,1,.03-.21,1.552,1.552,0,0,1,.04-.21,1.6,1.6,0,0,1,.05-.21h0a5.1,5.1,0,0,1-.19-.5,4.767,4.767,0,0,1-.13-.51,4.461,4.461,0,0,1-.07-.51,3.009,3.009,0,0,1,0-.52c.09-2.01,1.6-3.91,4.27-5.63a41.363,41.363,0,0,1,11.11-4.53,109.026,109.026,0,0,1,16.26-3.01,168.587,168.587,0,0,1,19.8-1.05c2.7,0,5.35.08,7.94.2q3.03-1.92,6.38-3.69c-1.82-.15-3.66-.28-5.54-.37-2.7-.13-5.45-.21-8.25-.22a170.176,170.176,0,0,0-23.62,1.51,112.426,112.426,0,0,0-19.44,4.29,45.861,45.861,0,0,0-13.35,6.47c-3.22,2.46-5.07,5.18-5.22,8.06-.14,2.67,1.21,5.24,3.8,7.61a36.685,36.685,0,0,0,11.25,6.47,96.4,96.4,0,0,0,17.21,4.74c3.95.74,8.16,1.33,12.57,1.77-.01-.4-.03-.81-.02-1.21a29.628,29.628,0,0,1,.36-4.52Z" fill="#fd0"/>
        <path id="Path_3061" data-name="Path 3061" d="M138.92,128.2l-.21,18.97a8.388,8.388,0,0,1-1.31,4.3,15.79,15.79,0,0,1-3.71,4.01,32.961,32.961,0,0,1-5.86,3.62,60.306,60.306,0,0,1-7.77,3.14l.17-19.2a61.679,61.679,0,0,0,7.79-3.09,32.669,32.669,0,0,0,5.87-3.57,15.617,15.617,0,0,0,3.71-3.95,8.172,8.172,0,0,0,1.32-4.24" fill="#b56600"/>
        <path id="Path_3062" data-name="Path 3062" d="M41.35,144.75l.02,19.23a84.215,84.215,0,0,1-10.55-3.36,44.85,44.85,0,0,1-8.04-4.1,19.61,19.61,0,0,1-5.12-4.68,8.726,8.726,0,0,1-1.8-5.09l-.08-18.98a8.452,8.452,0,0,0,1.81,5.02,19.356,19.356,0,0,0,5.13,4.61,44.782,44.782,0,0,0,8.06,4.04,82.661,82.661,0,0,0,10.57,3.31" fill="#b56600"/>
        <path id="Path_3063" data-name="Path 3063" d="M54.6,147.26c-2.37-.33-4.67-.7-6.88-1.12s-4.34-.88-6.37-1.39l.02,19.23q3.045.765,6.36,1.41t6.86,1.14c.87.12,1.77.23,2.66.34l.07-19.27c-.91-.11-1.82-.22-2.71-.34Z" fill="#d48d00"/>
        <path id="Path_3064" data-name="Path 3064" d="M111.05,164.72a91.48,91.48,0,0,0,9-2.47l.17-19.2c-2.77.9-5.79,1.72-9.02,2.43-2.38.53-4.88.99-7.48,1.4l-.07,19.25c2.57-.41,5.04-.89,7.4-1.42Z" fill="#d48d00"/>
        <path id="Path_3065" data-name="Path 3065" d="M69.57,167.91c.63.03,1.26.05,1.89.08l1.9.06c.64.02,1.28.03,1.92.04s1.29.02,1.94.02c4.17.01,8.24-.11,12.18-.37s7.73-.65,11.36-1.16c.98-.14,1.94-.28,2.9-.44l.07-19.25c-.94.15-1.88.29-2.84.42-3.63.5-7.44.88-11.39,1.14s-8.03.38-12.2.37c-.65,0-1.3,0-1.94-.02s-1.29-.02-1.92-.04l-1.91-.06c-.63-.02-1.26-.05-1.89-.08-2.62-.12-5.19-.29-7.69-.52-1.56-.14-3.1-.31-4.61-.49l-.07,19.27c1.53.19,3.07.36,4.64.5q3.75.345,7.68.53Z" fill="#e49c00"/>
        <path id="Path_3066" data-name="Path 3066" d="M130.19,138.81a27.782,27.782,0,0,0,4.21-2.84c3.03-2.51,4.64-5.27,4.51-8.16a9.164,9.164,0,0,0-2.42-5.52,23.513,23.513,0,0,0-6.34-4.94,55.06,55.06,0,0,0-9.64-4.17,99.747,99.747,0,0,0-12.34-3.22c-2.26-.45-4.62-.86-7.05-1.21s-4.94-.66-7.52-.9c-.78-.08-1.58-.14-2.38-.2q-3.345,1.77-6.38,3.69c4.14.2,8.12.53,11.86.99a108.9,108.9,0,0,1,16.24,3.12,41.287,41.287,0,0,1,11.08,4.61c2.65,1.74,3.38,3.65,3.46,5.65a4.347,4.347,0,0,1-.04.72,4.65,4.65,0,0,1-.16.72,4.277,4.277,0,0,1-.28.72c-.11.24.52.48.37.72a4.9,4.9,0,0,1-1.03,3.04,10.235,10.235,0,0,1,3.83,7.19Z" fill="#ffee7a"/>
        <path id="Path_3067" data-name="Path 3067" d="M111.44,145.42a10.219,10.219,0,0,1-1.77-5.8h0a114.49,114.49,0,0,1-13.16,2.29A168.806,168.806,0,0,1,76.52,143h0c-1.09,0-2.18-.02-3.26-.04s-2.14-.06-3.2-.1-2.1-.09-3.14-.15-2.06-.13-3.07-.21c-.98-.07-1.94-.17-2.89-.26a29.628,29.628,0,0,0-.36,4.52c0,.41,0,.81.02,1.21q4.38.435,8.99.65c.63.03,1.26.05,1.89.08l1.91.06c.64.02,1.28.03,1.92.04s1.29.02,1.94.02a168.714,168.714,0,0,0,24.33-1.61c3.46-.49,6.74-1.09,9.83-1.78Z" fill="#ffee7a"/>
        <path id="Path_3068" data-name="Path 3068" d="M111.44,145.42a92.531,92.531,0,0,0,9.89-2.74,53.179,53.179,0,0,0,8.86-3.87,10.272,10.272,0,0,0-3.83-7.19,11.318,11.318,0,0,1-2.78,2.59,38.33,38.33,0,0,1-10.83,4.61c-.98.28-2.02.55-3.08.8h0a10.3,10.3,0,0,0,1.77,5.8Z" fill="#ffffb7"/>
        <path id="Path_3069" data-name="Path 3069" d="M128.42,128.01a6.629,6.629,0,0,0-1.4-5.25,17.79,17.79,0,0,0-5.86-4.6,50.64,50.64,0,0,0-9.78-3.73,101.6,101.6,0,0,0-13.02-2.63c-1.63-.23-3.31-.43-5.02-.61s-3.48-.33-5.28-.45-3.63-.21-5.5-.28c-.44-.01-.89-.01-1.34-.02-1.44-.04-2.87-.07-4.34-.08A161.46,161.46,0,0,0,56.3,111.6a100.706,100.706,0,0,0-16.65,3.45,37,37,0,0,0-11.01,5.18c-2.55,1.97-3.95,4.14-3.99,6.45v.25a2.09,2.09,0,0,0,.01.25,2.275,2.275,0,0,0,.02.26,1.66,1.66,0,0,0,.03.22h0L128.4,128Z" fill="#c27400"/>
        <path id="Path_3070" data-name="Path 3070" d="M24.76,126.47a6.629,6.629,0,0,0,1.4,5.25,17.79,17.79,0,0,0,5.86,4.6,50.641,50.641,0,0,0,9.78,3.73,101.594,101.594,0,0,0,13.02,2.63c1.63.23,3.31.43,5.02.61s3.48.33,5.28.45,3.63.21,5.5.28c.44.01.89.01,1.34.02,1.44.04,2.87.07,4.34.08a161.459,161.459,0,0,0,20.58-1.24,100.706,100.706,0,0,0,16.65-3.45,37,37,0,0,0,11.01-5.18c2.55-1.97,3.95-4.14,3.99-6.45v-.25a2.35,2.35,0,0,0-.01-.26,2.273,2.273,0,0,0-.02-.26,1.661,1.661,0,0,0-.03-.22h0l-103.69-.34Z" fill="#ffffb7"/>
        <path id="Path_3071" data-name="Path 3071" d="M76.63,112.72a172.784,172.784,0,0,0-19.33.99,114.46,114.46,0,0,0-16.06,2.84,46.054,46.054,0,0,0-11.32,4.31c-2.82,1.64-4.6,3.45-5.07,5.38-.02.07-.03.14-.05.21s-.03.14-.04.21l-.03.21c0,.07-.01.14-.01.21a4.4,4.4,0,0,0,.35,1.91,8.133,8.133,0,0,0,2.4,3.02,21.54,21.54,0,0,0,4.47,2.77c.72.35,1.5.69,2.31,1.02.41.17.83.33,1.26.49a79.333,79.333,0,0,0,12.38,3.31c3.9.75,8.19,1.34,12.74,1.77,1.05-6.8,4.36-13.25,9.53-19.14l4.61-4.67a68.34,68.34,0,0,1,5.91-4.78c-1.34-.03-2.69-.07-4.06-.07Z" fill="#fac500"/>
        <path id="Path_3072" data-name="Path 3072" d="M113.48,137.89a39.082,39.082,0,0,0,11.05-4.71c2.57-1.77,3.96-3.72,3.89-5.77a6.372,6.372,0,0,0-2.49-4.34,23.785,23.785,0,0,0-6.56-3.81,65.369,65.369,0,0,0-9.92-3.1,120.894,120.894,0,0,0-12.59-2.21q-2.325-.285-4.77-.51c-1.62-.15-3.28-.28-4.97-.38s-3.41-.19-5.16-.24c-.41-.01-.84-.01-1.25-.02a70.274,70.274,0,0,0-5.91,4.78s-4.24,4.48-4.61,4.67c-5.16,5.89-8.48,12.34-9.53,19.14.98.09,1.95.19,2.95.26,1.03.08,2.08.15,3.13.21s2.12.11,3.2.16,2.17.08,3.26.1,2.2.04,3.32.04a169.02,169.02,0,0,0,20.39-1.11,107.56,107.56,0,0,0,16.57-3.16Z" fill="#fad351"/>
        <path id="Path_3073" data-name="Path 3073" d="M66.37,129.66c12.49-.19,19.84-2.44,19.86-5.92l9.12-.08v-1.53l-.86-.18-8.78.09c-.87-1.56-2.71-2.66-4.97-3.41l12-.16v-1.53l-.86-.18-29,.43-.99.65v1.53l5.25-.07c6.43-.08,10.37.85,11.56,2.8l-18.13.18-.76.14v1.53l19.25-.16c-.47,2.34-5.79,3.9-15.86,3.96l-5.13.03-.94.55v1.53c.68.29,1.33.57,2,.85,7.63,2.98,14.67,5.66,23.02,8.56H93.63v-1.54c-6.22-2.05-14.4-3.32-19.56-5.16-2.74-1.04-5.31-2.03-7.69-2.93Z" fill="#c27400"/>
        <path id="Path_3074" data-name="Path 3074" d="M82.15,137.75H93.63c-7.14-2.33-13.74-4.62-19.56-6.69-5.39-.48-10.39-1.11-14.94-1.87,7.63,2.98,14.67,5.66,23.02,8.56Z" fill="#ffed45"/>
        <path id="Path_3075" data-name="Path 3075" d="M86.23,122.21l9.12-.08-.86-1.71-8.78.09c-.87-1.56-2.71-2.66-4.97-3.41l12-.16-.86-1.71-29,.43-.99,2.18,5.25-.07c6.43-.08,10.37.85,11.56,2.8l-18.13.18-.76,1.68,19.25-.16c-.47,2.34-5.79,3.9-15.86,3.96l-5.13.03-.94,2.08c.68.29,1.33.57,2,.85,4.55.75,9.55,1.38,14.94,1.87-2.74-1.04-5.31-2.03-7.69-2.93,12.49-.19,19.84-2.44,19.86-5.92Z" fill="#fff1a1"/>
        <path id="Path_3076" data-name="Path 3076" d="M68.62,121.02c-4.46-.42-8.67-1-12.49-1.74A76.99,76.99,0,0,1,44,116.03c-.42-.16-.84-.32-1.24-.48-.8-.32-1.56-.66-2.27-1a20.534,20.534,0,0,1-4.38-2.72,8.008,8.008,0,0,1-2.35-2.96,4.367,4.367,0,0,1-.34-1.87,1.477,1.477,0,0,1,.01-.21,1.517,1.517,0,0,1,.03-.21,1.552,1.552,0,0,1,.04-.21,1.6,1.6,0,0,1,.05-.21h0a5.1,5.1,0,0,1-.19-.5,4.768,4.768,0,0,1-.13-.51,4.461,4.461,0,0,1-.07-.51,3.01,3.01,0,0,1,0-.52c.09-2.01,1.6-3.91,4.27-5.63a41.363,41.363,0,0,1,11.11-4.53A109.026,109.026,0,0,1,64.8,90.95,168.587,168.587,0,0,1,84.6,89.9c2.7,0,5.35.08,7.94.2q3.03-1.92,6.38-3.69c-1.82-.15-3.66-.28-5.54-.37-2.7-.13-5.45-.21-8.25-.22a170.177,170.177,0,0,0-23.62,1.51,112.426,112.426,0,0,0-19.44,4.29,45.861,45.861,0,0,0-13.35,6.47c-3.22,2.46-5.07,5.18-5.22,8.06-.14,2.67,1.21,5.24,3.8,7.61a36.685,36.685,0,0,0,11.25,6.47,96.4,96.4,0,0,0,17.21,4.74c3.95.74,8.16,1.33,12.57,1.77-.01-.4-.03-.81-.02-1.21a29.627,29.627,0,0,1,.36-4.52Z" fill="#fd0"/>
        <path id="Path_3077" data-name="Path 3077" d="M146.58,106.99l-.21,18.97a8.388,8.388,0,0,1-1.31,4.3,15.79,15.79,0,0,1-3.71,4.01,32.961,32.961,0,0,1-5.86,3.62,60.306,60.306,0,0,1-7.77,3.14l.17-19.2a61.681,61.681,0,0,0,7.79-3.09,32.669,32.669,0,0,0,5.87-3.57,15.617,15.617,0,0,0,3.71-3.95,8.172,8.172,0,0,0,1.32-4.24" fill="#b56600"/>
        <path id="Path_3078" data-name="Path 3078" d="M49.01,123.54l.02,19.23a84.215,84.215,0,0,1-10.55-3.36,44.85,44.85,0,0,1-8.04-4.1,19.61,19.61,0,0,1-5.12-4.68,8.726,8.726,0,0,1-1.8-5.09l-.08-18.98a8.452,8.452,0,0,0,1.81,5.02,19.356,19.356,0,0,0,5.13,4.61,44.782,44.782,0,0,0,8.06,4.04,82.664,82.664,0,0,0,10.57,3.31" fill="#b56600"/>
        <path id="Path_3079" data-name="Path 3079" d="M62.27,126.05c-2.37-.33-4.67-.7-6.88-1.12s-4.34-.88-6.37-1.39l.02,19.23q3.045.765,6.36,1.41t6.86,1.14c.87.12,1.77.23,2.66.34l.07-19.27c-.91-.11-1.82-.22-2.71-.34Z" fill="#d48d00"/>
        <path id="Path_3080" data-name="Path 3080" d="M118.71,143.51a91.48,91.48,0,0,0,9-2.47l.17-19.2c-2.77.9-5.79,1.72-9.02,2.43-2.38.53-4.88.99-7.48,1.4l-.07,19.25c2.57-.41,5.04-.89,7.4-1.42Z" fill="#d48d00"/>
        <path id="Path_3081" data-name="Path 3081" d="M77.23,146.69c.63.03,1.26.05,1.89.08l1.9.06c.64.02,1.28.03,1.92.04s1.29.02,1.94.02c4.17.01,8.24-.11,12.18-.37s7.73-.65,11.36-1.16c.98-.14,1.94-.28,2.9-.44l.07-19.25c-.94.15-1.88.29-2.84.42-3.63.5-7.44.88-11.39,1.14s-8.03.38-12.2.37c-.65,0-1.3,0-1.94-.02s-1.29-.02-1.92-.04l-1.91-.06c-.63-.02-1.26-.05-1.89-.08-2.62-.12-5.19-.29-7.69-.52-1.56-.14-3.1-.31-4.61-.49l-.07,19.27c1.53.19,3.07.36,4.64.5q3.75.345,7.68.53Z" fill="#e49c00"/>
        <path id="Path_3082" data-name="Path 3082" d="M137.85,117.6a27.782,27.782,0,0,0,4.21-2.84c3.03-2.51,4.64-5.27,4.51-8.16a9.164,9.164,0,0,0-2.42-5.52,23.513,23.513,0,0,0-6.34-4.94,55.06,55.06,0,0,0-9.64-4.17,99.747,99.747,0,0,0-12.34-3.22c-2.27-.45-4.62-.86-7.05-1.21s-4.94-.66-7.52-.9c-.78-.08-1.58-.14-2.38-.2q-3.345,1.77-6.38,3.69c4.14.2,8.12.53,11.86.99a108.9,108.9,0,0,1,16.24,3.12,41.286,41.286,0,0,1,11.08,4.61c2.65,1.74,3.38,3.65,3.46,5.65a4.348,4.348,0,0,1-.04.72,6.194,6.194,0,0,1-.16.72,4.277,4.277,0,0,1-.28.72c-.11.24.52.48.37.72a4.9,4.9,0,0,1-1.03,3.04,10.235,10.235,0,0,1,3.83,7.19Z" fill="#ffee7a"/>
        <path id="Path_3083" data-name="Path 3083" d="M119.1,124.21a10.219,10.219,0,0,1-1.77-5.8h0a114.491,114.491,0,0,1-13.16,2.29,168.806,168.806,0,0,1-19.99,1.09h0c-1.09,0-2.18-.02-3.26-.04s-2.14-.06-3.2-.1-2.1-.09-3.14-.15-2.06-.13-3.07-.21c-.98-.07-1.94-.17-2.89-.26a29.627,29.627,0,0,0-.36,4.52c0,.41,0,.81.02,1.21q4.38.435,8.99.65c.63.03,1.26.05,1.89.08l1.91.06c.64.02,1.28.03,1.92.04s1.29.02,1.94.02A168.715,168.715,0,0,0,109.26,126c3.46-.49,6.74-1.09,9.83-1.78Z" fill="#ffee7a"/>
        <path id="Path_3084" data-name="Path 3084" d="M119.1,124.21a92.532,92.532,0,0,0,9.89-2.74,53.178,53.178,0,0,0,8.86-3.87,10.272,10.272,0,0,0-3.83-7.19,11.318,11.318,0,0,1-2.78,2.59,38.33,38.33,0,0,1-10.83,4.61c-.98.28-2.02.55-3.08.8h0A10.3,10.3,0,0,0,119.1,124.21Z" fill="#ffffb7"/>
        <path id="Path_3085" data-name="Path 3085" d="M136.08,106.8a6.629,6.629,0,0,0-1.4-5.25,17.79,17.79,0,0,0-5.86-4.6,50.64,50.64,0,0,0-9.78-3.73,101.6,101.6,0,0,0-13.02-2.63c-1.63-.23-3.31-.43-5.02-.61s-3.48-.33-5.28-.45-3.63-.21-5.5-.28c-.44-.01-.89-.01-1.34-.02-1.44-.04-2.87-.07-4.34-.08a161.46,161.46,0,0,0-20.58,1.24,100.706,100.706,0,0,0-16.65,3.45A37,37,0,0,0,36.3,99.02c-2.55,1.97-3.95,4.14-3.99,6.45v.25a2.091,2.091,0,0,0,.01.25,2.275,2.275,0,0,0,.02.26,1.661,1.661,0,0,0,.03.22h0l103.69.34Z" fill="#c27400"/>
        <path id="Path_3086" data-name="Path 3086" d="M32.43,105.26a6.629,6.629,0,0,0,1.4,5.25,17.79,17.79,0,0,0,5.86,4.6,50.641,50.641,0,0,0,9.78,3.73,101.6,101.6,0,0,0,13.02,2.63c1.63.23,3.31.43,5.02.61s3.48.33,5.28.45,3.63.21,5.5.28c.44.01.89.01,1.34.02,1.44.04,2.87.07,4.34.08a161.46,161.46,0,0,0,20.58-1.24,100.706,100.706,0,0,0,16.65-3.45,37,37,0,0,0,11.01-5.18c2.55-1.97,3.95-4.14,3.99-6.45v-.25a2.091,2.091,0,0,0-.01-.25,2.273,2.273,0,0,0-.02-.26,1.661,1.661,0,0,0-.03-.22h0l-103.69-.34Z" fill="#ffffb7"/>
        <path id="Path_3087" data-name="Path 3087" d="M84.3,91.51a172.784,172.784,0,0,0-19.33.99,114.46,114.46,0,0,0-16.06,2.84,46.3,46.3,0,0,0-11.33,4.31c-2.82,1.64-4.6,3.45-5.07,5.38-.02.07-.03.14-.05.21s-.03.14-.04.21l-.03.21c0,.07-.01.14-.01.21a4.4,4.4,0,0,0,.35,1.91,8.132,8.132,0,0,0,2.4,3.02,21.539,21.539,0,0,0,4.47,2.77c.72.35,1.5.69,2.31,1.02.41.17.83.33,1.26.49a79.332,79.332,0,0,0,12.38,3.31c3.9.75,8.19,1.34,12.74,1.77,1.05-6.8,4.36-13.25,9.53-19.14l4.61-4.67a68.339,68.339,0,0,1,5.91-4.78c-1.34-.03-2.69-.07-4.06-.07Z" fill="#fac500"/>
        <path id="Path_3088" data-name="Path 3088" d="M121.14,116.68a39.082,39.082,0,0,0,11.05-4.71c2.57-1.77,3.96-3.72,3.89-5.77a6.372,6.372,0,0,0-2.49-4.34,23.785,23.785,0,0,0-6.56-3.81,65.369,65.369,0,0,0-9.92-3.1,120.9,120.9,0,0,0-12.59-2.21q-2.325-.285-4.77-.51c-1.62-.15-3.28-.28-4.97-.38s-3.41-.19-5.16-.24c-.41-.01-.84-.01-1.25-.02a70.274,70.274,0,0,0-5.91,4.78s-4.24,4.48-4.61,4.67c-5.16,5.89-8.48,12.34-9.53,19.14.98.09,1.95.19,2.95.26,1.03.08,2.08.15,3.13.21s2.12.11,3.2.16,2.17.08,3.26.1,2.2.04,3.32.04a169.021,169.021,0,0,0,20.39-1.11,107.558,107.558,0,0,0,16.57-3.16Z" fill="#fad351"/>
        <path id="Path_3089" data-name="Path 3089" d="M74.03,108.44c12.49-.19,19.84-2.44,19.86-5.92l9.12-.08v-1.53l-.86-.18-8.78.09c-.87-1.56-2.71-2.66-4.97-3.41l12-.16V95.72l-.86-.18-29,.43-.99.65v1.53l5.25-.07c6.43-.08,10.37.85,11.56,2.8l-18.13.18-.76.14v1.53l19.25-.16c-.47,2.34-5.79,3.9-15.86,3.96l-5.13.03-.94.55v1.53c.68.29,1.33.57,2,.85,7.63,2.98,14.67,5.66,23.02,8.56h11.48v-1.54c-6.22-2.05-14.4-3.32-19.56-5.16-2.74-1.04-5.31-2.03-7.69-2.93Z" fill="#c27400"/>
        <path id="Path_3090" data-name="Path 3090" d="M89.81,116.54h11.48c-7.14-2.33-13.74-4.62-19.56-6.69-5.39-.48-10.39-1.11-14.94-1.87,7.63,2.98,14.67,5.66,23.02,8.56Z" fill="#ffed45"/>
        <path id="Path_3091" data-name="Path 3091" d="M93.89,101l9.12-.08-.86-1.71-8.78.09c-.87-1.56-2.71-2.66-4.97-3.41l12-.16-.86-1.71-29,.43-.99,2.18,5.25-.07c6.43-.08,10.37.85,11.56,2.8l-18.13.18-.76,1.68,19.25-.16c-.47,2.34-5.79,3.9-15.86,3.96l-5.13.03-.94,2.08c.68.29,1.33.57,2,.85,4.55.75,9.55,1.38,14.94,1.87-2.74-1.04-5.31-2.03-7.69-2.93,12.49-.19,19.84-2.44,19.86-5.92Z" fill="#fff1a1"/>
        <path id="Path_3092" data-name="Path 3092" d="M60.96,99.81c-4.46-.42-8.67-1-12.49-1.74a76.99,76.99,0,0,1-12.13-3.25c-.42-.16-.84-.32-1.24-.48-.8-.32-1.56-.66-2.27-1a20.534,20.534,0,0,1-4.38-2.72,8.008,8.008,0,0,1-2.35-2.96,4.367,4.367,0,0,1-.34-1.87,1.477,1.477,0,0,1,.01-.21,1.517,1.517,0,0,1,.03-.21,1.552,1.552,0,0,1,.04-.21,1.6,1.6,0,0,1,.05-.21h0a5.1,5.1,0,0,1-.19-.5,4.767,4.767,0,0,1-.13-.51,4.461,4.461,0,0,1-.07-.51,3.009,3.009,0,0,1,0-.52c.09-2.01,1.6-3.91,4.27-5.63a41.363,41.363,0,0,1,11.11-4.53,109.026,109.026,0,0,1,16.26-3.01,168.587,168.587,0,0,1,19.8-1.05c2.7,0,5.35.08,7.94.2q3.03-1.92,6.38-3.69c-1.82-.15-3.66-.28-5.54-.37-2.7-.13-5.45-.21-8.25-.22a170.176,170.176,0,0,0-23.62,1.51,112.426,112.426,0,0,0-19.44,4.29,45.861,45.861,0,0,0-13.35,6.47c-3.22,2.46-5.07,5.18-5.22,8.06-.14,2.67,1.21,5.24,3.8,7.61a36.685,36.685,0,0,0,11.25,6.47,96.4,96.4,0,0,0,17.21,4.74c3.95.74,8.16,1.33,12.57,1.77-.01-.4-.03-.81-.02-1.21a29.627,29.627,0,0,1,.36-4.52Z" fill="#fd0"/>
        <path id="Path_3093" data-name="Path 3093" d="M138.92,85.77l-.21,18.97a8.388,8.388,0,0,1-1.31,4.3,15.79,15.79,0,0,1-3.71,4.01,32.962,32.962,0,0,1-5.86,3.62,60.307,60.307,0,0,1-7.77,3.14l.17-19.2a61.681,61.681,0,0,0,7.79-3.09,32.669,32.669,0,0,0,5.87-3.57A15.617,15.617,0,0,0,137.6,90a8.172,8.172,0,0,0,1.32-4.24" fill="#b56600"/>
        <path id="Path_3094" data-name="Path 3094" d="M41.35,102.33l.02,19.23a84.216,84.216,0,0,1-10.55-3.36,44.85,44.85,0,0,1-8.04-4.1,19.61,19.61,0,0,1-5.12-4.68,8.726,8.726,0,0,1-1.8-5.09l-.08-18.98a8.452,8.452,0,0,0,1.81,5.02,19.356,19.356,0,0,0,5.13,4.61,44.782,44.782,0,0,0,8.06,4.04,82.664,82.664,0,0,0,10.57,3.31" fill="#b56600"/>
        <path id="Path_3095" data-name="Path 3095" d="M54.6,104.84c-2.37-.33-4.67-.7-6.88-1.12s-4.34-.88-6.37-1.39l.02,19.23q3.045.765,6.36,1.41t6.86,1.14c.87.12,1.77.23,2.66.34l.07-19.27c-.91-.11-1.82-.22-2.71-.34Z" fill="#d48d00"/>
        <path id="Path_3096" data-name="Path 3096" d="M111.05,122.29a91.48,91.48,0,0,0,9-2.47l.17-19.2c-2.77.9-5.79,1.72-9.02,2.43-2.38.53-4.88.99-7.48,1.4l-.07,19.25c2.57-.41,5.04-.89,7.4-1.42Z" fill="#d48d00"/>
        <path id="Path_3097" data-name="Path 3097" d="M69.57,125.48c.63.03,1.26.05,1.89.08l1.9.06c.64.02,1.28.03,1.92.04s1.29.02,1.94.02c4.17.01,8.24-.11,12.18-.37s7.73-.65,11.36-1.16c.98-.14,1.94-.28,2.9-.44l.07-19.25c-.94.15-1.88.29-2.84.42-3.63.5-7.44.88-11.39,1.14s-8.03.38-12.2.37c-.65,0-1.3,0-1.94-.02s-1.29-.02-1.92-.04l-1.91-.06c-.63-.02-1.26-.05-1.89-.08-2.62-.12-5.19-.29-7.69-.52-1.56-.14-3.1-.31-4.61-.49l-.07,19.27c1.53.19,3.07.36,4.64.5q3.75.345,7.68.53Z" fill="#e49c00"/>
        <path id="Path_3098" data-name="Path 3098" d="M130.19,96.39a27.782,27.782,0,0,0,4.21-2.84c3.03-2.51,4.64-5.27,4.51-8.16a9.164,9.164,0,0,0-2.42-5.52,23.513,23.513,0,0,0-6.34-4.94,55.06,55.06,0,0,0-9.64-4.17,99.747,99.747,0,0,0-12.34-3.22c-2.26-.45-4.62-.86-7.05-1.21s-4.94-.66-7.52-.9c-.78-.08-1.58-.13-2.38-.2Q87.875,67,84.84,68.92c4.14.2,8.12.53,11.86.99a108.9,108.9,0,0,1,16.24,3.12,41.287,41.287,0,0,1,11.08,4.61c2.65,1.74,3.38,3.65,3.46,5.65a4.347,4.347,0,0,1-.04.72,6.2,6.2,0,0,1-.16.72,4.277,4.277,0,0,1-.28.72c-.11.24.52.48.37.72a4.9,4.9,0,0,1-1.03,3.04,10.235,10.235,0,0,1,3.83,7.19Z" fill="#ffee7a"/>
        <path id="Path_3099" data-name="Path 3099" d="M111.44,102.99a10.219,10.219,0,0,1-1.77-5.8h0a114.492,114.492,0,0,1-13.16,2.29,168.806,168.806,0,0,1-19.99,1.09h0c-1.09,0-2.18-.02-3.26-.04s-2.14-.06-3.2-.1-2.1-.09-3.14-.15-2.06-.13-3.07-.21c-.98-.07-1.94-.17-2.89-.26a29.627,29.627,0,0,0-.36,4.52c0,.41,0,.81.02,1.21q4.38.435,8.99.65c.63.03,1.26.05,1.89.08l1.91.06c.64.02,1.28.03,1.92.04s1.29.02,1.94.02a168.715,168.715,0,0,0,24.33-1.61c3.46-.49,6.74-1.09,9.83-1.78Z" fill="#ffee7a"/>
        <path id="Path_3100" data-name="Path 3100" d="M111.44,102.99a92.532,92.532,0,0,0,9.89-2.74,53.178,53.178,0,0,0,8.86-3.87,10.272,10.272,0,0,0-3.83-7.19,11.318,11.318,0,0,1-2.78,2.59,38.33,38.33,0,0,1-10.83,4.61c-.98.28-2.02.55-3.08.8h0a10.3,10.3,0,0,0,1.77,5.8Z" fill="#ffffb7"/>
        <path id="Path_3101" data-name="Path 3101" d="M128.42,85.58a6.629,6.629,0,0,0-1.4-5.25,17.79,17.79,0,0,0-5.86-4.6A50.64,50.64,0,0,0,111.38,72a101.6,101.6,0,0,0-13.02-2.63c-1.63-.23-3.31-.43-5.02-.61s-3.48-.33-5.28-.45-3.63-.21-5.5-.28c-.44-.01-.89-.01-1.34-.02-1.44-.04-2.87-.07-4.34-.08A161.46,161.46,0,0,0,56.3,69.17a100.706,100.706,0,0,0-16.65,3.45A37,37,0,0,0,28.64,77.8c-2.55,1.97-3.95,4.14-3.99,6.45v.25a2.09,2.09,0,0,0,.01.25c.01.08.01.17.02.26a1.66,1.66,0,0,0,.03.22h0l103.69.34Z" fill="#c27400"/>
        <path id="Path_3102" data-name="Path 3102" d="M24.76,84.05a6.629,6.629,0,0,0,1.4,5.25,17.79,17.79,0,0,0,5.86,4.6,50.641,50.641,0,0,0,9.78,3.73,101.6,101.6,0,0,0,13.02,2.63c1.63.23,3.31.43,5.02.61s3.48.33,5.28.45,3.63.21,5.5.28c.44.01.89.01,1.34.02,1.44.04,2.87.07,4.34.08a161.46,161.46,0,0,0,20.58-1.24,100.706,100.706,0,0,0,16.65-3.45,37,37,0,0,0,11.01-5.18c2.55-1.97,3.95-4.14,3.99-6.45v-.25a2.091,2.091,0,0,0-.01-.25,2.273,2.273,0,0,0-.02-.26,1.661,1.661,0,0,0-.03-.22h0L24.78,84.06Z" fill="#ffffb7"/>
        <path id="Path_3103" data-name="Path 3103" d="M76.63,70.3a172.784,172.784,0,0,0-19.33.99,114.46,114.46,0,0,0-16.06,2.84,46.054,46.054,0,0,0-11.32,4.31c-2.82,1.64-4.6,3.45-5.07,5.38-.02.07-.03.14-.05.21s-.03.14-.04.21l-.03.21c0,.07-.01.14-.01.21a4.4,4.4,0,0,0,.35,1.91,8.132,8.132,0,0,0,2.4,3.02,21.539,21.539,0,0,0,4.47,2.77c.72.35,1.5.69,2.31,1.02.41.17.83.33,1.26.49a79.332,79.332,0,0,0,12.38,3.31c3.9.75,8.19,1.34,12.74,1.77,1.05-6.8,4.36-13.25,9.53-19.14l4.61-4.67a68.34,68.34,0,0,1,5.91-4.78c-1.34-.03-2.69-.07-4.06-.07Z" fill="#fac500"/>
        <path id="Path_3104" data-name="Path 3104" d="M113.48,95.47a39.082,39.082,0,0,0,11.05-4.71c2.57-1.77,3.96-3.72,3.89-5.77a6.372,6.372,0,0,0-2.49-4.34,23.785,23.785,0,0,0-6.56-3.81,65.369,65.369,0,0,0-9.92-3.1,120.894,120.894,0,0,0-12.59-2.21q-2.325-.285-4.77-.51c-1.62-.15-3.28-.28-4.97-.38s-3.41-.19-5.16-.24c-.41-.01-.84-.01-1.25-.02a70.274,70.274,0,0,0-5.91,4.78s-4.24,4.48-4.61,4.67c-5.16,5.89-8.48,12.34-9.53,19.14.98.09,1.95.19,2.95.26,1.03.08,2.08.15,3.13.21s2.12.11,3.2.16,2.17.08,3.26.1,2.2.04,3.32.04a169.021,169.021,0,0,0,20.39-1.11,107.558,107.558,0,0,0,16.57-3.16Z" fill="#fad351"/>
        <path id="Path_3105" data-name="Path 3105" d="M66.37,87.23c12.49-.19,19.84-2.44,19.86-5.92l9.12-.08V79.7l-.86-.18-8.78.09c-.87-1.56-2.71-2.66-4.97-3.41l12-.16V74.51l-.86-.18-29,.43-.99.65v1.53l5.25-.07c6.43-.08,10.37.85,11.56,2.8l-18.13.18-.76.14v1.53l19.25-.16c-.47,2.34-5.79,3.9-15.86,3.96l-5.13.03-.94.55v1.53c.68.29,1.33.57,2,.85,7.63,2.98,14.67,5.66,23.02,8.56H93.63V95.3c-6.22-2.05-14.4-3.32-19.56-5.16-2.74-1.04-5.31-2.03-7.69-2.93Z" fill="#c27400"/>
        <path id="Path_3106" data-name="Path 3106" d="M82.15,95.32H93.63c-7.14-2.33-13.74-4.62-19.56-6.69-5.39-.48-10.39-1.11-14.94-1.87,7.63,2.98,14.67,5.66,23.02,8.56Z" fill="#ffed45"/>
        <path id="Path_3107" data-name="Path 3107" d="M86.23,79.78l9.12-.08-.86-1.71-8.78.09c-.87-1.56-2.71-2.66-4.97-3.41l12-.16-.86-1.71-29,.43-.99,2.18,5.25-.07c6.43-.08,10.37.85,11.56,2.8l-18.13.18L59.81,80l19.25-.16c-.47,2.34-5.79,3.9-15.86,3.96l-5.13.03-.94,2.08c.68.29,1.33.57,2,.85,4.55.75,9.55,1.38,14.94,1.87-2.74-1.04-5.31-2.03-7.69-2.93,12.49-.19,19.84-2.44,19.86-5.92Z" fill="#fff1a1"/>
        <path id="Path_3108" data-name="Path 3108" d="M61.72,78.6c-4.46-.42-8.67-1-12.49-1.74A76.99,76.99,0,0,1,37.1,73.61c-.42-.16-.84-.32-1.24-.48-.8-.32-1.56-.66-2.27-1a20.534,20.534,0,0,1-4.38-2.72,8.008,8.008,0,0,1-2.35-2.96,4.367,4.367,0,0,1-.34-1.87,1.477,1.477,0,0,1,.01-.21,1.517,1.517,0,0,1,.03-.21,1.552,1.552,0,0,1,.04-.21c.02-.07.03-.14.05-.21h0a5.1,5.1,0,0,1-.19-.5,4.768,4.768,0,0,1-.13-.51,4.462,4.462,0,0,1-.07-.51,3.009,3.009,0,0,1,0-.52c.09-2.01,1.6-3.91,4.27-5.63a41.363,41.363,0,0,1,11.11-4.53A109.025,109.025,0,0,1,57.9,48.53a168.585,168.585,0,0,1,19.8-1.05c2.7,0,5.35.08,7.93.2q3.03-1.92,6.38-3.69c-1.82-.15-3.66-.28-5.54-.37-2.7-.13-5.45-.21-8.25-.22A170.176,170.176,0,0,0,54.6,44.91,112.426,112.426,0,0,0,35.16,49.2a45.862,45.862,0,0,0-13.35,6.47c-3.22,2.46-5.07,5.18-5.22,8.06-.14,2.67,1.21,5.24,3.8,7.61a36.685,36.685,0,0,0,11.25,6.47,96.4,96.4,0,0,0,17.21,4.74c3.95.74,8.16,1.33,12.57,1.77-.01-.4-.03-.81-.02-1.21a29.627,29.627,0,0,1,.36-4.52Z" fill="#fd0"/>
        <path id="Path_3109" data-name="Path 3109" d="M139.68,64.56l-.21,18.97a8.388,8.388,0,0,1-1.31,4.3,15.79,15.79,0,0,1-3.71,4.01,32.962,32.962,0,0,1-5.86,3.62,60.307,60.307,0,0,1-7.77,3.14l.17-19.2a61.681,61.681,0,0,0,7.79-3.09,32.669,32.669,0,0,0,5.87-3.57,15.617,15.617,0,0,0,3.71-3.95,8.172,8.172,0,0,0,1.32-4.24" fill="#b56600"/>
        <path id="Path_3110" data-name="Path 3110" d="M42.12,81.12l.02,19.23a84.216,84.216,0,0,1-10.55-3.36,44.85,44.85,0,0,1-8.04-4.1,19.61,19.61,0,0,1-5.12-4.68,8.726,8.726,0,0,1-1.8-5.09l-.08-18.98a8.452,8.452,0,0,0,1.81,5.02,19.356,19.356,0,0,0,5.13,4.61,44.782,44.782,0,0,0,8.06,4.04,82.664,82.664,0,0,0,10.57,3.31" fill="#b56600"/>
        <path id="Path_3111" data-name="Path 3111" d="M55.37,83.62c-2.37-.33-4.67-.7-6.88-1.12s-4.34-.88-6.37-1.39l.02,19.23q3.045.765,6.36,1.41t6.86,1.14c.87.12,1.77.23,2.66.34l.07-19.27c-.91-.11-1.82-.22-2.71-.34Z" fill="#d48d00"/>
        <path id="Path_3112" data-name="Path 3112" d="M111.82,101.08a91.48,91.48,0,0,0,9-2.47l.17-19.2c-2.77.9-5.79,1.72-9.02,2.43-2.38.53-4.88.99-7.48,1.4l-.07,19.25c2.57-.41,5.04-.89,7.4-1.42Z" fill="#d48d00"/>
        <path id="Path_3113" data-name="Path 3113" d="M70.33,104.27c.63.03,1.26.05,1.89.08l1.9.06c.64.02,1.28.03,1.92.04s1.29.02,1.94.02c4.17.01,8.24-.11,12.18-.37s7.73-.65,11.36-1.15c.98-.14,1.94-.28,2.9-.44l.07-19.25c-.94.15-1.88.29-2.84.42-3.63.5-7.44.88-11.39,1.14s-8.03.38-12.2.37c-.65,0-1.3,0-1.94-.02-.64,0-1.29-.02-1.92-.04l-1.91-.06c-.63-.02-1.26-.05-1.89-.08-2.62-.12-5.19-.29-7.69-.52-1.56-.14-3.1-.31-4.61-.49l-.07,19.27c1.53.19,3.07.36,4.64.5q3.75.345,7.68.53Z" fill="#e49c00"/>
        <path id="Path_3114" data-name="Path 3114" d="M130.96,75.17a27.782,27.782,0,0,0,4.21-2.84c3.03-2.51,4.64-5.27,4.51-8.16a9.164,9.164,0,0,0-2.42-5.52,23.513,23.513,0,0,0-6.34-4.94,55.06,55.06,0,0,0-9.64-4.17,99.746,99.746,0,0,0-12.34-3.22c-2.26-.45-4.62-.86-7.05-1.21s-4.94-.66-7.52-.9c-.78-.08-1.58-.13-2.38-.2q-3.345,1.77-6.38,3.69c4.14.2,8.12.53,11.86.99a108.905,108.905,0,0,1,16.24,3.12,41.287,41.287,0,0,1,11.08,4.61c2.65,1.74,3.38,3.65,3.46,5.65a4.348,4.348,0,0,1-.04.72,4.65,4.65,0,0,1-.16.72,4.277,4.277,0,0,1-.28.72c-.11.24.52.48.37.72a4.9,4.9,0,0,1-1.03,3.04,10.235,10.235,0,0,1,3.83,7.19Z" fill="#ffee7a"/>
        <path id="Path_3115" data-name="Path 3115" d="M112.2,81.78a10.219,10.219,0,0,1-1.77-5.8h0a114.492,114.492,0,0,1-13.16,2.29,168.806,168.806,0,0,1-19.99,1.09h0c-1.09,0-2.18-.02-3.26-.04s-2.14-.06-3.2-.1-2.1-.09-3.14-.15-2.06-.13-3.07-.21c-.98-.07-1.94-.17-2.89-.26a29.627,29.627,0,0,0-.36,4.52c0,.41,0,.81.02,1.21q4.38.435,8.99.65c.63.03,1.26.05,1.89.08l1.91.06c.64.02,1.28.03,1.92.04s1.29.02,1.94.02a168.715,168.715,0,0,0,24.33-1.61c3.46-.49,6.74-1.09,9.83-1.78Z" fill="#ffee7a"/>
        <path id="Path_3116" data-name="Path 3116" d="M112.2,81.78a92.532,92.532,0,0,0,9.89-2.74,53.178,53.178,0,0,0,8.86-3.87,10.272,10.272,0,0,0-3.83-7.19,11.318,11.318,0,0,1-2.78,2.59,38.33,38.33,0,0,1-10.83,4.61c-.98.28-2.02.55-3.08.8h0a10.3,10.3,0,0,0,1.77,5.8Z" fill="#ffffb7"/>
        <path id="Path_3117" data-name="Path 3117" d="M129.19,64.37a6.629,6.629,0,0,0-1.4-5.25,17.79,17.79,0,0,0-5.86-4.6,50.64,50.64,0,0,0-9.78-3.73,101.6,101.6,0,0,0-13.02-2.63c-1.63-.23-3.31-.43-5.02-.61s-3.48-.33-5.28-.45-3.63-.21-5.5-.28c-.44-.01-.89-.01-1.34-.02-1.44-.04-2.87-.07-4.34-.08a161.46,161.46,0,0,0-20.58,1.24,100.706,100.706,0,0,0-16.65,3.45,37,37,0,0,0-11.01,5.18c-2.55,1.97-3.95,4.14-3.99,6.45v.25a2.09,2.09,0,0,0,.01.25,2.275,2.275,0,0,0,.02.26,1.66,1.66,0,0,0,.03.22h0l103.69.34Z" fill="#c27400"/>
        <path id="Path_3118" data-name="Path 3118" d="M25.53,62.83a6.629,6.629,0,0,0,1.4,5.25,17.79,17.79,0,0,0,5.86,4.6,50.641,50.641,0,0,0,9.78,3.73,101.6,101.6,0,0,0,13.02,2.63c1.63.23,3.31.43,5.02.61s3.48.33,5.28.45,3.63.21,5.5.28c.44.01.89.01,1.34.02,1.44.04,2.87.07,4.34.08a161.46,161.46,0,0,0,20.58-1.24,100.706,100.706,0,0,0,16.65-3.45,37,37,0,0,0,11.01-5.18c2.55-1.97,3.95-4.14,3.99-6.45v-.25a2.091,2.091,0,0,0-.01-.25,2.273,2.273,0,0,0-.02-.26,1.661,1.661,0,0,0-.03-.22h0L25.55,62.84Z" fill="#ffffb7"/>
        <path id="Path_3119" data-name="Path 3119" d="M77.4,49.09a172.782,172.782,0,0,0-19.33.99,114.459,114.459,0,0,0-16.06,2.84,46.054,46.054,0,0,0-11.32,4.31c-2.82,1.64-4.6,3.45-5.07,5.38-.02.07-.03.14-.05.21s-.03.14-.04.21l-.03.21c0,.07-.01.14-.01.21a4.4,4.4,0,0,0,.35,1.91,8.132,8.132,0,0,0,2.4,3.02,21.539,21.539,0,0,0,4.47,2.77c.72.35,1.5.69,2.31,1.02.41.17.83.33,1.26.49a79.332,79.332,0,0,0,12.38,3.31c3.9.75,8.19,1.34,12.74,1.77,1.05-6.8,4.36-13.25,9.53-19.14l4.61-4.67a68.34,68.34,0,0,1,5.91-4.78c-1.34-.03-2.69-.07-4.06-.07Z" fill="#fac500"/>
        <path id="Path_3120" data-name="Path 3120" d="M114.24,74.25a39.082,39.082,0,0,0,11.05-4.71c2.57-1.77,3.96-3.72,3.89-5.77a6.372,6.372,0,0,0-2.49-4.34,23.785,23.785,0,0,0-6.56-3.81,65.369,65.369,0,0,0-9.92-3.1,120.894,120.894,0,0,0-12.59-2.21q-2.325-.285-4.77-.51c-1.62-.15-3.28-.28-4.97-.38s-3.41-.19-5.16-.24c-.41-.01-.84-.01-1.25-.02a70.275,70.275,0,0,0-5.91,4.78s-4.24,4.48-4.61,4.67c-5.16,5.89-8.48,12.34-9.53,19.14.98.09,1.95.19,2.95.26,1.03.08,2.08.15,3.13.21s2.12.11,3.2.16,2.17.08,3.26.1,2.2.04,3.32.04a169.021,169.021,0,0,0,20.39-1.11,107.558,107.558,0,0,0,16.57-3.16Z" fill="#fad351"/>
        <path id="Path_3121" data-name="Path 3121" d="M67.14,66.02C79.63,65.83,86.98,63.58,87,60.1l9.12-.08V58.49l-.86-.18-8.78.09c-.87-1.56-2.71-2.66-4.97-3.41l12-.16V53.3l-.86-.18-29,.43-.99.65v1.53l5.25-.07c6.43-.08,10.37.85,11.56,2.8l-18.13.18-.76.14v1.53l19.25-.16c-.47,2.34-5.79,3.9-15.86,3.96l-5.13.03-.94.55v1.53c.68.29,1.33.57,2,.85,7.63,2.98,14.67,5.66,23.02,8.56H94.4V74.09c-6.22-2.05-14.4-3.32-19.56-5.16C72.1,67.89,69.53,66.9,67.15,66Z" fill="#c27400"/>
        <path id="Path_3122" data-name="Path 3122" d="M82.91,74.11H94.39c-7.14-2.33-13.74-4.62-19.56-6.69-5.39-.48-10.39-1.11-14.94-1.87,7.63,2.98,14.67,5.66,23.02,8.56Z" fill="#ffed45"/>
        <path id="Path_3123" data-name="Path 3123" d="M87,58.57l9.12-.08-.86-1.71-8.78.09c-.87-1.56-2.71-2.66-4.97-3.41l12-.16-.86-1.71-29,.43-.99,2.18,5.25-.07c6.43-.08,10.37.85,11.56,2.8l-18.13.18-.76,1.68,19.25-.16c-.47,2.34-5.79,3.9-15.86,3.96l-5.13.03L57.9,64.7c.68.29,1.33.57,2,.85,4.55.75,9.55,1.38,14.94,1.87-2.74-1.04-5.31-2.03-7.69-2.93,12.49-.19,19.84-2.44,19.86-5.92Z" fill="#fff1a1"/>
        <path id="Path_3124" data-name="Path 3124" d="M53.29,57.39c-4.46-.42-8.67-1-12.49-1.74A76.991,76.991,0,0,1,28.67,52.4c-.42-.16-.84-.32-1.24-.48-.8-.32-1.56-.66-2.27-1a20.534,20.534,0,0,1-4.38-2.72,8.008,8.008,0,0,1-2.35-2.96,4.367,4.367,0,0,1-.34-1.87,1.477,1.477,0,0,1,.01-.21,1.517,1.517,0,0,1,.03-.21,1.552,1.552,0,0,1,.04-.21,1.6,1.6,0,0,1,.05-.21h0a5.1,5.1,0,0,1-.19-.5,4.768,4.768,0,0,1-.13-.51,4.462,4.462,0,0,1-.07-.51,3.009,3.009,0,0,1,0-.52c.09-2.01,1.6-3.91,4.27-5.63a41.363,41.363,0,0,1,11.11-4.53,109.025,109.025,0,0,1,16.26-3.01,168.585,168.585,0,0,1,19.8-1.05c2.7,0,5.35.08,7.94.2q3.03-1.92,6.38-3.69c-1.82-.15-3.66-.28-5.54-.37-2.7-.13-5.45-.21-8.25-.22A170.176,170.176,0,0,0,46.18,23.7a112.426,112.426,0,0,0-19.44,4.29,45.861,45.861,0,0,0-13.35,6.47c-3.22,2.46-5.07,5.18-5.22,8.06-.14,2.67,1.21,5.24,3.8,7.61A36.685,36.685,0,0,0,23.22,56.6a96.4,96.4,0,0,0,17.21,4.74c3.95.74,8.16,1.33,12.57,1.77-.01-.4-.03-.81-.02-1.21a29.628,29.628,0,0,1,.36-4.52Z" fill="#fd0"/>
        <path id="Path_3125" data-name="Path 3125" d="M131.26,43.35l-.21,18.97a8.388,8.388,0,0,1-1.31,4.3,15.79,15.79,0,0,1-3.71,4.01,32.962,32.962,0,0,1-5.86,3.62,60.307,60.307,0,0,1-7.77,3.14l.17-19.2a61.679,61.679,0,0,0,7.79-3.09,32.669,32.669,0,0,0,5.87-3.57,15.617,15.617,0,0,0,3.71-3.95,8.172,8.172,0,0,0,1.32-4.24" fill="#b56600"/>
        <path id="Path_3126" data-name="Path 3126" d="M33.69,59.9l.02,19.23a84.216,84.216,0,0,1-10.55-3.36,44.85,44.85,0,0,1-8.04-4.1A19.61,19.61,0,0,1,10,66.99,8.726,8.726,0,0,1,8.2,61.9L8.12,42.92a8.452,8.452,0,0,0,1.81,5.02,19.356,19.356,0,0,0,5.13,4.61,44.782,44.782,0,0,0,8.06,4.04A82.664,82.664,0,0,0,33.69,59.9" fill="#b56600"/>
        <path id="Path_3127" data-name="Path 3127" d="M46.94,62.41c-2.37-.33-4.67-.7-6.88-1.12s-4.34-.88-6.37-1.39l.02,19.23q3.045.765,6.36,1.41t6.86,1.14c.87.12,1.77.23,2.66.34l.07-19.27c-.91-.11-1.82-.22-2.71-.34Z" fill="#d48d00"/>
        <path id="Path_3128" data-name="Path 3128" d="M103.39,79.87a91.48,91.48,0,0,0,9-2.47l.17-19.2c-2.77.9-5.79,1.72-9.02,2.43-2.38.53-4.88.99-7.48,1.4l-.07,19.25c2.57-.41,5.04-.89,7.4-1.42Z" fill="#d48d00"/>
        <path id="Path_3129" data-name="Path 3129" d="M61.9,83.06c.63.03,1.26.05,1.89.08l1.9.06c.64.02,1.28.03,1.92.04s1.29.02,1.94.02c4.17.01,8.24-.11,12.18-.37s7.73-.65,11.36-1.16c.98-.14,1.94-.28,2.9-.44l.07-19.25c-.94.15-1.88.29-2.84.42-3.63.5-7.44.88-11.39,1.14s-8.03.38-12.2.37c-.65,0-1.3,0-1.94-.02s-1.29-.02-1.92-.04l-1.91-.06c-.63-.02-1.26-.05-1.89-.08-2.62-.12-5.19-.29-7.69-.52-1.56-.14-3.1-.31-4.61-.49L49.6,82.03c1.53.19,3.07.36,4.64.5q3.75.345,7.68.53Z" fill="#e49c00"/>
        <path id="Path_3130" data-name="Path 3130" d="M122.53,53.96a27.781,27.781,0,0,0,4.21-2.84c3.03-2.51,4.64-5.27,4.51-8.16a9.164,9.164,0,0,0-2.42-5.52,23.513,23.513,0,0,0-6.34-4.94,55.06,55.06,0,0,0-9.64-4.17,99.746,99.746,0,0,0-12.34-3.22c-2.26-.45-4.62-.86-7.05-1.21s-4.94-.66-7.52-.9c-.78-.08-1.58-.13-2.38-.2q-3.345,1.77-6.38,3.69c4.14.2,8.12.53,11.86.99a108.9,108.9,0,0,1,16.24,3.12,41.287,41.287,0,0,1,11.08,4.61c2.65,1.74,3.38,3.65,3.46,5.65a4.347,4.347,0,0,1-.04.72,4.65,4.65,0,0,1-.16.72,4.277,4.277,0,0,1-.28.72c-.11.24.52.48.37.72a4.9,4.9,0,0,1-1.03,3.04,10.235,10.235,0,0,1,3.83,7.19Z" fill="#ffee7a"/>
        <path id="Path_3131" data-name="Path 3131" d="M103.78,60.57a10.219,10.219,0,0,1-1.77-5.8h0a114.492,114.492,0,0,1-13.16,2.29,168.807,168.807,0,0,1-19.99,1.09h0c-1.09,0-2.18-.02-3.26-.04s-2.14-.06-3.2-.1-2.1-.09-3.14-.15-2.06-.13-3.07-.21c-.98-.07-1.94-.17-2.89-.26a29.628,29.628,0,0,0-.36,4.52c0,.41,0,.81.02,1.21q4.38.435,8.99.65c.63.03,1.26.05,1.89.08l1.91.06c.64.02,1.28.03,1.92.04s1.29.02,1.94.02a168.715,168.715,0,0,0,24.33-1.61c3.46-.49,6.74-1.09,9.83-1.78Z" fill="#ffee7a"/>
        <path id="Path_3132" data-name="Path 3132" d="M103.78,60.57a92.53,92.53,0,0,0,9.89-2.74,53.178,53.178,0,0,0,8.86-3.87,10.272,10.272,0,0,0-3.83-7.19,11.318,11.318,0,0,1-2.78,2.59,38.33,38.33,0,0,1-10.83,4.61c-.98.28-2.02.55-3.08.8h0a10.3,10.3,0,0,0,1.77,5.8Z" fill="#ffffb7"/>
        <path id="Path_3133" data-name="Path 3133" d="M120.76,43.16a6.629,6.629,0,0,0-1.4-5.25,17.79,17.79,0,0,0-5.86-4.6,50.64,50.64,0,0,0-9.78-3.73A101.6,101.6,0,0,0,90.7,26.95c-1.63-.23-3.31-.43-5.02-.61s-3.48-.33-5.28-.45-3.63-.21-5.5-.28c-.44-.01-.89-.01-1.34-.02-1.44-.04-2.87-.07-4.34-.08a161.46,161.46,0,0,0-20.58,1.24A100.706,100.706,0,0,0,31.99,30.2a37,37,0,0,0-11.01,5.18c-2.55,1.97-3.95,4.14-3.99,6.45v.25a2.348,2.348,0,0,0,.01.26,2.275,2.275,0,0,0,.02.26,1.66,1.66,0,0,0,.03.22h0l103.69.34Z" fill="#c27400"/>
        <path id="Path_3134" data-name="Path 3134" d="M17.1,41.62a6.629,6.629,0,0,0,1.4,5.25,17.79,17.79,0,0,0,5.86,4.6,50.64,50.64,0,0,0,9.78,3.73,101.6,101.6,0,0,0,13.02,2.63c1.63.23,3.31.43,5.02.61s3.48.33,5.28.45,3.63.21,5.5.28c.44.01.89.01,1.34.02,1.44.04,2.87.07,4.34.08a161.46,161.46,0,0,0,20.58-1.24,100.706,100.706,0,0,0,16.65-3.45,37,37,0,0,0,11.01-5.18c2.55-1.97,3.95-4.14,3.99-6.45V42.7a2.09,2.09,0,0,0-.01-.25,2.276,2.276,0,0,0-.02-.26,1.66,1.66,0,0,0-.03-.22h0L17.12,41.63Z" fill="#ffffb7"/>
        <path id="Path_3135" data-name="Path 3135" d="M68.97,27.87a172.782,172.782,0,0,0-19.33.99A114.459,114.459,0,0,0,33.58,31.7a46.054,46.054,0,0,0-11.32,4.31c-2.82,1.64-4.6,3.45-5.07,5.38-.02.07-.03.14-.05.21s-.03.14-.04.21l-.03.21c0,.07-.01.14-.01.21a4.4,4.4,0,0,0,.35,1.91,8.133,8.133,0,0,0,2.4,3.02,21.539,21.539,0,0,0,4.47,2.77c.72.35,1.5.69,2.31,1.02.41.17.83.33,1.26.49a79.333,79.333,0,0,0,12.38,3.31c3.9.75,8.19,1.34,12.74,1.77,1.05-6.8,4.36-13.25,9.53-19.14l4.61-4.67a68.34,68.34,0,0,1,5.91-4.78c-1.34-.03-2.69-.07-4.06-.07Z" fill="#fac500"/>
        <path id="Path_3136" data-name="Path 3136" d="M105.82,53.04a39.082,39.082,0,0,0,11.05-4.71c2.57-1.77,3.96-3.72,3.89-5.77a6.372,6.372,0,0,0-2.49-4.34,23.785,23.785,0,0,0-6.56-3.81,65.369,65.369,0,0,0-9.92-3.1A120.9,120.9,0,0,0,89.2,29.1q-2.325-.285-4.77-.51c-1.62-.15-3.28-.28-4.97-.38s-3.41-.19-5.16-.24c-.41-.01-.84-.01-1.25-.02a70.274,70.274,0,0,0-5.91,4.78s-4.24,4.48-4.61,4.67C57.37,43.29,54.05,49.74,53,56.54c.98.09,1.95.19,2.95.26,1.03.08,2.08.15,3.13.21s2.12.11,3.2.16,2.17.08,3.26.1,2.2.04,3.32.04A169.02,169.02,0,0,0,89.25,56.2a107.559,107.559,0,0,0,16.57-3.16Z" fill="#fad351"/>
        <path id="Path_3137" data-name="Path 3137" d="M58.71,44.81c12.49-.19,19.84-2.44,19.86-5.92l9.12-.08V37.28l-.86-.18-8.78.09c-.87-1.56-2.71-2.66-4.97-3.41l12-.16V32.09l-.86-.18-29,.43-.99.65v1.53l5.25-.07c6.43-.08,10.37.85,11.56,2.8l-18.13.18-.76.14V39.1l19.25-.16c-.47,2.34-5.79,3.9-15.86,3.96l-5.13.03-.94.55v1.53c.68.29,1.33.57,2,.85,7.63,2.98,14.67,5.66,23.02,8.56H85.97V52.88c-6.22-2.05-14.4-3.32-19.56-5.16-2.74-1.04-5.31-2.03-7.69-2.93Z" fill="#c27400"/>
        <path id="Path_3138" data-name="Path 3138" d="M74.48,52.9H85.96c-7.14-2.33-13.74-4.62-19.56-6.69-5.39-.48-10.39-1.11-14.94-1.87C59.09,47.32,66.13,50,74.48,52.9Z" fill="#ffed45"/>
        <path id="Path_3139" data-name="Path 3139" d="M78.57,37.36l9.12-.08-.86-1.71-8.78.09c-.87-1.56-2.71-2.66-4.97-3.41l12-.16-.86-1.71-29,.43-.99,2.18,5.25-.07c6.43-.08,10.37.85,11.56,2.8l-18.13.18-.76,1.68,19.25-.16c-.47,2.34-5.79,3.9-15.86,3.96l-5.13.03-.94,2.08c.68.29,1.33.57,2,.85,4.55.75,9.55,1.38,14.94,1.87-2.74-1.04-5.31-2.03-7.69-2.93,12.49-.19,19.84-2.44,19.86-5.92Z" fill="#fff1a1"/>
        <path id="Path_3140" data-name="Path 3140" d="M60.96,36.17c-4.46-.42-8.67-1-12.49-1.74a76.991,76.991,0,0,1-12.13-3.25c-.42-.16-.84-.32-1.24-.48-.8-.32-1.56-.66-2.27-1a20.534,20.534,0,0,1-4.38-2.72,8.008,8.008,0,0,1-2.35-2.96,4.367,4.367,0,0,1-.34-1.87,1.477,1.477,0,0,1,.01-.21,1.517,1.517,0,0,1,.03-.21,1.552,1.552,0,0,1,.04-.21,1.6,1.6,0,0,1,.05-.21h0a5.1,5.1,0,0,1-.19-.5,4.768,4.768,0,0,1-.13-.51,4.462,4.462,0,0,1-.07-.51,3.009,3.009,0,0,1,0-.52c.09-2.01,1.6-3.91,4.27-5.63A41.363,41.363,0,0,1,40.88,9.11,109.025,109.025,0,0,1,57.14,6.1a168.586,168.586,0,0,1,19.8-1.05c2.7,0,5.35.08,7.94.2q3.03-1.92,6.38-3.69c-1.82-.15-3.66-.28-5.54-.37-2.7-.13-5.45-.21-8.25-.22A170.176,170.176,0,0,0,53.85,2.48,112.426,112.426,0,0,0,34.41,6.77a45.862,45.862,0,0,0-13.35,6.47c-3.22,2.46-5.07,5.18-5.22,8.06-.14,2.67,1.21,5.24,3.8,7.61a36.685,36.685,0,0,0,11.25,6.47A96.4,96.4,0,0,0,48.1,40.12c3.95.74,8.16,1.33,12.57,1.77-.01-.4-.03-.81-.02-1.21a29.628,29.628,0,0,1,.36-4.52Z" fill="#fd0"/>
        <path id="Path_3141" data-name="Path 3141" d="M138.92,22.14l-.21,18.97a8.388,8.388,0,0,1-1.31,4.3,15.79,15.79,0,0,1-3.71,4.01,32.962,32.962,0,0,1-5.86,3.62,60.307,60.307,0,0,1-7.77,3.14l.17-19.2a61.679,61.679,0,0,0,7.79-3.09,32.669,32.669,0,0,0,5.87-3.57,15.617,15.617,0,0,0,3.71-3.95,8.172,8.172,0,0,0,1.32-4.24" fill="#b56600"/>
        <path id="Path_3142" data-name="Path 3142" d="M41.35,38.69l.02,19.23a84.215,84.215,0,0,1-10.55-3.36,44.85,44.85,0,0,1-8.04-4.1,19.61,19.61,0,0,1-5.12-4.68,8.726,8.726,0,0,1-1.8-5.09l-.08-18.98a8.452,8.452,0,0,0,1.81,5.02,19.356,19.356,0,0,0,5.13,4.61,44.782,44.782,0,0,0,8.06,4.04,82.664,82.664,0,0,0,10.57,3.31" fill="#b56600"/>
        <path id="Path_3143" data-name="Path 3143" d="M54.6,41.2c-2.37-.33-4.67-.7-6.88-1.12s-4.34-.88-6.37-1.39l.02,19.23q3.045.765,6.36,1.41t6.86,1.14c.87.12,1.77.23,2.66.34l.07-19.27c-.91-.11-1.82-.22-2.71-.34Z" fill="#d48d00"/>
        <path id="Path_3144" data-name="Path 3144" d="M111.05,58.66a91.479,91.479,0,0,0,9-2.47l.17-19.2c-2.77.9-5.79,1.72-9.02,2.43-2.38.53-4.88.99-7.48,1.4l-.07,19.25c2.57-.41,5.04-.89,7.4-1.42Z" fill="#d48d00"/>
        <path id="Path_3145" data-name="Path 3145" d="M69.57,61.84c.63.03,1.26.05,1.89.08l1.9.06c.64.02,1.28.03,1.92.04s1.29.02,1.94.02c4.17.01,8.24-.11,12.18-.37s7.73-.65,11.36-1.16c.98-.14,1.94-.28,2.9-.44l.07-19.25c-.94.15-1.88.29-2.84.42-3.63.5-7.44.88-11.39,1.14s-8.03.38-12.2.37c-.65,0-1.3,0-1.94-.02-.64,0-1.29-.02-1.92-.04l-1.91-.06c-.63-.02-1.26-.05-1.89-.08-2.62-.12-5.19-.29-7.69-.52-1.56-.14-3.1-.31-4.61-.49l-.07,19.27c1.53.19,3.07.36,4.64.5q3.75.345,7.68.53Z" fill="#e49c00"/>
        <path id="Path_3146" data-name="Path 3146" d="M130.19,32.75a27.781,27.781,0,0,0,4.21-2.84c3.03-2.51,4.64-5.27,4.51-8.16a9.164,9.164,0,0,0-2.42-5.52,23.513,23.513,0,0,0-6.34-4.94,55.06,55.06,0,0,0-9.64-4.17A99.746,99.746,0,0,0,108.17,3.9c-2.26-.45-4.62-.86-7.05-1.21s-4.94-.66-7.52-.9c-.78-.08-1.58-.14-2.38-.2q-3.345,1.77-6.38,3.69c4.14.2,8.12.53,11.86.99a108.9,108.9,0,0,1,16.24,3.12A41.287,41.287,0,0,1,124.02,14c2.65,1.74,3.38,3.65,3.46,5.65a4.347,4.347,0,0,1-.04.72,6.2,6.2,0,0,1-.16.72,4.277,4.277,0,0,1-.28.72c-.11.24.52.48.37.72a4.9,4.9,0,0,1-1.03,3.04,10.235,10.235,0,0,1,3.83,7.19Z" fill="#ffee7a"/>
        <path id="Path_3147" data-name="Path 3147" d="M111.44,39.36a10.219,10.219,0,0,1-1.77-5.8h0a114.492,114.492,0,0,1-13.16,2.29,168.807,168.807,0,0,1-19.99,1.09h0c-1.09,0-2.18-.02-3.26-.04s-2.14-.06-3.2-.1-2.1-.09-3.14-.15-2.06-.13-3.07-.21c-.98-.07-1.94-.17-2.89-.26a29.628,29.628,0,0,0-.36,4.52c0,.41,0,.81.02,1.21q4.38.435,8.99.65c.63.03,1.26.05,1.89.08l1.91.06c.64.02,1.28.03,1.92.04s1.29.02,1.94.02a168.715,168.715,0,0,0,24.33-1.61c3.46-.49,6.74-1.09,9.83-1.78Z" fill="#ffee7a"/>
        <path id="Path_3148" data-name="Path 3148" d="M111.44,39.36a92.53,92.53,0,0,0,9.89-2.74,53.178,53.178,0,0,0,8.86-3.87,10.272,10.272,0,0,0-3.83-7.19,11.318,11.318,0,0,1-2.78,2.59,38.33,38.33,0,0,1-10.83,4.61c-.98.28-2.02.55-3.08.8h0a10.3,10.3,0,0,0,1.77,5.8Z" fill="#ffffb7"/>
        <path id="Path_3149" data-name="Path 3149" d="M128.42,21.95a6.629,6.629,0,0,0-1.4-5.25,17.79,17.79,0,0,0-5.86-4.6,50.64,50.64,0,0,0-9.78-3.73A101.6,101.6,0,0,0,98.36,5.74c-1.63-.23-3.31-.43-5.02-.61s-3.48-.33-5.28-.45-3.63-.21-5.5-.28c-.44-.01-.89-.01-1.34-.02-1.44-.04-2.87-.07-4.34-.08A161.46,161.46,0,0,0,56.3,5.54,100.706,100.706,0,0,0,39.65,8.99a37,37,0,0,0-11.01,5.18c-2.55,1.97-3.95,4.14-3.99,6.45v.25a2.09,2.09,0,0,0,.01.25,2.275,2.275,0,0,0,.02.26,1.66,1.66,0,0,0,.03.22h0l103.69.34Z" fill="#c27400"/>
        <path id="Path_3150" data-name="Path 3150" d="M24.76,20.41a6.629,6.629,0,0,0,1.4,5.25,17.79,17.79,0,0,0,5.86,4.6,50.641,50.641,0,0,0,9.78,3.73,101.6,101.6,0,0,0,13.02,2.63c1.63.23,3.31.43,5.02.61s3.48.33,5.28.45,3.63.21,5.5.28c.44.01.89.01,1.34.02,1.44.04,2.87.07,4.34.08a161.46,161.46,0,0,0,20.58-1.24,100.706,100.706,0,0,0,16.65-3.45,37,37,0,0,0,11.01-5.18c2.55-1.97,3.95-4.14,3.99-6.45v-.25a2.091,2.091,0,0,0-.01-.25,2.273,2.273,0,0,0-.02-.26,1.661,1.661,0,0,0-.03-.22h0L24.78,20.42Z" fill="#ffffb7"/>
        <path id="Path_3151" data-name="Path 3151" d="M76.63,6.66a172.782,172.782,0,0,0-19.33.99,114.459,114.459,0,0,0-16.06,2.84A46.054,46.054,0,0,0,29.92,14.8c-2.82,1.64-4.6,3.45-5.07,5.38-.02.07-.03.14-.05.21s-.03.14-.04.21l-.03.21c0,.07-.01.14-.01.21a4.4,4.4,0,0,0,.35,1.91,8.133,8.133,0,0,0,2.4,3.02,21.539,21.539,0,0,0,4.47,2.77c.72.35,1.5.69,2.31,1.02.41.17.83.33,1.26.49a79.332,79.332,0,0,0,12.38,3.31c3.9.75,8.19,1.34,12.74,1.77,1.05-6.8,4.36-13.25,9.53-19.14l4.61-4.67a68.341,68.341,0,0,1,5.91-4.78c-1.34-.03-2.69-.07-4.06-.07Z" fill="#fac500"/>
        <path id="Path_3152" data-name="Path 3152" d="M113.48,31.83a39.082,39.082,0,0,0,11.05-4.71c2.57-1.77,3.96-3.72,3.89-5.77a6.372,6.372,0,0,0-2.49-4.34,23.785,23.785,0,0,0-6.56-3.81,65.369,65.369,0,0,0-9.92-3.1A120.894,120.894,0,0,0,96.86,7.89q-2.325-.285-4.77-.51c-1.62-.15-3.28-.28-4.97-.38s-3.41-.19-5.16-.24c-.41-.01-.84-.01-1.25-.02a70.274,70.274,0,0,0-5.91,4.78S70.56,16,70.19,16.19c-5.16,5.89-8.48,12.34-9.53,19.14.98.09,1.95.19,2.95.26,1.03.08,2.08.15,3.13.21s2.12.11,3.2.16,2.17.08,3.26.1,2.2.04,3.32.04a169.02,169.02,0,0,0,20.39-1.11,107.559,107.559,0,0,0,16.57-3.16Z" fill="#fad351"/>
        <path id="Path_3153" data-name="Path 3153" d="M66.37,23.59c12.49-.19,19.84-2.44,19.86-5.92l9.12-.08V16.06l-.86-.18-8.78.09c-.87-1.56-2.71-2.66-4.97-3.41l12-.16V10.87l-.86-.18-29,.43-.99.65V13.3l5.25-.07c6.43-.08,10.37.85,11.56,2.8l-18.13.18-.76.14v1.53l19.25-.16c-.47,2.34-5.79,3.9-15.86,3.96l-5.13.03-.94.55v1.53c.68.29,1.33.57,2,.85,7.63,2.98,14.67,5.66,23.02,8.56H93.63V31.66c-6.22-2.05-14.4-3.32-19.56-5.16-2.74-1.04-5.31-2.03-7.69-2.93Z" fill="#c27400"/>
        <path id="Path_3154" data-name="Path 3154" d="M82.15,31.69H93.63C86.49,29.36,79.89,27.07,74.07,25c-5.39-.48-10.39-1.11-14.94-1.87,7.63,2.98,14.67,5.66,23.02,8.56Z" fill="#ffed45"/>
        <path id="Path_3155" data-name="Path 3155" d="M86.23,16.15l9.12-.08-.86-1.71-8.78.09c-.87-1.56-2.71-2.66-4.97-3.41l12-.16-.86-1.71-29,.43-.99,2.18,5.25-.07c6.43-.08,10.37.85,11.56,2.8l-18.13.18-.76,1.68,19.25-.16c-.47,2.34-5.79,3.9-15.86,3.96l-5.13.03-.94,2.08c.68.29,1.33.57,2,.85,4.55.75,9.55,1.38,14.94,1.87-2.74-1.04-5.31-2.03-7.69-2.93,12.49-.19,19.84-2.44,19.86-5.92Z" fill="#fff1a1"/>
      </g>
    </g>
  </g>
</svg>
