<svg xmlns="http://www.w3.org/2000/svg" xmlns:xlink="http://www.w3.org/1999/xlink" width="255" height="283" viewBox="0 0 255 283">
  <defs>
    <clipPath id="clip-coinbag_1">
      <rect width="255" height="283"/>
    </clipPath>
  </defs>
  <g id="coinbag_1" clip-path="url(#clip-coinbag_1)">
    <g id="coinbag_1-2" data-name="coinbag_1" transform="translate(0 -0.005)">
      <ellipse id="Ellipse_931" data-name="Ellipse 931" cx="115.29" cy="20.32" rx="115.29" ry="20.32" transform="translate(0 237.73)" fill="#d3d3d3" opacity="0.64"/>
      <path id="Path_3862" data-name="Path 3862" d="M206.34,10.51a19.674,19.674,0,0,1-2.48,2.4c-5.61,4.77-21.41,14.98-53.78,14.98-26.78,0-42.92-4.42-50.66-7.33a37.527,37.527,0,0,1-5.59-2.51S85.81-2.6,116.56.28s47.91,13.95,60.62,8.75,33.36-6.76,29.16,1.49Z" fill="#c6a366"/>
      <path id="Path_3863" data-name="Path 3863" d="M203.87,12.91c-5.61,4.77-21.41,14.98-53.78,14.98-26.78,0-42.92-4.42-50.66-7.33-.01-.02-.02-.02-.02-.02S85.82,1.41,116.57,4.29,163.89,15.65,177.11,12c12.15-3.36,27.87-6.12,26.76.92Z" fill="#534741"/>
      <path id="Path_3864" data-name="Path 3864" d="M224.97,56.03a2.725,2.725,0,0,0-3.84.06c-6.53,6.74-17.43,5.52-30.82-2.02l-.06-.03a20.833,20.833,0,0,0-14.57-2.23v8.05a26.347,26.347,0,0,1,9.7,4.36c.15.11.31.23.47.36,4.68,3.9,11.14,17.41,19.34,22.37a17.973,17.973,0,0,0,15.11,1.87,2.722,2.722,0,0,0-1.59-5.2c-9.1,2.35-17.78-4.39-25.29-17.84a20.426,20.426,0,0,0-4.57-5.61,21.015,21.015,0,0,0-4.65-3.01,36.458,36.458,0,0,1,5.11,1.81c6.47,2.69,15.04,7.03,22.03,7.01A17.918,17.918,0,0,0,225.2,59.7a2.669,2.669,0,0,0,.61-1.7,2.71,2.71,0,0,0-.83-1.96Z" fill="#ec743a"/>
      <path id="Path_3865" data-name="Path 3865" d="M190.3,54.08l-.06-.03a20.832,20.832,0,0,0-14.57-2.23v8.05a26.417,26.417,0,0,1,9.7,4.36c.15.11.31.23.47.36a13.852,13.852,0,0,0,2.99-4.41,21.015,21.015,0,0,0-4.65-3.01,36.458,36.458,0,0,1,5.11,1.81,20.3,20.3,0,0,0,1.01-4.89Z" fill="#c45226"/>
      <path id="Path_3866" data-name="Path 3866" d="M206.34,10.51s-5.02,30.14-33.65,46.71c0,0-18.6,6.51-32.63,2.24A21.319,21.319,0,0,1,131,54.2S99.86,30.59,93.83,18.04c0,0,3.89-9.61,27.12-10.3a56.726,56.726,0,0,1,13.4,1.51c18.54,3.93,40.69,13.29,71.99,1.25Z" fill="#e8c47b"/>
      <path id="Path_3867" data-name="Path 3867" d="M155.34,282.17c-112.07,0-113.79-84.84-78.82-137.56s55.11-92.3,55.11-92.3l2.88.49a117.557,117.557,0,0,0,12.81,1.44h0a117.244,117.244,0,0,0,28.77-1.92s5.78,9.9,15.93,26.38,24.67,39.56,42.15,65.92c11.25,16.95,18.7,37.22,19.9,56.93h0c2.55,41.58-22.69,80.63-98.73,80.63Z" fill="#e8c47b"/>
      <path id="Path_3868" data-name="Path 3868" d="M231.7,259.72c-15.66,13.67-40.3,22.46-76.36,22.46-112.07,0-113.79-84.84-78.82-137.56s55.11-92.3,55.11-92.3l2.88.49c1.52.26,3.04.48,4.57.68q4.11.525,8.23.76h0s-6.73,48.56-35.48,88.64-16.64,96.72,43.5,107.18,101.2-10.55,98.72-48.52h0c1.34,21.86-5,43.02-22.37,58.18Z" fill="#dab873"/>
      <path id="Path_3869" data-name="Path 3869" d="M231.7,259.72c-15.66,13.67-40.3,22.46-76.36,22.46-112.07,0-113.79-84.84-78.82-137.56s55.11-92.3,55.11-92.3l2.88.49c1.52.26,3.04.48,4.57.68C137,61.79,130.43,76,119.01,95.1c-18.72,31.32-62.85,79.19-42.79,125.56s84.56,62.86,124.51,52.16a116.4,116.4,0,0,0,30.96-13.1Z" fill="#c6a366"/>
      <path id="Path_3870" data-name="Path 3870" d="M134.36,9.28v0Z" fill="#dab873"/>
      <path id="Path_3871" data-name="Path 3871" d="M147.51,52.78c.66-10.55-14.89-14.07-22.56-26.86-8.02-13.37,9.41-16.65,9.41-16.65a56.726,56.726,0,0,0-13.4-1.51c-7.61.23-13.14,1.4-17.14,2.89-8.22,3.06-9.98,7.4-9.98,7.4,5.14,10.71,28.53,29.44,35.31,34.73Z" fill="#dab873"/>
      <path id="Path_3872" data-name="Path 3872" d="M140.67,52.78c-9.6-7.36-26.66-20.74-33.84-28.23-5.45-5.69-4.81-10.57-3.02-13.91-8.22,3.06-9.98,7.4-9.98,7.4,5.14,10.71,28.53,29.44,35.31,34.73h11.52Z" fill="#c6a366"/>
      <path id="Path_3873" data-name="Path 3873" d="M182.01,55.68a4.974,4.974,0,0,1-1.68,3.79s-26.52-8.18-53.25,1.45a8.141,8.141,0,0,1-1.47-5.12,8.591,8.591,0,0,1,1.36-4.08s25.83-7.32,53.68.12A7.151,7.151,0,0,1,182.01,55.68Z" fill="#ec743a"/>
      <path id="Path_3874" data-name="Path 3874" d="M182.01,55.68a4.974,4.974,0,0,1-1.68,3.79s-26.52-8.18-53.25,1.45a8.141,8.141,0,0,1-1.47-5.12c6.26-2.11,31.53-7.54,56.4-.12Z" fill="#c45226"/>
      <path id="Path_3875" data-name="Path 3875" d="M183.94,51.54a3.942,3.942,0,0,1-3.28,1.25s-24.34-9.39-53.68-.12a4.395,4.395,0,0,1-2.97-1.48,3.489,3.489,0,0,1-.68-2.11s31.97-11.22,61.28.38a3.144,3.144,0,0,1-.66,2.09Z" fill="#ec743a"/>
      <path id="Path_3876" data-name="Path 3876" d="M183.94,51.54a3.942,3.942,0,0,1-3.28,1.25s-24.34-9.39-53.68-.12a4.395,4.395,0,0,1-2.97-1.48c4.74-1.52,33.33-9.86,59.94.35Z" fill="#c45226"/>
      <path id="Path_3877" data-name="Path 3877" d="M195.57,139.79H172.31a32.083,32.083,0,0,1,4.57,11.32h18.69v13.38H177.04a29.927,29.927,0,0,1-18.44,22.77,16.138,16.138,0,0,1-6.11,1.15h-9.44l37.3,37.3H162.9l-37.3-37.3V175.03h21.79a16.826,16.826,0,0,0,15.64-10.55H127.66V151.1h35.35a21.045,21.045,0,0,0-9.93-11.32H127.66V126.4h67.92v13.38Z" fill="#534741"/>
    </g>
  </g>
</svg>
