<svg xmlns="http://www.w3.org/2000/svg" xmlns:xlink="http://www.w3.org/1999/xlink" width="57" height="57" viewBox="0 0 57 57">
  <defs>
    <linearGradient id="linear-gradient" x1="0.1" y1="0.105" x2="0.883" y2="0.878" gradientUnits="objectBoundingBox">
      <stop offset="0" stop-color="#ffd000"/>
      <stop offset="1" stop-color="#fd0"/>
    </linearGradient>
    <radialGradient id="radial-gradient" cx="0.5" cy="0.5" r="0.5" gradientUnits="objectBoundingBox">
      <stop offset="0" stop-color="#f7cd25"/>
      <stop offset="0.55" stop-color="#f7cb23"/>
      <stop offset="0.75" stop-color="#f7c61c"/>
      <stop offset="0.89" stop-color="#f7bd10"/>
      <stop offset="0.95" stop-color="#f7b809"/>
      <stop offset="1" stop-color="#f7b100"/>
    </radialGradient>
    <linearGradient id="linear-gradient-2" x1="0.129" y1="0.073" x2="0.872" y2="0.928" gradientUnits="objectBoundingBox">
      <stop offset="0" stop-color="#f99e00"/>
      <stop offset="0.28" stop-color="#faa907"/>
      <stop offset="0.77" stop-color="#fdc71d"/>
      <stop offset="1" stop-color="#ffd829"/>
    </linearGradient>
    <linearGradient id="linear-gradient-3" x1="0.438" y1="-0.053" x2="0.564" y2="1.067" gradientUnits="objectBoundingBox">
      <stop offset="0" stop-color="#ffd000"/>
      <stop offset="1" stop-color="#f99e00"/>
    </linearGradient>
    <linearGradient id="linear-gradient-4" x1="0.384" y1="-0.031" x2="0.847" y2="1.33" gradientUnits="objectBoundingBox">
      <stop offset="0" stop-color="#fdfb68"/>
      <stop offset="0.33" stop-color="#fd0"/>
      <stop offset="0.45" stop-color="#fed800"/>
      <stop offset="0.59" stop-color="#fbcb00"/>
      <stop offset="0.74" stop-color="#f7b500"/>
      <stop offset="0.88" stop-color="#f29900"/>
    </linearGradient>
    <linearGradient id="linear-gradient-5" x1="0.501" y1="-0.228" x2="0.501" y2="1.025" gradientUnits="objectBoundingBox">
      <stop offset="0.37" stop-color="#fff1a1"/>
      <stop offset="0.52" stop-color="#fff09f"/>
      <stop offset="0.58" stop-color="#fff098"/>
      <stop offset="0.62" stop-color="#fff08c"/>
      <stop offset="0.65" stop-color="#ffef7b"/>
      <stop offset="0.67" stop-color="#ffee65"/>
      <stop offset="0.7" stop-color="#ffed4b"/>
      <stop offset="0.7" stop-color="#ffed48"/>
    </linearGradient>
    <clipPath id="clip-coin_symbol">
      <rect width="57" height="57"/>
    </clipPath>
  </defs>
  <g id="coin_symbol" clip-path="url(#clip-coin_symbol)">
    <g id="coin_profile" transform="translate(0.43 0.43)">
      <circle id="Ellipse_923" data-name="Ellipse 923" cx="27.93" cy="27.93" r="27.93" transform="translate(0.57 0.57)" fill="url(#linear-gradient)"/>
      <g id="Group_499" data-name="Group 499">
        <circle id="Ellipse_924" data-name="Ellipse 924" cx="27.93" cy="27.93" r="27.93" transform="translate(0.57 0.57)" opacity="0.4" fill="url(#radial-gradient)"/>
      </g>
      <circle id="Ellipse_925" data-name="Ellipse 925" cx="27.36" cy="27.36" r="27.36" transform="translate(1.14 1.14)" fill="#ffee7a"/>
      <path id="Path_3846" data-name="Path 3846" d="M3.19,18.08A27.365,27.365,0,1,0,55.86,28.5v-.34a33.334,33.334,0,0,1-22.57,8.76A33.463,33.463,0,0,1,3.19,18.09Z" fill="#fea400" opacity="0.59"/>
      <circle id="Ellipse_926" data-name="Ellipse 926" cx="22.23" cy="22.23" r="22.23" transform="translate(6.27 6.27)" fill="url(#linear-gradient-2)"/>
      <path id="Path_3847" data-name="Path 3847" d="M28.5,49.89a21.341,21.341,0,1,1,8.33-1.68,21.374,21.374,0,0,1-8.33,1.68Z" fill="url(#linear-gradient-3)"/>
      <path id="Path_3848" data-name="Path 3848" d="M33.29,34.69a33.319,33.319,0,0,0,16.52-4.36c.05-.61.08-1.22.08-1.83A21.39,21.39,0,0,0,7.84,22.94,33.367,33.367,0,0,0,33.29,34.68Z" fill="#fad351"/>
      <path id="Path_3849" data-name="Path 3849" d="M8.79,36.83a21.457,21.457,0,0,0,4.58,6.8,21.439,21.439,0,0,0,23.46,4.58,21.457,21.457,0,0,0,6.8-4.58,21.184,21.184,0,0,0,4.58-6.8,20.87,20.87,0,0,0,1.6-6.5,33.319,33.319,0,0,1-16.52,4.36A33.385,33.385,0,0,1,7.84,22.95a21.48,21.48,0,0,0,.95,13.88Z" fill="#fea400" opacity="0.5"/>
      <path id="Path_3850" data-name="Path 3850" d="M31.4,45.09a.631.631,0,0,1-.52-.27L22.79,32.98H19.41a.623.623,0,0,1-.62-.62V28.75a.623.623,0,0,1,.62-.62h3.47a8.172,8.172,0,0,0,4.84-1.23,4.483,4.483,0,0,0,1.73-2.84H19.4a.623.623,0,0,1-.62-.62V20.76a.623.623,0,0,1,.62-.62h3.42l6.31-.01c-.83-1.68-2.83-2.47-6.25-2.47H19.41a.623.623,0,0,1-.62-.62V13.43a.623.623,0,0,1,.62-.62H37.45a.623.623,0,0,1,.62.62v2.69a.623.623,0,0,1-.62.62H32.91a7.993,7.993,0,0,1,1.8,3.39h2.74a.623.623,0,0,1,.62.62v2.69a.623.623,0,0,1-.62.62H34.91a9.31,9.31,0,0,1-6.53,8.2l8.36,11.87a.632.632,0,0,1,.04.65.622.622,0,0,1-.55.34H31.4Z" fill="url(#linear-gradient-4)"/>
      <path id="Path_3851" data-name="Path 3851" d="M37.46,13.16H19.42a.226.226,0,0,0-.23.23V17a.226.226,0,0,0,.23.23h3.47c3.72,0,5.88.94,6.71,2.94a.233.233,0,0,1-.21.32H19.41a.258.258,0,0,0-.23.25v2.68a.226.226,0,0,0,.23.23H29.66a.237.237,0,0,1,.23.27,5.006,5.006,0,0,1-1.92,3.28,8.492,8.492,0,0,1-5.08,1.31H19.42a.226.226,0,0,0-.23.23v3.61a.226.226,0,0,0,.23.23h3.46a.228.228,0,0,1,.19.1l8.14,11.91a.228.228,0,0,0,.19.1h4.83a.228.228,0,0,0,.19-.36L27.93,32.28a.226.226,0,0,1,.12-.35,9.284,9.284,0,0,0,4.28-2.71,9.385,9.385,0,0,0,2.2-5.37.229.229,0,0,1,.23-.21h2.68a.226.226,0,0,0,.23-.23V20.72a.226.226,0,0,0-.23-.23H34.58a.216.216,0,0,1-.22-.18,7.524,7.524,0,0,0-2-3.61.228.228,0,0,1,.16-.39h4.92a.226.226,0,0,0,.23-.23V13.39a.226.226,0,0,0-.23-.23Z" fill="url(#linear-gradient-5)"/>
      <path id="Path_3852" data-name="Path 3852" d="M48.38,9.7a14.952,14.952,0,0,1-3.86,3.39,21.8,21.8,0,0,0-9.38-5.81s1.7-3.67,2.87-4.45c0,0,6.53,2.36,10.38,6.86Z" fill="#ffffb7"/>
      <path id="Path_3853" data-name="Path 3853" d="M43.76,1.31l.16,1.24a4.108,4.108,0,0,0,3.57,3.57l1.24.16-1.24.16a4.108,4.108,0,0,0-3.57,3.57l-.16,1.24-.16-1.24a4.108,4.108,0,0,0-3.57-3.57l-1.24-.16,1.24-.16A4.108,4.108,0,0,0,43.6,2.55Z" fill="#fff"/>
    </g>
  </g>
</svg>
