<svg xmlns="http://www.w3.org/2000/svg" xmlns:xlink="http://www.w3.org/1999/xlink" width="491" height="548" viewBox="0 0 491 548">
  <defs>
    <clipPath id="clip-dora_noopponent">
      <rect width="491" height="548"/>
    </clipPath>
  </defs>
  <g id="dora_noopponent" clip-path="url(#clip-dora_noopponent)">
    <g id="dora_noopponent-2" data-name="dora_noopponent" transform="translate(-4.858 -18.624)">
      <path id="Path_4498" data-name="Path 4498" d="M303.452,473.742s18.808,5.11,31.131-4.663c7.567-6.005,22.294-45.161,50.511-46.337s57.869,21.732,57.869,21.732a113.979,113.979,0,0,0-23.876,21.743c-7.8,9.617-21.826,37.553-47.367,45.733-34.836,11.157-75.2-20.119-75.2-20.119l6.932-18.079Z" transform="translate(11.888 16.481)" fill="#ffcf06"/>
      <path id="Path_4499" data-name="Path 4499" d="M299.964,489.216c15.529,4.08,34.961,2.175,46.93-9.357,4.08-3.934,7.067-9.388,10.085-14.145q2.67-4.215,5.485-8.337c1.01-1.478,2.071-2.925,3.143-4.361-1.79,2.4,2.238-2.6,2.841-3.279,1.228-1.384,2.54-2.7,3.872-3.986.427-.416,4.746-3.955,2.165-2.019a45.11,45.11,0,0,1,4.59-2.935c.791-.437,1.6-.843,2.425-1.218q-2.4,1,.115.083c.7-.239,6.13-1.207,2.675-.822a44.294,44.294,0,0,1,6.953-.031,61.262,61.262,0,0,1,12.2,2.55c10.96,3.216,22.357,9.346,32.359,17.017V431.753a120.493,120.493,0,0,0-33.316,32.661c-1.873,2.727-3.726,5.464-5.62,8.181A67.905,67.905,0,0,1,391.3,479.9c-5.849,7.025-10.46,11.272-17.5,15.31-6.422,3.695-13.041,4.642-21.638,4.184a49.286,49.286,0,0,1-10.689-1.978A100.184,100.184,0,0,1,329.3,493.3c2.394.958-2.717-1.27-3.2-1.5-1.686-.791-3.331-1.655-4.986-2.519-2.821-1.488-5.579-3.112-8.285-4.788s-5.391-3.445-7.921-5.381q3.544,8.712,7.088,17.413l6.932-18.079c3.008-7.858-3.258-16.9-10.772-18.964-8.7-2.394-15.956,2.925-18.964,10.772l-6.932,18.079c-2.665,6.953,1.946,13.458,7.088,17.413,24.157,18.589,60.544,31.8,90.28,20.525,19.4-7.359,32.983-22.648,44.62-39.207,1.853-2.633,3.632-5.319,5.464-7.962.739-1.072,1.5-2.134,2.269-3.174q-2.779,3.56.042.083c1.384-1.655,2.873-3.227,4.351-4.788a114.88,114.88,0,0,1,11.959-10.762c-2.477,1.967,2.03-1.415,3.018-2.05,10.523-6.828,9.2-19.567,0-26.624-24.9-19.1-65.582-34.836-93.538-13.812-13.031,9.8-21.649,23.252-30.371,36.772-.677,1.041-1.363,2.071-2.071,3.081-1.655,2.383,2.6-3.029.135-.187-2.144,2.467,3.081-1.821-1.041.749-1.624,1.02-1.592.812-4.236,1.5-1.926.354-2.154.427-.687.208-1.02.094-2.04.156-3.06.177a46.357,46.357,0,0,1-5.506-.2c-3.487-.271,3.237.614-.906-.156-.635-.115-1.28-.26-1.9-.427-19.255-5.058-27.415,24.688-8.2,29.736Z" transform="translate(11.275 15.88)" fill="#1c0e09"/>
      <path id="Path_4500" data-name="Path 4500" d="M303.452,473.742s18.808,5.11,31.131-4.663c7.567-6.005,22.294-45.161,50.511-46.337s57.869,21.732,57.869,21.732a113.979,113.979,0,0,0-23.876,21.743c-7.8,9.617-21.826,37.553-47.367,45.733-34.836,11.157-75.2-20.119-75.2-20.119l6.932-18.079Z" transform="translate(11.888 16.481)" fill="#f0842a"/>
      <path id="Path_4501" data-name="Path 4501" d="M307.261,483.557s18.808,5.11,31.131-4.673c7.567-6.005,22.43-43.277,50.511-46.337,24.3-2.644,54.06,11.917,54.06,11.917s-29.642-22.908-57.869-21.732-42.944,40.342-50.511,46.337c-12.323,9.784-31.131,4.663-31.131,4.663l-6.932,18.079s2.186,1.7,5.974,4.153l4.767-12.417Z" transform="translate(11.888 16.481)" fill="#fbb040"/>
      <path id="Path_4502" data-name="Path 4502" d="M415.568,454.534c-8.389,9.107-21.826,37.553-47.367,45.733-26.666,8.545-56.589-7.8-69.141-15.914l-2.54,6.62s40.373,31.277,75.2,20.119c25.542-8.181,39.572-36.127,47.367-45.733a113.979,113.979,0,0,1,23.876-21.743,33.312,33.312,0,0,0-27.394,10.918Z" transform="translate(11.888 17.329)" fill="#f15a29"/>
      <path id="Path_4503" data-name="Path 4503" d="M440.45,444.463s-29.632-22.523-57.869-21.732c-10.856.312-20.046,6.838-24.49,11.782,0,0,4.018,2.81,14.082,3.809s13.479-1.02,13.479-1.02a28.83,28.83,0,0,1-2.841,12.459c-3.091,6.349-11.865,11.1-11.865,11.1s18.069,3.393,25.854-.978,9.909-7.275,9.909-7.275-2.664,5.787-2.061,11.23c1.166,10.377,3.757,13.989,3.757,13.989,2.165-3.174,6.568-9.659,8.16-11.626a113.98,113.98,0,0,1,23.876-21.743Z" transform="translate(14.401 16.482)" fill="#fff"/>
      <path id="Path_4504" data-name="Path 4504" d="M358.569,434l-.479.51s3.643,2.54,12.667,3.653a36.739,36.739,0,0,1,15.623-5.62c24.3-2.644,54.06,11.917,54.06,11.917s-29.632-22.523-57.869-21.732c-9.44.4-17.361,5.038-24.012,11.262Z" transform="translate(14.401 16.482)" fill="#f1f2f2"/>
      <path id="Path_4505" data-name="Path 4505" d="M411.217,454.534a116.928,116.928,0,0,0-8.087,10.9c1.207,8.191,3.279,11.314,3.435,11.543,3.216-4.632,5.849-8.7,8-11.407.062-.073.114-.146.167-.208a113.98,113.98,0,0,1,23.876-21.743,33.312,33.312,0,0,0-27.394,10.918Z" transform="translate(16.24 17.329)" fill="#e6e7e8"/>
      <path id="Path_4506" data-name="Path 4506" d="M177.292,405.95s-55.215,65.571-31.256,79.706,59.691-46.868,59.691-46.868L177.292,405.96Z" transform="translate(5.501 15.798)" fill="#f0842a"/>
      <path id="Path_4507" data-name="Path 4507" d="M173.18,401.841A286.673,286.673,0,0,0,149.8,434.033c-8.118,12.948-21.17,33.879-13.645,49.647,3.5,7.338,11.949,11.074,19.807,10.419,9.6-.8,17.829-6.859,24.782-13.052,12.094-10.762,22.024-24.678,30.329-38.51.073-.125.156-.25.229-.385a6.3,6.3,0,0,0-.968-7.473Q196.115,418.27,181.9,401.851c-5.214-6.026-13.905,2.737-8.722,8.722Q187.4,426.981,201.615,443.4c-.323-2.488-.645-4.986-.968-7.473a177.915,177.915,0,0,1-21.576,29.361c-5.35,5.891-11.678,12.271-19.2,15.31-4.861,1.957-11.376,1.561-12.948-3.008-1.842-5.36,1.051-12.7,3.174-18,3.143-7.858,7.723-15.258,12.282-22.357A257.472,257.472,0,0,1,181.9,410.573c5.079-6.047-3.6-14.821-8.722-8.722Z" transform="translate(5.251 15.546)" fill="#1c0e09"/>
      <path id="Path_4508" data-name="Path 4508" d="M154.572,463.195c3.143-7.858,7.723-15.258,12.282-22.357s9.471-14.03,14.707-20.681c-1.447-1.676-2.9-3.351-4.351-5.027-5.454,6.89-10.575,14.082-15.31,21.462-4.559,7.1-9.138,14.5-12.282,22.357-2.113,5.3-5.017,12.625-3.174,18a6.078,6.078,0,0,0,4.85,3.861c-1.592-5.329,1.207-12.448,3.279-17.621Z" transform="translate(5.739 16.173)" fill="#fbb040"/>
      <path id="Path_4509" data-name="Path 4509" d="M308.488,405.95s55.2,65.571,31.245,79.706-57.474-47.138-57.474-47.138Z" transform="translate(11.306 15.798)" fill="#f0842a"/>
      <path id="Path_4510" data-name="Path 4510" d="M304.368,410.565a270.727,270.727,0,0,1,18.88,25.666A160.147,160.147,0,0,1,335.926,459c2.331,5.256,4.85,12.459,3.612,17.86-1.03,4.486-6.422,5.693-11.262,4.278-7.494-2.2-13.728-9-18.8-14.571a161.689,161.689,0,0,1-21.659-30.923c-.323,2.488-.645,4.986-.968,7.473l26.229-32.567c4.944-6.13-3.737-14.915-8.722-8.722L278.129,434.4c-1.8,2.238-2.415,4.829-.968,7.473A174.338,174.338,0,0,0,303.3,478.021c11.376,11.938,32.9,25.1,45.775,7.5,10.065-13.76-3.664-36.553-10.72-48.419a276.182,276.182,0,0,0-25.136-35.127,1.8,1.8,0,0,0-.135-.156c-5.121-6.1-13.8,2.675-8.722,8.722Z" transform="translate(11.065 15.543)" fill="#1c0e09"/>
      <path id="Path_4511" data-name="Path 4511" d="M334.779,458.378A161.173,161.173,0,0,0,322.1,435.605c-4.548-6.932-9.367-13.739-14.509-20.275-1.384,1.717-2.769,3.445-4.163,5.162q5.511,7.385,10.543,15.1a160.725,160.725,0,0,1,12.677,22.773c2.331,5.256,4.85,12.459,3.612,17.86a5.8,5.8,0,0,1-3.6,4.122c.156.052.3.1.458.156,4.84,1.415,10.242.208,11.272-4.278,1.239-5.412-1.28-12.6-3.612-17.86Z" transform="translate(12.17 16.181)" fill="#f15a29"/>
      <path id="Path_4512" data-name="Path 4512" d="M128.83,539.435c0,3.445,52.238,6.234,116.675,6.234s116.675-2.789,116.675-6.234S309.942,533.2,245.505,533.2s-116.675,2.789-116.675,6.234Z" transform="translate(5.044 20.991)" fill="#1c0e09"/>
      <path id="Path_4513" data-name="Path 4513" d="M301.248,409.452s22.086,122.244,7.067,127.5-28.945-18.683-28.945-18.683-11.969,3.664-32.609,4.028a144.325,144.325,0,0,1-37.251-4.278s-15.383,26.624-32.005,21.129,9.784-130,9.784-130Z" transform="translate(6.807 15.928)" fill="#f0842a"/>
      <path id="Path_4514" data-name="Path 4514" d="M295.546,411.329c4.538,25.177,8.264,50.594,10.616,76.063,1.228,13.343,3.185,29.184.323,41.757a19.074,19.074,0,0,1-.8,2.623c.333-.916-.749.833-.125.156-.479.437-.333.323.458-.344,1.915-1.249-.437.083-1.291.167-2.363.219-4.507-.822-6.495-1.946-5.548-3.143-10.085-8.982-13.291-14.426a6.2,6.2,0,0,0-6.963-2.831c-20.712,6.2-45.858,5.443-66.581-.25a6.233,6.233,0,0,0-6.963,2.831,56.914,56.914,0,0,1-12.188,14.478c-3.081,2.633-7.411,4.954-11.574,4.174-1.832-.344-.416-.062.177.708-.885-1.145-.749-1.28-.822-1.478-4.247-11.865-1.207-28.955.167-41.778,2.883-26.915,7.692-53.748,13.291-80.226-1.978,1.509-3.965,3.018-5.943,4.528q56.985.156,113.959.3c7.952.021,7.952-12.313,0-12.334q-56.985-.156-113.959-.3a6.177,6.177,0,0,0-5.943,4.528c-6.318,29.851-11.636,60.169-14.436,90.561a185.524,185.524,0,0,0-.926,25.448c.25,5.558.729,12.209,3.965,16.976,5.412,7.962,16.726,6.026,24.126,2.279,8.431-4.257,15.04-12.656,20.036-20.452.25-.4.5-.791.729-1.187q-3.481,1.421-6.963,2.831c22.752,6.245,50.386,7.057,73.138.25q-3.482-1.421-6.963-2.831a60.842,60.842,0,0,0,15.529,17.392c6.234,4.756,19.057,8.4,24.948,1.093,3.83-4.757,4.455-11.158,4.923-17.038A175.057,175.057,0,0,0,319.36,498c-1.957-30.121-6.547-60.263-11.9-89.968-1.415-7.816-13.3-4.5-11.9,3.279Z" transform="translate(6.566 15.686)" fill="#1c0e09"/>
      <path id="Path_4515" data-name="Path 4515" d="M302.069,486.909c-2.207-23.96-5.641-47.857-9.815-71.556-34.6-.094-38.708-.083-6.172,0,4.174,23.7,7.608,47.6,9.815,71.556,1.239,13.343,3.185,29.184.323,41.758-.114.52-.271,1.02-.427,1.53a9.086,9.086,0,0,0,4.84,1.072,4.447,4.447,0,0,0,1.082-.333,21.8,21.8,0,0,0,.676-2.269c2.862-12.573.906-28.414-.323-41.758Z" transform="translate(10.555 16.179)" fill="#f15a29"/>
      <path id="Path_4516" data-name="Path 4516" d="M187.434,490.768c2.717-25.365,7.15-50.667,12.344-75.667-2.571,0-5.131-.01-7.7-.021-5.194,25-9.638,50.313-12.344,75.688-1.374,12.823-4.413,29.913-.167,41.778a1.717,1.717,0,0,0,.281.7c.1.021.219.042.364.073a11.45,11.45,0,0,0,6.953-1.135c-4.059-11.844-1.072-28.726.281-41.414Z" transform="translate(7.026 16.17)" fill="#fbb040"/>
      <path id="Path_4517" data-name="Path 4517" d="M278.374,423.36a64.639,64.639,0,0,1,1.3,12.948c0,27.228-9.409,49.293-37.292,49.293s-37.292-22.076-37.292-49.293A63.882,63.882,0,0,1,206.4,423.36h71.962Z" transform="translate(8.157 16.508)" fill="#35b32b"/>
      <path id="Path_4518" data-name="Path 4518" d="M266.96,427.122c2.03,10.772.937,24.823-3.008,33.566-4.184,9.274-10.387,12.885-21.077,13.062a24.718,24.718,0,0,1-12.542-2.841c-3.695-2.03-5.589-4.6-7.931-8.993-4.694-8.805-5.683-23.783-3.612-34.794l-11.9,9.055h71.962c15.9,0,15.9-24.667,0-24.667H206.894c-5.142,0-10.887,3.726-11.9,9.055-3.383,17.923-2.019,37.282,6.1,53.81,7.879,16.049,24.563,23.762,41.778,24.053,17.1.281,32.557-8.035,41.133-22.846,9.263-16.008,10.075-37.3,6.745-55.007-1.239-6.609-9.1-10.283-15.175-8.618-6.88,1.894-9.857,8.576-8.618,15.175Z" transform="translate(7.674 16.025)" fill="#1c0e09"/>
      <path id="Path_4519" data-name="Path 4519" d="M278.374,423.36a64.639,64.639,0,0,1,1.3,12.948c0,27.228-9.409,49.293-37.292,49.293s-37.292-22.076-37.292-49.293A63.882,63.882,0,0,1,206.4,423.36h71.962Z" transform="translate(8.157 16.508)" fill="#fff1d2"/>
      <path id="Path_4520" data-name="Path 4520" d="M242.112,475.871c26,0,35.939-19.2,37.157-43.881.083,1.353.135,2.717.135,4.1,0,27.228-9.409,49.293-37.292,49.293s-37.292-22.076-37.292-49.293c0-1.384.052-2.748.135-4.1,1.218,24.678,11.158,43.881,37.157,43.881Z" transform="translate(8.146 16.861)" fill="#feddaa"/>
      <path id="Path_4521" data-name="Path 4521" d="M450,323.661c1.717-1.124,3.6-2.456,5.724-4.07,14.5-11.053,24.116-26.468,24.116-26.468s-18.558,2.883-33.993-1.2c-.073-.021-.135-.042-.208-.062-2.789-15.31-7.307-36.137-14.655-62.574,7.359-7.931,33.691-40.862,25.9-98.794-9.034-67.122-39.374-96.817-39.374-96.817L375.551,58.847s-12.906,7.1-35.5,16.788c-11.522,4.944-16.663,11.9-18.932,17.527-35.19-10.72-50.355-13.145-71.254-13.145s-35.981,2.425-71.129,13.1c-2.279-5.62-7.421-12.552-18.922-17.486-22.6-9.68-35.5-16.788-35.5-16.788L82.354,33.68S52.024,63.364,42.99,130.5c-7.764,57.63,18.256,90.52,25.781,98.669-7.369,26.53-11.907,47.419-14.7,62.751a.063.063,0,0,0-.042.01c-15.435,4.08-33.993,1.2-33.993,1.2s9.607,15.414,24.116,26.468c2.061,1.561,3.9,2.862,5.579,3.976-.01.177-.021.3-.021.3l-19.036,1.468s54.185,103.228,218.7,103.228S469.037,325.337,469.037,325.337L450,323.869v-.208Z" transform="translate(0.604 0.604)" fill="#ffcf06"/>
      <path id="Path_4522" data-name="Path 4522" d="M458.379,337.577a122.2,122.2,0,0,0,35.367-36.064,15.389,15.389,0,0,0,0-15.56c-3.809-6.495-10.45-8.129-17.413-7.088-1.207.177,5.142-.624.958-.167-2.685.291-5.371.437-8.066.541-6.526.26-12.8.135-18.891-1.644l10.772,10.772c-3.861-21.087-8.941-41.924-14.655-62.574q-1.983,7.494-3.966,15c30.964-33.629,35.7-81.381,28.164-124.637a214.531,214.531,0,0,0-24.084-68.475c-4.819-8.514-10.543-17.392-17.548-24.293a15.543,15.543,0,0,0-18.683-2.415Q389.946,33.2,369.556,45.431c-6.078,3.643-12.646,6.578-19.047,9.6-15.945,7.5-34.545,13.322-42.1,30.954q8.712-3.544,17.413-7.088c-24.7-7.494-49.4-13.624-75.355-13.7-25.875-.073-50.625,6.214-75.23,13.655q8.712,3.544,17.413,7.088c-7.317-17-24.9-22.96-40.394-30.121-6.849-3.164-13.895-6.276-20.379-10.169Q111.315,33.316,90.753,20.972a15.542,15.542,0,0,0-18.683,2.415C65.305,30.058,59.862,38.541,55.1,46.69,43,67.34,35.309,90.665,30.823,114.073c-8.379,43.683-3.539,92.508,27.665,126.594q-1.983-7.494-3.966-15c-5.724,20.712-10.824,41.6-14.7,62.751L50.6,277.647c-5.589,1.613-11.074,1.686-17.049,1.634-2.9-.021-5.8-.229-8.691-.479-.916-.083-1.832-.187-2.748-.291,5.2.614,3.778.52,2.654.354-5.631-.843-10.762-.271-15,3.966-4.777,4.777-6.089,12.844-2.415,18.683a122.514,122.514,0,0,0,35.221,35.971q-3.825-6.651-7.64-13.312a2.942,2.942,0,0,1-.021.3l15.414-15.414-19.036,1.468c-11.792.905-19.026,12.365-13.312,23.2,8.379,15.893,21.743,30.09,34.867,42.111,33.275,30.485,75.095,50.4,118.9,60.378,98.045,22.325,215.646,3.851,287.317-71.431,8.847-9.294,17.8-19.671,23.908-31.047,5.808-10.814-1.592-22.294-13.312-23.2l-19.036-1.468,15.414,15.414v-.208c-.385-8.389-6.713-15.414-15.414-15.414-8.108,0-15.81,7.015-15.414,15.414v.208c.416,8.9,6.734,14.748,15.414,15.414l19.036,1.468q-6.651-11.6-13.312-23.2a96.692,96.692,0,0,1-7.879,11.844c-.333.448-.666.885-1.01,1.332-1.53,2.019,2.56-3.3.968-1.259-.781,1-1.582,1.988-2.383,2.966-1.967,2.394-4.007,4.736-6.089,7.036a205.026,205.026,0,0,1-15.446,15.227c-3.008,2.675-6.1,5.256-9.242,7.754-.614.489-3.528,2.727-.239.2-.864.666-1.738,1.311-2.612,1.957-2.1,1.561-4.247,3.07-6.4,4.559a236.11,236.11,0,0,1-26.51,15.758c-4.861,2.5-9.825,4.788-14.832,6.963,3.05-1.322-1.311.531-1.572.635-1.343.552-2.7,1.072-4.049,1.592-3.237,1.259-6.516,2.425-9.8,3.549a285.313,285.313,0,0,1-39.155,10.242c-55.819,10.71-117.622,6.557-171.693-14.852-.26-.1-4.652-1.9-1.592-.624-1.291-.541-2.571-1.114-3.851-1.676-2.5-1.1-4.975-2.269-7.442-3.466-5.069-2.446-10.044-5.11-14.925-7.9a227.669,227.669,0,0,1-24.282-16.1c-2.977-2.248,2.644,2.082-.25-.2-.822-.645-1.624-1.3-2.435-1.957-1.572-1.27-3.1-2.571-4.632-3.893-3.091-2.654-6.078-5.412-9.013-8.243a193.429,193.429,0,0,1-13.52-14.5q-1.686-2.014-3.32-4.08c-2.238-2.821,2.04,2.675.572.749-.448-.593-.9-1.187-1.343-1.79-1.551-2.092-3.029-4.226-4.455-6.4-1.166-1.769-2.311-3.57-3.3-5.443q-6.651,11.6-13.312,23.2l19.036-1.468c8.805-.677,14.842-6.526,15.414-15.414.531-8.212-5.933-12.3-11.688-16.455a75.606,75.606,0,0,1-10.242-9.586c-1.613-1.7-3.122-3.487-4.632-5.277-.656-.791-1.311-1.6-1.946-2.415q1.468,1.889,0-.062c-1.134-1.53-2.238-3.1-3.258-4.725q-8.712,11.319-17.413,22.648c13.76,2.071,28.737,2.7,42.236-1.207,4.829-1.395,9.815-5.568,10.772-10.772,2.508-13.7,5.548-27.29,8.9-40.81,1.062-4.278,2.175-8.556,3.31-12.812,1.468-5.548,4.08-11.543,2.488-17.33-.926-3.372-3.07-5.745-5.277-8.274-.874-1.01-4.257-5.371-.937-1.02a99.5,99.5,0,0,1-6.172-9.222c-1.166-1.946-2.238-3.945-3.279-5.964-.562-1.093-1.093-2.207-1.624-3.32-.364-.781-.718-1.551-1.062-2.342q.677,1.665,0-.01a111.817,111.817,0,0,1-8.16-37.355c-.853-16.809,1.842-33.473,5.839-49.741,1.717-6.994,3.851-13.884,6.255-20.671,1.062-3.008,2.238-5.964,3.455-8.92-1.145,2.789.739-1.592.8-1.749.76-1.686,1.561-3.351,2.373-5.017A144.069,144.069,0,0,1,89.973,49.667c2.311-3.122-2.394,2.956.364-.458.593-.729,1.207-1.447,1.832-2.165.562-.645,1.134-1.28,1.738-1.884q-9.336,1.2-18.683,2.415Q95.177,59.55,115.14,71.524c4.923,2.956,10.117,5.423,15.29,7.91,7.983,3.861,16.143,7.317,24.22,10.981A23.9,23.9,0,0,1,163,96.14c3.143,3.2-1.311-2.2.947,1.2a25.968,25.968,0,0,1,2.134,4.142c2.644,6.13,11.428,8.9,17.413,7.088,13.25-4.007,26.572-7.858,40.186-10.429,2.321-.437,4.663-.8,6.994-1.145-3.664.531.739-.052,1.249-.1,1.311-.146,2.623-.25,3.934-.364,4.871-.406,9.773-.51,14.665-.52s9.794.156,14.675.52c2.207.167,4.4.406,6.6.666-3.716-.437.885.146,1.353.219,1.426.219,2.841.479,4.257.729,13.645,2.456,27.009,6.443,40.259,10.46,5.974,1.811,14.79-.947,17.413-7.088.458-1.062.947-2.071,1.488-3.091.229-.427,2.612-3.653.614-1.187,2.623-3.247,3.632-3.726,7.494-5.9,7.775-4.371,16.528-7.379,24.594-11.21,5.5-2.612,11.064-5.2,16.3-8.347q20.187-12.115,40.373-24.22-9.336-1.2-18.683-2.415c.52.51,1.01,1.062,1.5,1.6.593.656,1.166,1.343,1.728,2.019.364.437.718.874,1.072,1.322,1.478,1.853-2.685-3.56-.364-.448a145.374,145.374,0,0,1,13.479,22.388c1.259,2.529,2.425,5.1,3.56,7.681-1.239-2.831.749,1.863.791,1.946.6,1.488,1.166,3,1.717,4.5a214.748,214.748,0,0,1,6.828,22.221c4.132,16.226,6.443,32.786,5.839,49.553a111.328,111.328,0,0,1-8.014,37.167c-1.624,4.174,1.249-2.769-.51,1.187-.51,1.145-1.051,2.269-1.6,3.393-1.01,2.082-2.113,4.111-3.258,6.12a98.652,98.652,0,0,1-6.7,10.221c-1.769,2.383,2.363-3,.625-.812-.4.5-.8.978-1.218,1.468-.656.77-1.322,1.53-2.009,2.269-8.743,9.492-1.457,24,1.291,34.815,3.591,14.145,6.765,28.4,9.388,42.757.958,5.2,5.943,9.367,10.772,10.772,13.551,3.934,28.57,3.341,42.4,1.259q-8.712-11.319-17.413-22.648c-.635,1.01-1.311,1.988-2,2.966-.645.926-1.322,1.842-2,2.748,1.936-2.612-1.915,2.321-2.279,2.758a86.6,86.6,0,0,1-18.027,16.528c-6.973,4.663-9.971,13.51-5.527,21.1,4.049,6.911,14.1,10.21,21.1,5.527Z" transform="translate(0)" fill="#1c0e09"/>
      <path id="Path_4523" data-name="Path 4523" d="M450,323.661c1.717-1.124,3.6-2.456,5.724-4.07,14.5-11.053,24.116-26.468,24.116-26.468s-18.558,2.883-33.993-1.2c-.073-.021-.135-.042-.208-.062-2.789-15.31-7.307-36.137-14.655-62.574,7.359-7.931,33.691-40.862,25.9-98.794-9.034-67.122-39.374-96.817-39.374-96.817L375.551,58.847s-12.906,7.1-35.5,16.788c-11.522,4.944-16.663,11.9-18.932,17.527-35.19-10.72-50.355-13.145-71.254-13.145s-35.981,2.425-71.129,13.1c-2.279-5.62-7.421-12.552-18.922-17.486-22.6-9.68-35.5-16.788-35.5-16.788L82.354,33.68S52.024,63.364,42.99,130.5c-7.764,57.63,18.256,90.52,25.781,98.669-7.369,26.53-11.907,47.419-14.7,62.751a.063.063,0,0,0-.042.01c-15.435,4.08-33.993,1.2-33.993,1.2s9.607,15.414,24.116,26.468c2.061,1.561,3.9,2.862,5.579,3.976-.01.177-.021.3-.021.3l-19.036,1.468s54.185,103.228,218.7,103.228S469.037,325.337,469.037,325.337L450,323.869v-.208Z" transform="translate(0.604 0.604)" fill="#f0842a"/>
      <path id="Path_4524" data-name="Path 4524" d="M53.241,291.836s-.031,0-.042.01a58.213,58.213,0,0,1-6.568,1.322,81.129,81.129,0,0,0,22.19-2.144c.01,0,.031-.01.042-.01,2.789-15.331,7.327-36.22,14.7-62.751-7.515-8.15-33.535-41.039-25.781-98.669C64.357,80.738,81.52,33.6,81.52,33.6S51.19,63.284,42.156,130.416c-7.764,57.63,18.256,90.52,25.781,98.669-7.369,26.53-11.907,47.42-14.7,62.751Z" transform="translate(1.448 0.601)" fill="#fbb040"/>
      <path id="Path_4525" data-name="Path 4525" d="M430.229,291.836s.031,0,.042.01a58.214,58.214,0,0,0,6.568,1.322,81.129,81.129,0,0,1-22.19-2.144c-.01,0-.031-.01-.042-.01-2.789-15.331-7.327-36.22-14.7-62.751,7.515-8.15,33.535-41.039,25.781-98.669C419.113,80.738,401.95,33.6,401.95,33.6s30.329,29.684,39.364,96.817c7.764,57.63-18.256,90.52-25.781,98.669,7.369,26.53,11.907,47.42,14.7,62.751Z" transform="translate(16.108 0.601)" fill="#fbb040"/>
      <path id="Path_4526" data-name="Path 4526" d="M81.16,33.87s1.613,26.114,14.561,50.167,37.251,41.768,37.251,41.768L146.6,105.624l20.067-25.708S133.753,65.8,123.053,59.307,81.15,33.88,81.15,33.88Z" transform="translate(3.098 0.612)" fill="#f15a29"/>
      <path id="Path_4527" data-name="Path 4527" d="M404.583,33.87s-1.613,26.114-14.561,50.167-37.251,41.768-37.251,41.768l-13.624-20.181L319.07,79.916S351.981,65.8,362.68,59.307s41.9-25.427,41.9-25.427Z" transform="translate(12.809 0.612)" fill="#f15a29"/>
      <path id="Path_4528" data-name="Path 4528" d="M174.238,91.283S162.2,96.7,155.129,101.774s-24.189,22.2-24.189,22.2,3.757-17.007,13.479-29.382S163.413,78.46,163.413,78.46l12.594,3.31-1.769,9.5Z" transform="translate(5.13 2.432)" fill="#1e0f08"/>
      <path id="Path_4529" data-name="Path 4529" d="M309.209,91.283s12.032,5.412,19.109,10.491,24.189,22.2,24.189,22.2-3.757-17.007-13.479-29.382S320.034,78.46,320.034,78.46L307.44,81.77l1.769,9.5Z" transform="translate(12.334 2.432)" fill="#1e0f08"/>
      <path id="Path_4530" data-name="Path 4530" d="M468.7,315.835c-5.724,4.444-45.327,33.452-95.984,27.446-54.372-6.453-53.415-72.191-123.17-72.191s-68.819,65.738-123.191,72.191c-51.531,6.12-91.623-24-96.254-27.644,1.821,3.372,56.974,103.238,218.873,103.238S465.306,321.9,468.7,315.845Z" transform="translate(1.015 10.294)" fill="#fff"/>
      <path id="Path_4531" data-name="Path 4531" d="M246.471,223.26c70.838,0,132.464,8.025,164.147,66.113.583-1.134,1.707,15.706,1.707,15.706,0,63.375-35.513,122.129-167.863,121.577C113.476,426.115,82.47,368.443,82.47,305.078V289.227c31.724-56.537,93.257-65.967,164-65.967Z" transform="translate(3.152 8.341)" fill="#ffd7c3"/>
      <path id="Path_4532" data-name="Path 4532" d="M246.773,231.275c31.276.031,63.115,1.134,93.184,10.512,27.738,8.649,50.188,26.322,64.3,51.781,2.123,3.83,6.869,4.632,10.543,2.769a.617.617,0,0,0,.083-.042q-5.277-1.39-10.543-2.769c-1.259-2.394-.427-.219-.219,1.853.219,2.227.385,4.455.552,6.692a92.1,92.1,0,0,1,.073,10.72,124.4,124.4,0,0,1-3.56,24.771,92.549,92.549,0,0,1-24.6,43.662c-15.248,15.123-35.461,24.012-55.913,29.59-30.756,8.4-63.458,9.451-95.13,7.91-43.87-2.134-96.1-12.594-120.7-53.165-8.649-14.27-12.667-30.881-13.916-47.388-.614-8.046-.448-16.122-.448-24.178v-4.351c0,4.309.5,1.093,1.582-.708.885-1.447,1.821-2.862,2.769-4.278a102.267,102.267,0,0,1,13.322-15.872c35.544-35.19,91.706-37.459,138.626-37.511,9.94-.01,9.94-15.435,0-15.414-54.778.062-117.529,4.84-156.07,49a127.92,127.92,0,0,0-11.949,16.3c-3.112,4.975-3.684,8.379-3.684,13.947,0,8.056-.083,16.091.531,24.126,1.363,17.944,5.724,35.575,14.394,51.427,22.565,41.237,70.286,56.443,114.1,61.72a356.657,356.657,0,0,0,99.689-2.154c23.814-3.913,47.69-11.543,67.809-25.146a108.388,108.388,0,0,0,42.153-55.486,133.583,133.583,0,0,0,6.255-33.639,96.6,96.6,0,0,0,.1-13.884c-.375-5.11,0-11.7-2.436-16.33-2.04-3.882-6.942-4.59-10.543-2.769a.612.612,0,0,0-.083.042q5.277,1.389,10.543,2.769c-15.6-28.144-40.269-47.43-70.494-57.88-31.891-11.022-66.914-12.021-100.314-12.053-9.94,0-9.94,15.4,0,15.414Z" transform="translate(2.85 8.039)" fill="#1c0e09"/>
      <path id="Path_4533" data-name="Path 4533" d="M89.811,305.068c0,4.309.489,1.093,1.582-.708.885-1.447,1.821-2.862,2.769-4.278a102.173,102.173,0,0,1,13.322-15.872c35.544-35.19,91.706-37.459,138.626-37.511,31.276.031,63.115,1.134,93.184,10.512,27.363,8.535,49.564,25.864,63.719,50.781,0,.323.333,1.582.458,2.821.167,1.665.281,3.331.416,4.986.083-1.2.156-2.4.208-3.612a89.852,89.852,0,0,0-.073-10.72c-.167-2.227-.333-4.465-.552-6.692-.115-1.239-.458-2.488-.458-2.821-14.145-24.917-36.345-42.247-63.719-50.781-30.08-9.378-61.918-10.481-93.184-10.512-46.92.052-103.082,2.321-138.626,37.511a101.694,101.694,0,0,0-13.322,15.872c-.947,1.416-1.884,2.831-2.769,4.278-1.093,1.79-1.582,5.017-1.582.708v4.351c0,4.122-.042,8.243,0,12.375v-.687Z" transform="translate(3.451 8.644)" fill="#ffad8d"/>
      <path id="Path_4534" data-name="Path 4534" d="M416.692,285.241a6.569,6.569,0,0,1,.843,1.249c1.811,3.466,2.071,8.014,2.238,12.23.031-.375.062-.76.094-1.134a96.607,96.607,0,0,0,.1-13.884c-.375-5.11,0-11.7-2.436-16.33a6.729,6.729,0,0,0-.843-1.249c-15.633-27.436-39.978-46.3-69.735-56.579-31.891-11.022-66.914-12.021-100.314-12.053-54.778.062-117.529,4.84-156.07,49a129.015,129.015,0,0,0-11.959,16.3c-3.112,4.975-3.684,8.379-3.684,13.947,0,5.183-.01,10.356.125,15.529a20.95,20.95,0,0,1,3.57-10.356,128,128,0,0,1,11.959-16.3c38.541-44.172,101.292-48.939,156.07-49,33.4.031,68.423,1.041,100.314,12.053,29.757,10.283,54.091,29.143,69.735,56.579Z" transform="translate(2.844 7.29)" fill="#f15a29"/>
      <path id="Path_4535" data-name="Path 4535" d="M321.355,122.429c-3.591,7.244-18.454,7.182-33.2-.125s-23.793-19.1-20.213-26.333,18.454-7.182,33.2.125,23.793,19.1,20.2,26.343Z" transform="translate(10.69 2.926)" fill="#fff"/>
      <path id="Path_4536" data-name="Path 4536" d="M336.889,130.754a20.561,20.561,0,1,0,0,.01Z" transform="translate(12.933 4.083)" fill="#fff"/>
      <path id="Path_4537" data-name="Path 4537" d="M263.654,385.008c-.031-.479.364,1.644-.177-.7a11.626,11.626,0,0,0-1.759-4.153c-3.653-6.182-11.969-7.182-18.4-7.275-6.994-.114-14.082,1.592-18.891,6.9a12.48,12.48,0,0,0-2.03,3.508c-.364.989-.958,4.9-.52,1.166-1.051,8.92-15.154,9.013-14.1,0,4.028-34.316,67.986-34.982,69.974.552.51,9.086-13.593,9.034-14.1,0h0Z" transform="translate(8.264 13.863)" fill="#1c0e09"/>
      <path id="Path_4538" data-name="Path 4538" d="M311.188,270.97l63.948,31.578a38.149,38.149,0,1,1-63.948-31.578Z" transform="translate(11.99 10.289)" fill="#1c0e09"/>
      <path id="Path_4539" data-name="Path 4539" d="M337.75,308.646a10.866,10.866,0,1,0,10.866-10.866A10.874,10.874,0,0,0,337.75,308.646Z" transform="translate(13.571 11.383)" fill="#fff"/>
      <path id="Path_4540" data-name="Path 4540" d="M308.98,311.275a7.248,7.248,0,1,0,7.244-7A7.128,7.128,0,0,0,308.98,311.275Z" transform="translate(12.397 11.648)" fill="#fff"/>
      <path id="Path_4541" data-name="Path 4541" d="M300.86,340.268c0,8,15.175,14.488,33.889,14.488s33.889-6.484,33.889-14.488-15.175-14.488-33.889-14.488S300.86,332.275,300.86,340.268Z" transform="translate(12.066 12.526)" fill="#47c0ea"/>
      <path id="Path_4542" data-name="Path 4542" d="M334.749,348.213c16.351,0,30-4.954,33.181-11.543a6.671,6.671,0,0,1,.708,2.956c0,8-15.175,14.488-33.889,14.488s-33.889-6.484-33.889-14.488a6.672,6.672,0,0,1,.708-2.956C304.753,343.258,318.4,348.213,334.749,348.213Z" transform="translate(12.066 12.97)" fill="#009cd3"/>
      <path id="Path_4543" data-name="Path 4543" d="M313.591,336.057c.333,1.936,3.955,2.914,8.108,2.2s7.234-2.852,6.9-4.788-3.966-2.914-8.108-2.207-7.234,2.862-6.9,4.788Z" transform="translate(12.584 12.74)" fill="#fff"/>
      <path id="Path_4544" data-name="Path 4544" d="M309.17,339.124a1.379,1.379,0,1,0,1.374-1.384A1.373,1.373,0,0,0,309.17,339.124Z" transform="translate(12.405 13.014)" fill="#fff"/>
      <path id="Path_4545" data-name="Path 4545" d="M174.568,270.97,110.62,302.548a38.149,38.149,0,1,0,63.948-31.578Z" transform="translate(4.301 10.289)" fill="#1c0e09"/>
      <path id="Path_4546" data-name="Path 4546" d="M145.872,308.646a10.866,10.866,0,1,1-10.866-10.866A10.867,10.867,0,0,1,145.872,308.646Z" transform="translate(4.853 11.383)" fill="#fff"/>
      <path id="Path_4547" data-name="Path 4547" d="M174.358,311.275a7.248,7.248,0,1,1-7.244-7A7.128,7.128,0,0,1,174.358,311.275Z" transform="translate(6.311 11.648)" fill="#fff"/>
      <path id="Path_4548" data-name="Path 4548" d="M184.568,340.268c0,8-15.175,14.488-33.889,14.488s-33.889-6.484-33.889-14.488,15.175-14.488,33.889-14.488S184.568,332.275,184.568,340.268Z" transform="translate(4.553 12.526)" fill="#47c0ea"/>
      <path id="Path_4549" data-name="Path 4549" d="M150.679,348.213c-16.351,0-30-4.954-33.181-11.543a6.672,6.672,0,0,0-.708,2.956c0,8,15.175,14.488,33.889,14.488s33.889-6.484,33.889-14.488a6.672,6.672,0,0,0-.708-2.956C180.665,343.258,167.03,348.213,150.679,348.213Z" transform="translate(4.553 12.97)" fill="#009cd3"/>
      <path id="Path_4550" data-name="Path 4550" d="M169.769,336.057c-.333,1.936-3.955,2.914-8.108,2.2s-7.234-2.852-6.9-4.788,3.965-2.914,8.108-2.207,7.234,2.862,6.9,4.788Z" transform="translate(6.102 12.74)" fill="#fff"/>
      <path id="Path_4551" data-name="Path 4551" d="M173.708,339.124a1.374,1.374,0,1,1-1.374-1.384A1.373,1.373,0,0,1,173.708,339.124Z" transform="translate(6.764 13.014)" fill="#fff"/>
    </g>
  </g>
</svg>
