<svg xmlns="http://www.w3.org/2000/svg" xmlns:xlink="http://www.w3.org/1999/xlink" width="349" height="397" viewBox="0 0 349 397">
  <defs>
    <clipPath id="clip-dora_win">
      <rect width="349" height="397"/>
    </clipPath>
  </defs>
  <g id="dora_win" clip-path="url(#clip-dora_win)">
    <g id="dora_win-2" data-name="dora_win" transform="translate(-23.723 -7.496)">
      <path id="Path_4659" data-name="Path 4659" d="M209.04,294.76s10.03,2.72,16.6-2.49c4.03-3.2,11.88-24.07,26.92-24.7s30.85,11.58,30.85,11.58a60.651,60.651,0,0,0-12.73,11.59c-4.15,5.12-11.63,20.02-25.25,24.38-18.57,5.95-40.09-10.72-40.09-10.72l3.7-9.64Z" fill="#ffcf06"/>
      <path id="Path_4660" data-name="Path 4660" d="M206.86,302.68c8.28,2.17,18.64,1.16,25.02-4.99,2.17-2.1,3.77-5,5.38-7.54q1.425-2.25,2.92-4.44c.54-.79,1.1-1.56,1.67-2.32-.96,1.28,1.19-1.38,1.51-1.75.65-.74,1.35-1.44,2.06-2.12.23-.22,2.53-2.11,1.15-1.07a24.148,24.148,0,0,1,2.45-1.56c.42-.23.85-.45,1.29-.65-.85.36-.83.37.06.04.37-.13,3.27-.64,1.43-.44a24.18,24.18,0,0,1,3.71-.02,32.351,32.351,0,0,1,6.5,1.36,54.625,54.625,0,0,1,17.25,9.07V272.06a64.132,64.132,0,0,0-17.76,17.41c-1,1.45-1.98,2.92-3,4.36a35.243,35.243,0,0,1-2.97,3.89,32.042,32.042,0,0,1-9.33,8.16c-3.42,1.97-6.95,2.47-11.53,2.23a26.221,26.221,0,0,1-5.7-1.05,53.285,53.285,0,0,1-6.49-2.2c1.28.51-1.45-.68-1.7-.8-.9-.42-1.78-.88-2.66-1.34-1.51-.79-2.97-1.66-4.42-2.55a49.745,49.745,0,0,1-4.22-2.87q1.89,4.635,3.78,9.28,1.845-4.815,3.7-9.64c1.61-4.19-1.74-9.01-5.74-10.11-4.64-1.28-8.51,1.56-10.11,5.74q-1.845,4.815-3.7,9.64c-1.42,3.71,1.04,7.17,3.78,9.28,12.88,9.91,32.27,16.95,48.13,10.94,10.34-3.92,17.58-12.07,23.78-20.9.99-1.4,1.94-2.83,2.91-4.24.39-.57.8-1.13,1.21-1.69-.99,1.26-.98,1.28.02.04.74-.88,1.53-1.72,2.32-2.55a60.906,60.906,0,0,1,6.38-5.74c-1.32,1.05,1.08-.76,1.61-1.09,5.61-3.64,4.91-10.43,0-14.19-13.27-10.18-34.96-18.57-49.86-7.36-6.95,5.23-11.54,12.39-16.19,19.6-.36.55-.73,1.1-1.1,1.65-.88,1.27,1.39-1.61.07-.1-1.14,1.31,1.64-.97-.55.4a5.524,5.524,0,0,1-2.26.8c-1.02.19-1.15.22-.37.11-.54.05-1.09.08-1.63.1a26,26,0,0,1-2.93-.1c-1.86-.15,1.72.33-.48-.08-.34-.06-.68-.14-1.02-.23-10.26-2.7-14.61,13.16-4.37,15.85Z" fill="#1c0e09"/>
      <path id="Path_4661" data-name="Path 4661" d="M209.04,294.76s10.03,2.72,16.6-2.49c4.03-3.2,11.88-24.07,26.92-24.7s30.85,11.58,30.85,11.58a60.651,60.651,0,0,0-12.73,11.59c-4.15,5.12-11.63,20.02-25.25,24.38-18.57,5.95-40.09-10.72-40.09-10.72l3.7-9.64Z" fill="#f0842a"/>
      <path id="Path_4662" data-name="Path 4662" d="M211.07,299.99s10.03,2.73,16.6-2.49c4.03-3.2,11.96-23.07,26.92-24.7,12.95-1.41,28.82,6.35,28.82,6.35s-15.8-12.21-30.85-11.58-22.89,21.5-26.92,24.7c-6.57,5.21-16.6,2.49-16.6,2.49l-3.7,9.64s1.16.9,3.18,2.21l2.54-6.62Z" fill="#fbb040"/>
      <path id="Path_4663" data-name="Path 4663" d="M268.81,284.97c-4.47,4.85-11.63,20.02-25.25,24.38-14.22,4.55-30.16-4.15-36.86-8.48l-1.35,3.53s21.52,16.67,40.09,10.72c13.61-4.36,21.09-19.26,25.25-24.38a60.377,60.377,0,0,1,12.73-11.59,17.754,17.754,0,0,0-14.6,5.82Z" fill="#f15a29"/>
      <path id="Path_4664" data-name="Path 4664" d="M283.41,279.15s-15.8-12.01-30.85-11.58c-5.78.16-10.68,3.64-13.06,6.28,0,0,2.14,1.5,7.51,2.03s7.18-.55,7.18-.55a15.456,15.456,0,0,1-1.51,6.64c-1.65,3.38-6.32,5.92-6.32,5.92s9.63,1.81,13.78-.52,5.28-3.88,5.28-3.88a13.2,13.2,0,0,0-1.1,5.99c.62,5.53,2,7.46,2,7.46,1.15-1.69,3.5-5.15,4.35-6.2a60.377,60.377,0,0,1,12.73-11.59Z" fill="#fff"/>
      <path id="Path_4665" data-name="Path 4665" d="M239.76,273.57c-.09.09-.17.18-.25.27,0,0,1.94,1.35,6.75,1.95a19.636,19.636,0,0,1,8.33-2.99c12.95-1.41,28.82,6.35,28.82,6.35s-15.8-12.01-30.85-11.58c-5.03.21-9.26,2.69-12.8,6.01Z" fill="#f1f2f2"/>
      <path id="Path_4666" data-name="Path 4666" d="M268.81,284.97a63.748,63.748,0,0,0-4.31,5.81c.65,4.37,1.75,6.03,1.83,6.15,1.71-2.47,3.12-4.64,4.27-6.08a1.061,1.061,0,0,1,.09-.11,60.377,60.377,0,0,1,12.73-11.59,17.754,17.754,0,0,0-14.6,5.82Z" fill="#e6e7e8"/>
      <path id="Path_4667" data-name="Path 4667" d="M138.39,258.25s-29.43,34.95-16.66,42.49,31.82-24.99,31.82-24.99l-15.16-17.5Z" fill="#f0842a"/>
      <path id="Path_4668" data-name="Path 4668" d="M136.06,255.93a155,155,0,0,0-12.46,17.16c-4.33,6.9-11.29,18.06-7.27,26.46,1.87,3.91,6.37,5.9,10.56,5.55,5.12-.43,9.5-3.66,13.21-6.96,6.45-5.74,11.74-13.15,16.17-20.53.04-.07.08-.14.12-.2a3.358,3.358,0,0,0-.51-3.98l-15.16-17.5c-2.78-3.21-7.41,1.46-4.65,4.65l15.16,17.5c-.17-1.33-.34-2.66-.51-3.98a95.351,95.351,0,0,1-11.5,15.65c-2.85,3.14-6.23,6.54-10.24,8.16-2.59,1.05-6.07.83-6.9-1.6-.98-2.86.56-6.77,1.69-9.59a72.711,72.711,0,0,1,6.55-11.92,138.055,138.055,0,0,1,10.41-14.21c2.71-3.22-1.92-7.9-4.65-4.65Z" fill="#1c0e09"/>
      <path id="Path_4669" data-name="Path 4669" d="M126.4,288.97a72.711,72.711,0,0,1,6.55-11.92c2.43-3.79,5.05-7.48,7.84-11.02l-2.32-2.68c-2.91,3.67-5.64,7.51-8.16,11.44a72.3,72.3,0,0,0-6.55,11.92c-1.13,2.82-2.67,6.73-1.69,9.59a3.265,3.265,0,0,0,2.59,2.06c-.85-2.84.65-6.64,1.75-9.39Z" fill="#fbb040"/>
      <path id="Path_4670" data-name="Path 4670" d="M211.42,258.25s29.43,34.95,16.66,42.49-30.64-25.12-30.64-25.12l13.98-17.36Z" fill="#f0842a"/>
      <path id="Path_4671" data-name="Path 4671" d="M209.09,260.58a143.152,143.152,0,0,1,10.06,13.68,85.2,85.2,0,0,1,6.76,12.14c1.24,2.8,2.59,6.64,1.93,9.52-.55,2.39-3.42,3.04-6.01,2.28-3.99-1.17-7.32-4.8-10.02-7.76a86.254,86.254,0,0,1-11.55-16.48c-.17,1.33-.34,2.66-.51,3.98q6.99-8.685,13.98-17.36c2.63-3.27-1.99-7.95-4.65-4.65q-6.99,8.685-13.98,17.36a3.391,3.391,0,0,0-.51,3.98,92.491,92.491,0,0,0,13.93,19.27c6.07,6.37,17.54,13.38,24.4,4,5.37-7.33-1.95-19.48-5.72-25.81a145.939,145.939,0,0,0-13.4-18.72.572.572,0,0,0-.07-.08c-2.73-3.25-7.36,1.43-4.65,4.65Z" fill="#1c0e09"/>
      <path id="Path_4672" data-name="Path 4672" d="M225.89,286.4a85.753,85.753,0,0,0-6.76-12.14c-2.42-3.7-4.99-7.33-7.73-10.81-.74.92-1.48,1.84-2.22,2.75,1.96,2.62,3.83,5.32,5.62,8.05a85.75,85.75,0,0,1,6.76,12.14c1.24,2.8,2.59,6.64,1.93,9.52a3.1,3.1,0,0,1-1.92,2.2,1.827,1.827,0,0,0,.25.08c2.58.76,5.46.11,6.01-2.28.66-2.88-.68-6.72-1.93-9.52Z" fill="#f15a29"/>
      <path id="Path_4673" data-name="Path 4673" d="M112.31,332.18c0,1.83,27.85,3.32,62.19,3.32s62.19-1.49,62.19-3.32-27.85-3.32-62.19-3.32S112.31,330.35,112.31,332.18Z" fill="#1c0e09"/>
      <path id="Path_4674" data-name="Path 4674" d="M205.16,260.19s11.77,65.16,3.77,67.96-15.43-9.96-15.43-9.96-6.38,1.95-17.38,2.15a76.7,76.7,0,0,1-19.86-2.28s-8.2,14.19-17.06,11.26,5.21-69.3,5.21-69.3l60.75.16Z" fill="#f0842a"/>
      <path id="Path_4675" data-name="Path 4675" d="M201.99,261.06c2.42,13.42,4.4,26.97,5.66,40.55.66,7.11,1.7,15.56.17,22.26a13.284,13.284,0,0,1-.42,1.4c.18-.49-.4.44-.07.08q-.39.345.24-.18c1.02-.67-.23.05-.69.09a6.038,6.038,0,0,1-3.46-1.04c-2.96-1.67-5.38-4.79-7.09-7.69a3.31,3.31,0,0,0-3.71-1.51c-11.04,3.31-24.45,2.9-35.49-.13a3.318,3.318,0,0,0-3.71,1.51,30.106,30.106,0,0,1-6.5,7.72c-1.64,1.4-3.95,2.64-6.17,2.22-.97-.18-.22-.03.09.38-.47-.61-.4-.68-.44-.79-2.26-6.32-.64-15.44.09-22.27a424.184,424.184,0,0,1,7.09-42.77c-1.06.8-2.11,1.61-3.17,2.41q30.375.075,60.75.16c4.24.01,4.24-6.56,0-6.58q-30.375-.075-60.75-.16a3.3,3.3,0,0,0-3.17,2.41,421.047,421.047,0,0,0-7.7,48.28,99.052,99.052,0,0,0-.49,13.56c.14,2.96.39,6.51,2.11,9.05,2.88,4.25,8.91,3.21,12.86,1.22,4.49-2.27,8.02-6.75,10.68-10.9l.39-.63c-1.24.5-2.48,1.01-3.71,1.51,12.13,3.33,26.86,3.76,38.98.13-1.24-.5-2.48-1.01-3.71-1.51a32.347,32.347,0,0,0,8.28,9.27c3.32,2.53,10.16,4.48,13.3.58,2.04-2.53,2.38-5.95,2.62-9.08a94.441,94.441,0,0,0-.18-13.35,427.914,427.914,0,0,0-6.34-47.96c-.75-4.17-7.09-2.4-6.34,1.75Z" fill="#1c0e09"/>
      <path id="Path_4676" data-name="Path 4676" d="M207.59,301.61c-1.18-12.77-3.01-25.51-5.23-38.14-18.44-.05-20.64-.05-3.29,0,2.23,12.63,4.06,25.37,5.23,38.14.66,7.11,1.7,15.56.17,22.26a7.489,7.489,0,0,1-.23.81,4.818,4.818,0,0,0,2.58.57,2.088,2.088,0,0,0,.58-.18,10.471,10.471,0,0,0,.36-1.21c1.52-6.7.48-15.15-.17-22.26Z" fill="#f15a29"/>
      <path id="Path_4677" data-name="Path 4677" d="M144.61,303.67c1.45-13.52,3.81-27.01,6.58-40.33-1.37,0-2.74,0-4.11-.01-2.77,13.33-5.14,26.82-6.58,40.34-.73,6.83-2.35,15.95-.09,22.27a.972.972,0,0,0,.15.37c.06.01.12.02.2.04a6.063,6.063,0,0,0,3.7-.61c-2.16-6.31-.57-15.31.15-22.07Z" fill="#fbb040"/>
      <path id="Path_4678" data-name="Path 4678" d="M193.68,267.91a34.421,34.421,0,0,1,.7,6.9c0,14.51-5.02,26.28-19.88,26.28s-19.88-11.76-19.88-26.28a34.421,34.421,0,0,1,.7-6.9h38.36Z" fill="#35b32b"/>
      <path id="Path_4679" data-name="Path 4679" d="M187.34,269.66c1.08,5.74.5,13.23-1.6,17.89-2.23,4.94-5.54,6.87-11.24,6.96a13.258,13.258,0,0,1-6.69-1.51c-1.97-1.08-2.98-2.45-4.23-4.79-2.5-4.69-3.03-12.68-1.92-18.55-2.11,1.61-4.23,3.22-6.34,4.83h38.36c8.48,0,8.48-13.15,0-13.15H155.32c-2.74,0-5.8,1.99-6.34,4.83-1.8,9.55-1.08,19.88,3.25,28.68,4.2,8.55,13.09,12.67,22.27,12.82a24.419,24.419,0,0,0,21.93-12.18c4.94-8.53,5.37-19.88,3.59-29.32-.66-3.53-4.85-5.48-8.09-4.59-3.67,1.01-5.25,4.57-4.59,8.09Z" fill="#1c0e09"/>
      <path id="Path_4680" data-name="Path 4680" d="M193.68,267.91a34.421,34.421,0,0,1,.7,6.9c0,14.51-5.02,26.28-19.88,26.28s-19.88-11.76-19.88-26.28a34.421,34.421,0,0,1,.7-6.9h38.36Z" fill="#fff1d2"/>
      <path id="Path_4681" data-name="Path 4681" d="M174.35,296.09c13.86,0,19.16-10.24,19.81-23.39.04.72.07,1.45.07,2.19,0,14.51-5.02,26.28-19.88,26.28s-19.88-11.77-19.88-26.28c0-.74.03-1.47.07-2.19.65,13.15,5.95,23.39,19.81,23.39Z" fill="#feddaa"/>
      <path id="Path_4682" data-name="Path 4682" d="M281.14,206.29c.91-.6,1.92-1.31,3.05-2.17a60.215,60.215,0,0,0,12.86-14.11s-9.89,1.54-18.12-.64l-.11-.03c-1.48-8.16-3.9-19.27-7.81-33.36,3.92-4.23,17.96-21.78,13.8-52.66-4.82-35.78-20.99-51.61-20.99-51.61L241.46,65.13s-6.88,3.78-18.93,8.95c-6.14,2.63-8.88,6.34-10.09,9.34-18.76-5.71-26.84-7.01-37.98-7.01s-19.18,1.29-37.92,6.98c-1.21-3-3.96-6.69-10.08-9.32-12.04-5.16-18.93-8.95-18.93-8.95L85.17,51.7S69,67.53,64.18,103.31c-4.14,30.72,9.73,48.25,13.74,52.6-3.93,14.14-6.35,25.28-7.83,33.45h-.02c-8.23,2.18-18.12.64-18.12.64A60.256,60.256,0,0,0,64.8,204.11c1.1.83,2.08,1.53,2.97,2.12a1.258,1.258,0,0,1-.01.16l-10.15.78S86.49,262.2,174.19,262.2s117.1-55.03,117.1-55.03l-10.15-.78v-.11Z" fill="#ffcf06"/>
      <path id="Path_4683" data-name="Path 4683" d="M285.29,213.38a65.162,65.162,0,0,0,18.85-19.22,8.217,8.217,0,0,0,0-8.3c-2.03-3.46-5.57-4.34-9.28-3.78-.64.1,2.74-.33.51-.09-1.43.16-2.87.23-4.3.29a31.255,31.255,0,0,1-10.07-.87l5.74,5.74c-2.06-11.24-4.77-22.35-7.81-33.36-.7,2.67-1.41,5.33-2.11,8,16.51-17.93,19.03-43.38,15.01-66.44a114.175,114.175,0,0,0-12.84-36.5,58.883,58.883,0,0,0-9.36-12.95,8.306,8.306,0,0,0-9.96-1.29Q248.8,51.135,237.93,57.65a113.312,113.312,0,0,1-10.15,5.11c-8.5,4-18.42,7.1-22.44,16.5q4.635-1.89,9.28-3.78c-13.17-3.99-26.33-7.26-40.17-7.3-13.79-.04-26.98,3.31-40.1,7.28q4.635,1.89,9.28,3.78c-3.9-9.06-13.27-12.24-21.53-16.06a114.459,114.459,0,0,1-10.86-5.42q-10.965-6.57-21.92-13.15a8.277,8.277,0,0,0-9.96,1.29,59.437,59.437,0,0,0-9.05,12.42C63.87,69.33,59.76,81.76,57.37,94.24c-4.46,23.28-1.88,49.31,14.75,67.49-.7-2.67-1.41-5.33-2.11-8-3.05,11.04-5.77,22.18-7.83,33.45l5.74-5.74a30.847,30.847,0,0,1-9.09.87c-1.55-.01-3.09-.12-4.63-.26-.49-.04-.98-.1-1.47-.16,2.77.33,2.02.28,1.41.19-3-.45-5.74-.15-8,2.11a8.25,8.25,0,0,0-1.29,9.96,65.328,65.328,0,0,0,18.77,19.17c-1.36-2.37-2.71-4.73-4.07-7.1a.86.86,0,0,1-.01.16l8.22-8.22-10.15.78c-6.28.48-10.14,6.59-7.1,12.37,4.47,8.47,11.59,16.04,18.59,22.45,17.74,16.25,40.03,26.87,63.38,32.18,52.26,11.9,114.95,2.05,153.16-38.08,4.72-4.95,9.49-10.49,12.74-16.55,3.09-5.77-.85-11.89-7.1-12.37l-10.15-.78,8.22,8.22v-.11a8.338,8.338,0,0,0-8.22-8.22c-4.32,0-8.43,3.74-8.22,8.22v.11c.22,4.74,3.59,7.86,8.22,8.22l10.15.78q-3.555-6.18-7.1-12.37a51.221,51.221,0,0,1-4.2,6.31c-.18.24-.36.47-.54.71-.82,1.07,1.37-1.76.52-.67-.42.53-.84,1.06-1.27,1.58-1.05,1.28-2.14,2.52-3.25,3.75a110.6,110.6,0,0,1-8.23,8.12c-1.6,1.43-3.25,2.8-4.93,4.14-.33.26-1.88,1.45-.13.11-.46.35-.93.7-1.39,1.05-1.12.83-2.26,1.64-3.41,2.43a124.887,124.887,0,0,1-14.13,8.4c-2.59,1.33-5.23,2.55-7.91,3.71,1.62-.7-.7.28-.84.34-.72.29-1.44.57-2.16.85-1.73.67-3.47,1.29-5.22,1.89a153.57,153.57,0,0,1-20.87,5.46c-29.75,5.71-62.7,3.49-91.52-7.92-.14-.06-2.48-1.02-.85-.33-.69-.29-1.37-.59-2.05-.89-1.33-.59-2.65-1.21-3.97-1.85-2.7-1.3-5.35-2.72-7.96-4.21a122.5,122.5,0,0,1-12.95-8.58c-1.59-1.2,1.41,1.11-.13-.11-.44-.34-.87-.69-1.3-1.04-.84-.68-1.66-1.37-2.47-2.07-1.65-1.41-3.24-2.89-4.8-4.39a103.2,103.2,0,0,1-7.21-7.73c-.6-.71-1.19-1.44-1.77-2.17-1.19-1.5,1.09,1.42.31.4-.24-.32-.48-.64-.71-.95-.82-1.11-1.62-2.25-2.38-3.41-.62-.94-1.23-1.9-1.76-2.9q-3.555,6.18-7.1,12.37l10.15-.78a8.427,8.427,0,0,0,8.22-8.22c.28-4.38-3.16-6.56-6.23-8.78a40.6,40.6,0,0,1-5.46-5.11c-.86-.91-1.67-1.86-2.47-2.82-.35-.42-.7-.85-1.04-1.29q.78,1,0-.03c-.61-.82-1.19-1.65-1.74-2.52q-4.635,6.03-9.28,12.07c7.34,1.1,15.32,1.44,22.51-.65,2.57-.75,5.23-2.97,5.74-5.74,1.34-7.3,2.96-14.55,4.74-21.75q.855-3.42,1.76-6.83c.78-2.96,2.17-6.15,1.32-9.24a11.333,11.333,0,0,0-2.81-4.41c-.47-.54-2.27-2.86-.5-.55a51.878,51.878,0,0,1-3.29-4.91c-.62-1.04-1.19-2.1-1.75-3.18-.3-.58-.58-1.18-.87-1.77-.19-.41-.38-.83-.57-1.25h0a59.466,59.466,0,0,1-4.35-19.91c-.45-8.96.98-17.84,3.11-26.52A111.811,111.811,0,0,1,78.13,80.2c.57-1.6,1.19-3.18,1.84-4.75-.61,1.48.39-.85.43-.93.4-.9.83-1.79,1.27-2.68a78.013,78.013,0,0,1,7.18-11.93c1.23-1.67-1.28,1.57.2-.24.32-.39.64-.77.97-1.15.3-.34.6-.68.93-1l-9.96,1.29q10.635,6.375,21.28,12.76c2.62,1.57,5.4,2.89,8.15,4.22,4.26,2.06,8.61,3.9,12.91,5.85a12.738,12.738,0,0,1,4.45,3.05c1.68,1.7-.7-1.17.5.64a13.99,13.99,0,0,1,1.14,2.21c1.41,3.27,6.09,4.74,9.28,3.78a205.344,205.344,0,0,1,21.42-5.56c1.24-.23,2.48-.43,3.73-.61-1.95.28.4-.03.67-.06.7-.08,1.4-.13,2.1-.19,2.6-.21,5.21-.27,7.82-.28s5.22.08,7.82.28c1.18.09,2.35.21,3.52.35-1.98-.23.47.08.72.12.76.12,1.52.25,2.27.39a189.451,189.451,0,0,1,21.46,5.58c3.18.97,7.88-.51,9.28-3.78.24-.57.5-1.1.79-1.65.12-.23,1.39-1.95.32-.63a10.066,10.066,0,0,1,4-3.14c4.15-2.33,8.81-3.93,13.11-5.97,2.93-1.39,5.9-2.78,8.69-4.45q10.755-6.45,21.52-12.91l-9.96-1.29c.28.27.54.56.8.85.32.35.62.71.92,1.08.19.23.38.47.57.71.79.99-1.43-1.89-.19-.24a77.219,77.219,0,0,1,7.18,11.93c.67,1.35,1.29,2.72,1.9,4.1-.66-1.51.4.99.42,1.04.32.79.62,1.6.92,2.4a113.376,113.376,0,0,1,3.64,11.85,93.817,93.817,0,0,1,3.12,26.41,59.453,59.453,0,0,1-4.27,19.81c-.87,2.22.66-1.47-.27.63-.27.61-.56,1.21-.85,1.81-.54,1.11-1.13,2.19-1.73,3.26a54.313,54.313,0,0,1-3.57,5.45c-.95,1.27,1.26-1.6.33-.43-.21.26-.43.52-.65.78-.35.41-.71.82-1.07,1.21-4.66,5.06-.77,12.8.69,18.56,1.91,7.54,3.6,15.14,5.01,22.79.51,2.78,3.17,4.99,5.74,5.74,7.22,2.1,15.23,1.78,22.6.67q-4.635-6.03-9.28-12.07c-.34.54-.7,1.06-1.07,1.58-.35.5-.71.98-1.07,1.47,1.03-1.39-1.02,1.24-1.22,1.47a46.208,46.208,0,0,1-9.61,8.81c-3.71,2.49-5.32,7.2-2.95,11.24,2.16,3.69,7.52,5.45,11.25,2.95Z" fill="#1c0e09"/>
      <path id="Path_4684" data-name="Path 4684" d="M281.14,206.29c.91-.6,1.92-1.31,3.05-2.17a60.215,60.215,0,0,0,12.86-14.11s-9.89,1.54-18.12-.64l-.11-.03c-1.48-8.16-3.9-19.27-7.81-33.36,3.92-4.23,17.96-21.78,13.8-52.66-4.82-35.78-20.99-51.61-20.99-51.61L241.46,65.13s-6.88,3.78-18.93,8.95c-6.14,2.63-8.88,6.34-10.09,9.34-18.76-5.71-26.84-7.01-37.98-7.01s-19.18,1.29-37.92,6.98c-1.21-3-3.96-6.69-10.08-9.32-12.04-5.16-18.93-8.95-18.93-8.95L85.17,51.7S69,67.53,64.18,103.31c-4.14,30.72,9.73,48.25,13.74,52.6-3.93,14.14-6.35,25.28-7.83,33.45h-.02c-8.23,2.18-18.12.64-18.12.64A60.256,60.256,0,0,0,64.8,204.11c1.1.83,2.08,1.53,2.97,2.12a1.258,1.258,0,0,1-.01.16l-10.15.78S86.49,262.2,174.19,262.2s117.1-55.03,117.1-55.03l-10.15-.78v-.11Z" fill="#f0842a"/>
      <path id="Path_4685" data-name="Path 4685" d="M70.1,189.32h-.02a34.429,34.429,0,0,1-3.5.71,43.572,43.572,0,0,0,11.83-1.14h.02c1.48-8.17,3.91-19.31,7.83-33.45-4.01-4.35-17.88-21.88-13.74-52.6C76.03,76.8,85.18,51.67,85.18,51.67S69.01,67.5,64.19,103.28c-4.14,30.72,9.73,48.25,13.74,52.6-3.93,14.14-6.35,25.28-7.83,33.45Z" fill="#fbb040"/>
      <path id="Path_4686" data-name="Path 4686" d="M278.87,189.32h.02a34.429,34.429,0,0,0,3.5.71,43.572,43.572,0,0,1-11.83-1.14h-.02c-1.48-8.17-3.91-19.31-7.83-33.45,4.01-4.35,17.88-21.88,13.74-52.6-3.51-26.04-12.66-51.17-12.66-51.17s16.17,15.83,20.99,51.61c4.14,30.72-9.73,48.25-13.74,52.6,3.93,14.14,6.35,25.28,7.83,33.45Z" fill="#fbb040"/>
      <path id="Path_4687" data-name="Path 4687" d="M85.86,51.81a72.951,72.951,0,0,0,7.76,26.74c6.9,12.82,19.86,22.26,19.86,22.26l7.26-10.76,10.7-13.7s-17.54-7.52-23.25-10.99S85.85,51.8,85.85,51.8Z" fill="#f15a29"/>
      <path id="Path_4688" data-name="Path 4688" d="M263.44,51.81a72.951,72.951,0,0,1-7.76,26.74c-6.9,12.82-19.86,22.26-19.86,22.26l-7.26-10.76-10.7-13.7s17.54-7.52,23.25-10.99S263.45,51.8,263.45,51.8Z" fill="#f15a29"/>
      <path id="Path_4689" data-name="Path 4689" d="M136.56,83.39a73.064,73.064,0,0,0-10.19,5.59c-3.77,2.71-12.89,11.83-12.89,11.83s2-9.07,7.18-15.66,10.13-8.6,10.13-8.6l6.71,1.77-.94,5.06Z" fill="#1e0f08"/>
      <path id="Path_4690" data-name="Path 4690" d="M212.35,83.39a73.064,73.064,0,0,1,10.19,5.59c3.77,2.71,12.89,11.83,12.89,11.83s-2-9.07-7.18-15.66-10.13-8.6-10.13-8.6l-6.71,1.77.94,5.06Z" fill="#1e0f08"/>
      <path id="Path_4691" data-name="Path 4691" d="M291.33,207.28c-3.05,2.37-24.16,17.83-51.17,14.63-28.98-3.44-28.48-38.48-65.66-38.48s-36.69,35.04-65.67,38.48c-27.47,3.26-48.84-12.8-51.31-14.74.97,1.8,30.37,55.03,116.67,55.03s115.32-51.69,117.13-54.92Z" fill="#fff"/>
      <path id="Path_4692" data-name="Path 4692" d="M174.01,156.89c37.76,0,70.61,4.28,87.5,35.24.31-.61.91,8.37.91,8.37,0,33.78-18.93,65.1-89.48,64.81-69.83-.29-86.35-31.03-86.35-64.81v-8.45c16.91-30.14,49.71-35.16,87.43-35.16Z" fill="#ffd7c3"/>
      <path id="Path_4693" data-name="Path 4693" d="M174.01,161c16.67.02,33.64.6,49.68,5.6a58.148,58.148,0,0,1,34.28,27.6,4.16,4.16,0,0,0,5.62,1.47c.02,0,.03-.02.05-.02l-5.62-1.47c-.67-1.28-.23-.12-.12.99.11,1.19.2,2.38.29,3.57a49.6,49.6,0,0,1,.04,5.72,66.179,66.179,0,0,1-1.9,13.21,49.4,49.4,0,0,1-13.11,23.28c-8.13,8.06-18.9,12.8-29.8,15.78-16.39,4.48-33.83,5.04-50.71,4.22-23.39-1.14-51.23-6.71-64.34-28.34-4.61-7.61-6.75-16.46-7.42-25.26-.33-4.29-.24-8.59-.24-12.89v-2.32c0,2.3.26.58.84-.38.47-.77.97-1.53,1.47-2.28a54.7,54.7,0,0,1,7.1-8.46c18.95-18.76,48.89-19.97,73.9-20,5.3,0,5.3-8.23,0-8.22-29.2.04-62.65,2.58-83.2,26.12a68.465,68.465,0,0,0-6.37,8.69,12,12,0,0,0-1.97,7.44c0,4.29-.04,8.58.28,12.86a67.471,67.471,0,0,0,7.67,27.41c12.03,21.98,37.47,30.09,60.83,32.9a189.99,189.99,0,0,0,53.14-1.15c12.69-2.09,25.42-6.16,36.15-13.41a57.722,57.722,0,0,0,22.47-29.58,71.5,71.5,0,0,0,3.34-17.93,52.222,52.222,0,0,0,.06-7.4c-.2-2.72,0-6.23-1.3-8.7a4.149,4.149,0,0,0-5.62-1.47c-.02,0-.03.02-.05.02l5.62,1.47c-8.32-15-21.46-25.28-37.58-30.85-17-5.87-35.67-6.41-53.47-6.43-5.3,0-5.3,8.21,0,8.22Z" fill="#1c0e09"/>
      <path id="Path_4694" data-name="Path 4694" d="M90.66,200.67c0,2.3.26.58.84-.38.47-.77.97-1.53,1.47-2.28a54.7,54.7,0,0,1,7.1-8.46c18.95-18.76,48.89-19.97,73.9-20,16.67.02,33.64.6,49.67,5.6a58.132,58.132,0,0,1,33.96,27.07c0,.17.18.84.24,1.5.08.89.15,1.77.22,2.66.04-.64.08-1.28.11-1.93a47.469,47.469,0,0,0-.04-5.72c-.09-1.19-.18-2.38-.29-3.56-.06-.66-.24-1.33-.24-1.5a58.132,58.132,0,0,0-33.96-27.07c-16.03-5-33.01-5.59-49.67-5.6-25.01.03-54.95,1.24-73.9,20a54.7,54.7,0,0,0-7.1,8.46c-.5.75-1,1.51-1.47,2.28-.58.96-.84,2.67-.84.38v2.32c0,2.2-.02,4.4,0,6.59v-.37Z" fill="#ffad8d"/>
      <path id="Path_4695" data-name="Path 4695" d="M264.58,189.37a3.565,3.565,0,0,1,.45.67c.97,1.85,1.1,4.27,1.19,6.52.02-.2.03-.4.05-.61a52.222,52.222,0,0,0,.06-7.4c-.2-2.72,0-6.23-1.3-8.7a3.565,3.565,0,0,0-.45-.67c-8.34-14.62-21.31-24.68-37.17-30.16-17-5.87-35.67-6.41-53.47-6.43-29.2.04-62.65,2.58-83.2,26.12a68.465,68.465,0,0,0-6.37,8.69,12,12,0,0,0-1.97,7.44c0,2.76,0,5.52.07,8.28a11.157,11.157,0,0,1,1.9-5.52,68.466,68.466,0,0,1,6.37-8.69c20.55-23.54,54-26.09,83.2-26.12,17.8.02,36.47.55,53.47,6.43,15.86,5.48,28.84,15.54,37.17,30.16Z" fill="#f15a29"/>
      <path id="Path_4696" data-name="Path 4696" d="M217.95,100.26c-1.91,3.86-9.84,3.83-17.7-.07s-12.68-10.18-10.77-14.04,9.84-3.83,17.7.07S219.86,96.4,217.95,100.26Z" fill="#fff"/>
      <path id="Path_4697" data-name="Path 4697" d="M227.42,105.31a3.049,3.049,0,1,1,.01,0Z" fill="#fff"/>
      <path id="Path_4698" data-name="Path 4698" d="M120.12,216.95c.56,2.56-3.74,5.69-9.62,6.98s-11.1.27-11.66-2.3,3.74-5.69,9.62-6.98,11.1-.27,11.66,2.3Z" fill="#ff9fb4"/>
      <path id="Path_4699" data-name="Path 4699" d="M142.61,198.54c-2.45-6.14-8.24-8.71-14.55-8.84-10.34-.21-17.07,8.36-15.79,18.34a1.8,1.8,0,0,0,.47,1.02,1.48,1.48,0,0,0,2.24.46,1.315,1.315,0,0,0,.71-.8c5.91-6.63,19.77-6.41,25.27.54,1.06,1.35,2.79.06,2.95-1.22a19.686,19.686,0,0,0-1.29-9.49Z" fill="#1c0e09"/>
      <path id="Path_4700" data-name="Path 4700" d="M229.6,216.95c-.56,2.56,3.74,5.69,9.62,6.98s11.1.27,11.66-2.3-3.74-5.69-9.62-6.98S230.16,214.38,229.6,216.95Z" fill="#ff9fb4"/>
      <path id="Path_4701" data-name="Path 4701" d="M236.19,198.54c-2.43-6.14-8.22-8.71-14.53-8.84-10.34-.21-17.1,8.35-15.84,18.34.16,1.28,1.89,2.57,2.95,1.22,5.49-6.95,19.36-7.17,25.27-.54a1.271,1.271,0,0,0,.7.8,1.48,1.48,0,0,0,2.24-.46,1.8,1.8,0,0,0,.47-1.02,19.671,19.671,0,0,0-1.26-9.49Z" fill="#1c0e09"/>
      <path id="Path_4702" data-name="Path 4702" d="M161.4,232.87c.81,13.58,24.93,13.3,26.54.2.46-3.76-5.43-3.72-5.88,0,.17-1.43,0-.21-.11.14a5.681,5.681,0,0,1-.76,1.4c-1.37,2.04-4.54,2.33-6.72,2.4s-4.96-.38-6.34-2.27a4.789,4.789,0,0,1-.72-1.47c-.21-.68-.14-.81-.11-.41-.23-3.77-6.11-3.79-5.88,0h0Z" fill="#1c0e09"/>
      <path id="Path_4703" data-name="Path 4703" d="M140.52,271.66s20.08-21.82,7.39-29.62-21.33,29.24-21.33,29.24,1.73-9.54-.63-18.47c-2.42-9.15-9.02-17.65-14.97-14.37-11.74,6.47,4.67,32.12,4.67,32.12s-3.57-5.71-9.05-2.48c-4.21,2.49-2.1,8.01-2.1,8.01s-3.52-1.93-6.2,2.98,7.39,12.65,7.39,12.65a12.272,12.272,0,0,0,3.22,7.42c4.02,4.25,12.24,7.7,23.23,5.09,11.47-2.73,17.43-14.18,16.21-22.59C147.49,275.73,140.52,271.66,140.52,271.66Z"/>
      <path id="Path_4704" data-name="Path 4704" d="M152.43,294.06a26.087,26.087,0,0,0,2.12-11.92,18.48,18.48,0,0,0-5.45-11.36q.705-.975,1.38-1.95c3.39-4.93,6.74-10.43,7.53-16.48a16.54,16.54,0,0,0-1.9-10.57c-1.87-3.33-5.28-5.42-8.81-6.55-3.17-1.01-6.49-.04-9.31,1.44a17.969,17.969,0,0,0-5.61,5.13,41.428,41.428,0,0,0-2.54,3.77,34.976,34.976,0,0,0-5.71-8.83,16.068,16.068,0,0,0-5.28-3.94,12.639,12.639,0,0,0-8.48-.69,13.155,13.155,0,0,0-5.73,3.57,11.891,11.891,0,0,0-2.69,4.08,20.086,20.086,0,0,0-1.11,10.27,47.084,47.084,0,0,0,3.61,12.2,11.771,11.771,0,0,0-6.44,8.63c-.25.12-.49.26-.72.4a10.649,10.649,0,0,0-2.61,2.31,12.122,12.122,0,0,0-2.1,3.32,11.282,11.282,0,0,0-.28,7.56c.97,3.36,3.48,6.26,5.85,8.72.58.6,1.17,1.18,1.79,1.73a19.71,19.71,0,0,0,4.53,8.41c2.99,3.4,7.22,5.38,11.46,6.72a31.651,31.651,0,0,0,15.32.58,38.1,38.1,0,0,0,4.58-1.09,31.961,31.961,0,0,0,4.16-1.82,27.942,27.942,0,0,0,12.44-13.64Zm-31.98-38.08a46.6,46.6,0,0,1,.59,10.15c-.03.46-.07.92-.11,1.38-.06-.11-.12-.21-.18-.31a69.307,69.307,0,0,1-3.61-6.47,52.411,52.411,0,0,1-3.95-10.76,20.811,20.811,0,0,1-.34-3.77c.06-.46.14-.92.24-1.37.08-.18.16-.35.25-.52.08-.09.16-.18.25-.27.06-.04.11-.08.17-.12.15.07.29.15.43.23a13.232,13.232,0,0,1,1.51,1.39,25.937,25.937,0,0,1,2.56,3.98,33.636,33.636,0,0,1,2.19,6.48Zm9.3,42.56a31.156,31.156,0,0,1-6.32.49,26.8,26.8,0,0,1-4.87-.91,22.3,22.3,0,0,1-3.48-1.68,16.279,16.279,0,0,1-1.88-1.63,13.058,13.058,0,0,1-.81-1.23,13.776,13.776,0,0,1-.52-1.53,11.793,11.793,0,0,0-.39-2.29,6.708,6.708,0,0,0-2.35-3.1,35.028,35.028,0,0,1-3.42-3.25c-.31-.38-.61-.78-.9-1.18,3.71-.27,6.94-4.21,5.48-8.1-.05-.14-.1-.28-.14-.42a2.3,2.3,0,0,0-.03-.26c.11.1.21.2.31.3.04.06.09.13.13.19a6.154,6.154,0,0,0,8.47,1.72,5.977,5.977,0,0,0,1.93-2.08,6.1,6.1,0,0,0,4.48,3.7,6.189,6.189,0,0,0,7.14-4.86c.67-2.87,1.52-5.7,2.44-8.49a62.668,62.668,0,0,1,6.11-13.47,20.1,20.1,0,0,1,2.35-2.78c.26-.2.53-.38.8-.55.04-.02.08-.03.13-.05.16.08.32.16.48.25a8.148,8.148,0,0,1,.63.54c.09.13.18.27.27.4.06.18.12.35.18.53.04.38.06.76.07,1.13a17.153,17.153,0,0,1-.64,3.01,40.347,40.347,0,0,1-4.14,7.92,60.39,60.39,0,0,1-5.28,6.73,5.7,5.7,0,0,0-1.26,2.21c-.02.05-.03.1-.05.14h0a5.8,5.8,0,0,0-.1,2.89,5.963,5.963,0,0,0,3.24,4.26,22.316,22.316,0,0,1,3.02,2.64,14.794,14.794,0,0,1,1.15,1.69,9.087,9.087,0,0,1,.33.96,14.5,14.5,0,0,1,.11,2.08,20.7,20.7,0,0,1-.71,3.57,16.157,16.157,0,0,1-4.7,7.03,21.38,21.38,0,0,1-3.2,2.12,23.957,23.957,0,0,1-4.05,1.32Z" fill="#1c0e09"/>
      <path id="Path_4705" data-name="Path 4705" d="M153.93,294.47c3.5-8.83,2.83-17.68-3.73-24.8l.24,1.89c6.19-8.62,14.29-22.55,5.71-32.46a15.569,15.569,0,0,0-14.57-5.49c-6.05,1.15-10.04,6.23-13.08,11.15h2.69c-4.25-9.1-13.51-18.82-24.28-12.87-11.29,6.23-7.98,21.17-3.96,30.74.24-.59.48-1.17.72-1.76a14.478,14.478,0,0,0-4.59,3.79,13.278,13.278,0,0,0-1.64,2.73c-.25.52-.47,2.25-.93,2.51-3.69,2.01-5.71,6.23-6.25,10.2-.61,4.51,2.11,8.76,4.85,12.05,1.73,2.07,3.22,3.35,4.23,5.9a22.879,22.879,0,0,0,3.41,5.62c5.94,7.66,17.63,10.13,26.74,8.79,10.77-1.59,19.8-7.47,24.27-17.61.8-1.82-1.88-3.41-2.69-1.57-3.81,8.66-11.05,14.01-20.24,15.83-8.46,1.67-18.23-.08-24.6-6.2a19.262,19.262,0,0,1-3.19-4.31c-.75-1.29-.92-3.81-2-4.81-2.98-2.75-5.93-5.84-7.24-9.76-1.54-4.61.87-9.56,5-11.82,1.13-.62,1.23-3.02,1.73-4.07a10.494,10.494,0,0,1,4.71-4.56,1.56,1.56,0,0,0,.72-1.76c-3.29-7.83-6.76-18.96.49-25.69,4.08-3.79,9.62-3.51,14.07-.57,3.67,2.42,6.16,6.91,7.98,10.8a1.569,1.569,0,0,0,2.69,0c2.59-4.2,5.4-7.74,10.18-9.44,5.01-1.78,10.75,1.37,13.39,5.65,5.6,9.07-1.77,20.13-7.01,27.43a1.562,1.562,0,0,0,.25,1.89c5.83,6.32,6,14.03,2.93,21.76-.74,1.87,2.27,2.67,3.01.83Z" fill="#1c0e09"/>
      <path id="Path_4706" data-name="Path 4706" d="M118.94,256.39a45.509,45.509,0,0,1,.43,11.12c.97-.26,1.94-.52,2.9-.79a93.29,93.29,0,0,1-4.76-8.87,50.494,50.494,0,0,1-2.25-6.09c-.29-.94-1.77-5.78-.72-6.52h-1.57c3.6,1.89,5.1,7.58,5.98,11.15.48,1.95,3.49,1.12,3.01-.83-1.08-4.4-3.04-10.72-7.41-13.01a1.525,1.525,0,0,0-1.57,0c-2.95,2.1-1.49,7.21-.71,10.04,1.56,5.61,4.4,10.71,7.32,15.7a1.567,1.567,0,0,0,2.9-.79,48.225,48.225,0,0,0-.54-11.94c-.32-1.98-3.32-1.14-3.01.83Z" fill="#1c0e09"/>
      <path id="Path_4707" data-name="Path 4707" d="M129.33,297.03c-4.7.75-13.62.98-15.73-4.63-.81-2.16-.73-3.89-2.24-5.79-1.53-1.91-3.74-3.16-5.21-5.18-.31.76-.62,1.53-.93,2.29a7.943,7.943,0,0,0,5.61-3.41c1.57-2.48,1.16-4.19.84-6.87-.89.37-1.77.73-2.66,1.1,2.03,1.93,3.24,3.25,6.2,3.64,2.93.39,5.56-1.53,7.08-3.83H119.6c2.93,5.94,12.19,6.14,14.24-.74,1.36-4.56,2.52-9.11,4.24-13.56a55.611,55.611,0,0,1,3.79-7.85,18.016,18.016,0,0,1,2.06-2.78,1.938,1.938,0,0,1,.21,2.11,11.166,11.166,0,0,1-.97,2.68,46.96,46.96,0,0,1-8.32,12.27,7.591,7.591,0,0,0-1.38,8.08c2.08,4.52,8.21,5.3,7.16,11.3-1.04,5.92-5.74,9.74-11.3,11.15-1.95.49-1.12,3.5.83,3.01a18.714,18.714,0,0,0,10.99-7.34c2.05-2.69,4.17-8.85,2.16-12.03-2.28-3.61-10.09-7.07-6.25-11.96,3.28-4.18,6.5-8.05,8.81-12.9,1.22-2.56,3.33-8.01-.2-9.82-3.17-1.63-5.77,3.44-7.05,5.65a72.059,72.059,0,0,0-6.1,15.05c-.72,2.34-1,5.06-2.24,7.17-2.02,3.44-6.51,1.89-7.97-1.06a1.573,1.573,0,0,0-2.69,0,4.708,4.708,0,0,1-5.52,2.04c-1.35-.36-1.94-1.6-2.87-2.48-.89-.84-2.83-.34-2.66,1.1.15,1.23.64,2.24.43,3.53-.38,2.25-2.56,3.46-4.59,3.75a1.557,1.557,0,0,0-.93,2.29c1.64,2.24,3.77,3.86,5.7,5.81,1.24,1.25,1.11,3.53,1.73,5.17a7.044,7.044,0,0,0,1.8,2.49c4.61,4.42,11.58,4.5,17.47,3.56,1.98-.32,1.14-3.32-.83-3.01Z" fill="#1c0e09"/>
      <path id="Path_4708" data-name="Path 4708" d="M140.52,271.66s20.08-21.82,7.39-29.62-21.33,29.24-21.33,29.24,1.73-9.54-.63-18.47c-2.42-9.15-9.02-17.65-14.97-14.37-11.74,6.47,4.67,32.12,4.67,32.12s-3.57-5.71-9.05-2.48c-4.21,2.49-2.1,8.01-2.1,8.01s-3.52-1.93-6.2,2.98,7.39,12.65,7.39,12.65a12.272,12.272,0,0,0,3.22,7.42c4.02,4.25,12.24,7.7,23.23,5.09,11.47-2.73,17.43-14.18,16.21-22.59C147.49,275.73,140.52,271.66,140.52,271.66Z" fill="#f0842a"/>
      <path id="Path_4709" data-name="Path 4709" d="M101.04,276.15a3.6,3.6,0,0,1,1.06.32s-.09-.24-.2-.64A3.482,3.482,0,0,0,101.04,276.15Z" fill="#84a800"/>
      <path id="Path_4710" data-name="Path 4710" d="M148.35,281.64c-.86-5.91-7.83-9.98-7.83-9.98s20.08-21.82,7.39-29.62a6.194,6.194,0,0,0-5.62-.69,6.717,6.717,0,0,1,3.22,1.07c12.69,7.8-7.39,29.62-7.39,29.62s6.97,4.07,7.83,9.98c1.22,8.42-4.74,19.86-16.21,22.59-.49.12-.96.22-1.43.31a34.982,34.982,0,0,0,3.82-.68c11.47-2.73,17.43-14.18,16.21-22.59Z" fill="#f15a29"/>
      <path id="Path_4711" data-name="Path 4711" d="M123.55,253.19c2.37,8.92.63,18.46.63,18.46s1.06-4.53,2.97-10.08a39.588,39.588,0,0,0-1.22-8.76c-2.33-8.8-8.52-16.99-14.28-14.69,5,.35,9.88,7.49,11.89,15.07Z" fill="#f15a29"/>
      <path id="Path_4712" data-name="Path 4712" d="M110.88,299.6a12.272,12.272,0,0,1-3.22-7.42s-10.06-7.74-7.39-12.65,6.2-2.98,6.2-2.98-2.12-5.53,2.1-8.01a6.44,6.44,0,0,1,3.56-.99,5.9,5.9,0,0,0-5.54.53c-4.21,2.49-2.1,8.01-2.1,8.01s-3.52-1.93-6.2,2.98,7.39,12.65,7.39,12.65a12.272,12.272,0,0,0,3.22,7.42,19.953,19.953,0,0,0,10.87,5.54,19.216,19.216,0,0,1-8.89-5.09Z" fill="#fbb040"/>
      <path id="Path_4713" data-name="Path 4713" d="M128.56,271.74s7.21-30.93,18.14-30.31c-8-3.22-14.25,11.04-17.55,20.95A51.044,51.044,0,0,1,128.56,271.74Z" fill="#fbb040"/>
      <path id="Path_4714" data-name="Path 4714" d="M117.62,271.01c-.33-.51-16.29-25.71-4.67-32.11a5.51,5.51,0,0,1,3-.71,5.611,5.611,0,0,0-4.98.25c-9.48,5.22-.62,22.93,3.16,29.58a8.594,8.594,0,0,1,3.49,2.99Z" fill="#fbb040"/>
      <path id="Path_4715" data-name="Path 4715" d="M146.4,273.71a2.19,2.19,0,0,0-.18-3.08c-3.94-2.7-8.84-2.97-13.48-2.76a44.8,44.8,0,0,0-6.34.64,11.72,11.72,0,0,0-5.19,2.46,30.9,30.9,0,0,0-4.38-4.33c-1.81-1.39-3.69-2.67-5.58-3.95a2.239,2.239,0,0,0-3.08.18,2.19,2.19,0,0,0,.18,3.08c1.79,1.21,3.57,2.45,5.29,3.74a22.742,22.742,0,0,1,2.91,2.64c.55.58,1.08,1.16,1.61,1.76.03.03.07.08.12.13a9.845,9.845,0,0,0-1.49,7.54h-.01a1.036,1.036,0,0,1-.21-.07c-.11-.04-.22-.08-.32-.11-.32-.11-.63-.23-.95-.35a44.654,44.654,0,0,1-4.69-2.09,17.322,17.322,0,0,1-3.35-2.27c-.46-.39-.91-.82-1.33-1.25l-.48-.51c.11.12-.28-.33-.32-.39a16.319,16.319,0,0,1-1.31-1.89c-.1-.16-.18-.32-.27-.49a2.173,2.173,0,0,0-4.07,1.52c1.66,3.85,5.13,6.87,8.69,8.91a32.6,32.6,0,0,0,3.51,1.72c-.02.26-.06.62-.08.75-.04.32-.11.65-.18.97-.05.22-.1.43-.16.64,0,0-.13.39-.14.43a7.529,7.529,0,0,1-.45.95.927.927,0,0,0-.05.1,1.619,1.619,0,0,0-.14.16,4.827,4.827,0,0,1-.51.5,3.809,3.809,0,0,1-1.66.85,6.319,6.319,0,0,1-.87.02c.28,0-.3-.03-.34-.04-.21-.02-.42-.06-.63-.09a19.627,19.627,0,0,1-2.27-.52l-.91-.27c-.04-.01-.16-.05-.25-.08s-.16-.05-.23-.08c-.26-.1-.53-.19-.79-.3a2.229,2.229,0,0,0-2.92.99,2.184,2.184,0,0,0,.99,2.92c2.87,1.15,6.34,2.29,9.44,1.63.19-.04.37-.09.56-.14q-.3.9-.51,1.83c-.62,2.74,3.67,3.56,4.29.82.92-4.1,3.55-6.75,6.97-8.89a14.865,14.865,0,0,0,6.06,2.58,19.038,19.038,0,0,0,11.4-1.55,2.233,2.233,0,0,0,1.36-2.77,2.186,2.186,0,0,0-2.77-1.36,15.385,15.385,0,0,1-5.32,1.51,17.085,17.085,0,0,1-2.64.05c-.49-.04-.98-.12-1.46-.2-.24-.04-.48-.1-.72-.15-.08-.02-.72-.2-.65-.17a12.113,12.113,0,0,1-1.29-.54c-.21-.1-.42-.22-.63-.34a3.681,3.681,0,0,0-.4-.25,7.177,7.177,0,0,1-1.91-1.94,6.479,6.479,0,0,1-.9-2.02q-.045-.315-.06-.63v-.42a7.652,7.652,0,0,1,.22-1.16,4.1,4.1,0,0,0,.14-.4,6.283,6.283,0,0,1,.27-.59,5.176,5.176,0,0,1,.31-.57c0-.01.22-.35.23-.37a11.135,11.135,0,0,1,.75-.92c.15-.17.3-.32.46-.48.11-.1.21-.21.32-.31-.15.12-.13.1.07-.06a12.974,12.974,0,0,1,1.06-.77,6.15,6.15,0,0,1,.55-.33,2.8,2.8,0,0,0,.36-.18,5.843,5.843,0,0,1,2.16-.57c4.32-.55,8.81-.97,13.05.14a7.685,7.685,0,0,1,1.31.46c.22.09.43.2.64.31.07.04.78.47.51.28a2.238,2.238,0,0,0,3.08-.18ZM111.69,284.5h0c0,.04-.01.08-.01.13v-.13Z" fill="#1c0e09"/>
      <path id="Path_4716" data-name="Path 4716" d="M105.95,269.52a6.457,6.457,0,0,1,3.44-.99c1.22.85,2.43,1.7,3.62,2.59a22.742,22.742,0,0,1,2.91,2.64c.55.58,1.08,1.17,1.61,1.76,0,0,.02.02.02.03a13.179,13.179,0,0,1,.73-1.33c-.05-.06-.09-.1-.12-.13-.53-.59-1.06-1.18-1.61-1.76a22.744,22.744,0,0,0-2.91-2.64q-1.785-1.335-3.62-2.59a6.434,6.434,0,0,0-3.44.99,5.126,5.126,0,0,0-2.39,3.08,5.174,5.174,0,0,1,1.75-1.65Z" fill="#f15a29"/>
      <path id="Path_4717" data-name="Path 4717" d="M111.1,287.27l.14-.44c.06-.21.11-.42.16-.64.07-.32.13-.64.18-.97.02-.13.05-.49.08-.75a33.547,33.547,0,0,1-3.51-1.72,22.264,22.264,0,0,1-7.34-6.49,6.328,6.328,0,0,0-2.19,2.24,5.538,5.538,0,0,1,1.14-.89,22.363,22.363,0,0,0,7.34,6.49,34.651,34.651,0,0,0,3.51,1.73c-.02.26-.06.62-.08.75-.05.32-.11.65-.18.97-.05.22-.1.43-.16.64,0,0-.13.39-.14.43-.06.15-.12.29-.19.44a.646.646,0,0,1,.09-.08,6.019,6.019,0,0,0,.51-.5,1.619,1.619,0,0,1,.14-.16.93.93,0,0,0,.05-.1,9.117,9.117,0,0,0,.45-.95Z" fill="#f15a29"/>
      <path id="Path_4718" data-name="Path 4718" d="M121.08,278.25a7.652,7.652,0,0,0-.22,1.16v.42q.015.315.06.63a5.9,5.9,0,0,0,.54,1.4,1.087,1.087,0,0,0-.01-.18v-.42a7.652,7.652,0,0,1,.22-1.16c-.01.06.12-.37.14-.4a6.283,6.283,0,0,1,.27-.59c.1-.2.2-.39.31-.57,0-.02.22-.35.23-.37a9.411,9.411,0,0,1,.75-.92c.15-.17.3-.32.46-.48.11-.1.21-.21.32-.31-.15.12-.13.1.08-.06a10.25,10.25,0,0,1,1.06-.77c.18-.12.37-.23.55-.33.01,0,.48-.24.36-.18a5.8,5.8,0,0,1,2.16-.57c4.32-.55,8.82-.97,13.05.14a7,7,0,0,1,1.31.47c.22.09.43.2.64.31.08.04.78.47.51.28a5.543,5.543,0,0,0,.53.3,15.535,15.535,0,0,1,3.83,5.12,13.719,13.719,0,0,0-4.41-6.96,3.118,3.118,0,0,1-.53-.3c.28.19-.43-.24-.51-.28-.21-.11-.42-.22-.64-.31a7.154,7.154,0,0,0-1.31-.46c-4.24-1.11-8.73-.69-13.05-.14a5.59,5.59,0,0,0-2.16.58c.12-.05-.34.17-.35.18-.19.11-.37.21-.55.33a11.451,11.451,0,0,0-1.06.77c-.2.17-.23.19-.07.06-.11.1-.22.2-.32.31-.15.16-.31.32-.46.48-.26.3-.52.6-.75.92,0,.02-.22.36-.23.37-.11.19-.21.38-.31.57s-.19.39-.27.59c-.01.03-.15.46-.14.4Z" fill="#f15a29"/>
      <path id="Path_4719" data-name="Path 4719" d="M114.39,298.36c.92-4.1,3.55-6.75,6.97-8.89a14.865,14.865,0,0,0,6.06,2.58,19.038,19.038,0,0,0,11.4-1.55,2.148,2.148,0,0,0,.86-3.56,2.492,2.492,0,0,1-1.45,1.71,19.048,19.048,0,0,1-11.4,1.55,14.731,14.731,0,0,1-6.06-2.58c-3.41,2.14-6.05,4.79-6.97,8.89a2.254,2.254,0,0,1-3.72,1.11c-.5,2.67,3.69,3.44,4.3.73Z" fill="#f15a29"/>
      <path id="Path_4720" data-name="Path 4720" d="M109.48,295.95a2.165,2.165,0,0,1,.04-.25q.21-.93.51-1.83a5.1,5.1,0,0,1-.56.14,10.186,10.186,0,0,1-3.4.09,12.982,12.982,0,0,0,.68,1.86,11.333,11.333,0,0,0,2.73,0Z" fill="#f15a29"/>
      <path id="Path_4721" data-name="Path 4721" d="M144.12,245.97c-1.13.96-2.45,1.27-2.96.67s0-1.85,1.13-2.81,2.45-1.26,2.95-.67,0,1.85-1.13,2.81Z" fill="#fff"/>
      <path id="Path_4722" data-name="Path 4722" d="M140.87,247.65a.667.667,0,0,1-.9.3.673.673,0,1,1,.9-.31Z" fill="#fff"/>
      <path id="Path_4723" data-name="Path 4723" d="M113.28,243.7c-.74,1.28-1.89,2.01-2.56,1.62s-.62-1.74.13-3.03,1.89-2.01,2.56-1.62.62,1.74-.12,3.03Z" fill="#fff"/>
      <path id="Path_4724" data-name="Path 4724" d="M110.76,246.37a.669.669,0,1,1-.59-.74A.666.666,0,0,1,110.76,246.37Z" fill="#fff"/>
    </g>
  </g>
</svg>
