<svg xmlns="http://www.w3.org/2000/svg" xmlns:xlink="http://www.w3.org/1999/xlink" width="491" height="548" viewBox="0 0 491 548">
  <defs>
    <clipPath id="clip-dora_oppentfind">
      <rect width="491" height="548"/>
    </clipPath>
  </defs>
  <g id="dora_oppentfind" clip-path="url(#clip-dora_oppentfind)">
    <g id="dora_oppentfind-2" data-name="dora_oppentfind" transform="translate(-0.215 -3.149)">
      <path id="Path_4552" data-name="Path 4552" d="M308.44,469s18.27,4.96,30.25-4.53c7.34-5.83,21.65-43.87,49.06-45.01s56.21,21.11,56.21,21.11a110.659,110.659,0,0,0-23.19,21.12c-7.57,9.34-21.2,36.48-46.01,44.43-33.83,10.84-73.05-19.54-73.05-19.54l6.74-17.56Z" fill="#ffcf06"/>
      <path id="Path_4553" data-name="Path 4553" d="M304.46,483.45c15.08,3.96,33.96,2.12,45.59-9.09,3.96-3.82,6.86-9.12,9.8-13.74,1.73-2.73,3.49-5.43,5.32-8.09q1.485-2.145,3.05-4.23c-1.74,2.34,2.17-2.52,2.76-3.19,1.19-1.35,2.47-2.62,3.76-3.87.42-.4,4.61-3.85,2.1-1.96a43.215,43.215,0,0,1,4.46-2.85c.77-.42,1.56-.82,2.35-1.19q-2.34.975.11.08c.68-.23,5.96-1.17,2.6-.8a43.459,43.459,0,0,1,6.75-.03,59.541,59.541,0,0,1,11.85,2.47c10.64,3.13,21.72,9.08,31.43,16.53V427.62a117.1,117.1,0,0,0-32.37,31.73c-1.82,2.65-3.62,5.31-5.46,7.94a66.739,66.739,0,0,1-5.41,7.1c-5.69,6.82-10.16,10.94-16.99,14.88-6.24,3.59-12.67,4.5-21.02,4.06a47.265,47.265,0,0,1-10.38-1.92,98.383,98.383,0,0,1-11.82-4c2.32.93-2.64-1.24-3.1-1.45-1.63-.77-3.24-1.61-4.84-2.45-2.74-1.44-5.42-3.02-8.05-4.65a91.229,91.229,0,0,1-7.69-5.23q3.435,8.46,6.88,16.91,3.375-8.775,6.74-17.56c2.93-7.63-3.17-16.42-10.46-18.42-8.45-2.32-15.5,2.85-18.42,10.46q-3.375,8.79-6.74,17.56c-2.59,6.75,1.89,13.07,6.88,16.91,23.46,18.06,58.81,30.89,87.7,19.94,18.84-7.14,32.04-22,43.34-38.09,1.8-2.56,3.53-5.16,5.31-7.74.72-1.04,1.45-2.07,2.21-3.08q-2.7,3.45.04.08c1.34-1.61,2.79-3.13,4.23-4.65a111.878,111.878,0,0,1,11.62-10.46c-2.4,1.91,1.98-1.38,2.93-1.99,10.23-6.64,8.94-19.01,0-25.87-24.18-18.55-63.7-33.84-90.86-13.41-12.66,9.53-21.03,22.59-29.51,35.72q-.975,1.515-2.01,3c-1.61,2.32,2.53-2.94.13-.19-2.08,2.39,2.99-1.77-1.01.73-1.58.99-1.55.79-4.12,1.45-1.87.34-2.09.41-.67.21-.99.09-1.98.15-2.98.17a45.553,45.553,0,0,1-5.35-.19c-3.39-.26,3.14.59-.88-.15-.62-.12-1.24-.25-1.85-.41-18.7-4.91-26.63,23.98-7.96,28.88Z" fill="#1c0e09"/>
      <path id="Path_4554" data-name="Path 4554" d="M308.44,469s18.27,4.96,30.25-4.53c7.34-5.83,21.65-43.87,49.06-45.01s56.21,21.11,56.21,21.11a110.659,110.659,0,0,0-23.19,21.12c-7.57,9.34-21.2,36.48-46.01,44.43-33.83,10.84-73.05-19.54-73.05-19.54l6.74-17.56Z" fill="#f0842a"/>
      <path id="Path_4555" data-name="Path 4555" d="M312.14,478.53s18.27,4.97,30.24-4.54c7.35-5.83,21.79-42.04,49.06-45.01,23.61-2.57,52.52,11.57,52.52,11.57s-28.8-22.25-56.21-21.11-41.72,39.18-49.06,45.01c-11.97,9.5-30.25,4.53-30.25,4.53l-6.74,17.56s2.12,1.65,5.8,4.03l4.63-12.06Z" fill="#fbb040"/>
      <path id="Path_4556" data-name="Path 4556" d="M417.35,451.17c-8.15,8.84-21.2,36.48-46.01,44.43-25.91,8.3-54.97-7.57-67.17-15.46l-2.47,6.43s39.22,30.38,73.05,19.54c24.81-7.95,38.44-35.09,46.01-44.43a110.659,110.659,0,0,1,23.19-21.12,32.378,32.378,0,0,0-26.61,10.6Z" fill="#f15a29"/>
      <path id="Path_4557" data-name="Path 4557" d="M443.96,440.56s-28.79-21.88-56.21-21.11c-10.54.3-19.47,6.64-23.79,11.44,0,0,3.91,2.73,13.68,3.7s13.09-.99,13.09-.99a28.107,28.107,0,0,1-2.76,12.11c-3.01,6.16-11.52,10.78-11.52,10.78s17.55,3.3,25.11-.95,9.63-7.07,9.63-7.07-2.59,5.62-2,10.91c1.13,10.09,3.65,13.59,3.65,13.59,2.1-3.09,6.38-9.38,7.93-11.29A110.659,110.659,0,0,1,443.96,440.56Z" fill="#fff"/>
      <path id="Path_4558" data-name="Path 4558" d="M364.42,430.4c-.16.17-.31.33-.46.5,0,0,3.54,2.47,12.3,3.55a35.82,35.82,0,0,1,15.18-5.46c23.61-2.57,52.52,11.57,52.52,11.57s-28.79-21.88-56.21-21.11c-9.17.38-16.87,4.89-23.33,10.94Z" fill="#f1f2f2"/>
      <path id="Path_4559" data-name="Path 4559" d="M417.35,451.17a113.878,113.878,0,0,0-7.85,10.58c1.18,7.96,3.18,10.99,3.33,11.21,3.12-4.5,5.68-8.45,7.78-11.08.06-.07.11-.14.16-.2a110.659,110.659,0,0,1,23.19-21.12,32.378,32.378,0,0,0-26.61,10.6Z" fill="#e6e7e8"/>
      <path id="Path_4560" data-name="Path 4560" d="M179.69,402.49s-53.63,63.69-30.36,77.42,57.98-45.53,57.98-45.53Z" fill="#f0842a"/>
      <path id="Path_4561" data-name="Path 4561" d="M175.45,398.25a278.545,278.545,0,0,0-22.71,31.28c-7.89,12.58-20.57,32.9-13.26,48.22,3.4,7.13,11.6,10.75,19.24,10.12,9.32-.78,17.32-6.66,24.08-12.68,11.74-10.46,21.39-23.97,29.46-37.41.07-.12.15-.25.22-.37a6.114,6.114,0,0,0-.94-7.26q-13.815-15.945-27.62-31.89c-5.07-5.85-13.5,2.66-8.47,8.47q13.815,15.945,27.62,31.89-.465-3.63-.94-7.26a172.715,172.715,0,0,1-20.96,28.52c-5.2,5.72-11.34,11.92-18.65,14.87-4.72,1.9-11.06,1.51-12.58-2.92-1.79-5.21,1.03-12.34,3.08-17.48,3.05-7.63,7.5-14.82,11.93-21.71a250.278,250.278,0,0,1,18.97-25.9c4.94-5.87-3.5-14.4-8.47-8.47Z" fill="#1c0e09"/>
      <path id="Path_4562" data-name="Path 4562" d="M157.85,458.46c3.05-7.63,7.5-14.82,11.93-21.71s9.2-13.63,14.28-20.09q-2.115-2.445-4.23-4.88c-5.3,6.69-10.27,13.68-14.87,20.85-4.43,6.9-8.88,14.08-11.93,21.71-2.06,5.14-4.87,12.27-3.08,17.48a5.924,5.924,0,0,0,4.72,3.75c-1.54-5.18,1.18-12.09,3.18-17.12Z" fill="#fbb040"/>
      <path id="Path_4563" data-name="Path 4563" d="M312.77,402.49s53.63,63.69,30.35,77.42-55.83-45.78-55.83-45.78Z" fill="#f0842a"/>
      <path id="Path_4564" data-name="Path 4564" d="M308.54,406.72a261.651,261.651,0,0,1,18.34,24.94,156.291,156.291,0,0,1,12.32,22.12c2.27,5.11,4.72,12.1,3.51,17.35-1,4.36-6.24,5.53-10.94,4.15-7.27-2.13-13.33-8.74-18.26-14.15a157.265,157.265,0,0,1-21.04-30.04q-.465,3.63-.94,7.26,12.735-15.825,25.48-31.64c4.8-5.96-3.62-14.49-8.47-8.47q-12.735,15.825-25.48,31.64c-1.75,2.17-2.35,4.69-.94,7.26a169.563,169.563,0,0,0,25.38,35.12c11.06,11.6,31.96,24.38,44.47,7.29,9.78-13.36-3.56-35.51-10.42-47.03a267.719,267.719,0,0,0-24.41-34.12c-.04-.05-.09-.1-.13-.15-4.98-5.92-13.41,2.6-8.47,8.47Z" fill="#1c0e09"/>
      <path id="Path_4565" data-name="Path 4565" d="M339.14,453.78a156.291,156.291,0,0,0-12.32-22.12c-4.42-6.74-9.1-13.35-14.09-19.69-1.35,1.67-2.69,3.35-4.04,5.02,3.57,4.78,6.98,9.69,10.25,14.67a156.291,156.291,0,0,1,12.32,22.12c2.27,5.11,4.72,12.1,3.51,17.35a5.624,5.624,0,0,1-3.5,4c.15.05.29.11.45.15,4.7,1.38,9.95.2,10.95-4.15,1.2-5.26-1.25-12.24-3.51-17.35Z" fill="#f15a29"/>
      <path id="Path_4566" data-name="Path 4566" d="M132.17,537.19c0,3.34,50.74,6.05,113.33,6.05s113.34-2.71,113.34-6.05-50.74-6.06-113.34-6.06S132.17,533.84,132.17,537.19Z" fill="#1c0e09"/>
      <path id="Path_4567" data-name="Path 4567" d="M301.37,406.01s21.46,118.74,6.86,123.85-28.12-18.15-28.12-18.15-11.62,3.56-31.67,3.91a139.95,139.95,0,0,1-36.18-4.15S197.31,537.33,181.17,532s9.5-126.28,9.5-126.28Z" fill="#f0842a"/>
      <path id="Path_4568" data-name="Path 4568" d="M295.59,407.6c4.41,24.46,8.03,49.14,10.31,73.89,1.2,12.96,3.09,28.35.32,40.57a22.069,22.069,0,0,1-.77,2.55c.33-.89-.73.81-.12.15-.47.43-.32.31.44-.33,1.86-1.21-.42.09-1.25.16-2.29.21-4.38-.8-6.31-1.89-5.39-3.05-9.8-8.73-12.91-14.01a6.037,6.037,0,0,0-6.77-2.75c-20.12,6.03-44.55,5.29-64.67-.24a6.056,6.056,0,0,0-6.77,2.75,55.715,55.715,0,0,1-11.84,14.07c-2.99,2.56-7.2,4.82-11.24,4.05-1.78-.33-.4-.06.17.69-.86-1.12-.73-1.25-.79-1.43-4.12-11.52-1.17-28.13.16-40.58,2.8-26.14,7.47-52.21,12.91-77.93l-5.78,4.4q55.35.15,110.7.29c7.73.02,7.73-11.96,0-11.98q-55.35-.15-110.7-.29a6.009,6.009,0,0,0-5.78,4.4c-6.14,29-11.3,58.45-14.02,87.97a180.6,180.6,0,0,0-.9,24.72c.25,5.4.71,11.86,3.85,16.49,5.25,7.74,16.24,5.85,23.43,2.22,8.19-4.14,14.61-12.29,19.46-19.87.24-.38.48-.77.71-1.16q-3.375,1.38-6.77,2.75c22.1,6.07,48.95,6.86,71.04.24q-3.375-1.38-6.77-2.75a59.026,59.026,0,0,0,15.09,16.89c6.05,4.62,18.51,8.16,24.23,1.06,3.72-4.62,4.33-10.84,4.78-16.55a171.823,171.823,0,0,0-.33-24.33c-1.9-29.26-6.35-58.54-11.56-87.39-1.37-7.6-12.92-4.37-11.55,3.18Z" fill="#1c0e09"/>
      <path id="Path_4569" data-name="Path 4569" d="M305.8,481.49c-2.15-23.27-5.48-46.48-9.54-69.5-33.61-.09-37.6-.08-5.99,0,4.06,23.02,7.39,46.24,9.54,69.5,1.2,12.96,3.1,28.35.32,40.57-.11.5-.26.99-.42,1.48a9.017,9.017,0,0,0,4.7,1.05,5,5,0,0,0,1.05-.32,18.718,18.718,0,0,0,.66-2.21c2.78-12.21.88-27.6-.32-40.57Z" fill="#f15a29"/>
      <path id="Path_4570" data-name="Path 4570" d="M191.03,485.24c2.64-24.64,6.95-49.22,11.99-73.5-2.49,0-4.99-.01-7.48-.02-5.05,24.29-9.36,48.87-12,73.52-1.33,12.45-4.28,29.06-.16,40.58a1.72,1.72,0,0,0,.27.68c.1.02.22.04.36.07a11.141,11.141,0,0,0,6.75-1.1c-3.94-11.51-1.05-27.9.27-40.23Z" fill="#fbb040"/>
      <path id="Path_4571" data-name="Path 4571" d="M280.46,420.09a62.763,62.763,0,0,1,1.27,12.58c0,26.45-9.14,47.88-36.22,47.88s-36.23-21.44-36.23-47.88a62.838,62.838,0,0,1,1.27-12.58Z" fill="#35b32b"/>
      <path id="Path_4572" data-name="Path 4572" d="M268.9,423.27c1.97,10.47.91,24.11-2.92,32.6-4.06,9-10.09,12.52-20.48,12.69a24,24,0,0,1-12.18-2.76c-3.59-1.97-5.43-4.46-7.71-8.73-4.56-8.55-5.52-23.1-3.51-33.8q-5.775,4.395-11.55,8.8h69.91c15.45,0,15.45-23.96,0-23.96H210.55c-5,0-10.58,3.62-11.55,8.8-3.29,17.41-1.96,36.22,5.92,52.27,7.65,15.59,23.86,23.08,40.58,23.36,16.61.28,31.63-7.81,39.96-22.19,9-15.55,9.78-36.23,6.55-53.43-1.21-6.42-8.84-9.99-14.74-8.37-6.68,1.84-9.57,8.33-8.37,14.74Z" fill="#1c0e09"/>
      <path id="Path_4573" data-name="Path 4573" d="M280.46,420.09a62.763,62.763,0,0,1,1.27,12.58c0,26.45-9.14,47.88-36.22,47.88s-36.23-21.44-36.23-47.88a62.838,62.838,0,0,1,1.27-12.58Z" fill="#fff1d2"/>
      <path id="Path_4574" data-name="Path 4574" d="M245.22,471.44c25.26,0,34.91-18.66,36.09-42.63.08,1.32.13,2.64.13,3.99,0,26.44-9.14,47.88-36.22,47.88s-36.23-21.44-36.23-47.88c0-1.34.05-2.67.13-3.98,1.19,23.97,10.84,42.62,36.1,42.62Z" fill="#feddaa"/>
      <path id="Path_4575" data-name="Path 4575" d="M439.83,307.79c1.67-1.1,3.5-2.38,5.56-3.95,14.09-10.74,23.43-25.71,23.43-25.71s-18.03,2.8-33.02-1.16c-.07-.02-.13-.04-.2-.06-2.71-14.87-7.1-35.11-14.23-60.79,7.15-7.71,32.73-39.69,25.15-95.97-8.78-65.2-38.24-94.04-38.24-94.04L367.53,50.56s-12.54,6.9-34.49,16.3c-11.2,4.8-16.19,11.55-18.39,17.02-34.19-10.41-48.91-12.77-69.21-12.77s-34.96,2.35-69.09,12.73c-2.21-5.46-7.21-12.2-18.38-16.98-21.95-9.41-34.49-16.3-34.49-16.3L82.73,26.11S53.27,54.95,44.49,120.15C36.95,176.13,62.23,208.08,69.53,216c-7.16,25.77-11.57,46.06-14.27,60.95a.06.06,0,0,0-.04.01c-14.99,3.97-33.02,1.16-33.02,1.16s9.34,14.97,23.42,25.71c2,1.52,3.79,2.78,5.42,3.86-.01.17-.02.29-.02.29L32.53,309.4S85.16,409.67,244.97,409.67,458.35,309.4,458.35,309.4l-18.5-1.42v-.2Z" fill="#ffcf06"/>
      <path id="Path_4576" data-name="Path 4576" d="M447.39,320.72a118.774,118.774,0,0,0,34.36-35.03,14.957,14.957,0,0,0,0-15.12c-3.7-6.31-10.15-7.9-16.91-6.88-1.17.18,5-.6.93-.16-2.6.28-5.22.43-7.84.53-6.33.25-12.44.13-18.35-1.59l10.46,10.46c-3.75-20.48-8.69-40.72-14.23-60.79q-1.92,7.29-3.85,14.57c30.08-32.67,34.68-79.05,27.36-121.07a208.234,208.234,0,0,0-23.4-66.52c-4.68-8.27-10.24-16.89-17.05-23.6a15.1,15.1,0,0,0-18.15-2.34q-19.8,11.88-39.61,23.76c-5.91,3.54-12.28,6.39-18.5,9.32-15.49,7.29-33.56,12.94-40.89,30.07q8.46-3.435,16.91-6.88c-24-7.28-47.98-13.23-73.2-13.3-25.13-.07-49.17,6.03-73.07,13.26q8.46,3.435,16.91,6.88c-7.11-16.51-24.19-22.31-39.24-29.26-6.65-3.07-13.5-6.1-19.8-9.88Q110.25,25.165,90.28,13.18a15.1,15.1,0,0,0-18.15,2.34C65.56,22,60.27,30.24,55.64,38.16,43.9,58.22,36.42,80.87,32.06,103.62c-8.14,42.43-3.43,89.86,26.87,122.98q-1.92-7.29-3.85-14.57c-5.56,20.12-10.51,40.42-14.27,60.96l10.46-10.46c-5.43,1.57-10.76,1.64-16.56,1.59-2.82-.03-5.64-.22-8.44-.47-.89-.08-1.78-.18-2.67-.29,5.05.6,3.67.51,2.58.35-5.47-.82-10.45-.27-14.57,3.85-4.64,4.64-5.91,12.48-2.34,18.15a119.171,119.171,0,0,0,34.21,34.94q-3.705-6.465-7.42-12.93a2.825,2.825,0,0,1-.02.29q7.485-7.485,14.98-14.98-9.24.705-18.49,1.42c-11.45.88-18.48,12.01-12.93,22.54,8.14,15.44,21.12,29.23,33.87,40.9,32.32,29.61,72.95,48.96,115.5,58.65,95.24,21.69,209.48,3.73,279.1-69.39,8.59-9.03,17.29-19.11,23.22-30.16,5.64-10.51-1.55-21.66-12.93-22.54q-9.255-.705-18.5-1.42,7.485,7.485,14.98,14.98v-.2c-.38-8.15-6.53-14.98-14.98-14.98-7.88,0-15.36,6.82-14.98,14.98v.2c.4,8.64,6.54,14.33,14.98,14.98q9.255.705,18.5,1.42-6.465-11.265-12.93-22.54a93.828,93.828,0,0,1-7.65,11.51c-.32.43-.65.86-.98,1.29-1.49,1.96,2.49-3.2.94-1.22-.76.97-1.54,1.93-2.32,2.88q-2.865,3.495-5.92,6.83a201.285,201.285,0,0,1-15,14.79c-2.92,2.6-5.92,5.1-8.98,7.54-.6.48-3.43,2.65-.23.19-.84.64-1.69,1.27-2.53,1.9-2.04,1.52-4.12,2.99-6.22,4.43a230.982,230.982,0,0,1-25.75,15.31c-4.72,2.42-9.54,4.65-14.41,6.76,2.96-1.28-1.27.51-1.53.62-1.3.53-2.62,1.04-3.93,1.55-3.15,1.22-6.33,2.35-9.52,3.45a278.811,278.811,0,0,1-38.04,9.95c-54.22,10.4-114.26,6.37-166.78-14.43-.25-.1-4.52-1.86-1.55-.6-1.25-.53-2.5-1.08-3.74-1.63-2.43-1.07-4.83-2.21-7.23-3.36-4.93-2.38-9.75-4.96-14.5-7.68a222.072,222.072,0,0,1-23.59-15.64c-2.89-2.19,2.57,2.02-.24-.2-.79-.62-1.58-1.26-2.36-1.9-1.52-1.23-3.02-2.5-4.5-3.78-3-2.58-5.91-5.26-8.75-8.01a185.975,185.975,0,0,1-13.13-14.09c-1.1-1.3-2.17-2.63-3.22-3.96-2.17-2.74,1.98,2.6.56.73-.44-.58-.87-1.16-1.3-1.74-1.5-2.03-2.95-4.1-4.33-6.22-1.13-1.72-2.25-3.47-3.21-5.29q-6.465,11.265-12.93,22.54,9.24-.705,18.49-1.42c8.56-.66,14.42-6.34,14.98-14.98.51-7.98-5.77-11.95-11.35-15.99a74.828,74.828,0,0,1-9.95-9.3c-1.56-1.65-3.04-3.39-4.5-5.13q-.96-1.155-1.89-2.34,1.425,1.83,0-.06c-1.1-1.49-2.18-3.02-3.17-4.58q-8.46,10.995-16.91,22c13.37,2.01,27.92,2.62,41.03-1.18,4.69-1.36,9.54-5.41,10.46-10.46,2.44-13.31,5.38-26.51,8.64-39.64,1.03-4.16,2.12-8.31,3.22-12.45,1.43-5.39,3.96-11.21,2.41-16.83-.9-3.28-2.98-5.58-5.13-8.04-.85-.98-4.14-5.22-.91-.99a97.653,97.653,0,0,1-6-8.95c-1.13-1.89-2.18-3.83-3.19-5.79-.55-1.06-1.06-2.14-1.58-3.22-.35-.75-.7-1.51-1.03-2.27q.66,1.62,0-.01a108.323,108.323,0,0,1-7.92-36.29c-.83-16.33,1.79-32.51,5.67-48.32a209.107,209.107,0,0,1,6.08-20.08c1.04-2.92,2.18-5.8,3.36-8.66-1.11,2.71.72-1.55.78-1.7.74-1.64,1.52-3.26,2.31-4.88A140.7,140.7,0,0,1,89.55,41.08c2.24-3.04-2.33,2.87.36-.44q.87-1.065,1.77-2.1c.55-.62,1.1-1.25,1.69-1.83L75.22,39.05Q94.6,50.675,113.99,62.31c4.78,2.87,9.83,5.27,14.85,7.69,7.76,3.75,15.68,7.11,23.53,10.67a23.244,23.244,0,0,1,8.11,5.56c3.06,3.1-1.28-2.13.92,1.17a25.125,25.125,0,0,1,2.07,4.03c2.56,5.96,11.1,8.64,16.91,6.88,12.87-3.89,25.81-7.64,39.03-10.13,2.26-.43,4.53-.78,6.8-1.11-3.56.52.72-.05,1.21-.1,1.27-.14,2.55-.24,3.82-.35,4.74-.39,9.49-.49,14.24-.5s9.51.15,14.25.51c2.14.16,4.28.39,6.41.64-3.62-.43.86.14,1.32.21,1.38.21,2.76.46,4.14.71,13.25,2.39,26.24,6.26,39.11,10.16,5.8,1.76,14.36-.92,16.91-6.88.44-1.03.92-2.01,1.45-3,.22-.42,2.53-3.55.59-1.16,2.55-3.15,3.53-3.62,7.28-5.73,7.56-4.24,16.05-7.16,23.89-10.89,5.34-2.54,10.75-5.06,15.83-8.11q19.605-11.76,39.22-23.53l-18.15-2.34c.51.5.98,1.03,1.45,1.56.58.64,1.13,1.3,1.68,1.96.35.42.7.86,1.04,1.28,1.44,1.8-2.61-3.45-.35-.44a141.49,141.49,0,0,1,13.09,21.75c1.22,2.46,2.35,4.95,3.46,7.46-1.21-2.75.73,1.81.77,1.9.58,1.45,1.13,2.91,1.67,4.37a208.5,208.5,0,0,1,6.63,21.59c4.01,15.77,6.26,31.85,5.68,48.14a108.063,108.063,0,0,1-7.79,36.1c-1.58,4.05,1.21-2.69-.49,1.15-.49,1.11-1.02,2.2-1.55,3.3-.98,2.02-2.05,3.99-3.16,5.94a95.685,95.685,0,0,1-6.51,9.92c-1.72,2.32,2.3-2.91.6-.79-.38.48-.78.95-1.18,1.43-.63.75-1.29,1.49-1.95,2.21-8.49,9.22-1.41,23.32,1.26,33.82,3.49,13.74,6.57,27.59,9.12,41.54.93,5.06,5.77,9.1,10.46,10.46,13.16,3.83,27.76,3.24,41.18,1.22q-8.46-10.995-16.91-22c-.62.98-1.28,1.93-1.94,2.88-.63.9-1.29,1.79-1.94,2.67,1.89-2.54-1.86,2.25-2.22,2.68a84.255,84.255,0,0,1-17.51,16.06c-6.77,4.53-9.69,13.12-5.37,20.49,3.93,6.72,13.7,9.92,20.49,5.37Z" fill="#1c0e09"/>
      <path id="Path_4577" data-name="Path 4577" d="M439.83,307.79c1.67-1.1,3.5-2.38,5.56-3.95,14.09-10.74,23.43-25.71,23.43-25.71s-18.03,2.8-33.02-1.16c-.07-.02-.13-.04-.2-.06-2.71-14.87-7.1-35.11-14.23-60.79,7.15-7.71,32.73-39.69,25.15-95.97-8.78-65.2-38.24-94.04-38.24-94.04L367.53,50.56s-12.54,6.9-34.49,16.3c-11.2,4.8-16.19,11.55-18.39,17.02-34.19-10.41-48.91-12.77-69.21-12.77s-34.96,2.35-69.09,12.73c-2.21-5.46-7.21-12.2-18.38-16.98-21.95-9.41-34.49-16.3-34.49-16.3L82.73,26.11S53.27,54.95,44.49,120.15C36.95,176.13,62.23,208.08,69.53,216c-7.16,25.77-11.57,46.06-14.27,60.95a.06.06,0,0,0-.04.01c-14.99,3.97-33.02,1.16-33.02,1.16s9.34,14.97,23.42,25.71c2,1.52,3.79,2.78,5.42,3.86-.01.17-.02.29-.02.29L32.53,309.4S85.16,409.67,244.97,409.67,458.35,309.4,458.35,309.4l-18.5-1.42v-.2Z" fill="#f0842a"/>
      <path id="Path_4578" data-name="Path 4578" d="M55.25,276.88s-.03,0-.04.01a57.165,57.165,0,0,1-6.38,1.28,78.979,78.979,0,0,0,21.56-2.08c.01,0,.03-.01.04-.01,2.71-14.89,7.12-35.19,14.27-60.96-7.3-7.92-32.58-39.87-25.04-95.85,6.39-47.46,23.06-93.24,23.06-93.24S53.26,54.87,44.48,120.07C36.94,176.05,62.22,208,69.52,215.92c-7.16,25.77-11.57,46.06-14.27,60.96Z" fill="#fbb040"/>
      <path id="Path_4579" data-name="Path 4579" d="M435.7,276.88s.03,0,.04.01a57.165,57.165,0,0,0,6.38,1.28,78.979,78.979,0,0,1-21.56-2.08c-.01,0-.03-.01-.04-.01-2.71-14.89-7.12-35.19-14.27-60.96,7.3-7.92,32.58-39.87,25.04-95.85-6.39-47.46-23.06-93.24-23.06-93.24s29.46,28.84,38.24,94.04c7.54,55.98-17.74,87.93-25.04,95.85,7.16,25.77,11.57,46.06,14.27,60.96Z" fill="#fbb040"/>
      <path id="Path_4580" data-name="Path 4580" d="M83.97,26.3s1.56,25.37,14.14,48.73S134.3,115.6,134.3,115.6L147.54,96l19.5-24.97s-31.97-13.71-42.36-20.02-40.71-24.7-40.71-24.7Z" fill="#f15a29"/>
      <path id="Path_4581" data-name="Path 4581" d="M407.57,26.3s-1.56,25.37-14.14,48.73-36.19,40.57-36.19,40.57L344,96,324.5,71.03s31.97-13.71,42.36-20.02,40.71-24.7,40.71-24.7Z" fill="#f15a29"/>
      <path id="Path_4582" data-name="Path 4582" d="M176.36,83.84S164.67,89.1,157.8,94.03s-23.5,21.57-23.5,21.57,3.65-16.52,13.09-28.54,18.45-15.67,18.45-15.67l12.23,3.22-1.72,9.23Z" fill="#1e0f08"/>
      <path id="Path_4583" data-name="Path 4583" d="M314.47,83.84s11.69,5.26,18.56,10.19,23.5,21.57,23.5,21.57-3.65-16.52-13.09-28.54-18.45-15.67-18.45-15.67l-12.23,3.22,1.72,9.23Z" fill="#1e0f08"/>
      <path id="Path_4584" data-name="Path 4584" d="M458.4,309.6c-5.56,4.32-44.03,32.5-93.24,26.66-52.82-6.27-51.89-70.12-119.64-70.12S178.67,330,125.85,336.26c-50.06,5.94-89-23.32-93.5-26.86,1.76,3.28,55.34,100.28,212.61,100.28S455.11,315.48,458.4,309.6Z" fill="#fff"/>
      <path id="Path_4585" data-name="Path 4585" d="M244.6,217.78c68.81,0,128.67,7.8,159.45,64.22.57-1.11,1.66,15.25,1.66,15.25,0,61.56-34.5,118.63-163.06,118.1-127.24-.52-157.36-56.54-157.36-118.1v-15.4c30.81-54.92,90.59-64.08,159.31-64.08Z" fill="#ffd7c3"/>
      <path id="Path_4586" data-name="Path 4586" d="M244.6,225.27c30.38.03,61.31,1.1,90.52,10.21,26.95,8.4,48.75,25.57,62.46,50.3,2.07,3.73,6.67,4.49,10.25,2.69a.593.593,0,0,0,.08-.04q-5.115-1.335-10.25-2.69c-1.22-2.33-.41-.22-.22,1.8.21,2.16.37,4.33.54,6.5a88.327,88.327,0,0,1,.07,10.42,120.05,120.05,0,0,1-3.46,24.07,90.008,90.008,0,0,1-23.9,42.41c-14.81,14.69-34.44,23.32-54.31,28.75-29.87,8.16-61.64,9.18-92.41,7.68-42.61-2.07-93.35-12.23-117.25-51.65-8.4-13.86-12.31-30-13.52-46.04-.59-7.81-.44-15.66-.44-23.49v-4.23c0,4.18.48,1.06,1.54-.68.86-1.41,1.77-2.78,2.69-4.16a99.874,99.874,0,0,1,12.94-15.42c34.53-34.18,89.08-36.39,134.66-36.44,9.66-.01,9.66-14.99,0-14.98-53.21.06-114.16,4.7-151.61,47.6a124.907,124.907,0,0,0-11.61,15.83c-3.03,4.83-3.58,8.14-3.58,13.55,0,7.82-.08,15.63.51,23.43,1.32,17.43,5.56,34.55,13.98,49.95,21.92,40.06,68.28,54.83,110.84,59.95a345.981,345.981,0,0,0,96.83-2.09c23.13-3.8,46.32-11.22,65.87-24.43a105.287,105.287,0,0,0,40.95-53.9,129.781,129.781,0,0,0,6.08-32.68,93.326,93.326,0,0,0,.1-13.48c-.37-4.96,0-11.36-2.37-15.86-1.98-3.77-6.74-4.46-10.25-2.69a.593.593,0,0,0-.08.04q5.13,1.35,10.25,2.69c-15.16-27.34-39.11-46.08-68.48-56.22-30.97-10.7-65-11.68-97.44-11.71-9.66-.01-9.66,14.97,0,14.98Z" fill="#1c0e09"/>
      <path id="Path_4587" data-name="Path 4587" d="M92.72,297.54c0,4.18.48,1.06,1.54-.68.86-1.41,1.77-2.78,2.69-4.16a99.874,99.874,0,0,1,12.94-15.42c34.53-34.18,89.08-36.39,134.66-36.44,30.38.03,61.31,1.1,90.52,10.21,26.58,8.29,48.15,25.13,61.89,49.33,0,.32.33,1.54.44,2.74.16,1.61.27,3.23.4,4.85.08-1.17.15-2.34.2-3.51a86.254,86.254,0,0,0-.07-10.42c-.16-2.17-.33-4.33-.54-6.5-.12-1.2-.45-2.42-.44-2.74-13.74-24.2-35.31-41.04-61.89-49.33-29.21-9.11-60.15-10.18-90.52-10.21-45.58.05-100.13,2.26-134.66,36.44a98.851,98.851,0,0,0-12.94,15.42c-.92,1.37-1.83,2.75-2.69,4.16-1.06,1.74-1.54,4.87-1.54.68v4.23c0,4-.04,8.01,0,12.02v-.67Z" fill="#ffad8d"/>
      <path id="Path_4588" data-name="Path 4588" d="M409.65,276.96a6.2,6.2,0,0,1,.82,1.22c1.76,3.36,2.01,7.78,2.17,11.88l.09-1.11a93.324,93.324,0,0,0,.11-13.48c-.36-4.96,0-11.36-2.37-15.86a7.029,7.029,0,0,0-.82-1.22c-15.19-26.65-38.83-44.97-67.74-54.96-30.97-10.7-65-11.68-97.44-11.71-53.21.06-114.16,4.7-151.61,47.6a124.9,124.9,0,0,0-11.61,15.83c-3.03,4.83-3.58,8.13-3.58,13.55,0,5.03-.01,10.06.12,15.08a20.353,20.353,0,0,1,3.46-10.06,124.9,124.9,0,0,1,11.61-15.83c37.44-42.9,98.4-47.54,151.61-47.6,32.44.03,66.47,1.01,97.44,11.71,28.9,9.99,52.55,28.31,67.74,54.96Z" fill="#f15a29"/>
      <path id="Path_4589" data-name="Path 4589" d="M324.67,114.58c-3.49,7.03-17.92,6.98-32.25-.13-14.32-7.09-23.11-18.55-19.63-25.58s17.92-6.98,32.25.12,23.11,18.56,19.62,25.59Z" fill="#fff"/>
      <path id="Path_4590" data-name="Path 4590" d="M341.94,123.78a10.9,10.9,0,1,0-.01-.01Z" fill="#fff"/>
      <path id="Path_4591" data-name="Path 4591" d="M151.01,345c.92,4.19-6.13,9.31-15.74,11.42s-18.16.43-19.08-3.75,6.12-9.31,15.74-11.43,18.16-.44,19.08,3.76Z" fill="#ff9fb4"/>
      <path id="Path_4592" data-name="Path 4592" d="M195.09,294.78a33.13,33.13,0,1,1-33.13-33.14,33.135,33.135,0,0,1,33.13,33.14Z" fill="#1e0f08" fill-rule="evenodd"/>
      <path id="Path_4593" data-name="Path 4593" d="M193.42,294.78a31.933,31.933,0,0,1-31.46,31.46c-17.5.49-30.99-14.69-31.45-31.46-.49-17.5,14.68-30.99,31.45-31.46,17.5-.49,30.99,14.68,31.46,31.46.06,2.15,3.41,2.16,3.35,0a35.356,35.356,0,0,0-34.81-34.81c-19.35-.54-34.29,16.27-34.81,34.81-.54,19.34,16.27,34.29,34.81,34.81,19.35.54,34.29-16.27,34.81-34.81.06-2.16-3.29-2.16-3.35,0Z" fill="#1c0e09"/>
      <path id="Path_4594" data-name="Path 4594" d="M183.34,306.94a5.37,5.37,0,1,1-5.37-5.37A5.371,5.371,0,0,1,183.34,306.94Z" fill="#fff" fill-rule="evenodd"/>
      <path id="Path_4595" data-name="Path 4595" d="M165.15,290.34a13.86,13.86,0,1,1-13.86-13.86A13.851,13.851,0,0,1,165.15,290.34Z" fill="#fff" fill-rule="evenodd"/>
      <path id="Path_4596" data-name="Path 4596" d="M350.62,324.45c-.92,4.19,6.12,9.31,15.74,11.42s18.16.43,19.08-3.76-6.13-9.31-15.74-11.42S351.54,320.25,350.62,324.45Z" fill="#ff9fb4"/>
      <path id="Path_4597" data-name="Path 4597" d="M365.45,308.24s-8.41-11.08-27.24-11.08-27.33,11.08-27.33,11.08-4.25-32.17,27.33-32.17S365.45,308.24,365.45,308.24Z" fill="#1c0e09"/>
      <path id="Path_4598" data-name="Path 4598" d="M367.82,305.87c-12.94-16.54-46.33-16.43-59.31,0q2.865,1.185,5.72,2.37a34.9,34.9,0,0,1,.96-12.83c2.83-11.06,12.18-15.76,23.02-15.98,16.72-.34,25.9,13.18,23.89,28.81-.55,4.28,6.16,4.23,6.7,0a38.081,38.081,0,0,0-2.45-18.39c-4.71-11.89-15.93-16.88-28.15-17.13-20.02-.4-33.11,16.18-30.68,35.52.31,2.48,3.66,4.97,5.72,2.37,10.92-13.82,38.95-13.92,49.83,0,2.66,3.4,7.37-1.38,4.74-4.74Z" fill="#1c0e09"/>
      <path id="Path_4599" data-name="Path 4599" d="M219.86,366.7c1.58,26.31,48.3,25.77,51.4.4.89-7.29-10.51-7.2-11.39,0,.34-2.77-.01-.4-.22.27a10.741,10.741,0,0,1-1.48,2.72c-2.65,3.95-8.8,4.51-13,4.65s-9.61-.74-12.29-4.39a9.343,9.343,0,0,1-1.4-2.85c-.4-1.32-.27-1.57-.22-.79-.44-7.3-11.83-7.34-11.4,0h0Z" fill="#1c0e09"/>
      <path id="Path_4600" data-name="Path 4600" d="M164.68,416.09s33.66-1.9,32.24,38.32c-1.09,30.7-22.7,37.37-40.93,37.5-16.87.11-35.33-10.87-36.95-30.16-2.74-32.45,16.85-40.76,16.85-40.76a61.639,61.639,0,0,0,1.63-17.48c-.51-8.02-4.3-16.81,1.63-18.84,6.5-2.23,17.44,2.6,22.28,11.23,4.6,8.22,3.26,20.2,3.26,20.2Z"/>
      <path id="Path_4601" data-name="Path 4601" d="M164.68,432.03a27.587,27.587,0,0,1,4.97.29l-4.24-.57a35.363,35.363,0,0,1,8.69,2.34c-1.27-.54-2.54-1.07-3.81-1.61a30.829,30.829,0,0,1,6.52,3.75c-1.08-.83-2.15-1.66-3.22-2.49a29.038,29.038,0,0,1,4.98,4.93c-.83-1.08-1.66-2.15-2.49-3.23a31.423,31.423,0,0,1,4.02,6.97c-.54-1.27-1.07-2.54-1.61-3.81a41.924,41.924,0,0,1,2.6,9.92c-.19-1.41-.38-2.82-.57-4.24a62.97,62.97,0,0,1,0,15.76c.19-1.41.38-2.83.57-4.24a45,45,0,0,1-2.93,11.17c.54-1.27,1.07-2.54,1.61-3.81a33.835,33.835,0,0,1-4.16,7.18c.83-1.08,1.66-2.15,2.49-3.23a32.277,32.277,0,0,1-5.38,5.39c1.07-.83,2.15-1.66,3.23-2.49a35.557,35.557,0,0,1-7.55,4.38c1.27-.54,2.54-1.07,3.81-1.61a48.18,48.18,0,0,1-11.93,3.15l4.24-.57a54.424,54.424,0,0,1-14.31.19l4.24.57a43.651,43.651,0,0,1-10.21-2.79c1.27.54,2.54,1.07,3.81,1.61a40.414,40.414,0,0,1-8.67-4.99c1.07.83,2.15,1.67,3.22,2.49a35.436,35.436,0,0,1-6.22-6.2c.83,1.07,1.66,2.15,2.49,3.22a32.429,32.429,0,0,1-3.86-6.68c.54,1.27,1.07,2.54,1.61,3.81a32.091,32.091,0,0,1-2.07-7.83c.19,1.41.38,2.83.57,4.24a62.957,62.957,0,0,1,.09-15.09c-.19,1.41-.38,2.82-.57,4.24a46.91,46.91,0,0,1,2.98-11.35c-.53,1.27-1.07,2.54-1.61,3.81a36.429,36.429,0,0,1,4.51-7.85c-.83,1.08-1.66,2.15-2.49,3.23a30.616,30.616,0,0,1,5.44-5.47c-1.07.83-2.15,1.66-3.22,2.49a22.258,22.258,0,0,1,3.01-1.97,16.131,16.131,0,0,0,8.15-10.48,85.649,85.649,0,0,0,2.11-15.94c.29-6.6-1.19-13.04-2.07-19.54.19,1.41.38,2.82.57,4.24a19.616,19.616,0,0,1-.12-4.53c-.19,1.41-.38,2.82-.57,4.24a8.842,8.842,0,0,1,.5-1.81c-.54,1.27-1.07,2.54-1.61,3.81a4.421,4.421,0,0,1,.44-.76c-.83,1.07-1.66,2.15-2.49,3.23a5.97,5.97,0,0,1,.94-.94c-1.08.83-2.15,1.66-3.23,2.49a4.944,4.944,0,0,1,.84-.48c-1.27.54-2.54,1.07-3.81,1.61a10.741,10.741,0,0,1,2.27-.61l-4.24.57a15.087,15.087,0,0,1,3.49,0l-4.24-.57a22.526,22.526,0,0,1,5.4,1.48c-1.27-.54-2.54-1.07-3.81-1.61a28.115,28.115,0,0,1,5.29,3.06c-1.07-.83-2.15-1.66-3.22-2.49a26.865,26.865,0,0,1,4.54,4.44c-.83-1.08-1.66-2.15-2.49-3.23a23.54,23.54,0,0,1,2.92,5.05c-.54-1.27-1.07-2.54-1.61-3.81a33.776,33.776,0,0,1,1.91,7.54c-.19-1.41-.38-2.82-.57-4.24a44.1,44.1,0,0,1,.22,10.27c-.43,3.98,1.96,8.56,4.67,11.27a15.934,15.934,0,0,0,22.54,0c3.24-3.24,4.19-6.88,4.67-11.27a56.984,56.984,0,0,0-1.34-17.66c-2.24-10.5-9.23-19.2-18.19-24.82-9.23-5.79-21.07-7.3-30.92-2.3-6.99,3.55-10.14,11.71-10.26,19.09-.08,4.85,1.27,9.77,1.95,14.57-.19-1.42-.38-2.83-.57-4.24a54.444,54.444,0,0,1-.18,13.97c.19-1.41.38-2.83.57-4.24a53.957,53.957,0,0,1-1.17,6.29q3.66-4.77,7.32-9.53c-3.66,1.57-6.94,4.51-9.73,7.28a51.837,51.837,0,0,0-13.39,24.66c-3.28,13.87-2.68,29.1,3.78,41.94,6.04,12.01,18.13,20.16,30.6,24.23,10.56,3.45,22.05,2.91,32.83.85a51.179,51.179,0,0,0,26.51-13.93c9.47-9.61,13.32-22.52,14.31-35.65.87-11.52-1.16-23.7-6.86-33.84-5.68-10.09-15.42-17.1-26.35-20.5a43.745,43.745,0,0,0-14.85-2.1c-8.67.47-15.94,6.89-15.94,15.94,0,8.34,7.26,16.41,15.94,15.94Z" fill="#1e0f08"/>
      <path id="Path_4602" data-name="Path 4602" d="M164.68,416.09s33.66-1.9,32.24,38.32c-1.09,30.7-22.7,37.37-40.93,37.5-16.87.11-35.33-10.87-36.95-30.16-2.75-32.45,16.85-40.76,16.85-40.76a61.639,61.639,0,0,0,1.63-17.48c-.51-8.02-4.3-16.81,1.63-18.84,6.5-2.23,17.44,2.6,22.28,11.23,4.6,8.22,3.26,20.2,3.26,20.2Z" fill="#f0842a"/>
      <path id="Path_4603" data-name="Path 4603" d="M124.96,461.74c-2.75-32.45,16.84-40.76,16.84-40.76a61.639,61.639,0,0,0,1.63-17.48c-.51-8.02-4.3-16.81,1.63-18.84.23-.08.47-.15.71-.21a12.767,12.767,0,0,0-6.63.21c-5.93,2.03-2.14,10.82-1.63,18.84a61.639,61.639,0,0,1-1.63,17.48s-19.59,8.31-16.85,40.76c1.63,19.29,20.09,30.28,36.95,30.16,1.03,0,2.07-.04,3.12-.09-16.05-1.04-32.61-11.84-34.15-30.08Z" fill="#fbb040"/>
      <path id="Path_4604" data-name="Path 4604" d="M149.3,392.77c4.9,8.74,3.47,21.48,3.47,21.48a35.975,35.975,0,0,1,11.91,1.83c.04-.33,1.28-12.08-3.26-20.18-4.36-7.78-13.69-12.47-20.25-11.68a25.176,25.176,0,0,1,8.13,8.56Z" fill="#f15a29"/>
      <path id="Path_4605" data-name="Path 4605" d="M164.73,416.09c10.25,3.37,23.25,12.78,22.32,38.9-.75,21.24-10.74,31.67-22.97,36.39,15.99-2.05,31.91-10.73,32.84-36.97,1.39-39.41-30.9-38.37-32.19-38.32Z" fill="#f15a29"/>
      <path id="Path_4606" data-name="Path 4606" d="M164.68,416.09a29.969,29.969,0,0,0-7.53,1.96,97.185,97.185,0,0,0-9.24,5.03s2.78-6.5,7.95-9.37a31.766,31.766,0,0,1,10.26-3.53l-1.44,5.93Z" fill="#000002"/>
    </g>
  </g>
</svg>
