<svg xmlns="http://www.w3.org/2000/svg" xmlns:xlink="http://www.w3.org/1999/xlink" width="521" height="583" viewBox="0 0 521 583">
  <defs>
    <clipPath id="clip-dora_instructor">
      <rect width="521" height="583"/>
    </clipPath>
  </defs>
  <g id="dora_instructor" clip-path="url(#clip-dora_instructor)">
    <g id="dora_instructor-2" data-name="dora_instructor" transform="translate(-0.35 -11.588)">
      <path id="Path_4347" data-name="Path 4347" d="M326.04,502.35s19.03,5.17,31.49-4.72c7.65-6.07,22.55-45.68,51.09-46.87s58.53,21.98,58.53,21.98A115.182,115.182,0,0,0,443,494.73c-7.89,9.72-22.08,37.98-47.91,46.26-35.23,11.28-76.07-20.35-76.07-20.35l7.01-18.29Z" fill="#ffcf06"/>
      <path id="Path_4348" data-name="Path 4348" d="M321.9,517.39c15.7,4.12,35.36,2.2,47.47-9.46,4.13-3.98,7.15-9.49,10.21-14.31,1.8-2.84,3.64-5.66,5.54-8.43,1.03-1.49,2.1-2.95,3.18-4.41-1.81,2.44,2.26-2.63,2.87-3.32,1.24-1.4,2.57-2.73,3.92-4.03.43-.42,4.8-4,2.19-2.04a42.59,42.59,0,0,1,4.65-2.97c.8-.44,1.62-.85,2.45-1.24-1.62.68-1.58.7.12.08.71-.24,6.2-1.22,2.71-.83a44.591,44.591,0,0,1,7.03-.03,61.35,61.35,0,0,1,12.33,2.58c11.08,3.25,22.62,9.45,32.73,17.21V459.26a121.838,121.838,0,0,0-33.7,33.04c-1.9,2.76-3.77,5.53-5.69,8.27a69.139,69.139,0,0,1-5.63,7.39c-5.92,7.1-10.58,11.4-17.69,15.49-6.49,3.74-13.19,4.69-21.88,4.23a49.356,49.356,0,0,1-10.81-2,100.708,100.708,0,0,1-12.31-4.17c2.42.97-2.75-1.29-3.23-1.51-1.7-.81-3.37-1.67-5.04-2.55-2.86-1.5-5.64-3.14-8.38-4.84a96.374,96.374,0,0,1-8.01-5.44l7.17,17.61q3.51-9.135,7.01-18.29c3.05-7.95-3.3-17.1-10.89-19.18-8.8-2.42-16.14,2.96-19.18,10.89q-3.51,9.15-7.01,18.29c-2.7,7.03,1.97,13.61,7.17,17.61,24.43,18.8,61.24,32.16,91.32,20.76,19.62-7.44,33.36-22.9,45.13-39.66,1.87-2.66,3.68-5.37,5.53-8.05.75-1.08,1.52-2.15,2.3-3.21q-2.82,3.6.05.08c1.4-1.68,2.9-3.26,4.4-4.85a114.639,114.639,0,0,1,12.1-10.89c-2.5,1.99,2.06-1.43,3.05-2.08,10.65-6.91,9.31-19.79,0-26.93-25.18-19.31-66.33-35.24-94.61-13.97-13.19,9.92-21.9,23.52-30.72,37.2-.68,1.05-1.38,2.09-2.09,3.12-1.67,2.41,2.63-3.06.14-.19-2.17,2.49,3.12-1.85-1.05.76-1.64,1.03-1.61.82-4.29,1.51-1.94.36-2.17.43-.7.21-1.03.1-2.06.16-3.1.18a47.056,47.056,0,0,1-5.57-.2c-3.53-.28,3.27.62-.91-.16-.65-.12-1.29-.26-1.93-.43-19.48-5.11-27.73,24.97-8.29,30.08Z" fill="#1c0e09"/>
      <path id="Path_4349" data-name="Path 4349" d="M326.04,502.35s19.03,5.17,31.49-4.72c7.65-6.07,22.55-45.68,51.09-46.87s58.53,21.98,58.53,21.98A115.182,115.182,0,0,0,443,494.73c-7.89,9.72-22.08,37.98-47.91,46.26-35.23,11.28-76.07-20.35-76.07-20.35l7.01-18.29Z" fill="#f0842a"/>
      <path id="Path_4350" data-name="Path 4350" d="M329.89,512.28s19.02,5.17,31.49-4.72c7.65-6.07,22.69-43.78,51.09-46.87,24.58-2.68,54.68,12.05,54.68,12.05s-29.99-23.17-58.53-21.98-43.44,40.8-51.09,46.87c-12.47,9.89-31.49,4.72-31.49,4.72l-7.01,18.29s2.21,1.71,6.04,4.2Z" fill="#fbb040"/>
      <path id="Path_4351" data-name="Path 4351" d="M439.45,483.78c-8.48,9.21-22.07,37.98-47.91,46.26-26.98,8.64-57.24-7.88-69.94-16.1l-2.57,6.7s40.84,31.63,76.07,20.35c25.83-8.28,40.02-36.54,47.91-46.26a115.182,115.182,0,0,1,24.15-21.99A33.7,33.7,0,0,0,439.45,483.78Z" fill="#f15a29"/>
      <path id="Path_4352" data-name="Path 4352" d="M467.16,472.73s-29.97-22.79-58.53-21.98c-10.98.31-20.27,6.91-24.77,11.91,0,0,4.07,2.84,14.25,3.85s13.63-1.04,13.63-1.04a29.284,29.284,0,0,1-2.87,12.61c-3.13,6.42-12,11.22-12,11.22s18.27,3.43,26.15-.99,10.03-7.36,10.03-7.36-2.7,5.86-2.08,11.36c1.18,10.5,3.8,14.15,3.8,14.15,2.19-3.22,6.64-9.77,8.26-11.76a115.182,115.182,0,0,1,24.15-21.99Z" fill="#fff"/>
      <path id="Path_4353" data-name="Path 4353" d="M384.33,462.15c-.17.17-.33.35-.48.52,0,0,3.68,2.57,12.81,3.69a37.253,37.253,0,0,1,15.81-5.68c24.58-2.68,54.68,12.05,54.68,12.05s-29.97-22.79-58.53-21.98c-9.54.4-17.56,5.1-24.29,11.4Z" fill="#f1f2f2"/>
      <path id="Path_4354" data-name="Path 4354" d="M439.45,483.78a119.757,119.757,0,0,0-8.18,11.02c1.23,8.29,3.32,11.45,3.47,11.67,3.25-4.69,5.91-8.8,8.1-11.53.06-.07.11-.14.17-.21a115.182,115.182,0,0,1,24.15-21.99,33.7,33.7,0,0,0-27.71,11.04Z" fill="#e6e7e8"/>
      <path id="Path_4355" data-name="Path 4355" d="M191.97,433.09s-55.85,66.32-31.61,80.62,60.37-47.41,60.37-47.41l-28.76-33.21Z" fill="#f0842a"/>
      <path id="Path_4356" data-name="Path 4356" d="M187.56,428.68a291.6,291.6,0,0,0-23.65,32.57c-8.21,13.1-21.42,34.26-13.8,50.21,3.54,7.42,12.08,11.2,20.03,10.53,9.71-.81,18.03-6.94,25.07-13.2,12.23-10.89,22.28-24.96,30.68-38.95.08-.13.15-.26.23-.39a6.373,6.373,0,0,0-.98-7.56q-14.385-16.605-28.76-33.21c-5.28-6.09-14.06,2.77-8.82,8.82q14.385,16.605,28.76,33.21-.48-3.78-.98-7.56a179.33,179.33,0,0,1-21.83,29.7c-5.42,5.96-11.81,12.41-19.42,15.48-4.92,1.98-11.51,1.58-13.1-3.04-1.86-5.43,1.07-12.85,3.21-18.2,3.18-7.95,7.81-15.43,12.42-22.61a260.742,260.742,0,0,1,19.75-26.97c5.14-6.12-3.64-14.99-8.82-8.82Z" fill="#1c0e09"/>
      <path id="Path_4357" data-name="Path 4357" d="M169.23,491.37c3.18-7.95,7.81-15.43,12.42-22.61s9.58-14.19,14.87-20.92q-2.205-2.55-4.4-5.08c-5.52,6.97-10.7,14.25-15.49,21.71-4.61,7.18-9.24,14.66-12.42,22.61-2.14,5.35-5.07,12.77-3.21,18.2a6.182,6.182,0,0,0,4.91,3.91c-1.61-5.39,1.23-12.59,3.32-17.82Z" fill="#fbb040"/>
      <path id="Path_4358" data-name="Path 4358" d="M330.55,433.09s55.84,66.32,31.61,80.62-58.14-47.67-58.14-47.67l26.53-32.94Z" fill="#f0842a"/>
      <path id="Path_4359" data-name="Path 4359" d="M326.14,437.5a272.584,272.584,0,0,1,19.1,25.97,162.518,162.518,0,0,1,12.83,23.03c2.36,5.32,4.91,12.6,3.66,18.07-1.04,4.54-6.5,5.76-11.4,4.33-7.58-2.22-13.88-9.1-19.01-14.73a163.992,163.992,0,0,1-21.91-31.28c-.33,2.52-.65,5.04-.98,7.56q13.26-16.47,26.53-32.94c5-6.2-3.77-15.09-8.82-8.82q-13.26,16.47-26.53,32.94c-1.82,2.26-2.44,4.89-.98,7.56a176.713,176.713,0,0,0,26.43,36.57c11.51,12.08,33.28,25.39,46.3,7.59,10.18-13.91-3.71-36.97-10.85-48.97a280.071,280.071,0,0,0-25.42-35.53l-.13-.16c-5.18-6.17-13.96,2.71-8.82,8.82Z" fill="#1c0e09"/>
      <path id="Path_4360" data-name="Path 4360" d="M358.01,486.5a163.186,163.186,0,0,0-12.83-23.04c-4.6-7.02-9.47-13.9-14.67-20.5q-2.1,2.61-4.21,5.23c3.72,4.98,7.27,10.09,10.67,15.28a162.075,162.075,0,0,1,12.83,23.04c2.36,5.32,4.91,12.6,3.66,18.07a5.858,5.858,0,0,1-3.65,4.17c.16.05.31.11.47.16,4.9,1.44,10.36.21,11.4-4.32,1.25-5.47-1.3-12.75-3.66-18.07Z" fill="#f15a29"/>
      <path id="Path_4361" data-name="Path 4361" d="M142.49,573.36c0,3.48,52.84,6.3,118.01,6.3s118.01-2.82,118.01-6.3-52.84-6.31-118.01-6.31-118.01,2.83-118.01,6.31Z" fill="#1c0e09"/>
      <path id="Path_4362" data-name="Path 4362" d="M318.68,436.76s22.34,123.65,7.15,128.96-29.28-18.9-29.28-18.9-12.1,3.7-32.98,4.07a146.074,146.074,0,0,1-37.68-4.32s-15.56,26.93-32.37,21.37,9.89-131.49,9.89-131.49Z" fill="#f0842a"/>
      <path id="Path_4363" data-name="Path 4363" d="M312.66,438.42c4.59,25.47,8.36,51.17,10.74,76.94,1.25,13.5,3.22,29.52.33,42.24a21.918,21.918,0,0,1-.81,2.65c.34-.92-.76.84-.13.16-.49.44-.33.33.46-.35,1.93-1.26-.44.09-1.31.17-2.39.22-4.56-.83-6.57-1.97-5.61-3.18-10.2-9.09-13.45-14.59a6.277,6.277,0,0,0-7.04-2.87c-20.95,6.28-46.39,5.5-67.34-.25a6.285,6.285,0,0,0-7.04,2.87,57.8,57.8,0,0,1-12.33,14.65c-3.11,2.67-7.5,5.01-11.71,4.22-1.85-.35-.42-.06.17.71-.89-1.16-.76-1.3-.83-1.49-4.29-12-1.22-29.29.17-42.26,2.91-27.22,7.78-54.37,13.45-81.15-2,1.53-4.01,3.05-6.02,4.58q57.63.15,115.27.31c8.05.02,8.04-12.46,0-12.48q-57.63-.15-115.27-.31a6.247,6.247,0,0,0-6.02,4.58c-6.39,30.2-11.77,60.86-14.6,91.6a187.525,187.525,0,0,0-.94,25.74c.26,5.62.74,12.35,4.01,17.17,5.47,8.06,16.91,6.09,24.4,2.31,8.53-4.31,15.22-12.8,20.27-20.69.25-.4.5-.8.74-1.2-2.35.96-4.7,1.91-7.04,2.87,23.01,6.32,50.97,7.14,73.97.25-2.35-.96-4.7-1.91-7.04-2.87a61.469,61.469,0,0,0,15.71,17.59c6.3,4.81,19.27,8.5,25.23,1.11,3.88-4.81,4.51-11.28,4.98-17.23a177.166,177.166,0,0,0-.35-25.34c-1.98-30.47-6.62-60.96-12.04-91-1.43-7.91-13.45-4.55-12.03,3.32Z" fill="#1c0e09"/>
      <path id="Path_4364" data-name="Path 4364" d="M323.29,515.36c-2.24-24.23-5.71-48.4-9.93-72.37-35-.09-39.16-.09-6.24,0,4.23,23.97,7.7,48.14,9.93,72.37,1.25,13.5,3.22,29.52.33,42.24a15.964,15.964,0,0,1-.44,1.54,9.358,9.358,0,0,0,4.9,1.09,4.732,4.732,0,0,0,1.09-.34,18.386,18.386,0,0,0,.68-2.3c2.89-12.72.92-28.74-.33-42.24Z" fill="#f15a29"/>
      <path id="Path_4365" data-name="Path 4365" d="M203.78,519.26c2.74-25.66,7.23-51.25,12.49-76.53q-3.9,0-7.79-.02c-5.25,25.29-9.75,50.89-12.49,76.55-1.39,12.96-4.46,30.26-.17,42.26a1.751,1.751,0,0,0,.28.71c.11.02.22.04.37.07a11.534,11.534,0,0,0,7.03-1.15C199.4,549.17,202.41,532.1,203.78,519.26Z" fill="#fbb040"/>
      <path id="Path_4366" data-name="Path 4366" d="M296.9,451.41a64.851,64.851,0,0,1,1.32,13.09c0,27.54-9.52,49.86-37.72,49.86s-37.72-22.32-37.72-49.86a64.845,64.845,0,0,1,1.33-13.09Z" fill="#35b32b"/>
      <path id="Path_4367" data-name="Path 4367" d="M284.87,454.73c2.05,10.9.95,25.11-3.04,33.95-4.23,9.37-10.51,13.03-21.32,13.21a25.06,25.06,0,0,1-12.69-2.87c-3.74-2.05-5.65-4.65-8.03-9.1-4.75-8.9-5.75-24.06-3.65-35.2q-6.015,4.575-12.03,9.16H296.9c16.09,0,16.09-24.95,0-24.95H224.11c-5.2,0-11.01,3.77-12.03,9.16-3.42,18.13-2.04,37.71,6.17,54.42,7.97,16.23,24.84,24.03,42.26,24.32,17.3.29,32.94-8.13,41.61-23.11,9.37-16.19,10.19-37.73,6.82-55.64-1.26-6.69-9.21-10.4-15.35-8.71-6.96,1.91-9.97,8.67-8.71,15.35Z" fill="#1c0e09"/>
      <path id="Path_4368" data-name="Path 4368" d="M296.9,451.41a64.851,64.851,0,0,1,1.32,13.09c0,27.54-9.52,49.86-37.72,49.86s-37.72-22.32-37.72-49.86a64.845,64.845,0,0,1,1.33-13.09Z" fill="#fff1d2"/>
      <path id="Path_4369" data-name="Path 4369" d="M260.21,504.89c26.3,0,36.35-19.43,37.58-44.38.09,1.37.14,2.75.14,4.15,0,27.54-9.52,49.86-37.72,49.86s-37.72-22.32-37.72-49.86c0-1.4.05-2.78.14-4.15,1.24,24.96,11.28,44.38,37.59,44.38Z" fill="#feddaa"/>
      <path id="Path_4370" data-name="Path 4370" d="M462.86,334.48c1.73-1.14,3.65-2.48,5.79-4.11,14.67-11.18,24.39-26.77,24.39-26.77s-18.78,2.92-34.38-1.21c-.08-.02-.14-.05-.21-.06-2.82-15.48-7.39-36.56-14.82-63.3,7.44-8.02,34.08-41.33,26.19-99.93C460.68,71.2,430,41.18,430,41.18L387.56,66.64s-13.06,7.18-35.91,16.98c-11.66,5-16.86,12.03-19.15,17.73-35.6-10.84-50.93-13.29-72.07-13.29s-36.4,2.45-71.94,13.25c-2.31-5.69-7.51-12.7-19.14-17.68-22.85-9.79-35.91-16.98-35.91-16.98L91.01,41.19S60.33,71.22,51.19,139.11c-7.85,58.29,18.47,91.56,26.07,99.8-7.45,26.83-12.05,47.96-14.86,63.47a.109.109,0,0,0-.05.01c-15.61,4.13-34.38,1.21-34.38,1.21s9.72,15.59,24.39,26.77c2.08,1.58,3.95,2.9,5.64,4.02-.01.18-.02.3-.02.3l-19.25,1.48s54.8,104.41,221.21,104.41S482.13,336.17,482.13,336.17l-19.26-1.48v-.21Z" fill="#ffcf06"/>
      <path id="Path_4371" data-name="Path 4371" d="M470.73,347.95a123.56,123.56,0,0,0,35.78-36.48,15.58,15.58,0,0,0,0-15.74c-3.85-6.57-10.57-8.23-17.61-7.17-1.22.18,5.2-.63.97-.16-2.71.29-5.44.44-8.16.55-6.6.26-12.95.13-19.11-1.66l10.89,10.89c-3.91-21.33-9.05-42.4-14.82-63.3q-2.01,7.59-4.01,15.17c31.32-34.02,36.11-82.32,28.49-126.07a217,217,0,0,0-24.37-69.27c-4.87-8.62-10.67-17.59-17.75-24.57a15.733,15.733,0,0,0-18.9-2.44L380.88,52.45c-6.15,3.69-12.79,6.65-19.26,9.7-16.13,7.59-34.95,13.47-42.58,31.31l17.61-7.17c-24.99-7.58-49.96-13.78-76.22-13.85-26.17-.07-51.2,6.28-76.09,13.81l17.61,7.17c-7.4-17.19-25.18-23.23-40.86-30.47-6.92-3.2-14.06-6.35-20.62-10.28q-20.805-12.48-41.6-24.96a15.733,15.733,0,0,0-18.9,2.44c-6.84,6.74-12.35,15.33-17.18,23.57C50.56,74.61,42.78,98.2,38.23,121.88c-8.47,44.18-3.57,93.57,27.98,128.05q-2.01-7.59-4.01-15.17c-5.79,20.95-10.95,42.08-14.86,63.47l10.89-10.89c-5.65,1.64-11.2,1.71-17.24,1.65-2.93-.03-5.87-.23-8.79-.49-.93-.08-1.86-.19-2.78-.3,5.26.62,3.83.53,2.68.36-5.69-.86-10.88-.28-15.17,4.01-4.83,4.83-6.16,12.99-2.44,18.9a123.889,123.889,0,0,0,35.62,36.38q-3.855-6.735-7.72-13.47c0,.1-.01.2-.02.3l15.6-15.6q-9.63.735-19.25,1.48c-11.92.92-19.25,12.5-13.47,23.47,8.47,16.08,22,30.43,35.27,42.59,33.66,30.83,75.96,50.98,120.27,61.07,99.17,22.58,218.12,3.89,290.62-72.25,8.95-9.4,18-19.9,24.18-31.41,5.87-10.94-1.61-22.56-13.47-23.47q-9.63-.735-19.26-1.48l15.6,15.6v-.21c-.39-8.49-6.8-15.6-15.6-15.6-8.2,0-15.99,7.1-15.6,15.6v.21c.42,9,6.81,14.92,15.6,15.6q9.63.735,19.26,1.48-6.735-11.73-13.47-23.47a97.715,97.715,0,0,1-7.97,11.98l-1.02,1.35c-1.55,2.04,2.6-3.33.98-1.27-.79,1.01-1.6,2.01-2.41,3-1.99,2.43-4.06,4.79-6.16,7.11a206.344,206.344,0,0,1-15.62,15.4c-3.04,2.71-6.17,5.31-9.35,7.85-.62.5-3.57,2.76-.24.2-.87.67-1.76,1.33-2.64,1.98-2.13,1.58-4.29,3.11-6.47,4.62a239,239,0,0,1-26.81,15.94c-4.91,2.52-9.93,4.84-15,7.04,3.08-1.34-1.32.54-1.59.65-1.36.55-2.73,1.08-4.09,1.62-3.28,1.27-6.59,2.45-9.91,3.59a289.4,289.4,0,0,1-39.61,10.36c-56.46,10.83-118.98,6.63-173.67-15.02-.26-.1-4.7-1.93-1.61-.63-1.31-.55-2.6-1.12-3.9-1.7-2.53-1.12-5.03-2.3-7.53-3.5-5.13-2.47-10.16-5.17-15.1-7.99a230.8,230.8,0,0,1-24.57-16.29c-3.01-2.28,2.68,2.1-.25-.2-.83-.65-1.64-1.31-2.46-1.98q-2.37-1.935-4.69-3.93c-3.12-2.68-6.15-5.48-9.11-8.34a193.375,193.375,0,0,1-13.67-14.67q-1.71-2.04-3.36-4.13c-2.26-2.85,2.06,2.7.58.76-.46-.6-.91-1.2-1.36-1.81-1.56-2.11-3.07-4.27-4.51-6.47-1.18-1.79-2.34-3.61-3.34-5.51q-6.735,11.73-13.47,23.47,9.63-.735,19.25-1.48c8.91-.68,15.01-6.6,15.6-15.6.54-8.31-6-12.44-11.82-16.65a77.222,77.222,0,0,1-10.36-9.69c-1.63-1.72-3.16-3.53-4.68-5.34-.67-.81-1.32-1.62-1.97-2.44.99,1.27.98,1.25,0-.07-1.15-1.55-2.27-3.14-3.3-4.77q-8.8,11.46-17.61,22.91c13.92,2.09,29.07,2.73,42.72-1.22,4.89-1.41,9.93-5.63,10.89-10.89,2.54-13.86,5.61-27.6,9-41.27q1.62-6.495,3.35-12.96c1.49-5.61,4.12-11.68,2.51-17.53-.94-3.41-3.11-5.81-5.34-8.37-.89-1.02-4.31-5.43-.95-1.03a98.9,98.9,0,0,1-6.24-9.32c-1.18-1.97-2.27-3.99-3.32-6.03-.57-1.11-1.11-2.23-1.64-3.36-.37-.78-.73-1.57-1.08-2.36q.69,1.68,0-.01a112.877,112.877,0,0,1-8.25-37.78c-.86-17,1.87-33.86,5.9-50.31a217.835,217.835,0,0,1,6.33-20.91c1.08-3.04,2.27-6.04,3.49-9.02-1.16,2.82.75-1.62.82-1.77.77-1.71,1.58-3.39,2.4-5.08A146.189,146.189,0,0,1,98.05,56.77c2.33-3.16-2.42,2.99.37-.46.6-.74,1.22-1.47,1.85-2.19.57-.65,1.15-1.3,1.76-1.9q-9.45,1.215-18.9,2.44,20.19,12.1,40.37,24.22c4.98,2.99,10.24,5.48,15.46,8.01,8.08,3.9,16.33,7.41,24.5,11.11a24.386,24.386,0,0,1,8.45,5.79c3.18,3.23-1.33-2.22.95,1.21a26.289,26.289,0,0,1,2.15,4.19c2.67,6.2,11.56,9,17.61,7.17,13.4-4.05,26.88-7.95,40.65-10.54,2.35-.44,4.71-.81,7.08-1.16-3.71.54.75-.05,1.26-.11,1.32-.14,2.65-.25,3.98-.36,4.93-.41,9.88-.51,14.83-.53s9.9.16,14.84.53c2.23.16,4.46.41,6.68.67-3.76-.45.89.15,1.37.22,1.44.22,2.88.48,4.31.74,13.8,2.49,27.32,6.52,40.73,10.58,6.04,1.83,14.96-.96,17.61-7.17.46-1.07.96-2.1,1.51-3.12.23-.44,2.64-3.7.62-1.2,2.66-3.28,3.67-3.77,7.58-5.97,7.87-4.42,16.71-7.46,24.88-11.34,5.56-2.64,11.2-5.27,16.48-8.44q20.415-12.255,40.84-24.5-9.45-1.215-18.9-2.44c.53.52,1.02,1.07,1.51,1.62.6.67,1.18,1.35,1.75,2.05.37.44.72.89,1.08,1.34,1.5,1.87-2.71-3.6-.36-.45a146.975,146.975,0,0,1,13.63,22.65c1.27,2.56,2.45,5.16,3.6,7.77-1.26-2.86.76,1.88.8,1.97.61,1.51,1.17,3.03,1.74,4.55a215.169,215.169,0,0,1,6.9,22.48c4.18,16.42,6.51,33.17,5.91,50.12a112.6,112.6,0,0,1-8.11,37.59c-1.64,4.22,1.26-2.8-.51,1.2-.51,1.16-1.07,2.29-1.62,3.43-1.02,2.1-2.14,4.16-3.29,6.19a98.231,98.231,0,0,1-6.78,10.33c-1.79,2.41,2.39-3.03.63-.82-.4.5-.81.99-1.23,1.49-.66.78-1.34,1.55-2.03,2.3-8.84,9.6-1.47,24.28,1.31,35.22,3.63,14.31,6.84,28.73,9.5,43.25.97,5.27,6.01,9.47,10.89,10.89,13.71,3.98,28.9,3.38,42.88,1.27q-8.8-11.46-17.61-22.91c-.64,1.02-1.33,2.01-2.02,3-.66.94-1.34,1.86-2.02,2.78,1.96-2.65-1.94,2.34-2.31,2.79a87.722,87.722,0,0,1-18.23,16.72c-7.05,4.72-10.09,13.66-5.59,21.34,4.1,7,14.26,10.33,21.34,5.59Z" fill="#1c0e09"/>
      <path id="Path_4372" data-name="Path 4372" d="M462.86,334.48c1.73-1.14,3.65-2.48,5.79-4.11,14.67-11.18,24.39-26.77,24.39-26.77s-18.78,2.92-34.38-1.21c-.08-.02-.14-.05-.21-.06-2.82-15.48-7.39-36.56-14.82-63.3,7.44-8.02,34.08-41.33,26.19-99.93C460.68,71.2,430,41.18,430,41.18L387.56,66.64s-13.06,7.18-35.91,16.98c-11.66,5-16.86,12.03-19.15,17.73-35.6-10.84-50.93-13.29-72.07-13.29s-36.4,2.45-71.94,13.25c-2.31-5.69-7.51-12.7-19.14-17.68-22.85-9.79-35.91-16.98-35.91-16.98L91.01,41.19S60.33,71.22,51.19,139.11c-7.85,58.29,18.47,91.56,26.07,99.8-7.45,26.83-12.05,47.96-14.86,63.47a.109.109,0,0,0-.05.01c-15.61,4.13-34.38,1.21-34.38,1.21s9.72,15.59,24.39,26.77c2.08,1.58,3.95,2.9,5.64,4.02-.01.18-.02.3-.02.3l-19.25,1.48s54.8,104.41,221.21,104.41S482.13,336.17,482.13,336.17l-19.26-1.48v-.21Z" fill="#f0842a"/>
      <path id="Path_4373" data-name="Path 4373" d="M62.39,302.29a.134.134,0,0,0-.05.01,59.3,59.3,0,0,1-6.65,1.34,82.1,82.1,0,0,0,22.45-2.17.433.433,0,0,1,.05-.01c2.82-15.51,7.41-36.64,14.86-63.47-7.6-8.24-33.92-41.51-26.07-99.8C73.63,88.77,91,41.1,91,41.1S60.32,71.13,51.18,139.02c-7.85,58.29,18.47,91.56,26.07,99.8-7.45,26.83-12.05,47.96-14.86,63.47Z" fill="#fbb040"/>
      <path id="Path_4374" data-name="Path 4374" d="M458.55,302.29a.134.134,0,0,1,.05.01,59.3,59.3,0,0,0,6.65,1.34,82.1,82.1,0,0,1-22.45-2.17.433.433,0,0,0-.05-.01c-2.82-15.51-7.41-36.64-14.86-63.47,7.6-8.24,33.92-41.51,26.07-99.8-6.65-49.42-24.02-97.09-24.02-97.09s30.68,30.03,39.82,97.92c7.85,58.29-18.47,91.56-26.07,99.8,7.45,26.83,12.05,47.96,14.86,63.47Z" fill="#fbb040"/>
      <path id="Path_4375" data-name="Path 4375" d="M92.3,41.37s1.63,26.41,14.73,50.74,37.68,42.24,37.68,42.24l13.78-20.41,20.3-26S145.5,73.67,134.68,67.09,92.29,41.37,92.29,41.37Z" fill="#f15a29"/>
      <path id="Path_4376" data-name="Path 4376" d="M429.26,41.37s-1.63,26.41-14.73,50.74-37.68,42.24-37.68,42.24l-13.78-20.41-20.3-26s33.29-14.27,44.11-20.85,42.39-25.72,42.39-25.72Z" fill="#f15a29"/>
      <path id="Path_4377" data-name="Path 4377" d="M188.51,101.29s-12.18,5.47-19.33,10.61-24.47,22.46-24.47,22.46,3.8-17.2,13.63-29.72,19.22-16.31,19.22-16.31l12.73,3.35-1.79,9.61Z" fill="#1e0f08"/>
      <path id="Path_4378" data-name="Path 4378" d="M332.32,101.29s12.17,5.47,19.33,10.61,24.47,22.46,24.47,22.46-3.8-17.2-13.63-29.72-19.22-16.31-19.22-16.31l-12.74,3.35Z" fill="#1e0f08"/>
      <path id="Path_4379" data-name="Path 4379" d="M482.19,336.37c-5.79,4.49-45.85,33.84-97.09,27.76-55-6.52-54.03-73.02-124.58-73.02s-69.61,66.49-124.61,73.02c-52.13,6.19-92.68-24.28-97.36-27.97,1.84,3.41,57.63,104.42,221.38,104.42S478.75,342.5,482.18,336.36Z" fill="#fff"/>
      <path id="Path_4380" data-name="Path 4380" d="M259.57,240.76c71.65,0,133.98,8.12,166.03,66.87.59-1.15,1.73,15.88,1.73,15.88,0,64.1-35.92,123.53-169.79,122.98-132.49-.54-163.85-58.88-163.85-122.98V307.48c32.09-57.18,94.33-66.72,165.89-66.72Z" fill="#ffd7c3"/>
      <path id="Path_4381" data-name="Path 4381" d="M259.57,248.55c31.63.03,63.84,1.14,94.26,10.63,28.06,8.75,50.77,26.63,65.04,52.38,2.15,3.88,6.95,4.68,10.67,2.8a.406.406,0,0,0,.09-.05q-5.34-1.395-10.67-2.8c-1.27-2.42-.43-.23-.22,1.88.22,2.25.39,4.51.56,6.77a93.347,93.347,0,0,1,.07,10.84,125.381,125.381,0,0,1-3.6,25.06,93.615,93.615,0,0,1-24.89,44.16c-15.42,15.3-35.86,24.28-56.55,29.93-31.11,8.5-64.19,9.56-96.22,8-44.37-2.16-97.21-12.74-122.09-53.78-8.75-14.43-12.81-31.23-14.08-47.94-.62-8.14-.45-16.31-.45-24.46v-4.4c0,4.36.5,1.1,1.6-.71.89-1.47,1.84-2.9,2.8-4.33a103.4,103.4,0,0,1,13.48-16.05c35.95-35.59,92.76-37.89,140.22-37.95,10.06-.01,10.06-15.61,0-15.6-55.41.07-118.88,4.89-157.86,49.57a129.843,129.843,0,0,0-12.09,16.48c-3.15,5.03-3.73,8.47-3.73,14.11,0,8.14-.08,16.27.53,24.4,1.38,18.15,5.79,35.98,14.56,52.02,22.83,41.72,71.1,57.1,115.42,62.43a360.088,360.088,0,0,0,100.83-2.18c24.08-3.96,48.23-11.68,68.59-25.44a109.628,109.628,0,0,0,42.64-56.12,135.409,135.409,0,0,0,6.33-34.03,98.2,98.2,0,0,0,.11-14.04c-.38-5.17,0-11.83-2.46-16.51-2.06-3.93-7.02-4.64-10.67-2.8a.406.406,0,0,0-.09.05q5.34,1.395,10.67,2.8c-15.78-28.47-40.73-47.98-71.3-58.54-32.25-11.14-67.68-12.16-101.46-12.19-10.06-.01-10.06,15.58,0,15.6Z" fill="#1c0e09"/>
      <path id="Path_4382" data-name="Path 4382" d="M101.41,323.81c0,4.36.5,1.1,1.6-.71.89-1.47,1.84-2.9,2.8-4.33a102.845,102.845,0,0,1,13.48-16.05c35.95-35.59,92.76-37.89,140.22-37.95,31.63.03,63.84,1.14,94.26,10.63,27.68,8.63,50.14,26.16,64.45,51.36,0,.33.34,1.6.46,2.85.16,1.68.29,3.37.42,5.05.09-1.22.16-2.43.21-3.66a93.5,93.5,0,0,0-.07-10.85c-.17-2.26-.34-4.51-.56-6.76-.12-1.25-.46-2.52-.46-2.85-14.31-25.2-36.76-42.73-64.45-51.36-30.42-9.49-62.63-10.6-94.26-10.63-47.46.06-104.26,2.35-140.22,37.95a103.865,103.865,0,0,0-13.48,16.05c-.95,1.43-1.91,2.86-2.8,4.33-1.1,1.82-1.6,5.07-1.6.71v4.4c0,4.17-.04,8.34,0,12.51v-.7Z" fill="#ffad8d"/>
      <path id="Path_4383" data-name="Path 4383" d="M431.43,302.38a7.25,7.25,0,0,1,.86,1.27c1.83,3.5,2.09,8.11,2.26,12.37.03-.38.07-.77.09-1.15a98.2,98.2,0,0,0,.11-14.04c-.38-5.17,0-11.83-2.46-16.51a7.251,7.251,0,0,0-.86-1.27c-15.82-27.75-40.44-46.83-70.53-57.23-32.25-11.14-67.68-12.16-101.46-12.19-55.41.07-118.88,4.89-157.86,49.57a129.843,129.843,0,0,0-12.09,16.48c-3.15,5.03-3.73,8.47-3.73,14.11,0,5.24-.01,10.47.12,15.7a21.211,21.211,0,0,1,3.61-10.48,129.137,129.137,0,0,1,12.09-16.48c38.99-44.67,102.46-49.5,157.86-49.57,33.78.04,69.21,1.05,101.46,12.19,30.1,10.4,54.72,29.48,70.53,57.23Z" fill="#f15a29"/>
      <path id="Path_4384" data-name="Path 4384" d="M342.94,133.29c-3.63,7.32-18.66,7.27-33.58-.13s-24.06-19.32-20.44-26.64,18.66-7.27,33.58.13,24.07,19.32,20.43,26.64Z" fill="#fff"/>
      <path id="Path_4385" data-name="Path 4385" d="M360.92,142.87a8.138,8.138,0,1,1-2.99-10.75A7.895,7.895,0,0,1,360.92,142.87Z" fill="#fff"/>
      <path id="Path_4386" data-name="Path 4386" d="M204.57,305.62a8.551,8.551,0,0,1-.09.87,10.446,10.446,0,1,1-8.74-11.91c.17.03.33.07.49.11a30.846,30.846,0,1,0,8.33,10.94Z" fill="#1c0e09" fill-rule="evenodd"/>
      <path id="Path_4387" data-name="Path 4387" d="M444.57,317.72a12.622,12.622,0,0,0-8.16-11.81,92.74,92.74,0,0,0-176.03-27.37A92.736,92.736,0,0,0,84.42,305.42a12.629,12.629,0,0,0,0,24.62,92.733,92.733,0,0,0,175.95,26.88A92.744,92.744,0,0,0,436.4,329.55a12.632,12.632,0,0,0,8.16-11.81ZM176.34,388.85a71.13,71.13,0,1,1,71.13-71.13A71.135,71.135,0,0,1,176.34,388.85Zm168.1,0a71.13,71.13,0,1,1,71.13-71.13A71.127,71.127,0,0,1,344.44,388.85Z" fill="#1c0e09"/>
      <path id="Path_4388" data-name="Path 4388" d="M188.96,247.69a71.14,71.14,0,0,1-36.57,136.97,71.14,71.14,0,1,0,36.57-136.98Z" fill="#ffad8d"/>
      <path id="Path_4389" data-name="Path 4389" d="M331.77,247.69a71.14,71.14,0,0,0,36.57,136.97,71.14,71.14,0,1,1-36.57-136.98Z" fill="#ffad8d"/>
      <path id="Path_4390" data-name="Path 4390" d="M167.25,247.14a71.138,71.138,0,0,0,32.33,137.75,71.136,71.136,0,1,1-32.33-137.75Z" fill="#fff8dc"/>
      <path id="Path_4391" data-name="Path 4391" d="M199.57,384.9a71.464,71.464,0,0,1-20.96-.46,71.553,71.553,0,0,1-26.23.23,70.525,70.525,0,0,0,47.19.23Z" fill="#ffca83"/>
      <path id="Path_4392" data-name="Path 4392" d="M353.45,247.14a71.136,71.136,0,0,1-32.32,137.75,71.136,71.136,0,1,0,32.33-137.75Z" fill="#fff8dc"/>
      <path id="Path_4393" data-name="Path 4393" d="M368.35,384.66a71.661,71.661,0,0,1-26.25-.23,71.547,71.547,0,0,1-12.06,1.02,72.618,72.618,0,0,1-8.91-.56,70.612,70.612,0,0,0,47.22-.23Z" fill="#ffca83"/>
      <path id="Path_4394" data-name="Path 4394" d="M169.87,358.93c.89,4.03-5.88,8.95-15.12,10.98s-17.45.41-18.33-3.61,5.88-8.94,15.12-10.97,17.45-.42,18.34,3.61Z" fill="#f38b9e"/>
      <path id="Path_4395" data-name="Path 4395" d="M137.94,362.06c-1.25,1.42-1.82,2.87-1.52,4.24.64,2.9,5.09,4.56,10.99,4.48A71.8,71.8,0,0,1,137.94,362.06Z" fill="#ffcad5"/>
      <path id="Path_4396" data-name="Path 4396" d="M370.19,305.62q-.03.435-.09.87a10.446,10.446,0,1,1-8.75-11.91c.17.03.33.07.5.11a30.875,30.875,0,1,0,8.32,10.94Z" fill="#1c0e09" fill-rule="evenodd"/>
      <path id="Path_4397" data-name="Path 4397" d="M348.79,358.93c-.88,4.03,5.88,8.95,15.12,10.98s17.45.41,18.34-3.61-5.88-8.94-15.12-10.97-17.45-.42-18.33,3.61Z" fill="#f38b9e"/>
      <path id="Path_4398" data-name="Path 4398" d="M373.36,370.79c4.83-.3,8.32-1.89,8.88-4.43a4.156,4.156,0,0,0-.62-3.01A70.261,70.261,0,0,1,373.36,370.79Z" fill="#ffcad5"/>
      <path id="Path_4399" data-name="Path 4399" d="M231.87,407.29c1.64,28.44,52.17,27.85,55.46.42.97-8.05-11.64-7.96-12.59,0,.38-3.15,0-.52-.24.28a7.459,7.459,0,0,1-1.2,2.37c-3.36,4.34-8.97,5.19-14.12,5.34-4.38.12-10.15-.72-12.97-4.56a8.242,8.242,0,0,1-1.52-3.08c-.61-2.02-.21-.41-.23-.77-.46-8.07-13.06-8.12-12.59,0h0Z" fill="#1c0e09"/>
    </g>
  </g>
</svg>
