<svg xmlns="http://www.w3.org/2000/svg" xmlns:xlink="http://www.w3.org/1999/xlink" width="390" height="395" viewBox="0 0 390 395">
  <defs>
    <clipPath id="clip-dora_timeout">
      <rect width="390" height="395"/>
    </clipPath>
  </defs>
  <g id="dora_timeout" clip-path="url(#clip-dora_timeout)">
    <g id="dora_timeout-2" data-name="dora_timeout" transform="translate(-25.942 -2.746)">
      <path id="Path_4607" data-name="Path 4607" d="M282.09,171.441h12.134c2.369,0,2.33-5.185,0-5.185h-3.936a.67.67,0,0,1-.575-1q1.829-2.959,3.648-5.938c.327-.535,3.876-5.581,2.449-6.087H285.342c-1.091,0-3.837-.446-3.837,1.626v1.923c0,2.28,4,1.626,5.244,1.626a.67.67,0,0,1,.575,1L282.6,167.05c-.3.486-3.272,4.392-.516,4.392Z" transform="translate(-1.999 -0.874)" fill="#1e0f08"/>
      <path id="Path_4608" data-name="Path 4608" d="M303.791,158.973h16.744c2.161,0,1.7-2.607,1.7-3.747a2.509,2.509,0,0,0-2.776-2.716h-5.244a.67.67,0,0,1-.575-1q2.5-4.06,5-8.109c.426-.694,5.135-7.673,3.747-8.219H308.273c-1.229,0-4.729-.595-4.729,1.685v3.063c0,2.558,6.077,1.685,7.554,1.685a.67.67,0,0,1,.575,1q-3.063,4.967-6.137,9.934c-.377.6-4.61,6.414-1.725,6.414Z" transform="translate(-2.188 -0.718)" fill="#1e0f08"/>
      <path id="Path_4609" data-name="Path 4609" d="M328.009,141.875h14.326c1.477,0,7.842.892,7.822-1.685,0-1.358-.02-2.726-.03-4.084-.01-2.131-2.617-1.685-3.747-1.685h-6.156a.67.67,0,0,1-.575-1q3.019-4.907,6.038-9.8,1.368-2.231,2.746-4.461c.3-.486,3.49-5,2.042-5.453H332.9c-2.161,0-4.828-.367-4.828,2.706,0,1.19-.585,4.739,1.636,4.739h7.733a.67.67,0,0,1,.575,1q-3.866,6.246-7.723,12.491c-.734,1.19-1.467,2.379-2.211,3.569-.278.456-2.746,3.678-.06,3.678Z" transform="translate(-2.394 -0.534)" fill="#1e0f08"/>
      <path id="Path_4610" data-name="Path 4610" d="M202.161,284.463s9.22,2.508,15.257-2.29c3.708-2.944,10.925-22.128,24.745-22.7s28.354,10.647,28.354,10.647a55.752,55.752,0,0,0-11.7,10.647c-3.817,4.709-10.7,18.4-23.208,22.405-17.062,5.463-36.84-9.854-36.84-9.854l3.4-8.863Z" transform="translate(-1.291 -1.79)" fill="#ffcf06"/>
      <path id="Path_4611" data-name="Path 4611" d="M200.081,291.684c7.6,2,17.131,1.071,22.99-4.58,2-1.923,3.46-4.6,4.947-6.93q1.309-2.067,2.687-4.084c.5-.724,1.011-1.428,1.537-2.131-.882,1.18,1.091-1.269,1.388-1.606.6-.684,1.249-1.319,1.894-1.953.208-.2,2.33-1.943,1.061-.991a22.2,22.2,0,0,1,2.25-1.437q.58-.327,1.19-.595c-.783.327-.763.337.059.04.337-.119,3-.595,1.309-.406a20.615,20.615,0,0,1,3.41-.01,29.612,29.612,0,0,1,5.978,1.249,50.173,50.173,0,0,1,15.852,8.338V263.538a59.031,59.031,0,0,0-16.328,16c-.922,1.338-1.824,2.677-2.756,4.005a33.691,33.691,0,0,1-2.726,3.579,29.455,29.455,0,0,1-8.575,7.5c-3.143,1.814-6.384,2.27-10.6,2.052a23.5,23.5,0,0,1-5.234-.972,48.429,48.429,0,0,1-5.958-2.022c1.17.466-1.328-.625-1.566-.734-.823-.387-1.636-.813-2.439-1.239-1.388-.724-2.726-1.527-4.055-2.34a46.773,46.773,0,0,1-3.876-2.637q1.74,4.268,3.47,8.536,1.7-4.431,3.4-8.863c1.477-3.847-1.6-8.278-5.274-9.289-4.263-1.17-7.822,1.438-9.289,5.274q-1.7,4.431-3.4,8.863c-1.309,3.41.952,6.593,3.47,8.536,11.837,9.111,29.662,15.575,44.235,10.053,9.507-3.6,16.16-11.094,21.86-19.213.9-1.289,1.784-2.607,2.677-3.906.357-.525.734-1.041,1.11-1.556q-1.368,1.74.02.04c.674-.813,1.408-1.576,2.131-2.35a56.855,56.855,0,0,1,5.859-5.274c-1.21.962,1-.694,1.477-1.011,5.155-3.351,4.511-9.587,0-13.047-12.194-9.359-32.131-17.072-45.822-6.761-6.384,4.808-10.608,11.391-14.881,18.013-.327.506-.664,1.011-1.011,1.507-.813,1.17,1.279-1.477.069-.089-1.051,1.209,1.507-.892-.506.367a5.069,5.069,0,0,1-2.082.734c-.942.169-1.051.208-.337.1-.5.05-1,.079-1.5.089a20.376,20.376,0,0,1-2.7-.1c-1.705-.129,1.586.3-.446-.079-.317-.059-.625-.129-.932-.208-9.438-2.478-13.433,12.095-4.015,14.573Z" transform="translate(-1.225 -1.725)" fill="#1c0e09"/>
      <path id="Path_4612" data-name="Path 4612" d="M202.161,284.463s9.22,2.508,15.257-2.29c3.708-2.944,10.925-22.128,24.745-22.7s28.354,10.647,28.354,10.647a55.752,55.752,0,0,0-11.7,10.647c-3.817,4.709-10.7,18.4-23.208,22.405-17.062,5.463-36.84-9.854-36.84-9.854l3.4-8.863Z" transform="translate(-1.291 -1.79)" fill="#f0842a"/>
      <path id="Path_4613" data-name="Path 4613" d="M204.024,289.271s9.21,2.508,15.257-2.29c3.708-2.944,10.994-21.206,24.745-22.7,11.907-1.3,26.49,5.839,26.49,5.839s-14.524-11.222-28.354-10.647-21.037,19.758-24.745,22.7c-6.038,4.788-15.257,2.29-15.257,2.29l-3.4,8.863s1.071.833,2.925,2.032l2.33-6.087Z" transform="translate(-1.291 -1.79)" fill="#fbb040"/>
      <path id="Path_4614" data-name="Path 4614" d="M257.083,275.563c-4.1,4.461-10.7,18.4-23.208,22.405-13.066,4.184-27.729-3.817-33.876-7.8l-1.239,3.242s19.778,15.327,36.84,9.854c12.511-4.005,19.391-17.7,23.208-22.405a55.418,55.418,0,0,1,11.7-10.647,16.3,16.3,0,0,0-13.423,5.353Z" transform="translate(-1.291 -1.882)" fill="#f15a29"/>
      <path id="Path_4615" data-name="Path 4615" d="M270.779,270.117s-14.524-11.034-28.354-10.647a17.817,17.817,0,0,0-12,5.77s1.973,1.378,6.9,1.864,6.6-.506,6.6-.506a14.243,14.243,0,0,1-1.388,6.107c-1.517,3.113-5.809,5.433-5.809,5.433s8.853,1.666,12.66-.476,4.858-3.559,4.858-3.559a12.054,12.054,0,0,0-1.011,5.5c.575,5.086,1.844,6.85,1.844,6.85,1.061-1.556,3.212-4.729,4-5.691a55.418,55.418,0,0,1,11.7-10.647Z" transform="translate(-1.564 -1.79)" fill="#fff"/>
      <path id="Path_4616" data-name="Path 4616" d="M230.668,264.992c-.079.089-.159.169-.228.248,0,0,1.784,1.239,6.206,1.784a18.047,18.047,0,0,1,7.653-2.756c11.906-1.3,26.49,5.839,26.49,5.839s-14.524-11.034-28.354-10.647c-4.62.188-8.506,2.469-11.768,5.522Z" transform="translate(-1.564 -1.79)" fill="#f1f2f2"/>
      <path id="Path_4617" data-name="Path 4617" d="M257.556,275.563a58.71,58.71,0,0,0-3.966,5.334c.595,4.015,1.606,5.542,1.685,5.651,1.576-2.27,2.865-4.263,3.926-5.581.03-.04.059-.069.079-.1a55.418,55.418,0,0,1,11.7-10.647,16.3,16.3,0,0,0-13.423,5.353Z" transform="translate(-1.764 -1.882)" fill="#e6e7e8"/>
      <path id="Path_4618" data-name="Path 4618" d="M136.521,250.84s-27.055,32.121-15.317,39.051,29.246-22.96,29.246-22.96l-13.929-16.08Z" transform="translate(-0.597 -1.716)" fill="#f0842a"/>
      <path id="Path_4619" data-name="Path 4619" d="M134.363,248.681a140.5,140.5,0,0,0-11.45,15.773c-3.975,6.345-10.37,16.6-6.682,24.319,1.715,3.6,5.849,5.423,9.706,5.106,4.7-.4,8.734-3.361,12.144-6.394,5.919-5.274,10.786-12.085,14.861-18.866a1.838,1.838,0,0,0,.109-.188,3.075,3.075,0,0,0-.476-3.658q-6.959-8.045-13.929-16.08c-2.558-2.954-6.811,1.338-4.273,4.273q6.959,8.045,13.929,16.08l-.476-3.658a87.473,87.473,0,0,1-10.568,14.385c-2.627,2.885-5.72,6.008-9.408,7.495-2.379.962-5.572.763-6.345-1.477-.9-2.627.516-6.226,1.556-8.813a66.494,66.494,0,0,1,6.018-10.955,125.718,125.718,0,0,1,9.567-13.066c2.488-2.964-1.765-7.257-4.273-4.273Z" transform="translate(-0.57 -1.688)" fill="#1c0e09"/>
      <path id="Path_4620" data-name="Path 4620" d="M125.533,279.115a66.494,66.494,0,0,1,6.018-10.955c2.231-3.48,4.64-6.87,7.207-10.132-.714-.823-1.418-1.646-2.131-2.459a128.18,128.18,0,0,0-7.5,10.519,66.1,66.1,0,0,0-6.018,10.955c-1.041,2.6-2.459,6.186-1.556,8.813a2.991,2.991,0,0,0,2.379,1.894c-.783-2.607.595-6.1,1.606-8.635Z" transform="translate(-0.623 -1.757)" fill="#fbb040"/>
      <path id="Path_4621" data-name="Path 4621" d="M204.278,250.84s27.045,32.121,15.307,39.051S191.42,266.8,191.42,266.8l12.848-15.961Z" transform="translate(-1.228 -1.716)" fill="#f0842a"/>
      <path id="Path_4622" data-name="Path 4622" d="M202.111,252.954a131.918,131.918,0,0,1,9.25,12.581,80.175,80.175,0,0,1,6.216,11.153c1.14,2.578,2.379,6.107,1.775,8.754-.506,2.2-3.153,2.8-5.522,2.092-3.668-1.071-6.722-4.412-9.21-7.138a79.215,79.215,0,0,1-10.608-15.148l-.476,3.658q6.424-7.986,12.848-15.961c2.419-3-1.824-7.306-4.273-4.273q-6.424,7.986-12.848,15.961a3.139,3.139,0,0,0-.476,3.658,85.419,85.419,0,0,0,12.8,17.716c5.572,5.849,16.12,12.293,22.425,3.678,4.927-6.741-1.794-17.9-5.254-23.724a135.549,135.549,0,0,0-12.313-17.21.5.5,0,0,0-.069-.079c-2.508-2.984-6.761,1.309-4.273,4.273Z" transform="translate(-1.202 -1.688)" fill="#1c0e09"/>
      <path id="Path_4623" data-name="Path 4623" d="M217.676,276.757a78.3,78.3,0,0,0-6.216-11.163c-2.231-3.4-4.59-6.732-7.108-9.934-.684.843-1.358,1.685-2.042,2.528,1.8,2.409,3.519,4.887,5.165,7.4a79.721,79.721,0,0,1,6.216,11.163c1.14,2.578,2.379,6.1,1.775,8.754a2.847,2.847,0,0,1-1.765,2.022,2.074,2.074,0,0,1,.228.079c2.369.694,5.016.1,5.522-2.092.6-2.647-.625-6.176-1.775-8.754Z" transform="translate(-1.322 -1.757)" fill="#f15a29"/>
      <path id="Path_4624" data-name="Path 4624" d="M112.51,319.353c0,1.685,25.6,3.053,57.163,3.053s57.163-1.368,57.163-3.053-25.6-3.053-57.163-3.053-57.163,1.368-57.163,3.053Z" transform="translate(-0.548 -2.28)" fill="#1c0e09"/>
      <path id="Path_4625" data-name="Path 4625" d="M198.04,252.639s10.826,59.889,3.46,62.467-14.187-9.15-14.187-9.15-5.859,1.794-15.971,1.973a70.831,70.831,0,0,1-18.251-2.092s-7.535,13.047-15.684,10.35,4.788-63.7,4.788-63.7l55.835.149Z" transform="translate(-0.739 -1.73)" fill="#f0842a"/>
      <path id="Path_4626" data-name="Path 4626" d="M195.1,253.415c2.221,12.333,4.045,24.785,5.2,37.266.6,6.543,1.556,14.306.159,20.462a12.008,12.008,0,0,1-.387,1.289c.169-.446-.367.406-.059.079-.238.218-.159.159.228-.169.932-.615-.208.04-.634.079a5.529,5.529,0,0,1-3.182-.952c-2.716-1.537-4.947-4.4-6.513-7.069a3.035,3.035,0,0,0-3.41-1.388c-10.142,3.044-22.465,2.667-32.616-.119a3.049,3.049,0,0,0-3.41,1.388,28.283,28.283,0,0,1-5.968,7.1c-1.507,1.289-3.628,2.429-5.671,2.042-.892-.169-.2-.03.089.347-.436-.565-.367-.625-.4-.724-2.082-5.809-.595-14.187.079-20.472a390.974,390.974,0,0,1,6.513-39.308c-.972.744-1.943,1.477-2.915,2.221l55.835.149c3.9.01,3.9-6.038,0-6.047l-55.835-.149a3.025,3.025,0,0,0-2.915,2.221,387.724,387.724,0,0,0-7.078,44.374,91.779,91.779,0,0,0-.456,12.462c.129,2.726.357,5.988,1.943,8.318,2.647,3.906,8.189,2.954,11.817,1.12,4.134-2.082,7.366-6.2,9.815-10.023.119-.188.238-.387.357-.585-1.14.466-2.27.922-3.41,1.388,11.143,3.063,24.685,3.46,35.829.119-1.14-.466-2.27-.922-3.41-1.388a29.791,29.791,0,0,0,7.614,8.516c3.053,2.33,9.339,4.114,12.224.535,1.874-2.33,2.181-5.463,2.409-8.347a85.976,85.976,0,0,0-.169-12.273,392.888,392.888,0,0,0-5.829-44.077c-.694-3.827-6.513-2.2-5.829,1.606Z" transform="translate(-0.713 -1.704)" fill="#1c0e09"/>
      <path id="Path_4627" data-name="Path 4627" d="M200.677,290.735c-1.081-11.738-2.766-23.446-4.808-35.055-16.953-.05-18.965-.04-3.024,0,2.042,11.609,3.728,23.317,4.808,35.055.6,6.543,1.566,14.3.159,20.462q-.089.387-.208.744a4.473,4.473,0,0,0,2.369.525,2.506,2.506,0,0,0,.525-.159,8.881,8.881,0,0,0,.327-1.11c1.4-6.156.446-13.919-.159-20.462Z" transform="translate(-1.146 -1.757)" fill="#f15a29"/>
      <path id="Path_4628" data-name="Path 4628" d="M142.407,292.618c1.328-12.432,3.5-24.824,6.047-37.068-1.259,0-2.518,0-3.777-.01-2.548,12.253-4.719,24.646-6.047,37.078-.674,6.275-2.161,14.653-.079,20.472a.783.783,0,0,0,.139.347q.074.015.178.03a5.579,5.579,0,0,0,3.4-.555c-1.983-5.8-.525-14.068.139-20.294Z" transform="translate(-0.763 -1.756)" fill="#fbb040"/>
      <path id="Path_4629" data-name="Path 4629" d="M187.638,259.8a31.436,31.436,0,0,1,.644,6.345c0,13.334-4.61,24.15-18.271,24.15s-18.271-10.816-18.271-24.15a31.51,31.51,0,0,1,.644-6.345h35.254Z" transform="translate(-0.886 -1.793)" fill="#35b32b"/>
      <path id="Path_4630" data-name="Path 4630" d="M181.756,261.354c.991,5.284.456,12.164-1.477,16.447-2.052,4.541-5.086,6.315-10.33,6.4a12.194,12.194,0,0,1-6.147-1.388c-1.814-.991-2.736-2.25-3.886-4.4-2.3-4.313-2.786-11.649-1.765-17.052q-2.915,2.216-5.829,4.441h35.254c7.792,0,7.792-12.085,0-12.085H152.322c-2.518,0-5.334,1.824-5.829,4.441-1.656,8.784-.991,18.271,2.984,26.361,3.856,7.862,12.035,11.639,20.472,11.778A22.455,22.455,0,0,0,190.1,285.107c4.541-7.842,4.937-18.271,3.3-26.946-.6-3.242-4.461-5.036-7.435-4.223-3.371.922-4.828,4.2-4.223,7.435Z" transform="translate(-0.833 -1.741)" fill="#1c0e09"/>
      <path id="Path_4631" data-name="Path 4631" d="M187.638,259.8a31.436,31.436,0,0,1,.644,6.345c0,13.334-4.61,24.15-18.271,24.15s-18.271-10.816-18.271-24.15a31.51,31.51,0,0,1,.644-6.345h35.254Z" transform="translate(-0.886 -1.793)" fill="#fff1d2"/>
      <path id="Path_4632" data-name="Path 4632" d="M169.861,285.733c12.739,0,17.607-9.408,18.2-21.5.04.664.069,1.328.069,2.013,0,13.334-4.61,24.15-18.271,24.15s-18.271-10.816-18.271-24.15c0-.674.03-1.348.069-2.013.595,12.085,5.463,21.493,18.2,21.493Z" transform="translate(-0.885 -1.831)" fill="#feddaa"/>
      <path id="Path_4633" data-name="Path 4633" d="M267.2,201.435c.843-.555,1.765-1.2,2.806-1.993a55.205,55.205,0,0,0,11.817-12.967s-9.091,1.418-16.655-.585a.291.291,0,0,1-.1-.03c-1.368-7.5-3.579-17.706-7.178-30.663,3.609-3.886,16.507-20.016,12.69-48.4-4.431-32.884-19.292-47.428-19.292-47.428L230.736,71.7s-6.325,3.48-17.4,8.219c-5.651,2.419-8.169,5.829-9.279,8.585-17.24-5.254-24.675-6.444-34.907-6.444s-17.627,1.19-34.847,6.414c-1.12-2.756-3.638-6.156-9.269-8.566-11.074-4.749-17.4-8.219-17.4-8.219L87.085,59.36S72.224,73.9,67.792,106.788c-3.807,28.235,8.942,44.345,12.63,48.34-3.609,13-5.829,23.228-7.2,30.743h-.02c-7.564,2-16.655.585-16.655.585a55.205,55.205,0,0,0,11.817,12.967c1.011.763,1.913,1.408,2.726,1.943v.149l-9.329.714S88.314,252.8,168.913,252.8s107.624-50.57,107.624-50.57l-9.329-.714v-.1Z" transform="translate(-0.066 -0.066)" fill="#ffcf06"/>
      <path id="Path_4634" data-name="Path 4634" d="M270.95,207.893a59.832,59.832,0,0,0,17.329-17.666,7.546,7.546,0,0,0,0-7.624c-1.864-3.182-5.125-3.985-8.526-3.47-.595.089,2.518-.307.466-.079-1.319.139-2.637.218-3.956.268a28.818,28.818,0,0,1-9.259-.8l5.274,5.274c-1.894-10.33-4.382-20.541-7.178-30.663-.644,2.449-1.3,4.9-1.943,7.346,15.168-16.477,17.488-39.873,13.8-61.069a105.139,105.139,0,0,0-11.8-33.548,54.435,54.435,0,0,0-8.6-11.907,7.6,7.6,0,0,0-9.15-1.18q-9.993,5.993-19.976,11.986c-2.974,1.784-6.2,3.222-9.329,4.7-7.812,3.678-16.923,6.523-20.631,15.168q4.268-1.74,8.526-3.47c-12.1-3.668-24.2-6.672-36.919-6.712-12.67-.03-24.8,3.044-36.86,6.692q4.268,1.74,8.526,3.47c-3.589-8.328-12.194-11.252-19.788-14.762a101.845,101.845,0,0,1-9.983-4.987q-10.067-6.038-20.145-12.085a7.619,7.619,0,0,0-9.15,1.18,55.154,55.154,0,0,0-8.318,11.421,104.447,104.447,0,0,0-11.9,33.013c-4.1,21.4-1.735,45.326,13.552,62.021-.644-2.449-1.3-4.9-1.943-7.346-2.806,10.152-5.3,20.383-7.2,30.743l5.274-5.274a28.49,28.49,0,0,1-8.347.8c-1.418-.01-2.845-.109-4.253-.238-.446-.04-.9-.089-1.348-.149,2.548.3,1.854.258,1.3.178-2.756-.416-5.274-.139-7.346,1.943a7.578,7.578,0,0,0-1.18,9.15,60.15,60.15,0,0,0,17.25,17.627c-1.249-2.171-2.5-4.352-3.738-6.523v.149l7.554-7.554-9.329.714c-5.78.446-9.319,6.057-6.523,11.371,4.1,7.782,10.657,14.742,17.082,20.631,16.3,14.93,36.79,24.7,58.254,29.583,48.032,10.935,105.652,1.884,140.766-35,4.332-4.55,8.724-9.636,11.708-15.218,2.845-5.3-.783-10.925-6.523-11.371l-9.329-.714,7.554,7.554v-.1a7.656,7.656,0,0,0-7.554-7.554c-3.975,0-7.743,3.44-7.554,7.554v.1c.2,4.362,3.3,7.227,7.554,7.554l9.329.714q-3.257-5.681-6.523-11.371a47.11,47.11,0,0,1-3.856,5.8c-.159.218-.327.436-.5.654-.753.991,1.259-1.616.476-.615-.387.486-.773.972-1.17,1.447-.962,1.18-1.963,2.32-2.984,3.45a99.373,99.373,0,0,1-7.564,7.455c-1.467,1.309-2.984,2.578-4.531,3.8-.307.238-1.725,1.338-.119.1-.426.327-.853.644-1.279.962-1.031.763-2.082,1.507-3.133,2.241a115.782,115.782,0,0,1-12.987,7.723c-2.379,1.219-4.808,2.35-7.267,3.41,1.5-.644-.644.258-.773.317-.654.268-1.319.525-1.983.783-1.586.615-3.192,1.19-4.8,1.735a140.639,140.639,0,0,1-19.183,5.016c-27.342,5.244-57.629,3.212-84.119-7.277-.129-.05-2.28-.932-.783-.307-.634-.268-1.259-.545-1.884-.823-1.229-.545-2.439-1.11-3.648-1.7-2.488-1.2-4.917-2.5-7.316-3.876a111.908,111.908,0,0,1-11.9-7.891c-1.457-1.1,1.3,1.021-.119-.1-.4-.317-.793-.634-1.19-.962-.763-.625-1.517-1.259-2.27-1.9-1.517-1.3-2.984-2.657-4.412-4.035a93.482,93.482,0,0,1-6.622-7.108c-.555-.654-1.091-1.328-1.626-2-1.091-1.378,1,1.309.278.367-.218-.287-.436-.585-.654-.872-.753-1.021-1.487-2.072-2.181-3.133-.565-.863-1.13-1.755-1.616-2.667Q65,204.036,61.729,209.727l9.329-.714a7.737,7.737,0,0,0,7.554-7.554c.258-4.025-2.9-6.028-5.73-8.06a38.037,38.037,0,0,1-5.016-4.689c-.793-.833-1.537-1.705-2.27-2.588-.327-.387-.644-.783-.952-1.18q.714.922,0-.03c-.555-.753-1.1-1.517-1.6-2.31q-4.268,5.547-8.526,11.094c6.741,1.011,14.078,1.319,20.69-.595,2.369-.684,4.808-2.726,5.274-5.274,1.229-6.712,2.716-13.374,4.362-20q.788-3.153,1.626-6.275c.724-2.716,1.993-5.651,1.219-8.486a10.417,10.417,0,0,0-2.588-4.055c-.426-.5-2.092-2.627-.456-.506a47.85,47.85,0,0,1-3.024-4.521c-.575-.952-1.1-1.933-1.606-2.925-.278-.535-.535-1.081-.793-1.626-.178-.377-.357-.763-.525-1.15h0a54.728,54.728,0,0,1-4-18.3c-.416-8.238.9-16.4,2.855-24.368.843-3.43,1.884-6.8,3.063-10.132.525-1.467,1.1-2.925,1.7-4.372-.565,1.368.357-.783.4-.853.377-.823.763-1.646,1.16-2.459a70.27,70.27,0,0,1,6.6-10.965c1.13-1.537-1.17,1.447.178-.228.287-.357.595-.714.892-1.061.278-.317.555-.625.853-.922-3.053.4-6.107.783-9.15,1.18q9.77,5.859,19.55,11.728c2.409,1.447,4.957,2.657,7.485,3.876C114.2,83.306,118.2,85,122.154,86.8a11.738,11.738,0,0,1,4.094,2.806c1.547,1.566-.644-1.081.466.585a11.9,11.9,0,0,1,1.041,2.032c1.289,3,5.6,4.362,8.526,3.47a190.053,190.053,0,0,1,19.689-5.106c1.14-.218,2.28-.4,3.43-.555-1.794.258.367-.02.615-.05.644-.069,1.289-.119,1.923-.178,2.389-.2,4.788-.248,7.188-.258s4.8.079,7.188.258c1.081.079,2.161.2,3.232.327-1.824-.218.436.069.664.109.694.109,1.388.238,2.092.357a174.182,174.182,0,0,1,19.729,5.125c2.925.892,7.247-.466,8.526-3.47.218-.516.466-1.011.734-1.517.109-.208,1.279-1.794.3-.585a9.33,9.33,0,0,1,3.678-2.885c3.807-2.141,8.1-3.609,12.055-5.492,2.7-1.279,5.423-2.548,7.981-4.084l19.778-11.867c-3.053-.4-6.107-.783-9.15-1.18.258.248.5.516.734.783.287.327.575.654.853.991l.525.644c.724.9-1.319-1.745-.178-.218a71.514,71.514,0,0,1,6.6,10.965c.615,1.239,1.19,2.5,1.745,3.767-.6-1.388.367.912.387.952.3.734.565,1.467.843,2.2a104.476,104.476,0,0,1,3.341,10.885,86.111,86.111,0,0,1,2.865,24.279,54.5,54.5,0,0,1-3.926,18.212c-.793,2.042.615-1.358-.248.585-.248.555-.516,1.11-.783,1.666-.5,1.021-1.041,2.013-1.6,2.994a48.843,48.843,0,0,1-3.281,5.006c-.872,1.17,1.16-1.467.307-.4-.2.248-.4.486-.595.724-.317.377-.644.753-.981,1.11-4.283,4.65-.714,11.758.634,17.062,1.755,6.93,3.311,13.919,4.6,20.948.466,2.548,2.9,4.59,5.274,5.274,6.642,1.933,14,1.636,20.769.615q-4.268-5.547-8.526-11.094c-.307.5-.644.972-.981,1.457-.317.456-.644.9-.981,1.348.952-1.279-.942,1.14-1.12,1.348a42.321,42.321,0,0,1-8.833,8.1c-3.41,2.29-4.888,6.622-2.706,10.34,1.983,3.391,6.91,5.006,10.33,2.706Z" fill="#1c0e09"/>
      <path id="Path_4635" data-name="Path 4635" d="M267.2,201.435c.843-.555,1.765-1.2,2.806-1.993a55.205,55.205,0,0,0,11.817-12.967s-9.091,1.418-16.655-.585a.291.291,0,0,1-.1-.03c-1.368-7.5-3.579-17.706-7.178-30.663,3.609-3.886,16.507-20.016,12.69-48.4-4.431-32.884-19.292-47.428-19.292-47.428L230.736,71.7s-6.325,3.48-17.4,8.219c-5.651,2.419-8.169,5.829-9.279,8.585-17.24-5.254-24.675-6.444-34.907-6.444s-17.627,1.19-34.847,6.414c-1.12-2.756-3.638-6.156-9.269-8.566-11.074-4.749-17.4-8.219-17.4-8.219L87.085,59.36S72.224,73.9,67.792,106.788c-3.807,28.235,8.942,44.345,12.63,48.34-3.609,13-5.829,23.228-7.2,30.743h-.02c-7.564,2-16.655.585-16.655.585a55.205,55.205,0,0,0,11.817,12.967c1.011.763,1.913,1.408,2.726,1.943v.149l-9.329.714S88.314,252.8,168.913,252.8s107.624-50.57,107.624-50.57l-9.329-.714v-.1Z" transform="translate(-0.066 -0.066)" fill="#f0842a"/>
      <path id="Path_4636" data-name="Path 4636" d="M73.317,185.84H73.3a28.943,28.943,0,0,1-3.222.644,39.559,39.559,0,0,0,10.875-1.051h.02c1.368-7.515,3.589-17.746,7.2-30.743-3.678-4-16.437-20.105-12.63-48.34C78.759,82.409,87.166,59.32,87.166,59.32S72.305,73.864,67.874,106.748c-3.807,28.235,8.942,44.345,12.63,48.34-3.609,13-5.829,23.228-7.2,30.743Z" transform="translate(-0.157 -0.065)" fill="#fbb040"/>
      <path id="Path_4637" data-name="Path 4637" d="M266.8,185.84h.02a28.944,28.944,0,0,0,3.222.644,39.593,39.593,0,0,1-10.875-1.051h-.02c-1.368-7.515-3.589-17.746-7.2-30.743,3.678-4,16.437-20.105,12.63-48.34-3.222-23.942-11.629-47.031-11.629-47.031s14.861,14.544,19.292,47.428c3.807,28.235-8.942,44.345-12.63,48.34,3.609,13,5.829,23.228,7.2,30.743Z" transform="translate(-1.75 -0.065)" fill="#fbb040"/>
      <path id="Path_4638" data-name="Path 4638" d="M87.99,59.46a67.028,67.028,0,0,0,7.138,24.576c6.345,11.788,18.251,20.462,18.251,20.462l6.682-9.884,9.835-12.6s-16.12-6.91-21.364-10.1L88,59.45Z" transform="translate(-0.337 -0.066)" fill="#f15a29"/>
      <path id="Path_4639" data-name="Path 4639" d="M252.256,59.46a67.028,67.028,0,0,1-7.138,24.576c-6.345,11.778-18.251,20.462-18.251,20.462l-6.672-9.884-9.835-12.6s16.12-6.91,21.364-10.1L252.256,59.45Z" transform="translate(-1.391 -0.066)" fill="#f15a29"/>
      <path id="Path_4640" data-name="Path 4640" d="M134.806,88.675a66.466,66.466,0,0,0-9.359,5.145C121.987,96.309,113.6,104.7,113.6,104.7s1.844-8.338,6.6-14.395,9.309-7.9,9.309-7.9l6.166,1.626-.863,4.65Z" transform="translate(-0.557 -0.264)" fill="#1e0f08"/>
      <path id="Path_4641" data-name="Path 4641" d="M205.242,88.675a66.466,66.466,0,0,1,9.359,5.145c3.46,2.488,11.847,10.875,11.847,10.875s-1.844-8.338-6.6-14.395-9.309-7.9-9.309-7.9l-6.166,1.626.863,4.65Z" transform="translate(-1.339 -0.264)" fill="#1e0f08"/>
      <path id="Path_4642" data-name="Path 4642" d="M276.612,203.4c-2.806,2.181-22.207,16.388-47.021,13.443-26.638-3.163-26.172-35.363-60.345-35.363s-33.717,32.21-60.355,35.363C83.64,219.837,64,205.085,61.73,203.3c.892,1.656,27.907,50.58,107.228,50.58S274.947,206.374,276.612,203.4Z" transform="translate(-0.11 -1.118)" fill="#fff"/>
      <path id="Path_4643" data-name="Path 4643" d="M169.011,156.87c34.708,0,64.9,3.936,80.421,32.388.287-.555.833,7.693.833,7.693,0,31.05-17.4,59.83-82.245,59.562-64.172-.268-79.37-28.522-79.37-59.562v-7.763c15.545-27.7,45.693-32.319,80.352-32.319Z" transform="translate(-0.342 -0.906)" fill="#ffd7c3"/>
      <path id="Path_4644" data-name="Path 4644" d="M168.979,160.614c15.317.02,30.921.555,45.653,5.145a53.472,53.472,0,0,1,31.506,25.369,3.824,3.824,0,0,0,5.165,1.358.075.075,0,0,0,.04-.02c-1.725-.456-3.44-.9-5.165-1.358-.615-1.17-.208-.109-.109.912.109,1.091.188,2.181.268,3.272a44.229,44.229,0,0,1,.03,5.254,61.129,61.129,0,0,1-1.745,12.135,45.328,45.328,0,0,1-12.055,21.394c-7.465,7.416-17.369,11.768-27.392,14.5-15.069,4.114-31.09,4.63-46.6,3.876-21.493-1.041-47.081-6.166-59.136-26.054-4.233-6.989-6.206-15.128-6.821-23.218-.3-3.936-.218-7.9-.218-11.847v-2.131c0,2.112.238.535.773-.347.436-.714.892-1.408,1.358-2.092a50.386,50.386,0,0,1,6.523-7.772c17.419-17.24,44.929-18.35,67.92-18.38,4.868,0,4.868-7.564,0-7.554-26.837.03-57.579,2.369-76.465,24.011a63.955,63.955,0,0,0-5.859,7.981,11.026,11.026,0,0,0-1.8,6.831c0,3.946-.04,7.881.258,11.817a61.942,61.942,0,0,0,7.049,25.191c11.054,20.2,34.441,27.66,55.9,30.237a174.458,174.458,0,0,0,48.835-1.051c11.669-1.923,23.367-5.661,33.221-12.323a53.1,53.1,0,0,0,20.65-27.184,65.679,65.679,0,0,0,3.063-16.487,47.189,47.189,0,0,0,.05-6.8c-.188-2.508,0-5.73-1.19-8a3.824,3.824,0,0,0-5.165-1.358.075.075,0,0,0-.04.02c1.725.456,3.44.9,5.165,1.358-7.644-13.79-19.729-23.238-34.54-28.354-15.624-5.4-32.785-5.889-49.143-5.909-4.868,0-4.868,7.544,0,7.554Z" transform="translate(-0.309 -0.873)" fill="#1c0e09"/>
      <path id="Path_4645" data-name="Path 4645" d="M92.44,197.133c0,2.112.238.535.773-.347.436-.714.892-1.408,1.358-2.1a50.386,50.386,0,0,1,6.523-7.772c17.419-17.24,44.929-18.35,67.92-18.38,15.317.02,30.921.555,45.653,5.145a53.462,53.462,0,0,1,31.219,24.874c0,.159.169.773.218,1.378.079.813.139,1.626.2,2.449.04-.585.079-1.18.1-1.775a46.433,46.433,0,0,0-.03-5.254q-.119-1.636-.268-3.272c-.059-.6-.228-1.219-.218-1.378a53.4,53.4,0,0,0-31.219-24.874c-14.732-4.59-30.336-5.135-45.653-5.145-22.99.03-50.5,1.14-67.92,18.38a50.387,50.387,0,0,0-6.523,7.772c-.466.694-.922,1.388-1.358,2.1-.535.882-.773,2.459-.773.347v2.131c0,2.022-.02,4.045,0,6.057Z" transform="translate(-0.375 -0.939)" fill="#ffad8d"/>
      <path id="Path_4646" data-name="Path 4646" d="M252.224,186.606a3.346,3.346,0,0,1,.416.615,14.42,14.42,0,0,1,1.091,5.988c.01-.188.03-.377.05-.555a47.192,47.192,0,0,0,.05-6.8c-.188-2.508,0-5.73-1.19-8a3.346,3.346,0,0,0-.416-.615c-7.663-13.443-19.59-22.683-34.163-27.719-15.624-5.4-32.785-5.889-49.143-5.909-26.837.03-57.579,2.369-76.465,24.011a63.953,63.953,0,0,0-5.859,7.981,11.026,11.026,0,0,0-1.8,6.831c0,2.538,0,5.076.059,7.6a10.262,10.262,0,0,1,1.745-5.076,62.523,62.523,0,0,1,5.859-7.981c18.886-21.642,49.629-23.972,76.465-24.011,16.368.02,33.519.506,49.143,5.909,14.573,5.036,26.5,14.276,34.163,27.719Z" transform="translate(-0.309 -0.792)" fill="#f15a29"/>
      <path id="Path_4647" data-name="Path 4647" d="M210.209,104.234c-1.755,3.549-9.041,3.519-16.269-.059s-11.659-9.359-9.9-12.9,9.041-3.519,16.269.059,11.659,9.359,9.894,12.908Z" transform="translate(-1.161 -0.318)" fill="#fff"/>
      <path id="Path_4648" data-name="Path 4648" d="M219.167,109a10.064,10.064,0,1,0,0,.01Z" transform="translate(-1.405 -0.443)" fill="#fff"/>
      <path id="Path_4649" data-name="Path 4649" d="M221.05,209.657c-.525,2.379,3.46,5.264,8.9,6.464s10.271.248,10.8-2.122-3.46-5.264-8.9-6.464S221.575,207.288,221.05,209.657Z" transform="translate(-1.483 -1.338)" fill="#ff9fb4"/>
      <path id="Path_4650" data-name="Path 4650" d="M226.533,185.69s-4.015,5.294-13.017,5.294-13.056-5.294-13.056-5.294-2.032,15.376,13.056,15.376S226.533,185.69,226.533,185.69Z" transform="translate(-1.305 -1.154)" fill="#1c0e09"/>
      <path id="Path_4651" data-name="Path 4651" d="M227.658,186.806c-6.186,7.9-22.138,7.842-28.344,0l2.736-1.13a16.424,16.424,0,0,0,.466,6.137c1.348,5.284,5.819,7.535,10.994,7.634,7.991.159,12.372-6.305,11.411-13.77-.268-2.042,2.944-2.022,3.2,0a18.23,18.23,0,0,1-1.17,8.794c-2.25,5.681-7.614,8.07-13.443,8.189-9.567.188-15.822-7.733-14.663-16.972.149-1.18,1.745-2.379,2.736-1.13,5.215,6.6,18.608,6.652,23.813,0,1.269-1.626,3.519.654,2.26,2.26Z" transform="translate(-1.291 -1.14)" fill="#1c0e09"/>
      <path id="Path_4652" data-name="Path 4652" d="M118.658,209.657c.525,2.379-3.47,5.264-8.9,6.464s-10.271.248-10.8-2.122,3.46-5.264,8.9-6.464S118.133,207.288,118.658,209.657Z" transform="translate(-0.431 -1.338)" fill="#ff9fb4"/>
      <path id="Path_4653" data-name="Path 4653" d="M113.109,185.69s4.015,5.294,13.017,5.294,13.057-5.294,13.057-5.294,2.032,15.376-13.057,15.376-13.017-15.376-13.017-15.376Z" transform="translate(-0.552 -1.154)" fill="#1c0e09"/>
      <path id="Path_4654" data-name="Path 4654" d="M114.235,184.545c5.2,6.652,18.6,6.6,23.813,0,.981-1.249,2.588-.05,2.736,1.13a18.24,18.24,0,0,1-1.19,8.794c-2.27,5.681-7.624,8.07-13.473,8.189-9.567.188-15.8-7.743-14.623-16.972.258-2.022,3.47-2.042,3.2,0a16.625,16.625,0,0,0,.446,6.137c1.338,5.284,5.8,7.535,10.975,7.634,7.991.159,12.4-6.3,11.46-13.77l2.736,1.13c-6.206,7.852-22.157,7.9-28.344,0-1.259-1.606.991-3.9,2.26-2.26Z" transform="translate(-0.538 -1.14)" fill="#1c0e09"/>
      <path id="Path_4655" data-name="Path 4655" d="M153.508,197.935a28.079,28.079,0,0,1,38.01,40.686c-7.416,9.269-20.422,12.511-31.457,8.5a28.081,28.081,0,0,1-6.543-49.182Z" transform="translate(-0.8 -1.215)" fill="#1c0e09"/>
      <path id="Path_4656" data-name="Path 4656" d="M169.931,218.53a17.259,17.259,0,0,1,15.951,10.677,17.254,17.254,0,0,1-31.9,0A17.259,17.259,0,0,1,169.931,218.53Z" transform="translate(-0.905 -1.437)" fill="#ed1c24"/>
      <path id="Path_4657" data-name="Path 4657" d="M165.386,220.907c-2.419.644-4.144,2.092-3.837,3.222s2.508,1.527,4.937.872,4.144-2.092,3.847-3.222-2.508-1.527-4.937-.872Z" transform="translate(-0.97 -1.455)" fill="#fff"/>
      <path id="Path_4658" data-name="Path 4658" d="M158.39,225.939a1.209,1.209,0,1,0,1.209-1.209A1.214,1.214,0,0,0,158.39,225.939Z" transform="translate(-0.943 -1.491)" fill="#fff"/>
    </g>
  </g>
</svg>
