<svg xmlns="http://www.w3.org/2000/svg" width="490" height="548" viewBox="0 0 490 548">
  <g opacity=".5">
    <path fill="#ffcf06" d="M309.987 470.466s18.755 5.1 31.049-4.653c7.54-5.986 22.227-45.04 50.369-46.211s57.708 21.672 57.708 21.672a113.624 113.624 0 0 0-23.81 21.686c-7.772 9.589-21.763 37.449-47.23 45.6-34.734 11.124-74.989-20.057-74.989-20.057l6.914-18.028Z" />
    <path fill="#1c0e09" d="M305.899 485.298c15.484 4.068 34.865 2.17 46.806-9.327 4.068-3.917 7.046-9.357 10.064-14.1q2.665-4.194 5.461-8.307a134.04 134.04 0 0 1 3.129-4.34c-1.787 2.4 2.231-2.594 2.826-3.27 1.221-1.383 2.534-2.685 3.866-3.977.424-.414 4.734-3.947 2.16-2.009a43.494 43.494 0 0 1 4.583-2.927 40.981 40.981 0 0 1 2.413-1.221c-1.595.666-1.565.7.111.081.7-.242 6.117-1.2 2.665-.818a45.433 45.433 0 0 1 6.935-.03 60.219 60.219 0 0 1 12.163 2.544c10.922 3.21 22.3 9.317 32.271 16.968v-26.55a120.237 120.237 0 0 0-33.23 32.574c-1.877 2.715-3.715 5.451-5.612 8.156a68.615 68.615 0 0 1-5.552 7.288c-5.834 7.005-10.427 11.235-17.443 15.272-6.4 3.684-13 4.623-21.571 4.169-3.482-.182-5.865-.737-10.659-1.968a100.9 100.9 0 0 1-12.133-4.108c2.382.949-2.705-1.272-3.18-1.494-1.676-.8-3.321-1.655-4.966-2.513-2.816-1.484-5.562-3.1-8.267-4.775a95.241 95.241 0 0 1-7.894-5.37q3.528 8.676 7.066 17.362 3.452-9.009 6.914-18.028c3.008-7.833-3.25-16.857-10.74-18.916-8.681-2.382-15.918 2.917-18.916 10.74q-3.452 9.009-6.914 18.028c-2.655 6.935 1.938 13.415 7.066 17.362 24.084 18.543 60.373 31.705 90.029 20.461 19.34-7.328 32.886-22.58 44.495-39.1 1.847-2.624 3.624-5.3 5.451-7.944a140.24 140.24 0 0 1 2.261-3.17q-2.771 3.543.04.081c1.373-1.655 2.857-3.22 4.34-4.785a115.567 115.567 0 0 1 11.921-10.74c-2.463 1.958 2.029-1.413 3.008-2.049 10.5-6.814 9.176-19.512 0-26.547-24.831-19.037-65.389-34.744-93.279-13.768-13 9.781-21.591 23.186-30.292 36.672-.666 1.04-1.363 2.059-2.059 3.079-1.655 2.382 2.594-3.018.131-.192-2.14 2.453 3.079-1.817-1.03.747-1.615 1.009-1.585.818-4.229 1.494-1.918.353-2.14.424-.686.212q-1.529.136-3.059.182a47.529 47.529 0 0 1-5.491-.192c-3.472-.273 3.23.616-.9-.151a30.26 30.26 0 0 1-1.9-.424c-19.2-5.047-27.335 24.619-8.176 29.656Z" />
    <path fill="#f0842a" d="M309.987 470.466s18.755 5.1 31.049-4.653c7.54-5.986 22.227-45.04 50.369-46.211s57.708 21.672 57.708 21.672a113.624 113.624 0 0 0-23.81 21.686c-7.772 9.589-21.763 37.449-47.23 45.6-34.734 11.124-74.989-20.057-74.989-20.057l6.914-18.028Z" />
    <path fill="#fbb040" d="M313.783 480.251s18.755 5.1 31.049-4.653c7.54-5.986 22.368-43.162 50.369-46.211 24.236-2.635 53.913 11.878 53.913 11.878s-29.566-22.841-57.711-21.67-42.829 40.225-50.369 46.211c-12.295 9.751-31.049 4.653-31.049 4.653l-6.914 18.028s2.18 1.686 5.956 4.139l4.754-12.385Z" />
    <path fill="#f15a29" d="M421.789 452.159c-8.358 9.075-21.763 37.449-47.23 45.6-26.6 8.519-56.426-7.772-68.953-15.868l-2.534 6.6s40.255 31.191 74.989 20.057c25.467-8.156 39.458-36.026 47.23-45.6a113.623 113.623 0 0 1 23.812-21.682 33.209 33.209 0 0 0-27.314 10.893Z" />
    <path fill="#fff" d="M449.103 441.266s-29.555-22.457-57.705-21.67c-10.821.3-19.986 6.814-24.428 11.75 0 0 4.007 2.8 14.041 3.8s13.435-1.02 13.435-1.02a28.7 28.7 0 0 1-2.836 12.426c-3.089 6.329-11.83 11.063-11.83 11.063s18.018 3.382 25.78-.969 9.882-7.258 9.882-7.258-2.665 5.774-2.049 11.194c1.161 10.357 3.755 13.95 3.755 13.95 2.15-3.17 6.541-9.63 8.136-11.588a113.624 113.624 0 0 1 23.814-21.686Z" />
    <path fill="#f1f2f2" d="M367.452 430.841c-.161.172-.323.343-.474.515 0 0 3.634 2.534 12.628 3.644a36.689 36.689 0 0 1 15.585-5.6c24.236-2.635 53.912 11.881 53.912 11.881s-29.555-22.462-57.705-21.675c-9.408.394-17.311 5.027-23.953 11.235Z" />
    <path fill="#e6e7e8" d="M421.789 452.16a118.333 118.333 0 0 0-8.065 10.861c1.211 8.176 3.27 11.285 3.422 11.507 3.2-4.623 5.824-8.671 7.984-11.366.061-.071.111-.141.161-.2a113.624 113.624 0 0 1 23.812-21.682 33.209 33.209 0 0 0-27.314 10.887Z" />
    <path fill="#f0842a" d="M177.805 402.184s-55.053 65.389-31.17 79.481 59.525-46.746 59.525-46.746Z" />
    <path fill="#1c0e09" d="M173.465 397.833a287.277 287.277 0 0 0-23.317 32.111c-8.1 12.91-21.117 33.785-13.607 49.5 3.493 7.318 11.911 11.043 19.744 10.387 9.569-.8 17.776-6.844 24.71-13.021 12.052-10.74 21.965-24.609 30.242-38.408.081-.131.151-.252.222-.384a6.292 6.292 0 0 0-.959-7.449q-14.172-16.367-28.354-32.735c-5.2-6.006-13.859 2.735-8.7 8.7q14.172 16.367 28.354 32.735c-.323-2.483-.636-4.966-.959-7.449a176.74 176.74 0 0 1-21.521 29.283c-5.34 5.875-11.649 12.234-19.148 15.262-4.845 1.958-11.346 1.555-12.91-3-1.837-5.35 1.05-12.668 3.159-17.947 3.129-7.833 7.7-15.212 12.244-22.288a258.633 258.633 0 0 1 19.471-26.586c5.067-6.026-3.593-14.778-8.7-8.7Z" />
    <path fill="#fbb040" d="M155.386 459.649c3.139-7.833 7.7-15.212 12.244-22.288s9.448-13.99 14.667-20.622c-1.443-1.676-2.9-3.341-4.34-5.017a264.13 264.13 0 0 0-15.262 21.409c-4.542 7.076-9.115 14.455-12.244 22.288-2.11 5.279-5 12.6-3.17 17.947a6.1 6.1 0 0 0 4.845 3.856c-1.585-5.309 1.211-12.416 3.27-17.574Z" />
    <path fill="#f0842a" d="M314.429 402.184s55.053 65.389 31.16 79.481-57.314-47-57.314-47Z" />
    <path fill="#1c0e09" d="M310.078 406.534a269.542 269.542 0 0 1 18.825 25.6 160.043 160.043 0 0 1 12.649 22.709c2.332 5.249 4.845 12.416 3.6 17.816-1.03 4.472-6.41 5.683-11.235 4.27-7.47-2.19-13.688-8.974-18.745-14.525a161.375 161.375 0 0 1-21.6-30.837q-.485 3.725-.959 7.449 13.082-16.231 26.154-32.483c4.926-6.117-3.725-14.879-8.7-8.7q-13.082 16.231-26.154 32.483c-1.8 2.231-2.412 4.815-.959 7.449a173.971 173.971 0 0 0 26.054 36.046c11.346 11.911 32.806 25.033 45.645 7.48 10.033-13.718-3.654-36.45-10.7-48.28a275.028 275.028 0 0 0-25.064-35.026c-.04-.05-.091-.1-.131-.161-5.108-6.077-13.768 2.665-8.7 8.7Z" />
    <path fill="#f15a29" d="M341.5 454.844a160.04 160.04 0 0 0-12.648-22.712c-4.532-6.914-9.337-13.708-14.465-20.218q-2.074 2.574-4.149 5.158a302.671 302.671 0 0 1 10.518 15.06 160.046 160.046 0 0 1 12.648 22.712c2.332 5.249 4.845 12.416 3.6 17.816a5.783 5.783 0 0 1-3.593 4.108c.151.05.3.111.454.151 4.825 1.413 10.205.212 11.235-4.26 1.231-5.4-1.282-12.567-3.6-17.816Z" />
    <path fill="#1c0e09" d="M129.021 540.472c0 3.432 52.1 6.218 116.344 6.218s116.344-2.786 116.344-6.218-52.1-6.218-116.344-6.218-116.344 2.786-116.344 6.218Z" />
    <path fill="#f0842a" d="M302.719 405.808s22.025 121.906 7.046 127.145-28.867-18.634-28.867-18.634-11.931 3.654-32.513 4.017a144.074 144.074 0 0 1-37.146-4.26s-15.343 26.547-31.917 21.066 9.751-129.638 9.751-129.638l113.639.3Z" />
    <path fill="#1c0e09" d="M296.794 407.442c4.532 25.1 8.237 50.45 10.589 75.857 1.231 13.3 3.18 29.111.323 41.648a19.534 19.534 0 0 1-.8 2.614c.333-.908-.747.828-.131.151-.485.434-.333.323.454-.343 1.908-1.242-.434.091-1.292.161-2.352.212-4.492-.818-6.48-1.938-5.532-3.129-10.064-8.953-13.254-14.384a6.2 6.2 0 0 0-6.945-2.826c-20.652 6.188-45.736 5.431-66.389-.242a6.214 6.214 0 0 0-6.945 2.826 57.16 57.16 0 0 1-12.153 14.445c-3.069 2.624-7.4 4.946-11.548 4.159-1.827-.343-.414-.061.172.707-.878-1.151-.747-1.282-.818-1.474-4.229-11.83-1.2-28.879.161-41.658 2.867-26.84 7.671-53.6 13.254-80.006l-5.935 4.512 113.639.3c7.934.02 7.934-12.274 0-12.3l-113.639-.3a6.175 6.175 0 0 0-5.935 4.512c-6.3 29.767-11.608 60-14.394 90.312a183.677 183.677 0 0 0-.919 25.377c.252 5.542.727 12.184 3.957 16.928 5.39 7.944 16.675 6.006 24.054 2.281 8.408-4.25 15-12.618 19.986-20.4q.379-.591.727-1.181c-2.312.939-4.633 1.888-6.945 2.826 22.691 6.228 50.248 7.036 72.93.242-2.312-.939-4.633-1.888-6.945-2.826a60.73 60.73 0 0 0 15.484 17.342c6.218 4.744 19 8.378 24.882 1.09 3.826-4.734 4.441-11.124 4.906-16.988a176.4 176.4 0 0 0-.343-24.983c-1.948-30.04-6.521-60.1-11.871-89.716-1.4-7.8-13.264-4.482-11.861 3.27Z" />
    <path fill="#f15a29" d="M307.271 483.294c-2.2-23.893-5.622-47.715-9.791-71.355-34.5-.091-38.6-.091-6.147 0 4.169 23.63 7.591 47.462 9.791 71.355 1.231 13.314 3.18 29.111.323 41.648a20.318 20.318 0 0 1-.434 1.524 9.088 9.088 0 0 0 4.825 1.07 4.143 4.143 0 0 0 1.08-.333 19.572 19.572 0 0 0 .676-2.271c2.857-12.537.9-28.334-.323-41.648Z" />
    <path fill="#fbb040" d="M189.443 487.135c2.705-25.3 7.137-50.531 12.315-75.453-2.564 0-5.118-.01-7.682-.02-5.178 24.932-9.61 50.168-12.315 75.473-1.363 12.779-4.4 29.828-.162 41.658a1.7 1.7 0 0 0 .273.7c.1.02.222.04.363.071a11.415 11.415 0 0 0 6.935-1.13c-4.048-11.81-1.07-28.637.283-41.295Z" />
    <path fill="#35b32b" d="M281.249 420.252a63.92 63.92 0 0 1 1.3 12.91c0 27.153-9.387 49.158-37.187 49.158s-37.184-22.005-37.184-49.158a63.92 63.92 0 0 1 1.3-12.91Z" />
    <path fill="#1c0e09" d="M269.389 423.522c2.019 10.75.939 24.751-3 33.472-4.169 9.246-10.357 12.85-21.026 13.031a24.687 24.687 0 0 1-12.507-2.826c-3.684-2.019-5.572-4.583-7.914-8.964-4.684-8.782-5.673-23.721-3.6-34.7q-5.935 4.512-11.861 9.034h71.769c15.868 0 15.868-24.6 0-24.6h-71.769c-5.128 0-10.861 3.715-11.861 9.034-3.371 17.877-2.009 37.176 6.077 53.66 7.853 16 24.488 23.691 41.668 23.983 17.059.283 32.473-8.015 41.022-22.782 9.246-15.959 10.044-37.2 6.723-54.851-1.242-6.591-9.075-10.256-15.131-8.59-6.854 1.888-9.832 8.55-8.59 15.131Z" />
    <path fill="#fff1d2" d="M281.249 420.252a63.92 63.92 0 0 1 1.3 12.91c0 27.153-9.387 49.158-37.187 49.158s-37.184-22.005-37.184-49.158a63.92 63.92 0 0 1 1.3-12.91Z" />
    <path fill="#feddaa" d="M245.083 472.973c25.932 0 35.834-19.148 37.055-43.758.081 1.353.131 2.715.131 4.088 0 27.143-9.387 49.158-37.187 49.158s-37.187-22.015-37.187-49.158c0-1.383.05-2.746.131-4.088 1.223 24.609 11.125 43.758 37.057 43.758Z" />
    <path fill="#ffcf06" d="M444.863 304.968a94.91 94.91 0 0 0 5.7-4.058c14.465-11.023 24.054-26.4 24.054-26.4s-18.513 2.877-33.9-1.191c-.071-.02-.141-.05-.2-.061-2.776-15.262-7.288-36.036-14.606-62.4 7.338-7.914 33.6-40.75 25.821-98.518-9.004-66.931-39.251-96.537-39.251-96.537l-41.84 25.094s-12.87 7.076-35.4 16.736c-11.496 4.926-16.613 11.86-18.885 17.47-35.1-10.69-50.218-13.1-71.052-13.1s-35.884 2.412-70.931 13.062c-2.271-5.6-7.4-12.517-18.866-17.432-22.53-9.66-35.4-16.736-35.4-16.736l-41.84-25.094s-30.239 29.606-39.256 96.54c-7.742 57.465 18.21 90.271 25.71 98.4-7.348 26.457-11.871 47.291-14.657 62.573a.11.11 0 0 0-.05.01c-15.383 4.068-33.9 1.191-33.9 1.191s9.579 15.363 24.044 26.4a100.763 100.763 0 0 0 5.562 3.967c-.01.172-.02.3-.02.3l-18.972 1.459S80.76 409.582 244.809 409.582 463.86 306.643 463.86 306.643l-18.987-1.464v-.2Z" />
    <path fill="#1c0e09" d="M452.626 318.251a121.737 121.737 0 0 0 35.269-35.965 15.367 15.367 0 0 0 0-15.525c-3.8-6.48-10.427-8.106-17.362-7.066-1.2.182 5.128-.616.959-.161-2.675.293-5.36.434-8.045.545-6.5.252-12.769.131-18.836-1.635l10.74 10.74c-3.856-21.026-8.923-41.8-14.606-62.4q-1.983 7.48-3.957 14.959c30.878-33.532 35.6-81.156 28.092-124.288a213.777 213.777 0 0 0-24.024-68.286c-4.8-8.489-10.518-17.342-17.5-24.226a15.5 15.5 0 0 0-18.634-2.4l-40.669 24.4c-6.067 3.634-12.607 6.561-19 9.569-15.9 7.48-34.451 13.284-41.981 30.868q8.676-3.528 17.362-7.066c-24.63-7.47-49.259-13.587-75.14-13.657-25.8-.071-50.48 6.188-75.019 13.617q8.676 3.528 17.362 7.066c-7.3-16.948-24.831-22.9-40.285-30.04-6.824-3.159-13.859-6.258-20.319-10.145q-20.5-12.295-41.012-24.6a15.5 15.5 0 0 0-18.636 2.397c-6.742 6.652-12.172 15.108-16.927 23.236C38.406 48.78 30.725 72.037 26.253 95.385c-8.348 43.556-3.523 92.25 27.587 126.246q-1.983-7.48-3.957-14.959c-5.7 20.652-10.791 41.487-14.657 62.573l10.74-10.74c-5.572 1.615-11.043 1.686-17 1.625-2.9-.03-5.784-.222-8.671-.485-.919-.081-1.827-.192-2.746-.293 5.188.616 3.775.525 2.645.353-5.612-.848-10.73-.273-14.959 3.957-4.764 4.764-6.077 12.809-2.4 18.634a122.383 122.383 0 0 0 35.117 35.874q-3.8-6.632-7.611-13.274c0 .1-.01.2-.02.3l15.373-15.373q-9.493.727-18.977 1.464c-11.76.908-18.977 12.325-13.274 23.136 8.358 15.848 21.682 30.01 34.774 41.991 33.179 30.393 74.888 50.258 118.575 60.2 97.771 22.267 215.044 3.836 286.51-71.234 8.822-9.266 17.745-19.613 23.842-30.969 5.794-10.791-1.595-22.237-13.274-23.136q-9.493-.727-18.987-1.464l15.373 15.373v-.2c-.394-8.368-6.7-15.373-15.373-15.373-8.085 0-15.767 7-15.373 15.373v.2c.414 8.873 6.713 14.707 15.373 15.373q9.493.727 18.987 1.464-6.632-11.568-13.274-23.136a96.316 96.316 0 0 1-7.853 11.81c-.333.444-.666.888-1.009 1.332-1.524 2.009 2.554-3.291.959-1.252-.777 1-1.575 1.978-2.382 2.958a184 184 0 0 1-6.077 7.015 204.291 204.291 0 0 1-15.4 15.181c-3 2.675-6.087 5.239-9.216 7.742-.616.495-3.523 2.715-.232.2-.858.656-1.736 1.312-2.6 1.958q-3.149 2.332-6.379 4.552a235.563 235.563 0 0 1-26.436 15.716c-4.845 2.493-9.791 4.775-14.788 6.945 3.038-1.312-1.3.525-1.575.636-1.342.545-2.685 1.07-4.038 1.595-3.23 1.252-6.5 2.413-9.771 3.543a286.5 286.5 0 0 1-39.044 10.215c-55.659 10.68-117.3 6.531-171.215-14.808-.262-.1-4.633-1.908-1.595-.616-1.292-.545-2.564-1.11-3.846-1.676-2.493-1.1-4.966-2.271-7.419-3.452-5.057-2.443-10.013-5.1-14.889-7.883a226.65 226.65 0 0 1-24.216-16.06c-2.968-2.241 2.635 2.069-.242-.2a158.52 158.52 0 0 1-2.423-1.948 210.5 210.5 0 0 1-4.623-3.876 209.185 209.185 0 0 1-8.984-8.217 192.3 192.3 0 0 1-13.486-14.465c-1.131-1.332-2.221-2.7-3.311-4.068-2.231-2.816 2.039 2.665.575.747q-.681-.893-1.332-1.787-2.317-3.119-4.441-6.379c-1.161-1.766-2.312-3.563-3.291-5.431q-6.638 11.577-13.28 23.148 9.493-.727 18.977-1.464c8.782-.676 14.808-6.511 15.373-15.373.525-8.186-5.915-12.264-11.659-16.413a75.6 75.6 0 0 1-10.215-9.559c-1.6-1.7-3.119-3.482-4.613-5.269-.656-.8-1.3-1.595-1.938-2.4q1.454 1.893 0-.061a83.969 83.969 0 0 1-3.25-4.7q-8.676 11.3-17.362 22.591c13.718 2.069 28.657 2.685 42.112-1.211 4.815-1.393 9.791-5.552 10.74-10.74 2.5-13.657 5.532-27.214 8.873-40.689 1.06-4.27 2.17-8.529 3.3-12.779 1.464-5.532 4.068-11.507 2.473-17.281-.929-3.361-3.059-5.733-5.269-8.247-.878-1-4.25-5.35-.939-1.019a98.608 98.608 0 0 1-6.157-9.2c-1.161-1.938-2.231-3.937-3.27-5.945-.565-1.09-1.09-2.2-1.625-3.311q-.545-1.166-1.06-2.332.676 1.655 0-.01a111.335 111.335 0 0 1-8.136-37.247c-.848-16.756 1.837-33.381 5.824-49.6a215.328 215.328 0 0 1 6.239-20.621c1.06-3 2.231-5.955 3.442-8.893-1.141 2.776.737-1.595.808-1.736a150.55 150.55 0 0 1 2.372-5.007 143.508 143.508 0 0 1 13.435-22.327c2.3-3.119-2.392 2.947.363-.454q.893-1.09 1.817-2.15c.565-.636 1.131-1.282 1.736-1.877l-18.634 2.4q19.9 11.946 39.8 23.883c4.906 2.947 10.094 5.4 15.242 7.894 7.964 3.846 16.1 7.3 24.155 10.952a24.112 24.112 0 0 1 8.328 5.7c3.139 3.19-1.312-2.19.939 1.2a25.71 25.71 0 0 1 2.12 4.128c2.635 6.117 11.4 8.873 17.362 7.066 13.213-4 26.5-7.843 40.073-10.4 2.322-.434 4.643-.8 6.975-1.141-3.654.535.737-.05 1.242-.1 1.3-.141 2.614-.252 3.927-.363 4.865-.4 9.741-.5 14.616-.515s9.761.162 14.636.515c2.2.162 4.391.4 6.581.656-3.715-.434.878.141 1.353.222 1.423.222 2.836.474 4.25.727 13.607 2.453 26.941 6.42 40.154 10.427 5.956 1.807 14.747-.949 17.362-7.066.454-1.06.939-2.069 1.484-3.079.232-.434 2.6-3.644.606-1.181 2.624-3.24 3.614-3.715 7.48-5.885 7.762-4.351 16.474-7.359 24.529-11.174 5.481-2.6 11.033-5.2 16.251-8.318q20.138-12.083 40.265-24.155l-18.634-2.4c.515.515 1.009 1.05 1.494 1.595a66.543 66.543 0 0 1 1.726 2.019c.363.434.717.878 1.07 1.322 1.474 1.847-2.675-3.543-.363-.444a144.293 144.293 0 0 1 13.435 22.328c1.252 2.524 2.413 5.087 3.553 7.661-1.242-2.816.747 1.857.787 1.948.6 1.484 1.161 2.988 1.716 4.482a212.556 212.556 0 0 1 6.8 22.156c4.118 16.181 6.42 32.695 5.824 49.41a111.162 111.162 0 0 1-7.995 37.065c-1.625 4.159 1.242-2.756-.5 1.181-.5 1.141-1.05 2.261-1.595 3.382-1.009 2.069-2.11 4.1-3.24 6.107a98.245 98.245 0 0 1-6.682 10.185c-1.766 2.382 2.352-2.988.616-.818-.394.495-.8.979-1.211 1.464a60.59 60.59 0 0 1-2.009 2.271c-8.711 9.468-1.454 23.943 1.292 34.724 3.583 14.111 6.743 28.324 9.367 42.637.949 5.188 5.925 9.337 10.74 10.74 13.516 3.927 28.5 3.331 42.284 1.252q-8.676-11.3-17.362-22.591c-.636 1.009-1.312 1.978-1.989 2.958-.646.929-1.322 1.837-2 2.746 1.938-2.6-1.908 2.312-2.281 2.746a86.332 86.332 0 0 1-17.978 16.484c-6.945 4.653-9.943 13.476-5.511 21.036 4.038 6.894 14.061 10.185 21.036 5.511Z" />
    <path fill="#f0842a" d="M444.863 304.968a94.91 94.91 0 0 0 5.7-4.058c14.465-11.023 24.054-26.4 24.054-26.4s-18.513 2.877-33.9-1.191c-.071-.02-.141-.05-.2-.061-2.776-15.262-7.288-36.036-14.606-62.4 7.338-7.914 33.6-40.75 25.821-98.518-9.004-66.931-39.251-96.537-39.251-96.537l-41.84 25.094s-12.87 7.076-35.4 16.736c-11.496 4.926-16.613 11.86-18.885 17.47-35.1-10.69-50.218-13.1-71.052-13.1s-35.884 2.412-70.931 13.062c-2.271-5.6-7.4-12.517-18.866-17.432-22.53-9.66-35.4-16.736-35.4-16.736l-41.84-25.094s-30.239 29.606-39.256 96.54c-7.742 57.465 18.21 90.271 25.71 98.4-7.348 26.457-11.871 47.291-14.657 62.573a.11.11 0 0 0-.05.01c-15.383 4.068-33.9 1.191-33.9 1.191s9.579 15.363 24.044 26.4a100.763 100.763 0 0 0 5.562 3.967c-.01.172-.02.3-.02.3l-18.972 1.459S80.76 409.582 244.809 409.582 463.86 306.643 463.86 306.643l-18.987-1.464v-.2Z" />
    <path fill="#fbb040" d="M50.054 273.242a.135.135 0 0 0-.05.01 59.74 59.74 0 0 1-6.551 1.322 80.807 80.807 0 0 0 22.126-2.14.437.437 0 0 1 .05-.01c2.776-15.292 7.308-36.127 14.657-62.573-7.5-8.126-33.442-40.921-25.71-98.4 6.562-48.721 23.681-95.719 23.681-95.719s-30.242 29.606-39.256 96.54c-7.742 57.465 18.21 90.271 25.71 98.4-7.348 26.457-11.871 47.291-14.657 62.573Z" />
    <path fill="#fbb040" d="M440.614 273.242a.135.135 0 0 1 .05.01 59.741 59.741 0 0 0 6.551 1.322 80.808 80.808 0 0 1-22.126-2.14.437.437 0 0 0-.05-.01c-2.776-15.292-7.308-36.127-14.657-62.573 7.5-8.126 33.442-40.921 25.71-98.4-6.561-48.724-23.681-95.722-23.681-95.722s30.242 29.606 39.256 96.54c7.742 57.465-18.21 90.271-25.71 98.4 7.348 26.457 11.871 47.291 14.657 62.573Z" />
    <path fill="#f15a29" d="M79.539 15.995s1.6 26.043 14.515 50.026 37.146 41.648 37.146 41.648l13.587-20.117 20.017-25.639s-32.816-14.071-43.485-20.552-41.79-25.356-41.79-25.356Z" />
    <path fill="#f15a29" d="M411.746 15.995s-1.6 26.043-14.515 50.026-37.146 41.648-37.146 41.648l-13.587-20.117-20.017-25.639s32.816-14.071 43.485-20.552 41.79-25.356 41.79-25.356Z" />
    <path fill="#1e0f08" d="M174.393 75.065s-12 5.4-19.058 10.468-24.125 22.136-24.125 22.136 3.745-16.958 13.435-29.3 18.947-16.08 18.947-16.08l12.557 3.3-1.756 9.468Z" />
    <path fill="#1e0f08" d="M316.174 75.065s12 5.4 19.058 10.468 24.125 22.136 24.125 22.136-3.745-16.958-13.435-29.3-18.947-16.08-18.947-16.08l-12.557 3.3 1.766 9.468Z" />
    <path fill="#fff" d="M463.932 306.825c-5.7 4.431-45.2 33.361-95.712 27.365-54.215-6.43-53.266-71.981-122.825-71.981s-68.63 65.551-122.845 71.981c-51.389 6.1-91.371-23.933-95.984-27.567 1.807 3.361 56.809 102.949 218.254 102.949s215.73-96.7 219.122-102.747Z" />
    <path fill="#ffd7c3" d="M244.446 212.567c70.638 0 132.091 8 163.685 65.924.585-1.131 1.706 15.656 1.706 15.656 0 63.2-35.41 121.785-167.4 121.24-130.627-.535-161.545-58.041-161.545-121.24v-15.81c31.635-56.375 93-65.783 163.544-65.783Z" />
    <path fill="#1c0e09" d="M244.446 220.258c31.181.03 62.936 1.131 92.926 10.478 27.658 8.63 50.046 26.255 64.128 51.641 2.12 3.826 6.854 4.613 10.518 2.756.03-.01.061-.03.091-.04l-10.518-2.756c-1.252-2.392-.424-.222-.222 1.847.212 2.221.384 4.441.555 6.672a89.915 89.915 0 0 1 .071 10.69 123.747 123.747 0 0 1-3.553 24.71 92.307 92.307 0 0 1-24.539 43.546c-15.2 15.081-35.359 23.943-55.76 29.515-30.666 8.378-63.28 9.418-94.864 7.883-43.748-2.13-95.833-12.557-120.362-53.024-8.62-14.223-12.638-30.8-13.879-47.26-.606-8.015-.444-16.08-.444-24.115v-4.336c0 4.29.495 1.09 1.585-.707.878-1.443 1.817-2.857 2.756-4.27a102.6 102.6 0 0 1 13.284-15.827c35.441-35.096 91.451-37.352 138.241-37.413 9.912-.01 9.912-15.383 0-15.373-54.629.071-117.2 4.825-155.64 48.865a127.7 127.7 0 0 0-11.921 16.251c-3.109 4.956-3.684 8.348-3.684 13.91 0 8.025-.081 16.039.525 24.054 1.353 17.9 5.7 35.471 14.354 51.278 22.5 41.123 70.093 56.295 113.79 61.544a355.742 355.742 0 0 0 99.406-2.14c23.741-3.906 47.553-11.517 67.62-25.074a108.08 108.08 0 0 0 42.032-55.326 133.508 133.508 0 0 0 6.238-33.553 97.436 97.436 0 0 0 .111-13.839c-.373-5.1 0-11.659-2.433-16.282-2.029-3.876-6.914-4.583-10.518-2.756-.03.01-.061.03-.091.04l10.511 2.758c-15.555-28.072-40.154-47.3-70.3-57.718-31.8-10.982-66.722-11.982-100.032-12.022-9.912-.01-9.912 15.363 0 15.373Z" />
    <path fill="#ffad8d" d="M88.523 294.449c0 4.3.495 1.09 1.575-.707.878-1.443 1.817-2.857 2.756-4.27a102.605 102.605 0 0 1 13.284-15.828c35.44-35.087 91.452-37.358 138.238-37.409 31.181.03 62.936 1.131 92.926 10.478 27.294 8.509 49.431 25.79 63.532 50.642 0 .323.333 1.575.454 2.806.161 1.655.283 3.321.414 4.976.081-1.2.161-2.4.212-3.6a89.915 89.915 0 0 0-.071-10.69c-.172-2.221-.333-4.451-.545-6.672-.121-1.232-.454-2.483-.454-2.806-14.1-24.841-36.248-42.123-63.532-50.642-29.989-9.357-61.745-10.447-92.926-10.478-46.786.061-102.8 2.322-138.238 37.409a102.131 102.131 0 0 0-13.285 15.826c-.939 1.413-1.877 2.816-2.756 4.27-1.09 1.787-1.575 5-1.575.707v4.34c0 4.108-.04 8.227 0 12.335v-.686Z" />
    <path fill="#f15a29" d="M413.885 273.322a6.979 6.979 0 0 1 .848 1.252c1.807 3.452 2.059 7.995 2.231 12.194l.091-1.131a97.436 97.436 0 0 0 .111-13.839c-.373-5.1 0-11.659-2.433-16.282a6.487 6.487 0 0 0-.848-1.252c-15.6-27.355-39.861-46.17-69.538-56.426-31.8-10.982-66.722-11.982-100.032-12.022-54.629.071-117.2 4.825-155.64 48.865a127.7 127.7 0 0 0-11.921 16.251c-3.109 4.956-3.674 8.348-3.674 13.91 0 5.168-.01 10.326.121 15.484A20.932 20.932 0 0 1 76.754 270a127.7 127.7 0 0 1 11.921-16.251c38.438-44.04 101.011-48.8 155.64-48.865 33.31.03 68.236 1.03 100.032 12.022 29.677 10.256 53.943 29.061 69.538 56.426Z" />
    <path fill="#fff" d="M326.643 106.619c-3.583 7.217-18.4 7.167-33.108-.131-14.707-7.278-23.721-19.048-20.148-26.265s18.4-7.167 33.108.121 23.721 19.047 20.148 26.265Z" />
    <path fill="#fff" d="M344.367 116.067a6.312 6.312 0 1 0-.01.01Z" />
    <path fill="#1e0f08" fill-rule="evenodd" d="M182.62 297.377a30.07 30.07 0 1 1-30.07-30.07 30.074 30.074 0 0 1 30.07 30.07Z" />
    <path fill="#1c0e09" d="M181.085 297.377a28.964 28.964 0 0 1-28.536 28.536c-15.878.444-28.112-13.324-28.536-28.536-.444-15.878 13.324-28.112 28.536-28.536 15.878-.444 28.112 13.324 28.536 28.536.05 1.978 3.129 1.989 3.079 0a32.107 32.107 0 0 0-31.6-31.615c-17.574-.495-31.14 14.768-31.6 31.615-.495 17.574 14.768 31.14 31.6 31.615 17.574.495 31.14-14.778 31.6-31.615.051-1.989-3.018-1.979-3.079 0Z" />
    <path fill="#fff" fill-rule="evenodd" d="M171.961 308.409a4.875 4.875 0 1 1-4.875-4.875 4.879 4.879 0 0 1 4.875 4.875Z" />
    <path fill="#fff" fill-rule="evenodd" d="M155.446 293.349a12.577 12.577 0 1 1-12.577-12.577 12.573 12.573 0 0 1 12.577 12.577Z" />
    <path fill="#f38b9e" d="M142.617 342.952c.838 3.805-5.562 8.449-14.283 10.367s-16.484.394-17.321-3.412 5.552-8.449 14.283-10.367 16.483-.394 17.321 3.412Z" />
    <path fill="#f38b9e" d="M348.284 342.952c-.838 3.805 5.552 8.449 14.283 10.367s16.484.394 17.321-3.412-5.552-8.449-14.283-10.367-16.482-.394-17.321 3.412Z" />
    <path fill="#1e0f08" fill-rule="evenodd" d="M368.421 297.377a30.07 30.07 0 1 1-30.07-30.07 30.074 30.074 0 0 1 30.07 30.07Z" />
    <path fill="#1c0e09" d="M366.877 297.377a28.964 28.964 0 0 1-28.54 28.536c-15.878.444-28.112-13.324-28.536-28.536-.444-15.878 13.324-28.112 28.536-28.536 15.878-.444 28.112 13.324 28.536 28.536.05 1.978 3.129 1.989 3.079 0a32.107 32.107 0 0 0-31.6-31.615c-17.574-.495-31.14 14.778-31.6 31.615-.495 17.574 14.768 31.14 31.6 31.615 17.574.495 31.14-14.778 31.6-31.615.055-1.989-3.015-1.979-3.075 0Z" />
    <path fill="#fff" fill-rule="evenodd" d="M357.752 308.409a4.875 4.875 0 1 1-4.875-4.875 4.879 4.879 0 0 1 4.875 4.875Z" />
    <path fill="#fff" fill-rule="evenodd" d="M341.238 293.349a12.577 12.577 0 1 1-12.577-12.577 12.573 12.573 0 0 1 12.577 12.577Z" />
    <path fill="#1e0f08" d="M182.883 345.889a20.548 20.548 0 0 1 23.277-16.12c4.7.737 10.165 4.34 13.536 5.744 9.5 3.957 19.835 4.593 30.01 4.421 7.712-.131 15.565-1.221 21.359-4.653 4.563-2.705 8.055-5.229 13.516-5.945 11.1-1.454 19.653 5.915 22.853 15.918 3.513 10.992-.384 22.893-8.025 31.12-12.587 13.536-33.815 16.039-51.187 16.13-19.017-.091-39.922-2.806-54.78-15.807-8.7-7.611-13.092-19.461-10.558-30.807Z" />
    <path fill="#1e0f08" d="M185.84 346.706c1.615-6.1 5.309-10.791 11.275-13.122 7.1-2.776 13.455.828 19.673 3.957 11.154 5.622 24.932 5.945 37.126 5.289a43.951 43.951 0 0 0 15.353-3.25c6.42-2.867 11.315-7.278 18.724-7.348 14.5-.131 19.431 17.443 16.635 28.8-6.43 26.113-40.154 28.93-61.988 28.284-23.812-.7-62.815-10.881-56.8-42.607.737-3.876-5.188-5.532-5.935-1.635-6.43 33.876 29.889 47.957 57.1 50.1 26.84 2.11 62.24-1.666 73-30.726a30.3 30.3 0 0 0-10.12-34.554 21.842 21.842 0 0 0-16.13-3.523c-8.237 1.474-14.4 7.318-22.479 9.307-8.852 2.18-19.219 1.585-28.173.323s-15.989-6.006-24.347-8.792c-12.315-4.1-24.5 5.027-28.415 16.211-.151.555-.293 1.11-.444 1.666-1.02 3.836 4.916 5.461 5.935 1.635Z" />
    <path fill="#ed1c24" d="M245.173 377.09c-15.7-.283-25.124-1.978-32.917-5.925 2.534-7.631 8.388-13.95 16.342-14.313 9.085-.414 12.88 8.338 12.88 8.338a18.217 18.217 0 0 1 15.535-8.9c11.043-.262 19.29 8.156 21.349 15.313-7.025 3.7-12.951 5.855-33.179 5.491Z" />
    <path fill="#fff" d="M269.893 365.32c-.636 1.3-3.805 1.07-7.056-.535s-5.38-3.957-4.744-5.259 3.805-1.07 7.056.535 5.38 3.957 4.744 5.259Z" />
    <path fill="#fff" d="M270.408 367.491a1.373 1.373 0 1 0 1.373-1.373 1.374 1.374 0 0 0-1.373 1.373Z" />
  </g>
</svg>
