<svg xmlns="http://www.w3.org/2000/svg" xmlns:xlink="http://www.w3.org/1999/xlink" width="96" height="95" viewBox="0 0 96 95">
  <defs>
    <clipPath id="clip-google_logo">
      <rect width="96" height="95"/>
    </clipPath>
  </defs>
  <g id="google_logo" clip-path="url(#clip-google_logo)">
    <g id="google_logo-2" data-name="google_logo" transform="translate(1 0.003)">
      <path id="Path_11680" data-name="Path 11680" d="M94.573,49.766a40.989,40.989,0,0,0-1-9.706H48.98V57.688H75.151A23.181,23.181,0,0,1,65.445,73.1l-.087.591,14.1,10.918.979.1C89.4,76.422,94.583,64.224,94.583,49.766" transform="translate(-1.486 -1.216)" fill="#4285f4"/>
      <path id="Path_11681" data-name="Path 11681" d="M47.652,96.768c12.819,0,23.592-4.218,31.455-11.5L64.117,73.661a28.156,28.156,0,0,1-16.465,4.751A28.577,28.577,0,0,1,20.638,58.68l-.553.048L5.424,70.073l-.194.533A47.454,47.454,0,0,0,47.662,96.778" transform="translate(-0.159 -1.781)" fill="#34a853"/>
      <path id="Path_11682" data-name="Path 11682" d="M20.479,57.7a29.344,29.344,0,0,1-1.581-9.4,30.716,30.716,0,0,1,1.532-9.4l-.029-.63L5.556,26.75l-.485.233a47.4,47.4,0,0,0-.01,42.645L20.469,57.7" transform="translate(0 -0.812)" fill="#fbbc05"/>
      <path id="Path_11683" data-name="Path 11683" d="M47.652,18.365a26.324,26.324,0,0,1,18.365,7.069l13.4-13.09A45.636,45.636,0,0,0,47.652,0,47.47,47.47,0,0,0,5.215,26.181L20.579,38.1A28.7,28.7,0,0,1,47.652,18.365" transform="translate(-0.158 0)" fill="#eb4335"/>
    </g>
  </g>
</svg>
