<svg xmlns="http://www.w3.org/2000/svg" xmlns:xlink="http://www.w3.org/1999/xlink" width="1116" height="1116" viewBox="0 0 1116 1116">
  <defs>
    <clipPath id="clip-path">
      <rect id="Rectangle_82" data-name="Rectangle 82" width="1073.515" height="1073.515" fill="none"/>
    </clipPath>
    <clipPath id="clip-home_bg">
      <rect width="1116" height="1116"/>
    </clipPath>
  </defs>
  <g id="home_bg" clip-path="url(#clip-home_bg)">
    <g id="Group_516" data-name="Group 516" transform="translate(21.518 21.518)" opacity="0.1">
      <g id="Group_515" data-name="Group 515" clip-path="url(#clip-path)">
        <path id="Path_4939" data-name="Path 4939" d="M9.339,122.451A9.339,9.339,0,1,1,0,131.79a9.338,9.338,0,0,1,9.339-9.339" transform="translate(0 215.866)"/>
        <path id="Path_4940" data-name="Path 4940" d="M22.974,122.451a9.339,9.339,0,1,1-9.339,9.339,9.338,9.338,0,0,1,9.339-9.339" transform="translate(24.037 215.866)"/>
        <path id="Path_4941" data-name="Path 4941" d="M36.61,122.451a9.339,9.339,0,1,1-9.339,9.339,9.338,9.338,0,0,1,9.339-9.339" transform="translate(48.075 215.866)"/>
        <path id="Path_4942" data-name="Path 4942" d="M50.245,122.451a9.339,9.339,0,1,1-9.339,9.339,9.338,9.338,0,0,1,9.339-9.339" transform="translate(72.112 215.866)"/>
        <path id="Path_4943" data-name="Path 4943" d="M63.88,122.451a9.339,9.339,0,1,1-9.339,9.339,9.338,9.338,0,0,1,9.339-9.339" transform="translate(96.149 215.866)"/>
        <path id="Path_4944" data-name="Path 4944" d="M77.516,122.451a9.339,9.339,0,1,1-9.339,9.339,9.338,9.338,0,0,1,9.339-9.339" transform="translate(120.188 215.866)"/>
        <path id="Path_4945" data-name="Path 4945" d="M91.151,122.451a9.339,9.339,0,1,1-9.339,9.339,9.338,9.338,0,0,1,9.339-9.339" transform="translate(144.224 215.866)"/>
        <path id="Path_4946" data-name="Path 4946" d="M104.786,122.451a9.339,9.339,0,1,1-9.339,9.339,9.338,9.338,0,0,1,9.339-9.339" transform="translate(168.261 215.866)"/>
        <path id="Path_4947" data-name="Path 4947" d="M118.422,122.451a9.339,9.339,0,1,1-9.339,9.339,9.338,9.338,0,0,1,9.339-9.339" transform="translate(192.3 215.866)"/>
        <path id="Path_4948" data-name="Path 4948" d="M132.057,122.451a9.339,9.339,0,1,1-9.339,9.339,9.338,9.338,0,0,1,9.339-9.339" transform="translate(216.336 215.866)"/>
        <path id="Path_4949" data-name="Path 4949" d="M145.693,122.451a9.339,9.339,0,1,1-9.339,9.339,9.338,9.338,0,0,1,9.339-9.339" transform="translate(240.375 215.866)"/>
        <path id="Path_4950" data-name="Path 4950" d="M159.328,122.451a9.339,9.339,0,1,1-9.339,9.339,9.338,9.338,0,0,1,9.339-9.339" transform="translate(264.412 215.866)"/>
        <path id="Path_4951" data-name="Path 4951" d="M172.963,122.451a9.339,9.339,0,1,1-9.339,9.339,9.338,9.338,0,0,1,9.339-9.339" transform="translate(288.449 215.866)"/>
        <path id="Path_4952" data-name="Path 4952" d="M186.6,122.451a9.339,9.339,0,1,1-9.339,9.339,9.338,9.338,0,0,1,9.339-9.339" transform="translate(312.487 215.866)"/>
        <path id="Path_4953" data-name="Path 4953" d="M200.234,122.451a9.339,9.339,0,1,1-9.339,9.339,9.338,9.338,0,0,1,9.339-9.339" transform="translate(336.524 215.866)"/>
        <path id="Path_4954" data-name="Path 4954" d="M213.87,122.451a9.339,9.339,0,1,1-9.339,9.339,9.338,9.338,0,0,1,9.339-9.339" transform="translate(360.563 215.866)"/>
        <path id="Path_4955" data-name="Path 4955" d="M227.5,122.451a9.339,9.339,0,1,1-9.339,9.339,9.338,9.338,0,0,1,9.339-9.339" transform="translate(384.599 215.866)"/>
        <path id="Path_4956" data-name="Path 4956" d="M241.14,122.451a9.339,9.339,0,1,1-9.339,9.339,9.338,9.338,0,0,1,9.339-9.339" transform="translate(408.636 215.866)"/>
        <path id="Path_4957" data-name="Path 4957" d="M254.776,122.451a9.339,9.339,0,1,1-9.339,9.339,9.338,9.338,0,0,1,9.339-9.339" transform="translate(432.675 215.866)"/>
        <path id="Path_4958" data-name="Path 4958" d="M268.411,122.451a9.339,9.339,0,1,1-9.339,9.339,9.338,9.338,0,0,1,9.339-9.339" transform="translate(456.711 215.866)"/>
        <path id="Path_4959" data-name="Path 4959" d="M282.046,122.451a9.339,9.339,0,1,1-9.339,9.339,9.338,9.338,0,0,1,9.339-9.339" transform="translate(480.748 215.866)"/>
        <path id="Path_4960" data-name="Path 4960" d="M295.682,122.451a9.339,9.339,0,1,1-9.339,9.339,9.338,9.338,0,0,1,9.339-9.339" transform="translate(504.787 215.866)"/>
        <path id="Path_4961" data-name="Path 4961" d="M309.317,122.451a9.339,9.339,0,1,1-9.339,9.339,9.338,9.338,0,0,1,9.339-9.339" transform="translate(528.824 215.866)"/>
        <path id="Path_4962" data-name="Path 4962" d="M322.952,122.451a9.339,9.339,0,1,1-9.338,9.339,9.338,9.338,0,0,1,9.338-9.339" transform="translate(552.862 215.866)"/>
        <path id="Path_4963" data-name="Path 4963" d="M336.588,122.451a9.339,9.339,0,1,1-9.339,9.339,9.338,9.338,0,0,1,9.339-9.339" transform="translate(576.899 215.866)"/>
        <path id="Path_4964" data-name="Path 4964" d="M350.223,122.451a9.339,9.339,0,1,1-9.339,9.339,9.338,9.338,0,0,1,9.339-9.339" transform="translate(600.936 215.866)"/>
        <path id="Path_4965" data-name="Path 4965" d="M363.859,122.451a9.339,9.339,0,1,1-9.339,9.339,9.338,9.338,0,0,1,9.339-9.339" transform="translate(624.974 215.866)"/>
        <path id="Path_4966" data-name="Path 4966" d="M377.494,122.451a9.339,9.339,0,1,1-9.339,9.339,9.338,9.338,0,0,1,9.339-9.339" transform="translate(649.011 215.866)"/>
        <path id="Path_4967" data-name="Path 4967" d="M391.13,122.451a9.339,9.339,0,1,1-9.339,9.339,9.338,9.338,0,0,1,9.339-9.339" transform="translate(673.05 215.866)"/>
        <path id="Path_4968" data-name="Path 4968" d="M9.339,245.7A9.339,9.339,0,1,1,0,255.039,9.338,9.338,0,0,1,9.339,245.7" transform="translate(0 433.138)"/>
        <path id="Path_4969" data-name="Path 4969" d="M22.974,245.7a9.339,9.339,0,1,1-9.339,9.339,9.338,9.338,0,0,1,9.339-9.339" transform="translate(24.037 433.138)"/>
        <path id="Path_4970" data-name="Path 4970" d="M36.61,245.7a9.339,9.339,0,1,1-9.339,9.339A9.338,9.338,0,0,1,36.61,245.7" transform="translate(48.075 433.138)"/>
        <path id="Path_4971" data-name="Path 4971" d="M50.245,245.7a9.339,9.339,0,1,1-9.339,9.339,9.338,9.338,0,0,1,9.339-9.339" transform="translate(72.112 433.138)"/>
        <path id="Path_4972" data-name="Path 4972" d="M63.88,245.7a9.339,9.339,0,1,1-9.339,9.339A9.338,9.338,0,0,1,63.88,245.7" transform="translate(96.149 433.138)"/>
        <path id="Path_4973" data-name="Path 4973" d="M77.516,245.7a9.339,9.339,0,1,1-9.339,9.339,9.338,9.338,0,0,1,9.339-9.339" transform="translate(120.188 433.138)"/>
        <path id="Path_4974" data-name="Path 4974" d="M91.151,245.7a9.339,9.339,0,1,1-9.339,9.339,9.338,9.338,0,0,1,9.339-9.339" transform="translate(144.224 433.138)"/>
        <path id="Path_4975" data-name="Path 4975" d="M104.786,245.7a9.339,9.339,0,1,1-9.339,9.339,9.338,9.338,0,0,1,9.339-9.339" transform="translate(168.261 433.138)"/>
        <path id="Path_4976" data-name="Path 4976" d="M118.422,245.7a9.339,9.339,0,1,1-9.339,9.339,9.338,9.338,0,0,1,9.339-9.339" transform="translate(192.3 433.138)"/>
        <path id="Path_4977" data-name="Path 4977" d="M132.057,245.7a9.339,9.339,0,1,1-9.339,9.339,9.338,9.338,0,0,1,9.339-9.339" transform="translate(216.336 433.138)"/>
        <path id="Path_4978" data-name="Path 4978" d="M145.693,245.7a9.339,9.339,0,1,1-9.339,9.339,9.338,9.338,0,0,1,9.339-9.339" transform="translate(240.375 433.138)"/>
        <path id="Path_4979" data-name="Path 4979" d="M159.328,245.7a9.339,9.339,0,1,1-9.339,9.339,9.338,9.338,0,0,1,9.339-9.339" transform="translate(264.412 433.138)"/>
        <path id="Path_4980" data-name="Path 4980" d="M172.963,245.7a9.339,9.339,0,1,1-9.339,9.339,9.338,9.338,0,0,1,9.339-9.339" transform="translate(288.449 433.138)"/>
        <path id="Path_4981" data-name="Path 4981" d="M186.6,245.7a9.339,9.339,0,1,1-9.339,9.339A9.338,9.338,0,0,1,186.6,245.7" transform="translate(312.487 433.138)"/>
        <path id="Path_4982" data-name="Path 4982" d="M200.234,245.7a9.339,9.339,0,1,1-9.339,9.339,9.338,9.338,0,0,1,9.339-9.339" transform="translate(336.524 433.138)"/>
        <path id="Path_4983" data-name="Path 4983" d="M213.87,245.7a9.339,9.339,0,1,1-9.339,9.339,9.338,9.338,0,0,1,9.339-9.339" transform="translate(360.563 433.138)"/>
        <path id="Path_4984" data-name="Path 4984" d="M227.5,245.7a9.339,9.339,0,1,1-9.339,9.339A9.338,9.338,0,0,1,227.5,245.7" transform="translate(384.599 433.138)"/>
        <path id="Path_4985" data-name="Path 4985" d="M241.14,245.7a9.339,9.339,0,1,1-9.339,9.339,9.338,9.338,0,0,1,9.339-9.339" transform="translate(408.636 433.138)"/>
        <path id="Path_4986" data-name="Path 4986" d="M254.776,245.7a9.339,9.339,0,1,1-9.339,9.339,9.338,9.338,0,0,1,9.339-9.339" transform="translate(432.675 433.138)"/>
        <path id="Path_4987" data-name="Path 4987" d="M268.411,245.7a9.339,9.339,0,1,1-9.339,9.339,9.338,9.338,0,0,1,9.339-9.339" transform="translate(456.711 433.138)"/>
        <path id="Path_4988" data-name="Path 4988" d="M282.046,245.7a9.339,9.339,0,1,1-9.339,9.339,9.338,9.338,0,0,1,9.339-9.339" transform="translate(480.748 433.138)"/>
        <path id="Path_4989" data-name="Path 4989" d="M295.682,245.7a9.339,9.339,0,1,1-9.339,9.339,9.338,9.338,0,0,1,9.339-9.339" transform="translate(504.787 433.138)"/>
        <path id="Path_4990" data-name="Path 4990" d="M309.317,245.7a9.339,9.339,0,1,1-9.339,9.339,9.338,9.338,0,0,1,9.339-9.339" transform="translate(528.824 433.138)"/>
        <path id="Path_4991" data-name="Path 4991" d="M322.952,245.7a9.339,9.339,0,1,1-9.338,9.339,9.338,9.338,0,0,1,9.338-9.339" transform="translate(552.862 433.138)"/>
        <path id="Path_4992" data-name="Path 4992" d="M336.588,245.7a9.339,9.339,0,1,1-9.339,9.339,9.338,9.338,0,0,1,9.339-9.339" transform="translate(576.899 433.138)"/>
        <path id="Path_4993" data-name="Path 4993" d="M350.223,245.7a9.339,9.339,0,1,1-9.339,9.339,9.338,9.338,0,0,1,9.339-9.339" transform="translate(600.936 433.138)"/>
        <path id="Path_4994" data-name="Path 4994" d="M363.859,245.7a9.339,9.339,0,1,1-9.339,9.339,9.338,9.338,0,0,1,9.339-9.339" transform="translate(624.974 433.138)"/>
        <path id="Path_4995" data-name="Path 4995" d="M377.494,245.7a9.339,9.339,0,1,1-9.339,9.339,9.338,9.338,0,0,1,9.339-9.339" transform="translate(649.011 433.138)"/>
        <path id="Path_4996" data-name="Path 4996" d="M391.13,245.7a9.339,9.339,0,1,1-9.339,9.339,9.338,9.338,0,0,1,9.339-9.339" transform="translate(673.05 433.138)"/>
        <path id="Path_4997" data-name="Path 4997" d="M122.581,391.129a9.339,9.339,0,1,1,9.339,9.339,9.337,9.337,0,0,1-9.339-9.339" transform="translate(216.095 673.048)"/>
        <path id="Path_4998" data-name="Path 4998" d="M122.581,377.494a9.339,9.339,0,1,1,9.339,9.339,9.338,9.338,0,0,1-9.339-9.339" transform="translate(216.095 649.011)"/>
        <path id="Path_4999" data-name="Path 4999" d="M122.581,363.857a9.339,9.339,0,1,1,9.339,9.339,9.338,9.338,0,0,1-9.339-9.339" transform="translate(216.095 624.973)"/>
        <path id="Path_5000" data-name="Path 5000" d="M122.581,350.223a9.339,9.339,0,1,1,9.339,9.339,9.338,9.338,0,0,1-9.339-9.339" transform="translate(216.095 600.936)"/>
        <path id="Path_5001" data-name="Path 5001" d="M122.581,336.588a9.339,9.339,0,1,1,9.339,9.339,9.338,9.338,0,0,1-9.339-9.339" transform="translate(216.095 576.899)"/>
        <path id="Path_5002" data-name="Path 5002" d="M122.581,322.952a9.339,9.339,0,1,1,9.339,9.338,9.337,9.337,0,0,1-9.339-9.338" transform="translate(216.095 552.86)"/>
        <path id="Path_5003" data-name="Path 5003" d="M122.581,309.317a9.339,9.339,0,1,1,9.339,9.339,9.338,9.338,0,0,1-9.339-9.339" transform="translate(216.095 528.824)"/>
        <path id="Path_5004" data-name="Path 5004" d="M122.581,295.68a9.339,9.339,0,1,1,9.339,9.339,9.338,9.338,0,0,1-9.339-9.339" transform="translate(216.095 504.785)"/>
        <path id="Path_5005" data-name="Path 5005" d="M122.581,282.046a9.339,9.339,0,1,1,9.339,9.339,9.338,9.338,0,0,1-9.339-9.339" transform="translate(216.095 480.748)"/>
        <path id="Path_5006" data-name="Path 5006" d="M122.581,268.411a9.339,9.339,0,1,1,9.339,9.339,9.338,9.338,0,0,1-9.339-9.339" transform="translate(216.095 456.711)"/>
        <path id="Path_5007" data-name="Path 5007" d="M122.581,254.775a9.339,9.339,0,1,1,9.339,9.339,9.338,9.338,0,0,1-9.339-9.339" transform="translate(216.095 432.673)"/>
        <path id="Path_5008" data-name="Path 5008" d="M122.581,241.14a9.339,9.339,0,1,1,9.339,9.339,9.338,9.338,0,0,1-9.339-9.339" transform="translate(216.095 408.636)"/>
        <path id="Path_5009" data-name="Path 5009" d="M122.581,227.5a9.339,9.339,0,1,1,9.339,9.339,9.337,9.337,0,0,1-9.339-9.339" transform="translate(216.095 384.599)"/>
        <path id="Path_5010" data-name="Path 5010" d="M122.581,213.869a9.339,9.339,0,1,1,9.339,9.339,9.338,9.338,0,0,1-9.339-9.339" transform="translate(216.095 360.561)"/>
        <path id="Path_5011" data-name="Path 5011" d="M122.581,200.234a9.339,9.339,0,1,1,9.339,9.339,9.338,9.338,0,0,1-9.339-9.339" transform="translate(216.095 336.524)"/>
        <path id="Path_5012" data-name="Path 5012" d="M122.581,186.6a9.339,9.339,0,1,1,9.339,9.338,9.338,9.338,0,0,1-9.339-9.338" transform="translate(216.095 312.485)"/>
        <path id="Path_5013" data-name="Path 5013" d="M122.581,172.963a9.339,9.339,0,1,1,9.339,9.339,9.338,9.338,0,0,1-9.339-9.339" transform="translate(216.095 288.449)"/>
        <path id="Path_5014" data-name="Path 5014" d="M122.581,159.328a9.339,9.339,0,1,1,9.339,9.339,9.338,9.338,0,0,1-9.339-9.339" transform="translate(216.095 264.412)"/>
        <path id="Path_5015" data-name="Path 5015" d="M122.581,145.692a9.339,9.339,0,1,1,9.339,9.339,9.338,9.338,0,0,1-9.339-9.339" transform="translate(216.095 240.373)"/>
        <path id="Path_5016" data-name="Path 5016" d="M122.581,132.057a9.339,9.339,0,1,1,9.339,9.339,9.338,9.338,0,0,1-9.339-9.339" transform="translate(216.095 216.336)"/>
        <path id="Path_5017" data-name="Path 5017" d="M122.581,118.419a9.339,9.339,0,1,1,9.339,9.339,9.337,9.337,0,0,1-9.339-9.339" transform="translate(216.095 192.3)"/>
        <path id="Path_5018" data-name="Path 5018" d="M122.581,104.786a9.339,9.339,0,1,1,9.339,9.339,9.338,9.338,0,0,1-9.339-9.339" transform="translate(216.095 168.261)"/>
        <path id="Path_5019" data-name="Path 5019" d="M122.581,91.151a9.339,9.339,0,1,1,9.339,9.339,9.338,9.338,0,0,1-9.339-9.339" transform="translate(216.095 144.224)"/>
        <path id="Path_5020" data-name="Path 5020" d="M122.581,77.515a9.339,9.339,0,1,1,9.339,9.339,9.338,9.338,0,0,1-9.339-9.339" transform="translate(216.095 120.186)"/>
        <path id="Path_5021" data-name="Path 5021" d="M122.581,63.88a9.339,9.339,0,1,1,9.339,9.339,9.338,9.338,0,0,1-9.339-9.339" transform="translate(216.095 96.149)"/>
        <path id="Path_5022" data-name="Path 5022" d="M122.581,50.245a9.339,9.339,0,1,1,9.339,9.339,9.338,9.338,0,0,1-9.339-9.339" transform="translate(216.095 72.112)"/>
        <path id="Path_5023" data-name="Path 5023" d="M122.581,36.609a9.339,9.339,0,1,1,9.339,9.339,9.338,9.338,0,0,1-9.339-9.339" transform="translate(216.095 48.074)"/>
        <path id="Path_5024" data-name="Path 5024" d="M122.581,22.974a9.339,9.339,0,1,1,9.339,9.339,9.338,9.338,0,0,1-9.339-9.339" transform="translate(216.095 24.037)"/>
        <path id="Path_5025" data-name="Path 5025" d="M122.581,9.338a9.339,9.339,0,1,1,9.339,9.339,9.338,9.338,0,0,1-9.339-9.339" transform="translate(216.095 -0.002)"/>
        <path id="Path_5026" data-name="Path 5026" d="M259.21,391.129a9.339,9.339,0,1,1,9.339,9.339,9.338,9.338,0,0,1-9.339-9.339" transform="translate(456.955 673.048)"/>
        <path id="Path_5027" data-name="Path 5027" d="M259.21,377.494a9.339,9.339,0,1,1,9.339,9.339,9.338,9.338,0,0,1-9.339-9.339" transform="translate(456.955 649.011)"/>
        <path id="Path_5028" data-name="Path 5028" d="M259.21,363.857a9.339,9.339,0,1,1,9.339,9.339,9.338,9.338,0,0,1-9.339-9.339" transform="translate(456.955 624.973)"/>
        <path id="Path_5029" data-name="Path 5029" d="M259.21,350.223a9.339,9.339,0,1,1,9.339,9.339,9.338,9.338,0,0,1-9.339-9.339" transform="translate(456.955 600.936)"/>
        <path id="Path_5030" data-name="Path 5030" d="M259.21,336.588a9.339,9.339,0,1,1,9.339,9.339,9.338,9.338,0,0,1-9.339-9.339" transform="translate(456.955 576.899)"/>
        <path id="Path_5031" data-name="Path 5031" d="M259.21,322.952a9.339,9.339,0,1,1,9.339,9.338,9.338,9.338,0,0,1-9.339-9.338" transform="translate(456.955 552.86)"/>
        <path id="Path_5032" data-name="Path 5032" d="M259.21,309.317a9.339,9.339,0,1,1,9.339,9.339,9.338,9.338,0,0,1-9.339-9.339" transform="translate(456.955 528.824)"/>
        <path id="Path_5033" data-name="Path 5033" d="M259.21,295.68a9.339,9.339,0,1,1,9.339,9.339,9.338,9.338,0,0,1-9.339-9.339" transform="translate(456.955 504.785)"/>
        <path id="Path_5034" data-name="Path 5034" d="M259.21,282.046a9.339,9.339,0,1,1,9.339,9.339,9.338,9.338,0,0,1-9.339-9.339" transform="translate(456.955 480.748)"/>
        <path id="Path_5035" data-name="Path 5035" d="M259.21,268.411a9.339,9.339,0,1,1,9.339,9.339,9.338,9.338,0,0,1-9.339-9.339" transform="translate(456.955 456.711)"/>
        <path id="Path_5036" data-name="Path 5036" d="M259.21,254.775a9.339,9.339,0,1,1,9.339,9.339,9.338,9.338,0,0,1-9.339-9.339" transform="translate(456.955 432.673)"/>
        <path id="Path_5037" data-name="Path 5037" d="M259.21,241.14a9.339,9.339,0,1,1,9.339,9.339,9.338,9.338,0,0,1-9.339-9.339" transform="translate(456.955 408.636)"/>
        <path id="Path_5038" data-name="Path 5038" d="M259.21,227.5a9.339,9.339,0,1,1,9.339,9.339,9.338,9.338,0,0,1-9.339-9.339" transform="translate(456.955 384.599)"/>
        <path id="Path_5039" data-name="Path 5039" d="M259.21,213.869a9.339,9.339,0,1,1,9.339,9.339,9.338,9.338,0,0,1-9.339-9.339" transform="translate(456.955 360.561)"/>
        <path id="Path_5040" data-name="Path 5040" d="M259.21,200.234a9.339,9.339,0,1,1,9.339,9.339,9.338,9.338,0,0,1-9.339-9.339" transform="translate(456.955 336.524)"/>
        <path id="Path_5041" data-name="Path 5041" d="M259.21,186.6a9.339,9.339,0,1,1,9.339,9.338,9.338,9.338,0,0,1-9.339-9.338" transform="translate(456.955 312.485)"/>
        <path id="Path_5042" data-name="Path 5042" d="M259.21,172.963a9.339,9.339,0,1,1,9.339,9.339,9.338,9.338,0,0,1-9.339-9.339" transform="translate(456.955 288.449)"/>
        <path id="Path_5043" data-name="Path 5043" d="M259.21,159.328a9.339,9.339,0,1,1,9.339,9.339,9.338,9.338,0,0,1-9.339-9.339" transform="translate(456.955 264.412)"/>
        <path id="Path_5044" data-name="Path 5044" d="M259.21,145.692a9.339,9.339,0,1,1,9.339,9.339,9.338,9.338,0,0,1-9.339-9.339" transform="translate(456.955 240.373)"/>
        <path id="Path_5045" data-name="Path 5045" d="M259.21,132.057a9.339,9.339,0,1,1,9.339,9.339,9.338,9.338,0,0,1-9.339-9.339" transform="translate(456.955 216.336)"/>
        <path id="Path_5046" data-name="Path 5046" d="M259.21,118.419a9.339,9.339,0,1,1,9.339,9.339,9.337,9.337,0,0,1-9.339-9.339" transform="translate(456.955 192.3)"/>
        <path id="Path_5047" data-name="Path 5047" d="M259.21,104.786a9.339,9.339,0,1,1,9.339,9.339,9.338,9.338,0,0,1-9.339-9.339" transform="translate(456.955 168.261)"/>
        <path id="Path_5048" data-name="Path 5048" d="M259.21,91.151a9.339,9.339,0,1,1,9.339,9.339,9.338,9.338,0,0,1-9.339-9.339" transform="translate(456.955 144.224)"/>
        <path id="Path_5049" data-name="Path 5049" d="M259.21,77.515a9.339,9.339,0,1,1,9.339,9.339,9.338,9.338,0,0,1-9.339-9.339" transform="translate(456.955 120.186)"/>
        <path id="Path_5050" data-name="Path 5050" d="M259.21,63.88a9.339,9.339,0,1,1,9.339,9.339,9.338,9.338,0,0,1-9.339-9.339" transform="translate(456.955 96.149)"/>
        <path id="Path_5051" data-name="Path 5051" d="M259.21,50.245a9.339,9.339,0,1,1,9.339,9.339,9.338,9.338,0,0,1-9.339-9.339" transform="translate(456.955 72.112)"/>
        <path id="Path_5052" data-name="Path 5052" d="M259.21,36.609a9.339,9.339,0,1,1,9.339,9.339,9.338,9.338,0,0,1-9.339-9.339" transform="translate(456.955 48.074)"/>
        <path id="Path_5053" data-name="Path 5053" d="M259.21,22.974a9.339,9.339,0,1,1,9.339,9.339,9.338,9.338,0,0,1-9.339-9.339" transform="translate(456.955 24.037)"/>
        <path id="Path_5054" data-name="Path 5054" d="M259.21,9.338a9.339,9.339,0,1,1,9.339,9.339,9.338,9.338,0,0,1-9.339-9.339" transform="translate(456.955 -0.002)"/>
        <path id="Path_5055" data-name="Path 5055" d="M267.716,19.71H264.4C203.4,20.594,153.554,70.3,152.7,131.3A113.318,113.318,0,1,0,267.716,19.71M265.588,207.5a74.349,74.349,0,1,1,74.349-74.349A74.356,74.356,0,0,1,265.588,207.5" transform="translate(269.163 34.746)" fill="#eb733a"/>
        <path id="Path_5056" data-name="Path 5056" d="M267.716,147.487H264.4c-61,.884-110.847,50.588-111.7,111.592A113.318,113.318,0,1,0,267.716,147.487M265.588,335.28a74.349,74.349,0,1,1,74.349-74.349,74.356,74.356,0,0,1-74.349,74.349" transform="translate(269.163 260.001)" fill="#eb733a"/>
        <path id="Path_5057" data-name="Path 5057" d="M267.716,276.769H264.4c-61,.884-110.847,50.588-111.7,111.592A113.318,113.318,0,1,0,267.716,276.769m-2.127,187.793a74.349,74.349,0,1,1,74.349-74.349,74.356,74.356,0,0,1-74.349,74.349" transform="translate(269.163 487.909)" fill="#eb733a"/>
        <path id="Path_5058" data-name="Path 5058" d="M134.413,276.769H131.1c-61,.884-110.847,50.588-111.7,111.592A113.318,113.318,0,1,0,134.413,276.769m-2.127,187.793a74.349,74.349,0,1,1,74.349-74.349,74.356,74.356,0,0,1-74.349,74.349" transform="translate(34.167 487.909)" fill="#eb733a"/>
        <path id="Path_5059" data-name="Path 5059" d="M397.527,19.71h-3.315c-61,.884-110.846,50.588-111.7,111.593A113.318,113.318,0,1,0,397.527,19.71M395.4,207.5a74.349,74.349,0,1,1,74.349-74.349A74.356,74.356,0,0,1,395.4,207.5" transform="translate(498.004 34.746)" fill="#eb733a"/>
        <path id="Path_5060" data-name="Path 5060" d="M203.274,190.105a13.488,13.488,0,0,1-24.23,8.178l-62.911-62.911-63.6,63.574a13.348,13.348,0,0,1-10.2,4.669,13.513,13.513,0,0,1-13.51-13.51,13.33,13.33,0,0,1,5.443-10.8L97.18,116.392,34.158,53.4A13.5,13.5,0,1,1,52.531,33.809a1.787,1.787,0,0,1,.221.249l63.38,63.38,62.745-62.745a13.493,13.493,0,1,1,20.445,17.489l-.332.332-63.905,63.878,63.27,63.3a1.788,1.788,0,0,1,.249.221,13.348,13.348,0,0,1,4.669,10.2" transform="translate(50.817 51.37)"/>
        <path id="Path_5061" data-name="Path 5061" d="M203.274,316.83a13.488,13.488,0,0,1-24.23,8.178L116.133,262.1l-63.6,63.574a13.348,13.348,0,0,1-10.2,4.669,13.513,13.513,0,0,1-13.51-13.51,13.33,13.33,0,0,1,5.443-10.8L97.18,243.117,34.158,180.123a13.5,13.5,0,1,1,18.373-19.589,1.791,1.791,0,0,1,.221.249l63.38,63.38,62.745-62.745a13.493,13.493,0,1,1,20.445,17.489l-.332.332-63.905,63.878,63.27,63.3a1.789,1.789,0,0,1,.249.221,13.348,13.348,0,0,1,4.669,10.2" transform="translate(50.817 274.77)"/>
        <path id="Path_5062" data-name="Path 5062" d="M466.238,316.83a13.488,13.488,0,0,1-24.23,8.178L379.1,262.1l-63.6,63.574a13.348,13.348,0,0,1-10.2,4.669,13.513,13.513,0,0,1-13.51-13.51,13.33,13.33,0,0,1,5.443-10.8l62.911-62.911-63.021-62.994A13.5,13.5,0,1,1,315.5,160.534a1.794,1.794,0,0,1,.221.249l63.38,63.38,62.745-62.745a13.493,13.493,0,1,1,20.445,17.489l-.332.332L398.05,243.117l63.27,63.3a1.791,1.791,0,0,1,.249.221,13.348,13.348,0,0,1,4.669,10.2" transform="translate(514.389 274.77)"/>
        <path id="Path_5063" data-name="Path 5063" d="M466.238,447.171a13.488,13.488,0,0,1-24.23,8.178L379.1,392.439l-63.6,63.574a13.348,13.348,0,0,1-10.2,4.669,13.513,13.513,0,0,1-13.51-13.51,13.33,13.33,0,0,1,5.443-10.8l62.911-62.911-63.021-62.994A13.5,13.5,0,1,1,315.5,290.875a1.791,1.791,0,0,1,.221.249L379.1,354.5l62.745-62.745a13.493,13.493,0,1,1,20.445,17.489l-.332.332L398.05,373.458l63.27,63.3a1.781,1.781,0,0,1,.249.221,13.348,13.348,0,0,1,4.669,10.2" transform="translate(514.389 504.545)"/>
      </g>
    </g>
  </g>
</svg>
