<svg xmlns="http://www.w3.org/2000/svg" xmlns:xlink="http://www.w3.org/1999/xlink" width="512" height="512" viewBox="0 0 512 512">
  <defs>
    <clipPath id="clip-language_icon">
      <rect width="512" height="512"/>
    </clipPath>
  </defs>
  <g id="language_icon" clip-path="url(#clip-language_icon)">
    <g id="language_icon-2" data-name="language_icon" transform="translate(-0.029 -0.1)">
      <path id="Path_4725" data-name="Path 4725" d="M22.6,437.3a22.135,22.135,0,0,1-22-18.2,23.211,23.211,0,0,1,12.2-25c4.3-2.6,8.8-5.1,13.1-7.7,15.8-9.2,32-18.6,47.4-29a392.669,392.669,0,0,0,73.8-66l1.6-1.8-1.4-2-4.1-5.9c-2.9-4.3-5.9-8.5-8.8-12.8a482.7,482.7,0,0,1-43.7-80.6A22.713,22.713,0,0,1,101,157.9a3.552,3.552,0,0,1,.9-.4,22.307,22.307,0,0,1,9.5-2.1,22.961,22.961,0,0,1,20.9,14.3,453.464,453.464,0,0,0,40.2,74.1c.7,1,1.4,2,2.1,2.9l1,1.3,2.1,3,2.5-2.8A423.083,423.083,0,0,0,246.1,101l.4-3.4H153c-37.5,0-81.9,0-126.5-.1a35.084,35.084,0,0,1-14.3-2.8A22.029,22.029,0,0,1,.6,70.1a22.667,22.667,0,0,1,22-18.2c3.8,0,8-.1,13.1-.1H155.5V42.7c0-4.5.2-8.7-.2-13.1A25.385,25.385,0,0,1,173.5.1h9a24.767,24.767,0,0,1,18.7,28.8v23H332.3A24.349,24.349,0,0,1,350.2,59a22.807,22.807,0,0,1,6.1,16.7,21.893,21.893,0,0,1-21.1,21.7c-4.3.2-8.8.3-14.7.3H294.3l-.5,2.4A487.706,487.706,0,0,1,209,287.6l-1.5,2,1.7,1.8,4.3,4.6c3,3.2,6.2,6.6,9.1,10.1a23.173,23.173,0,0,1,4.6,21.3,22.151,22.151,0,0,1-14.9,15.1,23.4,23.4,0,0,1-7.4,1.2,22.631,22.631,0,0,1-15.7-6.8c-2-1.9-3.9-3.9-5.7-5.9-1-1-1.9-2.1-3-3.2l-2.1-2.3L171,333A489.632,489.632,0,0,1,34.5,434.3a26.239,26.239,0,0,1-11.9,3Z"/>
      <path id="Path_4726" data-name="Path 4726" d="M230.4,512a18.1,18.1,0,0,1-4-.4,22.747,22.747,0,0,1-18.8-26.1,24.38,24.38,0,0,1,2.3-6.9c6.2-12.8,12.7-25.6,19-38.1l8.5-17.1,23.8-47.6c25.1-50.1,51-102,76.4-153a23.791,23.791,0,0,1,19.6-15.4,26.2,26.2,0,0,1,2.8-.1,22.575,22.575,0,0,1,20.7,13.9c9.7,19.2,19.4,38.7,28.9,57.6l7.3,14.6L507.7,475c1.1,2.1,2.1,4.5,3.2,6.7l1.1,2.7v8.8l-.1.3a18.027,18.027,0,0,0-.8,2.1,22.943,22.943,0,0,1-19.8,16.3h-2a21.57,21.57,0,0,1-20.4-12.5c-10.8-21-20.3-40.1-29.1-58.2a11.164,11.164,0,0,0-11.5-7c-22.4,0-45.5.1-68.9.1-22.2,0-45.3,0-68.7-.1a10.372,10.372,0,0,0-10.8,6.6c-9.6,19.7-19.4,39.1-28.6,57.4A23.822,23.822,0,0,1,230.4,512Zm75.7-123.6H413.2L359.6,281.3Z"/>
    </g>
  </g>
</svg>
