<svg xmlns="http://www.w3.org/2000/svg" xmlns:xlink="http://www.w3.org/1999/xlink" width="93" height="75" viewBox="0 0 93 75">
  <defs>
    <clipPath id="clip-offline_white">
      <rect width="93" height="75"/>
    </clipPath>
  </defs>
  <g id="offline_white" clip-path="url(#clip-offline_white)">
    <path id="Path_11704" data-name="Path 11704" d="M92.23,33.967a3.44,3.44,0,0,0-1.764-3.144,3.4,3.4,0,0,0-5.118,2.808c-.067,1.572-.019,3.134-.019,4.7H83V25.188A13.255,13.255,0,0,0,69.765,11.933H49.551c0-2.137-.01-5.626-.038-8.54a3.415,3.415,0,0,0-1-2.4,3.457,3.457,0,0,0-2.4-1,3.42,3.42,0,0,0-3.46,3.422c-.01,2.779-.019,6.182-.019,7.342v1.179h-1.39c-6.335,0-12.68-.019-19.015,0A12.614,12.614,0,0,0,9.249,24.891c-.019,4.112,0,8.214,0,12.316v1.131H6.93V34.81c0-2.521-.853-3.891-2.684-4.351a3,3,0,0,0-2.9.738A4.335,4.335,0,0,0,0,34.35V51.717a3.461,3.461,0,0,0,3.5,3.46h0a3.461,3.461,0,0,0,3.412-3.46V45.43H9.23V46.7c0,4.179-.029,8.358.01,12.536A12.624,12.624,0,0,0,22.006,71.864q24.1.029,48.19,0a12.671,12.671,0,0,0,12.8-12.843c.019-4.14,0-8.281,0-12.431V45.411h2.176a.958.958,0,0,1,.115.268c.019,1.371.01,4.409.038,5.77a3.451,3.451,0,1,0,6.9.067c.038-5.291.019-12.258,0-17.559Zm-69.151.987A9.206,9.206,0,1,1,32.242,44.2a9.206,9.206,0,0,1-9.163-9.249Zm33.095,23.07c-3.345.01-6.7,0-10.044,0H36.085a3.477,3.477,0,1,1,0-6.92H56.174a3.466,3.466,0,1,1,0,6.91Zm4.917-13.907a9.213,9.213,0,1,1,8.022-8.2,9.213,9.213,0,0,1-8.022,8.2Z" transform="translate(0.379 1.561)" fill="#fff"/>
  </g>
</svg>
