<svg xmlns="http://www.w3.org/2000/svg" xmlns:xlink="http://www.w3.org/1999/xlink" width="88" height="88" viewBox="0 0 88 88">
  <defs>
    <clipPath id="clip-passnplay_white">
      <rect width="88" height="88"/>
    </clipPath>
  </defs>
  <g id="passnplay_white" clip-path="url(#clip-passnplay_white)">
    <g id="passnplay_dark" transform="translate(0.45 0.45)">
      <path id="Path_11706" d="M85,58.03H62.93V29.97H85a2.45,2.45,0,0,0,0-4.9H62.93V3a2.45,2.45,0,0,0-4.9,0V25.07H29.98V3a2.45,2.45,0,0,0-4.9,0V25.07H3a2.45,2.45,0,0,0,0,4.9H25.08V58.03H3a2.45,2.45,0,0,0,0,4.9H25.08V85a2.45,2.45,0,0,0,4.9,0V62.93H58.03V85a2.45,2.45,0,0,0,4.9,0V62.93H85a2.45,2.45,0,0,0,0-4.9Zm-26.97,0H29.98V29.97H58.03Z" fill="#fff"/>
      <path id="Path_11707" d="M75.22,86.32A10.44,10.44,0,1,1,85.66,75.88h0A10.448,10.448,0,0,1,75.22,86.32Zm0-15.88a5.44,5.44,0,1,0,5.44,5.44A5.446,5.446,0,0,0,75.22,70.44Z" fill="#fff"/>
      <path id="Path_11708" d="M44.37,54.44A10.44,10.44,0,1,1,54.81,44,10.435,10.435,0,0,1,44.37,54.44Zm0-15.88A5.44,5.44,0,1,0,49.81,44h0A5.446,5.446,0,0,0,44.37,38.56Z" fill="#fff"/>
      <path id="Path_11708-2" d="M12.81,22.91A10.44,10.44,0,1,1,23.25,12.47,10.435,10.435,0,0,1,12.81,22.91Zm0-15.88a5.44,5.44,0,1,0,5.44,5.44h0a5.446,5.446,0,0,0-5.44-5.44Z" fill="#fff"/>
      <path id="Path_11710" d="M53.45,18.01a2.5,2.5,0,0,1-1.77,4.26,2.465,2.465,0,0,1-1.76-.73L44.37,16l-5.54,5.54a2.5,2.5,0,1,1-3.6-3.46l.06-.06,5.55-5.55L35.29,6.93a2.5,2.5,0,1,1,3.54-3.54l5.54,5.55,5.55-5.55a2.5,2.5,0,0,1,3.6,3.48l-.06.06-5.54,5.54,5.54,5.55Z" fill="#fff"/>
      <path id="Path_11711" d="M21.29,81.44a2.5,2.5,0,0,1,0,3.54,2.5,2.5,0,0,1-3.53,0l-5.55-5.55L6.67,84.98a2.5,2.5,0,0,1-3.54-3.54L8.68,75.9,3.13,70.35a2.5,2.5,0,1,1,3.48-3.6l.06.06,5.54,5.54,5.55-5.54a2.5,2.5,0,0,1,3.53,3.53l-5.54,5.55,5.54,5.54Z" fill="#fff"/>
    </g>
  </g>
</svg>
