<svg xmlns="http://www.w3.org/2000/svg" xmlns:xlink="http://www.w3.org/1999/xlink" width="92" height="92" viewBox="0 0 92 92">
  <defs>
    <clipPath id="clip-playrandom_dark">
      <rect width="92" height="92"/>
    </clipPath>
  </defs>
  <g id="playrandom_dark" clip-path="url(#clip-playrandom_dark)">
    <g id="playrandom_dark-2" data-name="playrandom_dark" transform="translate(-0.1 0.4)">
      <g id="Group_513" data-name="Group 513">
        <path id="Path_4734" data-name="Path 4734" d="M84,47.7a3.583,3.583,0,0,0-.9-2.4c-2.8-3.3-5.6-6.5-8.4-9.8A2.905,2.905,0,0,0,72,34.3H61c-.2,0-.5-.3-.7-.5-1-1.4-2.1-2.7-3.1-4.1a3.047,3.047,0,0,0-2.6-1.3H47.2V26a3.376,3.376,0,0,0,2.2-3.2,3.5,3.5,0,1,0-7,0A3.282,3.282,0,0,0,44.6,26v2.3H37.5a3.17,3.17,0,0,0-2.9,1.5c-.9,1.3-1.9,2.6-2.9,3.9a1.433,1.433,0,0,1-1.1.5,14.719,14.719,0,0,1-2.1,0H19.9a3.225,3.225,0,0,0-2.6,1.2c-2.8,3.2-5.5,6.5-8.3,9.7a3.607,3.607,0,0,0-.9,2.6v29A14.465,14.465,0,0,0,20.5,91.2c.1,0,.3.1.4.1H24c1.4-.4,2.9-.7,4.2-1.2a14.174,14.174,0,0,0,8-8.6,1.421,1.421,0,0,0,.2-.6H55.7a14.648,14.648,0,0,0,3.8,6.3,14.165,14.165,0,0,0,8.2,4c.1,0,.3.1.4.1h3.1A35.169,35.169,0,0,0,75.5,90c5.5-2.6,8.5-7,8.6-13.1C84.1,67.2,84,57.4,84,47.7ZM46,41.4a2.9,2.9,0,0,1,2.9,2.9,3.058,3.058,0,0,1-2.9,3,2.95,2.95,0,1,1,0-5.9ZM36.8,58.9H32.5v4.3a2.714,2.714,0,0,1-2.7,3,2.788,2.788,0,0,1-2.8-3V58.9H22.4A2.759,2.759,0,0,1,19.9,55a2.627,2.627,0,0,1,2.6-1.6H27V48.8a2.752,2.752,0,1,1,5.5.2v4.5h4.3a2.858,2.858,0,0,1,3.1,2.7A2.8,2.8,0,0,1,36.8,58.9ZM49,70.6H43.1a2.775,2.775,0,0,1-2.8-2.7A2.843,2.843,0,0,1,43,65.1h6a2.775,2.775,0,0,1,2.7,2.8A2.689,2.689,0,0,1,49,70.6Zm13.1-4.4A10.1,10.1,0,1,1,72.3,56.1,10.136,10.136,0,0,1,62.1,66.2Z"/>
        <path id="Path_4735" data-name="Path 4735" d="M66.8,56.1a4.6,4.6,0,0,1-9.2.1,4.722,4.722,0,0,1,4.5-4.7A4.673,4.673,0,0,1,66.8,56.1Z"/>
      </g>
      <g id="Group_514" data-name="Group 514">
        <path id="Path_11721" d="M45.8.6A47.74,47.74,0,0,1,71.5,8c2,1.2,2.6,3.2,1.5,5-1.1,1.7-3.1,2.1-5.1.9q-22.05-12.75-44.1,0c-2,1.2-4.1.8-5.1-1A3.5,3.5,0,0,1,20.1,8,48.881,48.881,0,0,1,45.8.6Z"/>
        <path id="Path_11722" d="M59.9,21.1a7.494,7.494,0,0,1-1.6-.5,27.535,27.535,0,0,0-24.7,0A3.478,3.478,0,0,1,29,19.5a3.349,3.349,0,0,1,.4-4.4A13.5,13.5,0,0,1,32,13.6a34.454,34.454,0,0,1,29.1.7,3.528,3.528,0,0,1,2.1,4.1,3.426,3.426,0,0,1-3.3,2.7Z"/>
      </g>
    </g>
  </g>
</svg>
