<svg xmlns="http://www.w3.org/2000/svg" xmlns:xlink="http://www.w3.org/1999/xlink" width="130" height="130" viewBox="0 0 130 130">
  <defs>
    <clipPath id="clip-play_random">
      <rect width="130" height="130"/>
    </clipPath>
  </defs>
  <g id="play_random" clip-path="url(#clip-play_random)">
    <g id="play_random-2" data-name="play_random" transform="translate(0.1 0.099)">
      <g id="Group_511" data-name="Group 511">
        <path id="Path_4732" data-name="Path 4732" d="M117.9,67.3a5.233,5.233,0,0,0-1.2-3.4c-3.9-4.5-7.8-9-11.6-13.6a4.3,4.3,0,0,0-3.8-1.7H85.8c-.3,0-.7-.4-1-.7-1.5-1.9-2.9-3.8-4.3-5.7a4.276,4.276,0,0,0-3.6-1.8H66.6V37.2a4.807,4.807,0,0,0-1.7-9.3A4.974,4.974,0,0,0,60,32.8a4.8,4.8,0,0,0,3.1,4.5v3.2H53.2a4.553,4.553,0,0,0-4,2c-1.3,1.8-2.7,3.6-4.1,5.4a2.751,2.751,0,0,1-1.5.8,15.028,15.028,0,0,1-3,0H28.5a4.5,4.5,0,0,0-3.7,1.7c-3.8,4.5-7.7,9-11.6,13.5a5.327,5.327,0,0,0-1.3,3.6v40.4A20,20,0,0,0,29.2,128a1.421,1.421,0,0,1,.6.2h4.3a55.376,55.376,0,0,0,5.8-1.7,19.692,19.692,0,0,0,11.1-12c.1-.3.2-.5.3-.8H78.2a19.514,19.514,0,0,0,5.3,8.8,19.912,19.912,0,0,0,11.4,5.6,1.421,1.421,0,0,1,.6.2h4.3a36.79,36.79,0,0,0,5.9-1.8c7.7-3.6,11.8-9.8,11.9-18.3C118,94.5,117.9,80.9,117.9,67.3ZM65,58.6a4.1,4.1,0,1,1-4,4.2A4,4,0,0,1,65,58.6ZM52.3,82.9H46.4v6c0,2.5-1.6,4.2-3.8,4.2s-3.8-1.7-3.9-4.2v-6H32.3a3.8,3.8,0,1,1,.2-7.6h6.3c0-2.2-.1-4.3,0-6.4a3.792,3.792,0,0,1,5.8-3.2,3.7,3.7,0,0,1,1.9,3.4v6.2h6c2.5,0,4.2,1.5,4.3,3.8A4.242,4.242,0,0,1,52.3,82.9ZM69.2,99.3c-1.4.1-2.8,0-4.2,0H60.9a3.8,3.8,0,0,1-3.8-3.8,3.736,3.736,0,0,1,3.8-3.8c2.8-.1,5.5-.1,8.3,0A3.885,3.885,0,0,1,73,95.6,3.994,3.994,0,0,1,69.2,99.3Zm18.2-6.2a14.05,14.05,0,1,1,14.1-14A14.127,14.127,0,0,1,87.4,93.1Z" fill="#fff"/>
        <path id="Path_4733" data-name="Path 4733" d="M93.9,79a6.4,6.4,0,1,1-6.5-6.4A6.67,6.67,0,0,1,93.9,79Z" fill="#fff"/>
      </g>
      <g id="Group_512" data-name="Group 512">
        <path id="Path_11721_00000067942365635547283400000016929154986529944247_" d="M64.7,1.9a67.886,67.886,0,0,1,35.8,10.2c2.7,1.7,3.6,4.5,2.1,6.9s-4.4,2.9-7.1,1.3q-30.75-17.7-61.3.1c-2.8,1.6-5.6,1.1-7.1-1.4-1.4-2.4-.6-5.2,2-6.8A67.045,67.045,0,0,1,64.7,1.9Z" fill="#fff"/>
        <path id="Path_11722_00000072275934205457938300000010312841801988277684_" d="M84.3,30.4a20.155,20.155,0,0,1-2.3-.7,38.336,38.336,0,0,0-34.3,0A4.836,4.836,0,0,1,42,22a10.681,10.681,0,0,1,3.6-2,47.967,47.967,0,0,1,40.4.9,4.886,4.886,0,0,1,3,5.6,4.806,4.806,0,0,1-4.7,3.9Z" fill="#fff"/>
      </g>
    </g>
  </g>
</svg>
