<svg xmlns="http://www.w3.org/2000/svg" xmlns:xlink="http://www.w3.org/1999/xlink" width="70" height="70" viewBox="0 0 70 70">
  <defs>
    <clipPath id="clip-rateus_icon">
      <rect width="70" height="70"/>
    </clipPath>
  </defs>
  <g id="rateus_icon" clip-path="url(#clip-rateus_icon)">
    <g id="rateus_icon-2" data-name="rateus_icon">
      <path id="Path_11731" data-name="Path 11731" d="M35,0A35,35,0,1,0,70,35,35,35,0,0,0,35,0Zm0,63.63A28.635,28.635,0,1,1,63.64,35,28.634,28.634,0,0,1,35,63.63Z"/>
      <path id="Path_11732" data-name="Path 11732" d="M45.29,39.37a.787.787,0,0,0-.23.77c.37,2.35.74,4.7,1.08,7.05a3.3,3.3,0,0,1-1.44,3.37,3.344,3.344,0,0,1-3.7.16q-2.85-1.56-5.7-3.17a.661.661,0,0,0-.76,0c-1.87,1.06-3.75,2.09-5.63,3.13a3.356,3.356,0,0,1-1.66.51,3.467,3.467,0,0,1-3.54-4.01c.4-2.38.78-4.76,1.17-7.15a.649.649,0,0,0-.18-.65c-1.6-1.62-3.18-3.26-4.76-4.89a3.445,3.445,0,0,1-.95-3.69,3.393,3.393,0,0,1,2.99-2.34c2.13-.32,4.24-.68,6.37-1.01a.764.764,0,0,0,.63-.49q1.425-3.12,2.91-6.21a3.4,3.4,0,0,1,5.72-.71,3.839,3.839,0,0,1,.49.79c.98,2.07,1.96,4.14,2.92,6.21a.663.663,0,0,0,.58.44q3.345.495,6.67,1.03a3.229,3.229,0,0,1,2.69,2.28,3.292,3.292,0,0,1-.76,3.52c-1.63,1.7-3.28,3.37-4.93,5.05Z"/>
    </g>
  </g>
</svg>
