<svg xmlns="http://www.w3.org/2000/svg" xmlns:xlink="http://www.w3.org/1999/xlink" width="62" height="62" viewBox="0 0 62 62">
  <defs>
    <clipPath id="clip-share_app">
      <rect width="62" height="62"/>
    </clipPath>
  </defs>
  <g id="share_app" clip-path="url(#clip-share_app)">
    <path id="Path_11733" data-name="Path 11733" d="M31,0A31,31,0,1,0,62,31,31,31,0,0,0,31,0ZM46.217,41.239a7.387,7.387,0,0,1-6.235,5.288,7.4,7.4,0,0,1-7.316-2.905,7.52,7.52,0,0,1-1.187-7.484.329.329,0,0,0-.142-.39c-1.337-.806-2.666-1.63-3.995-2.453-.239-.151-.487-.292-.735-.443-.08.08-.159.151-.23.221a6.491,6.491,0,0,1-10.6-2.409,11.907,11.907,0,0,1-.328-1.258,4.24,4.24,0,0,1-.1-.886v-.08a7.15,7.15,0,0,1,.062-.868h0A6.488,6.488,0,0,1,25.73,23.188c.5.39.939.868,1.426,1.32h.035c2.108-.974,4.207-1.949,6.315-2.914.177-.08.177-.186.151-.337a5.137,5.137,0,0,1,2.817-5.323,11.056,11.056,0,0,1,1.559-.5,1.838,1.838,0,0,1,.487-.062h.549a2.233,2.233,0,0,1,.425.053,5.173,5.173,0,0,1,4.517,5.164,5.238,5.238,0,0,1-.062.824,5.184,5.184,0,0,1-7.591,3.738,16.026,16.026,0,0,1-1.6-1.2.338.338,0,0,0-.248.044q-3.016,1.4-6.032,2.781a.329.329,0,0,0-.23.434,5.741,5.741,0,0,1-.2,3.162c-.071.213-.009.3.168.4.948.576,1.887,1.16,2.834,1.745.62.381,1.24.762,1.913,1.178.142-.159.266-.319.407-.461A7.512,7.512,0,0,1,37.9,31.071a7.8,7.8,0,0,1,8.317,10.168Z"/>
  </g>
</svg>
