<svg xmlns="http://www.w3.org/2000/svg" xmlns:xlink="http://www.w3.org/1999/xlink" width="79" height="70" viewBox="0 0 79 70">
  <defs>
    <clipPath id="clip-shop_white">
      <rect width="79" height="70"/>
    </clipPath>
  </defs>
  <g id="shop_white" clip-path="url(#clip-shop_white)">
    <g id="shop_white-2" data-name="shop_white" transform="translate(4.998 0.006)">
      <path id="Path_11737" data-name="Path 11737" d="M69.91,24.33v.55a2.84,2.84,0,0,1-.11.71.235.235,0,0,1-.02.08,11.107,11.107,0,0,1-12.47,9.25,11.643,11.643,0,0,1-4.99-1.99A11.158,11.158,0,0,1,34.9,34.88a10.935,10.935,0,0,1-9.21,3.25,11.061,11.061,0,0,1-8.19-5.18c-.25.15-.45.27-.64.39A11.061,11.061,0,0,1,.78,28.26a7.251,7.251,0,0,1,.14-6.8c1.86-3.39,3.5-6.9,5.17-10.38A2.382,2.382,0,0,1,8.53,9.55q26.1.045,52.2-.01a3.063,3.063,0,0,1,3.26,2c1.82,3.97,3.77,7.86,5.69,11.79a2.292,2.292,0,0,1,.24,1.03Z" fill="#fff"/>
      <path id="Path_11738" data-name="Path 11738" d="M12.5,70a15.1,15.1,0,0,1-2.54-.7,6.254,6.254,0,0,1-3.67-6.12V39.87c0-1.61.65-2.22,2.25-1.98a14.843,14.843,0,0,0,5.02-.02,13.715,13.715,0,0,0,1.91-.49,2.062,2.062,0,0,1,2.2.45,13.545,13.545,0,0,0,6.51,3.12,13.9,13.9,0,0,0,9.35-1.28,2.663,2.663,0,0,1,2.75,0,14.4,14.4,0,0,0,15.64-1.68,2.446,2.446,0,0,1,2.62-.56,13.084,13.084,0,0,0,6.6.46,4.925,4.925,0,0,1,.54-.05,1.56,1.56,0,0,1,1.84,1.68c.02,1.46,0,2.92,0,4.37V63.1a6.535,6.535,0,0,1-2.61,5.58,5.784,5.784,0,0,1-3.01,1.18,4.159,4.159,0,0,0-.59.13H55.26a1.976,1.976,0,0,1-1.24-2.11q.03-9.81,0-19.62c0-1.51-.55-2.07-2.05-2.08l-14.9-.06c-1.66,0-2.19.53-2.19,2.22V67.75c0,1.4-.23,1.75-1.5,2.23H12.5Zm9.69-11.2h4.44c1.29,0,1.91-.58,1.91-1.86.02-2.98.02-5.97,0-8.95,0-1.31-.62-1.9-1.95-1.91H17.77c-1.34,0-1.95.61-1.96,1.97-.01,2.92,0,5.83,0,8.75,0,1.41.6,1.99,1.99,2h4.37Z" fill="#fff"/>
      <path id="Path_11739" data-name="Path 11739" d="M34.91,6.37H8.88c-.27,0-.55,0-.82-.02A1.558,1.558,0,0,1,6.73,4.11,6.286,6.286,0,0,1,12.23.02,6.262,6.262,0,0,1,12.98,0H56.83a6.392,6.392,0,0,1,6.21,3.97,1.606,1.606,0,0,1-1.49,2.39c-.36.02-.73,0-1.09,0H34.91Z" fill="#fff"/>
    </g>
    <g id="signin_Dora" transform="translate(56.939 -32.206)">
      <path id="Path_4736" data-name="Path 4736" d="M385.11,593.13s22.39,6.08,37.05-5.55c9-7.14,26.53-53.75,60.11-55.15s68.86,25.86,68.86,25.86a135.282,135.282,0,0,0-28.41,25.87c-9.28,11.44-25.97,44.69-56.37,54.43-41.45,13.28-89.5-23.94-89.5-23.94l8.25-21.52Z" fill="#ffcf06"/>
      <path id="Path_4737" data-name="Path 4737" d="M380.24,610.82c18.48,4.85,41.6,2.59,55.85-11.13,4.86-4.68,8.41-11.17,12.01-16.83,2.12-3.34,4.28-6.65,6.52-9.92,1.21-1.76,2.47-3.48,3.74-5.19-2.13,2.87,2.66-3.09,3.38-3.9,1.46-1.65,3.02-3.21,4.61-4.74.51-.49,5.65-4.71,2.57-2.4a51.165,51.165,0,0,1,5.47-3.49c.94-.52,1.91-1,2.88-1.45q-2.865,1.2.14.09c.83-.28,7.3-1.43,3.18-.98a53.232,53.232,0,0,1,8.28-.03c3.72.17,9.54,1.57,14.51,3.03,13.04,3.83,26.61,11.12,38.51,20.25V542.44a143.421,143.421,0,0,0-39.65,38.87c-2.24,3.24-4.43,6.51-6.69,9.73a80.088,80.088,0,0,1-6.63,8.69c-6.97,8.36-12.45,13.41-20.82,18.22-7.64,4.4-15.52,5.52-25.75,4.98-4.15-.22-7-.87-12.72-2.35a119.119,119.119,0,0,1-14.48-4.9c2.85,1.14-3.23-1.51-3.8-1.78-2-.95-3.97-1.97-5.93-3-3.36-1.77-6.63-3.7-9.86-5.69a109.2,109.2,0,0,1-9.42-6.41q4.215,10.365,8.43,20.72,4.125-10.755,8.25-21.52c3.59-9.35-3.88-20.11-12.82-22.57-10.36-2.85-18.99,3.49-22.57,12.82Q363.3,599,359.18,609.77c-3.17,8.28,2.32,16.01,8.43,20.72,28.75,22.12,72.05,37.84,107.44,24.42,23.09-8.75,39.25-26.95,53.1-46.66,2.2-3.13,4.33-6.32,6.5-9.48.88-1.28,1.78-2.53,2.7-3.78q-3.315,4.23.05.09c1.64-1.98,3.41-3.84,5.18-5.7a136.032,136.032,0,0,1,14.23-12.81c-2.94,2.34,2.42-1.69,3.59-2.44,12.53-8.13,10.96-23.28,0-31.69-29.63-22.72-78.04-41.46-111.31-16.43-15.51,11.67-25.76,27.67-36.15,43.76q-1.2,1.86-2.46,3.67c-1.97,2.84,3.1-3.6.16-.23-2.55,2.93,3.67-2.17-1.23.9-1.93,1.21-1.9.97-5.05,1.78q-3.435.63-.82.25c-1.21.11-2.43.18-3.65.21a55.151,55.151,0,0,1-6.55-.23c-4.15-.32,3.85.73-1.07-.18-.76-.14-1.52-.31-2.27-.51C367.09,569.41,357.37,604.81,380.24,610.82Z" fill="#1c0e09"/>
      <path id="Path_4738" data-name="Path 4738" d="M385.11,593.13s22.39,6.08,37.05-5.55c9-7.14,26.53-53.75,60.11-55.15s68.86,25.86,68.86,25.86a135.282,135.282,0,0,0-28.41,25.87c-9.28,11.44-25.97,44.69-56.37,54.43-41.45,13.28-89.5-23.94-89.5-23.94l8.25-21.52Z" fill="#f0842a"/>
      <path id="Path_4739" data-name="Path 4739" d="M389.64,604.8s22.38,6.08,37.05-5.56c9-7.14,26.7-51.51,60.11-55.15,28.92-3.15,64.34,14.18,64.34,14.18s-35.28-27.26-68.86-25.86-51.11,48-60.11,55.15c-14.67,11.64-37.05,5.55-37.05,5.55l-8.25,21.52s2.6,2.01,7.11,4.94l5.67-14.78Z" fill="#fbb040"/>
      <path id="Path_4740" data-name="Path 4740" d="M518.54,571.27c-9.98,10.83-25.97,44.69-56.37,54.43-31.74,10.17-67.34-9.27-82.29-18.94l-3.02,7.88s48.04,37.22,89.5,23.94c30.39-9.74,47.09-42.99,56.37-54.43a135.282,135.282,0,0,1,28.41-25.87A39.658,39.658,0,0,0,518.54,571.27Z" fill="#f15a29"/>
      <path id="Path_4741" data-name="Path 4741" d="M551.14,558.28s-35.27-26.81-68.86-25.86c-12.91.37-23.85,8.13-29.15,14.02,0,0,4.79,3.34,16.76,4.53s16.04-1.22,16.04-1.22a34.3,34.3,0,0,1-3.38,14.83c-3.68,7.55-14.12,13.21-14.12,13.21s21.5,4.04,30.76-1.16,11.8-8.66,11.8-8.66-3.18,6.89-2.45,13.36c1.38,12.36,4.47,16.65,4.47,16.65,2.57-3.78,7.81-11.49,9.71-13.83a135.282,135.282,0,0,1,28.41-25.87Z" fill="#fff"/>
      <path id="Path_4742" data-name="Path 4742" d="M453.7,545.83c-.19.2-.38.41-.56.61,0,0,4.33,3.02,15.07,4.34a43.757,43.757,0,0,1,18.6-6.68c28.92-3.15,64.34,14.18,64.34,14.18s-35.27-26.81-68.86-25.86c-11.23.47-20.66,5.99-28.58,13.41Z" fill="#f1f2f2"/>
      <path id="Path_4743" data-name="Path 4743" d="M518.54,571.27c-2.71,2.94-5.86,7.57-9.62,12.96,1.44,9.75,3.9,13.47,4.09,13.73,3.82-5.52,6.96-10.35,9.53-13.57.07-.09.13-.17.2-.25a135.282,135.282,0,0,1,28.41-25.87,39.658,39.658,0,0,0-32.6,12.99Z" fill="#e6e7e8"/>
      <path id="Path_4744" data-name="Path 4744" d="M227.38,511.63s-65.71,78.03-37.19,94.85,71.03-55.78,71.03-55.78l-33.84-39.07Z" fill="#f0842a"/>
      <path id="Path_4745" data-name="Path 4745" d="M222.19,506.44a343.405,343.405,0,0,0-27.82,38.31c-9.67,15.41-25.2,40.31-16.24,59.08,4.17,8.73,14.21,13.17,23.57,12.39,11.42-.95,21.22-8.16,29.5-15.54,14.39-12.81,26.21-29.36,36.1-45.83.09-.15.18-.3.27-.46,1.76-3,1.03-6.38-1.15-8.89q-16.92-19.53-33.84-39.07c-6.21-7.17-16.54,3.26-10.38,10.38q16.92,19.53,33.84,39.07-.57-4.455-1.15-8.89a211.3,211.3,0,0,1-25.68,34.94c-6.37,7.01-13.9,14.6-22.85,18.22-5.78,2.33-13.54,1.85-15.41-3.58-2.19-6.38,1.26-15.12,3.78-21.41,3.74-9.35,9.19-18.15,14.61-26.6a309.53,309.53,0,0,1,23.24-31.74c6.05-7.2-4.28-17.64-10.38-10.38Z" fill="#1c0e09"/>
      <path id="Path_4746" data-name="Path 4746" d="M200.62,580.21c3.74-9.35,9.19-18.15,14.62-26.6s11.28-16.69,17.5-24.61c-1.73-2-3.45-3.99-5.18-5.98-6.5,8.2-12.58,16.76-18.22,25.55-5.42,8.45-10.87,17.25-14.61,26.6-2.52,6.3-5.97,15.03-3.78,21.41.88,2.57,3.09,4.02,5.78,4.6-1.89-6.34,1.44-14.81,3.9-20.97Z" fill="#fbb040"/>
      <path id="Path_4747" data-name="Path 4747" d="M390.42,511.63s65.7,78.03,37.19,94.85-68.4-56.09-68.4-56.09l31.22-38.76Z" fill="#f0842a"/>
      <path id="Path_4748" data-name="Path 4748" d="M385.23,516.82a321.158,321.158,0,0,1,22.47,30.55,191.4,191.4,0,0,1,15.09,27.1c2.78,6.26,5.78,14.82,4.3,21.26-1.22,5.34-7.65,6.78-13.41,5.09-8.91-2.61-16.34-10.71-22.37-17.34a192.987,192.987,0,0,1-25.78-36.8c-.38,2.96-.77,5.93-1.15,8.89Q380,536.19,395.6,516.81c5.88-7.3-4.44-17.75-10.38-10.38Q369.6,525.81,354,545.19c-2.14,2.66-2.87,5.75-1.15,8.89a207.288,207.288,0,0,0,31.1,43.02c13.54,14.21,39.15,29.87,54.47,8.93,11.98-16.37-4.36-43.5-12.76-57.62a327.029,327.029,0,0,0-29.91-41.8c-.05-.06-.1-.13-.16-.19-6.1-7.26-16.43,3.18-10.38,10.38Z" fill="#1c0e09"/>
      <path id="Path_4749" data-name="Path 4749" d="M422.72,574.48a191.4,191.4,0,0,0-15.09-27.1c-5.41-8.25-11.14-16.35-17.26-24.12l-4.95,6.15c4.37,5.86,8.55,11.87,12.55,17.97a191.4,191.4,0,0,1,15.09,27.1c2.78,6.26,5.78,14.82,4.3,21.26a6.9,6.9,0,0,1-4.29,4.91c.18.06.36.13.55.18,5.76,1.69,12.18.25,13.41-5.09,1.47-6.44-1.53-15-4.3-21.26Z" fill="#f15a29"/>
      <path id="Path_4750" data-name="Path 4750" d="M169.16,676.67c0,4.1,62.16,7.42,138.84,7.42s138.85-3.32,138.85-7.42-62.16-7.42-138.85-7.42S169.16,672.57,169.16,676.67Z" fill="#1c0e09" stroke="#1c0e09" stroke-miterlimit="10" stroke-width="1.47"/>
      <path id="Path_4751" data-name="Path 4751" d="M376.45,515.95s26.29,145.48,8.41,151.73-34.45-22.24-34.45-22.24-14.24,4.36-38.8,4.79a171.447,171.447,0,0,1-44.33-5.09s-18.31,31.68-38.08,25.15,11.64-154.71,11.64-154.71l135.62.36Z" fill="#f0842a"/>
      <path id="Path_4752" data-name="Path 4752" d="M369.37,517.9c5.41,29.96,9.83,60.21,12.63,90.52,1.47,15.88,3.79,34.74.39,49.7a24.381,24.381,0,0,1-.95,3.12c.4-1.09-.9.99-.15.18-.57.52-.39.39.54-.41,2.27-1.49-.52.1-1.54.2-2.81.26-5.37-.98-7.73-2.32-6.61-3.74-12.01-10.69-15.82-17.17a7.375,7.375,0,0,0-8.29-3.37c-24.65,7.38-54.58,6.48-79.23-.29a7.415,7.415,0,0,0-8.29,3.37,67.76,67.76,0,0,1-14.5,17.23c-3.66,3.14-8.82,5.9-13.78,4.97-2.18-.41-.49-.07.21.84-1.05-1.37-.89-1.53-.97-1.76-5.05-14.11-1.44-34.46.2-49.72,3.43-32.03,9.15-63.96,15.82-95.47q-3.54,2.7-7.08,5.39l135.62.36c9.47.03,9.46-14.65,0-14.68l-135.62-.36c-3.11,0-6.41,2.23-7.08,5.39-7.52,35.53-13.85,71.6-17.18,107.78a220.344,220.344,0,0,0-1.1,30.28c.3,6.62.87,14.53,4.72,20.2,6.44,9.48,19.9,7.17,28.71,2.72,10.03-5.07,17.9-15.06,23.85-24.34q.45-.7.87-1.41c-2.76,1.12-5.53,2.25-8.29,3.37,27.08,7.44,59.97,8.4,87.03.29-2.76-1.12-5.53-2.25-8.29-3.37a72.6,72.6,0,0,0,18.48,20.7c7.41,5.66,22.68,10,29.69,1.3,4.56-5.66,5.31-13.28,5.85-20.27.77-9.9.23-19.92-.41-29.81-2.33-35.85-7.79-71.72-14.16-107.07-1.68-9.31-15.82-5.35-14.15,3.9Z" fill="#1c0e09"/>
      <path id="Path_4753" data-name="Path 4753" d="M381.88,608.43c-2.63-28.51-6.71-56.95-11.69-85.15-41.18-.11-46.07-.1-7.34,0,4.97,28.21,9.05,56.64,11.69,85.15,1.47,15.88,3.79,34.74.39,49.7-.14.61-.32,1.22-.51,1.82a10.956,10.956,0,0,0,5.76,1.28,5.839,5.839,0,0,0,1.29-.39,25.559,25.559,0,0,0,.81-2.71c3.4-14.96,1.08-33.81-.39-49.7Z" fill="#f15a29"/>
      <path id="Path_4754" data-name="Path 4754" d="M241.26,613.02c3.23-30.19,8.51-60.3,14.69-90.04-3.06,0-6.11-.02-9.17-.02-6.18,29.75-11.47,59.87-14.7,90.07-1.63,15.25-5.25,35.6-.19,49.72a2.1,2.1,0,0,0,.33.84c.13.02.26.05.44.08a13.6,13.6,0,0,0,8.27-1.35c-4.83-14.1-1.28-34.18.33-49.28Z" fill="#fbb040"/>
      <path id="Path_4755" data-name="Path 4755" d="M350.83,533.2a76.474,76.474,0,0,1,1.55,15.41c0,32.4-11.2,58.66-44.38,58.66S263.62,581,263.62,548.61a76.543,76.543,0,0,1,1.56-15.41h85.64Z" fill="#35b32b"/>
      <path id="Path_4756" data-name="Path 4756" d="M336.67,537.1c2.41,12.82,1.12,29.54-3.58,39.94-4.98,11.03-12.36,15.33-25.09,15.55a29.477,29.477,0,0,1-14.93-3.38c-4.4-2.41-6.65-5.47-9.44-10.7-5.59-10.48-6.77-28.3-4.3-41.41q-7.08,5.385-14.15,10.78h85.64c18.93,0,18.93-29.36,0-29.36H265.18c-6.12,0-12.96,4.43-14.15,10.78-4.03,21.33-2.4,44.37,7.25,64.03,9.38,19.09,29.23,28.28,49.72,28.62,20.35.34,38.75-9.56,48.95-27.19,11.03-19.05,11.99-44.39,8.02-65.46-1.48-7.87-10.83-12.24-18.06-10.25-8.19,2.25-11.73,10.2-10.25,18.06Z" fill="#1c0e09"/>
      <path id="Path_4757" data-name="Path 4757" d="M350.83,533.2a76.474,76.474,0,0,1,1.55,15.41c0,32.4-11.2,58.66-44.38,58.66S263.62,581,263.62,548.61a76.543,76.543,0,0,1,1.56-15.41h85.64Z" fill="#fff1d2"/>
      <path id="Path_4758" data-name="Path 4758" d="M307.66,596.11c30.94,0,42.77-22.86,44.22-52.22.1,1.61.16,3.24.16,4.88,0,32.4-11.2,58.66-44.38,58.66s-44.38-26.27-44.38-58.66c0-1.65.06-3.27.16-4.88C264.89,573.26,276.71,596.11,307.66,596.11Z" fill="#feddaa"/>
      <path id="Path_4759" data-name="Path 4759" d="M546.08,395.62c2.04-1.34,4.29-2.92,6.81-4.84,17.26-13.16,28.7-31.5,28.7-31.5s-22.09,3.43-40.45-1.42c-.09-.02-.16-.05-.25-.07-3.31-18.22-8.7-43.01-17.43-74.47,8.76-9.44,40.1-48.63,30.82-117.57C543.52,85.87,507.43,50.54,507.43,50.54L457.5,80.49s-15.36,8.45-42.25,19.97c-13.72,5.88-19.83,14.16-22.53,20.86-41.88-12.76-59.93-15.64-84.79-15.64s-42.82,2.88-84.64,15.59c-2.71-6.69-8.83-14.94-22.51-20.81-26.89-11.52-42.25-19.97-42.25-19.97L108.6,50.54S72.5,85.87,61.75,165.75c-9.24,68.58,21.73,107.72,30.68,117.42-8.77,31.57-14.17,56.43-17.49,74.68a.077.077,0,0,0-.05.02c-18.36,4.86-40.45,1.42-40.45,1.42s11.44,18.34,28.7,31.5c2.45,1.86,4.64,3.41,6.63,4.73-.01.21-.02.36-.02.36L47.1,397.62s64.48,122.84,260.26,122.84S568.78,397.62,568.78,397.62l-22.66-1.74s0-.09-.01-.25Z" fill="#ffcf06"/>
      <path id="Path_4760" data-name="Path 4760" d="M555.34,411.46a145.324,145.324,0,0,0,42.09-42.92c3.46-5.5,3.23-13.01,0-18.52-4.53-7.73-12.44-9.68-20.72-8.43-1.43.22,6.12-.74,1.14-.2-3.19.35-6.4.52-9.6.65-7.76.3-15.24.15-22.48-1.95l12.82,12.82c-4.6-25.09-10.64-49.89-17.43-74.47q-2.355,8.925-4.72,17.85c36.85-40.02,42.48-96.85,33.52-148.33-4.94-28.37-14.47-56.39-28.67-81.49-5.73-10.14-12.55-20.69-20.89-28.91a18.516,18.516,0,0,0-22.24-2.87Q473.89,49.24,449.63,63.8c-7.23,4.34-15.04,7.83-22.66,11.42-18.98,8.93-41.12,15.85-50.1,36.83q10.365-4.215,20.72-8.43c-29.4-8.91-58.78-16.21-89.67-16.3-30.79-.08-60.24,7.39-89.52,16.25q10.365,4.215,20.72,8.43c-8.71-20.23-29.63-27.33-48.08-35.85-8.15-3.76-16.54-7.47-24.25-12.1q-24.465-14.685-48.94-29.36a18.518,18.518,0,0,0-22.24,2.87C87.56,45.5,81.08,55.59,75.4,65.29c-14.39,24.57-23.55,52.33-28.89,80.19-9.97,51.98-4.21,110.09,32.93,150.66q-2.355-8.925-4.72-17.85c-6.81,24.65-12.88,49.51-17.49,74.68l12.82-12.82c-6.65,1.92-13.18,2.01-20.29,1.94-3.45-.03-6.9-.27-10.34-.57-1.09-.1-2.18-.22-3.28-.35,6.19.73,4.5.62,3.16.42-6.7-1.01-12.81-.33-17.85,4.72-5.68,5.68-7.25,15.29-2.87,22.24a145.912,145.912,0,0,0,41.91,42.81L51.4,395.52c0,.12-.01.24-.02.36l18.35-18.35-22.65,1.74c-14.03,1.08-22.64,14.71-15.84,27.61,9.97,18.91,25.88,35.81,41.49,50.11,39.6,36.27,89.37,59.98,141.5,71.85,116.68,26.57,256.63,4.58,341.92-85.01,10.53-11.06,21.18-23.41,28.45-36.95,6.91-12.87-1.9-26.54-15.84-27.61l-22.66-1.74,18.35,18.35a2.173,2.173,0,0,0-.01-.25c-.46-9.99-7.99-18.35-18.35-18.35-9.65,0-18.81,8.35-18.35,18.35a2.173,2.173,0,0,0,.01.25c.49,10.59,8.01,17.55,18.35,18.35l22.66,1.74q-7.92-13.8-15.84-27.61a115.36,115.36,0,0,1-9.37,14.1l-1.2,1.59c-1.82,2.4,3.05-3.92,1.15-1.5-.93,1.19-1.88,2.36-2.84,3.53-2.34,2.85-4.77,5.63-7.25,8.37a243.6,243.6,0,0,1-18.38,18.12c-3.57,3.19-7.26,6.25-11,9.23-.73.59-4.2,3.24-.28.24-1.03.79-2.07,1.56-3.1,2.33-2.5,1.86-5.05,3.66-7.61,5.43a282.278,282.278,0,0,1-31.54,18.75c-5.78,2.97-11.69,5.7-17.65,8.28,3.63-1.57-1.56.63-1.88.76q-2.4.975-4.82,1.9c-3.86,1.5-7.75,2.88-11.66,4.23a341.8,341.8,0,0,1-46.6,12.19c-66.42,12.75-139.98,7.8-204.33-17.68-.31-.12-5.53-2.27-1.9-.74-1.54-.65-3.06-1.32-4.59-2-2.98-1.32-5.92-2.71-8.86-4.12-6.04-2.91-11.95-6.08-17.76-9.41a271.471,271.471,0,0,1-28.9-19.17c-3.54-2.68,3.15,2.47-.29-.24-.97-.77-1.93-1.55-2.9-2.33-1.86-1.51-3.7-3.06-5.52-4.63-3.68-3.16-7.24-6.44-10.72-9.81a230.246,230.246,0,0,1-16.09-17.26c-1.34-1.6-2.65-3.22-3.95-4.85-2.66-3.36,2.43,3.18.68.89-.54-.71-1.07-1.42-1.6-2.13q-2.76-3.735-5.31-7.61c-1.38-2.11-2.75-4.25-3.93-6.48Q55,402.14,47.08,415.95l22.65-1.74c10.48-.81,17.67-7.76,18.35-18.35.63-9.77-7.06-14.63-13.91-19.59-4.47-3.23-8.41-7.41-12.19-11.4-1.92-2.02-3.72-4.15-5.51-6.28-.78-.95-1.56-1.91-2.31-2.87,1.16,1.5,1.16,1.48,0-.08-1.35-1.83-2.67-3.69-3.88-5.62q-10.365,13.47-20.72,26.95c16.38,2.46,34.2,3.21,50.26-1.44,5.75-1.66,11.68-6.63,12.82-12.82,2.98-16.3,6.6-32.48,10.59-48.56q1.9-7.65,3.94-15.25c1.75-6.6,4.85-13.74,2.96-20.62-1.1-4.01-3.65-6.84-6.28-9.85-1.05-1.2-5.07-6.39-1.12-1.22a120.526,120.526,0,0,1-7.35-10.97c-1.39-2.32-2.67-4.7-3.91-7.09-.67-1.3-1.3-2.63-1.93-3.95-.43-.92-.86-1.85-1.27-2.78q.81,1.98,0-.01a132.868,132.868,0,0,1-9.71-44.45c-1.01-20,2.19-39.83,6.95-59.2a254.216,254.216,0,0,1,7.45-24.6c1.27-3.58,2.67-7.1,4.11-10.61-1.36,3.31.88-1.9.96-2.08.9-2.01,1.86-3.99,2.83-5.97A171.835,171.835,0,0,1,116.9,68.86c2.74-3.72-2.85,3.51.44-.54.71-.87,1.44-1.73,2.17-2.57.67-.76,1.35-1.53,2.07-2.24q-11.115,1.44-22.24,2.87,23.745,14.25,47.5,28.5c5.86,3.51,12.04,6.45,18.19,9.42,9.51,4.59,19.21,8.71,28.82,13.07a28.624,28.624,0,0,1,9.94,6.81c3.75,3.8-1.56-2.62,1.12,1.43a30.978,30.978,0,0,1,2.53,4.93c3.14,7.3,13.6,10.59,20.72,8.43,15.76-4.77,31.62-9.35,47.82-12.41,2.77-.52,5.55-.95,8.33-1.36-4.36.63.88-.06,1.49-.13,1.56-.17,3.12-.3,4.68-.43,5.8-.48,11.63-.6,17.45-.62s11.65.19,17.46.62c2.62.19,5.24.48,7.85.79-4.43-.52,1.05.17,1.61.26,1.7.26,3.38.57,5.07.87,16.24,2.93,32.15,7.67,47.92,12.45,7.11,2.16,17.6-1.13,20.72-8.43.54-1.26,1.12-2.46,1.77-3.67.28-.51,3.1-4.35.73-1.41,3.13-3.86,4.32-4.43,8.92-7.02,9.26-5.2,19.66-8.78,29.27-13.34,6.54-3.11,13.17-6.2,19.39-9.93Q492.67,80.8,516.69,66.39q-11.115-1.44-22.24-2.87c.62.61,1.2,1.26,1.78,1.91.7.79,1.38,1.59,2.06,2.41.43.52.85,1.05,1.28,1.57,1.76,2.2-3.19-4.23-.43-.53a172.616,172.616,0,0,1,16.04,26.64c1.5,3.01,2.88,6.07,4.24,9.14-1.48-3.36.9,2.22.94,2.32.71,1.77,1.38,3.56,2.05,5.35a254.479,254.479,0,0,1,8.12,26.44c4.91,19.32,7.66,39.02,6.95,58.97a132.468,132.468,0,0,1-9.54,44.23c-1.93,4.96,1.48-3.29-.6,1.41-.6,1.36-1.25,2.7-1.9,4.04-1.2,2.47-2.52,4.89-3.87,7.28a116.209,116.209,0,0,1-7.98,12.16c-2.11,2.84,2.81-3.57.74-.97-.47.59-.96,1.17-1.44,1.75-.77.92-1.58,1.82-2.39,2.71-10.4,11.3-1.73,28.57,1.54,41.44,4.27,16.83,8.05,33.8,11.18,50.89,1.14,6.19,7.07,11.14,12.82,12.82,16.13,4.69,34,3.97,50.46,1.5q-10.365-13.485-20.72-26.95c-.76,1.2-1.57,2.37-2.38,3.53-.77,1.11-1.58,2.19-2.38,3.27,2.31-3.11-2.28,2.76-2.72,3.28a103.018,103.018,0,0,1-21.45,19.67c-8.29,5.55-11.87,16.08-6.58,25.1,4.82,8.23,16.78,12.16,25.1,6.58Z" fill="#1c0e09"/>
      <path id="Path_4761" data-name="Path 4761" d="M546.08,395.62c2.04-1.34,4.29-2.92,6.81-4.84,17.26-13.16,28.7-31.5,28.7-31.5s-22.09,3.43-40.45-1.42c-.09-.02-.16-.05-.25-.07-3.31-18.22-8.7-43.01-17.43-74.47,8.76-9.44,40.1-48.63,30.82-117.57C543.52,85.87,507.43,50.54,507.43,50.54L457.5,80.49s-15.36,8.45-42.25,19.97c-13.72,5.88-19.83,14.16-22.53,20.86-41.88-12.76-59.93-15.64-84.79-15.64s-42.82,2.88-84.64,15.59c-2.71-6.69-8.83-14.94-22.51-20.81-26.89-11.52-42.25-19.97-42.25-19.97L108.6,50.54S72.5,85.87,61.75,165.75c-9.24,68.58,21.73,107.72,30.68,117.42-8.77,31.57-14.17,56.43-17.49,74.68a.077.077,0,0,0-.05.02c-18.36,4.86-40.45,1.42-40.45,1.42s11.44,18.34,28.7,31.5c2.45,1.86,4.64,3.41,6.63,4.73-.01.21-.02.36-.02.36L47.1,397.62s64.48,122.84,260.26,122.84S568.78,397.62,568.78,397.62l-22.66-1.74s0-.09-.01-.25Z" fill="#f0842a"/>
      <path id="Path_4762" data-name="Path 4762" d="M74.92,357.75a.169.169,0,0,0-.05.02,68.931,68.931,0,0,1-7.82,1.57c7.72.21,17.5-.19,26.41-2.55a.077.077,0,0,0,.05-.02c3.31-18.25,8.72-43.11,17.49-74.68-8.94-9.7-39.91-48.84-30.68-117.42,7.83-58.14,28.26-114.23,28.26-114.23S72.48,85.77,61.73,165.65c-9.24,68.58,21.73,107.72,30.68,117.42C83.64,314.64,78.24,339.5,74.92,357.75Z" fill="#fbb040"/>
      <path id="Path_4763" data-name="Path 4763" d="M541.01,357.75a.169.169,0,0,1,.05.02,68.93,68.93,0,0,0,7.82,1.57c-7.72.21-17.5-.19-26.41-2.55a.076.076,0,0,1-.05-.02c-3.31-18.25-8.72-43.11-17.49-74.68,8.94-9.7,39.91-48.84,30.68-117.42-7.83-58.14-28.26-114.23-28.26-114.23s36.1,35.33,46.85,115.21c9.24,68.58-21.73,107.72-30.68,117.42C532.29,314.64,537.69,339.5,541.01,357.75Z" fill="#fbb040"/>
      <path id="Path_4764" data-name="Path 4764" d="M110.11,50.76s1.92,31.08,17.33,59.7,44.33,49.7,44.33,49.7l16.22-24.01,23.88-30.6s-39.16-16.79-51.9-24.53S110.1,50.75,110.1,50.75Z" fill="#f15a29"/>
      <path id="Path_4765" data-name="Path 4765" d="M506.55,50.76s-1.91,31.08-17.33,59.7-44.34,49.7-44.34,49.7l-16.22-24.01-23.89-30.6s39.17-16.79,51.9-24.53,49.87-30.27,49.87-30.27Z" fill="#f15a29"/>
      <path id="Path_4766" data-name="Path 4766" d="M223.3,121.26s-14.33,6.44-22.74,12.49-28.79,26.42-28.79,26.42,4.47-20.24,16.04-34.96,22.61-19.19,22.61-19.19l14.98,3.94-2.1,11.3Z" fill="#1e0f08"/>
      <path id="Path_4767" data-name="Path 4767" d="M392.5,121.26s14.32,6.44,22.74,12.49,28.78,26.42,28.78,26.42-4.47-20.24-16.03-34.96-22.61-19.19-22.61-19.19l-14.99,3.94,2.1,11.3Z" fill="#1e0f08"/>
      <path id="Path_4768" data-name="Path 4768" d="M568.82,397.84c-6.81,5.29-53.94,39.81-114.23,32.66-64.7-7.68-63.57-85.91-146.58-85.91s-81.9,78.23-146.6,85.91c-61.33,7.28-109.04-28.57-114.55-32.9,2.16,4.02,67.8,122.86,260.47,122.86s257.45-115.4,261.49-122.61Z" fill="#fff"/>
      <path id="Path_4769" data-name="Path 4769" d="M306.9,285.35c84.29,0,157.64,9.55,195.34,78.68.7-1.35,2.03,18.69,2.03,18.69,0,75.42-42.26,145.34-199.77,144.69-155.88-.64-192.78-69.27-192.78-144.69V363.86c37.75-67.28,110.99-78.5,195.18-78.5Z" fill="#ffd7c3"/>
      <path id="Path_4770" data-name="Path 4770" d="M306.9,294.52c37.21.04,75.11,1.35,110.9,12.51,33.01,10.3,59.73,31.33,76.52,61.63,2.53,4.56,8.17,5.51,12.55,3.29a.928.928,0,0,0,.1-.05q-6.27-1.65-12.55-3.29c-1.49-2.85-.5-.27-.26,2.21.26,2.65.46,5.31.66,7.96a108.625,108.625,0,0,1,.08,12.76,147.611,147.611,0,0,1-4.24,29.49,110.219,110.219,0,0,1-29.28,51.96c-18.14,18-42.2,28.57-66.54,35.22-36.6,9.99-75.52,11.24-113.21,9.41-52.21-2.54-114.37-14.99-143.64-63.27-10.29-16.98-15.08-36.75-16.57-56.4-.73-9.57-.53-19.19-.53-28.78v-5.18c0,5.12.59,1.3,1.89-.84,1.05-1.73,2.17-3.41,3.29-5.09a122.362,122.362,0,0,1,15.85-18.89c42.3-41.88,109.14-44.58,164.97-44.64,11.83-.01,11.83-18.36,0-18.35-65.19.08-139.86,5.76-185.73,58.32a153.178,153.178,0,0,0-14.22,19.39c-3.71,5.92-4.39,9.97-4.39,16.6,0,9.58-.1,19.15.63,28.71,1.62,21.36,6.81,42.33,17.13,61.2,26.85,49.08,83.65,67.18,135.79,73.45a424.406,424.406,0,0,0,118.63-2.56c28.34-4.66,56.75-13.74,80.69-29.93a128.915,128.915,0,0,0,50.16-66.03c4.37-12.88,6.5-26.5,7.45-40.04a115.305,115.305,0,0,0,.13-16.52c-.45-6.08,0-13.92-2.9-19.43-2.42-4.62-8.26-5.46-12.55-3.29a.467.467,0,0,1-.1.05q6.27,1.65,12.55,3.29c-18.57-33.5-47.92-56.45-83.89-68.88-37.95-13.11-79.63-14.3-119.38-14.34-11.83-.01-11.83,18.34,0,18.35Z" fill="#1c0e09"/>
      <path id="Path_4771" data-name="Path 4771" d="M120.82,383.07c0,5.13.59,1.3,1.89-.84,1.05-1.73,2.17-3.41,3.29-5.09a121.8,121.8,0,0,1,15.85-18.89c42.3-41.88,109.13-44.58,164.97-44.64,37.22.04,75.11,1.35,110.9,12.51,32.57,10.16,58.99,30.78,75.82,60.43,0,.39.4,1.89.54,3.35.19,1.98.34,3.96.49,5.94.1-1.43.19-2.86.25-4.3a108.638,108.638,0,0,0-.08-12.76c-.2-2.65-.4-5.31-.66-7.96-.14-1.47-.54-2.97-.54-3.35-16.83-29.65-43.25-50.27-75.82-60.43-35.79-11.16-73.68-12.47-110.9-12.51-55.83.07-122.67,2.77-164.97,44.64A121.248,121.248,0,0,0,126,358.06c-1.12,1.68-2.24,3.37-3.29,5.09-1.3,2.14-1.89,5.96-1.89.84v5.18c0,4.9-.05,9.81,0,14.72v-.82Z" fill="#ffad8d"/>
      <path id="Path_4772" data-name="Path 4772" d="M509.11,357.85a8.294,8.294,0,0,1,1.01,1.49c2.16,4.12,2.46,9.54,2.66,14.55.03-.45.08-.9.11-1.35a115.305,115.305,0,0,0,.13-16.52c-.45-6.08,0-13.92-2.9-19.43a7.953,7.953,0,0,0-1.01-1.49c-18.61-32.65-47.57-55.1-82.98-67.33-37.95-13.11-79.63-14.3-119.38-14.34-65.19.08-139.86,5.76-185.73,58.32a153.616,153.616,0,0,0-14.23,19.4c-3.71,5.92-4.39,9.97-4.39,16.6,0,6.16-.02,12.32.15,18.48a25,25,0,0,1,4.24-12.33,151.678,151.678,0,0,1,14.23-19.4c45.87-52.56,120.54-58.24,185.73-58.32,39.75.04,81.43,1.23,119.38,14.34,35.41,12.23,64.38,34.69,82.98,67.33Z" fill="#f15a29"/>
      <path id="Path_4773" data-name="Path 4773" d="M405,158.91c-4.27,8.62-21.96,8.55-39.51-.15s-28.31-22.73-24.05-31.34,21.96-8.55,39.51.15,28.31,22.73,24.04,31.34Z" fill="#fff"/>
      <path id="Path_4774" data-name="Path 4774" d="M426.15,170.19a9.3,9.3,0,0,1-12.84,2.76c-4.51-2.74-6.09-8.4-3.51-12.65a9.572,9.572,0,0,1,16.35,9.89Z" fill="#fff"/>
      <path id="Path_4775" data-name="Path 4775" d="M420.53,443.74c-1.05,4.77,6.97,10.59,17.91,13s20.66.49,21.71-4.27-6.97-10.59-17.91-13-20.66-.5-21.72,4.28Z" fill="#f38b9e"/>
      <path id="Path_4776" data-name="Path 4776" d="M243.55,389.79a37.7,37.7,0,1,1-37.7-37.7A37.71,37.71,0,0,1,243.55,389.79Z" fill="#1e0f08" fill-rule="evenodd"/>
      <path id="Path_4777" data-name="Path 4777" d="M241.72,389.79a36.389,36.389,0,0,1-35.87,35.87c-19.93.52-35.37-16.72-35.87-35.87-.52-19.93,16.72-35.37,35.87-35.87,19.93-.52,35.37,16.72,35.87,35.87.06,2.36,3.73,2.37,3.67,0a40.147,40.147,0,0,0-39.54-39.54c-21.95-.57-38.99,18.44-39.54,39.54-.57,21.95,18.44,38.99,39.54,39.54,21.95.57,38.99-18.45,39.54-39.54.06-2.37-3.61-2.36-3.67,0Z" fill="#1c0e09"/>
      <path id="Path_4778" data-name="Path 4778" d="M230.18,403.63a6.11,6.11,0,1,1-6.11-6.11A6.116,6.116,0,0,1,230.18,403.63Z" fill="#fff" fill-rule="evenodd"/>
      <path id="Path_4779" data-name="Path 4779" d="M209.48,384.75a15.77,15.77,0,1,1-15.77-15.77A15.769,15.769,0,0,1,209.48,384.75Z" fill="#fff" fill-rule="evenodd"/>
      <path id="Path_4780" data-name="Path 4780" d="M193.39,443.74c1.05,4.77-6.97,10.59-17.91,13s-20.67.49-21.72-4.27,6.97-10.59,17.91-13,20.66-.5,21.71,4.28Z" fill="#f38b9e"/>
      <path id="Path_4781" data-name="Path 4781" d="M445.77,389.79a37.705,37.705,0,1,1-37.7-37.7A37.71,37.71,0,0,1,445.77,389.79Z" fill="#1e0f08" fill-rule="evenodd"/>
      <path id="Path_4782" data-name="Path 4782" d="M443.94,389.79a36.389,36.389,0,0,1-35.87,35.87c-19.93.52-35.37-16.72-35.87-35.87-.52-19.93,16.72-35.37,35.87-35.87,19.93-.52,35.37,16.72,35.87,35.87.06,2.36,3.73,2.37,3.67,0a40.141,40.141,0,0,0-39.54-39.54c-21.95-.57-38.99,18.44-39.54,39.54-.57,21.95,18.45,38.99,39.54,39.54,21.95.57,38.99-18.45,39.54-39.54C447.67,387.42,444,387.43,443.94,389.79Z" fill="#1c0e09"/>
      <path id="Path_4783" data-name="Path 4783" d="M432.4,403.63a6.115,6.115,0,1,1-6.11-6.11A6.116,6.116,0,0,1,432.4,403.63Z" fill="#fff" fill-rule="evenodd"/>
      <path id="Path_4784" data-name="Path 4784" d="M411.7,384.75a15.77,15.77,0,1,1-15.77-15.77A15.769,15.769,0,0,1,411.7,384.75Z" fill="#fff" fill-rule="evenodd"/>
      <path id="Path_4785" data-name="Path 4785" d="M331.99,465.44c-.03.52.4-1.92-.12.5a12.83,12.83,0,0,1-1.91,4.82c-3.72,6.5-11.9,8.23-18.78,8.6-8.57.47-17.68-1.21-23.61-7.79a16.038,16.038,0,0,1-2.47-4.41c-.36-1.02-.93-5.01-.48-1.1-1.08-9.29-15.78-9.39-14.68,0,4.38,37.48,74.59,38.21,76.72-.61.52-9.46-14.16-9.41-14.68,0h0Z" fill="#1c0e09"/>
    </g>
  </g>
</svg>
