<svg xmlns="http://www.w3.org/2000/svg" xmlns:xlink="http://www.w3.org/1999/xlink" width="616" height="688" viewBox="0 0 616 688">
  <defs>
    <clipPath id="clip-signin_Dora">
      <rect width="616" height="688"/>
    </clipPath>
  </defs>
  <g id="signin_Dora" clip-path="url(#clip-signin_Dora)">
    <g id="signin_Dora-2" data-name="signin_Dora" transform="translate(-16.061 -32.069)">
      <path id="Path_5069" data-name="Path 5069" d="M385.563,596.46s23.617,6.413,39.081-5.854c9.493-7.531,27.984-56.7,63.4-58.173s72.634,27.277,72.634,27.277A142.7,142.7,0,0,0,530.715,587c-9.789,12.067-27.393,47.139-59.459,57.413-43.722,14.008-94.405-25.252-94.405-25.252l8.7-22.7Z" transform="translate(19.773 27.412)" fill="#ffcf06"/>
      <path id="Path_5070" data-name="Path 5070" d="M381.445,616.121c19.493,5.116,43.88,2.732,58.911-11.74,5.126-4.936,8.871-11.782,12.668-17.752,2.236-3.523,4.515-7.014,6.877-10.464,1.276-1.857,2.605-3.671,3.945-5.474-2.247,3.027,2.806-3.259,3.565-4.114,1.54-1.74,3.185-3.386,4.863-5,.538-.517,5.96-4.968,2.711-2.532a53.976,53.976,0,0,1,5.77-3.681c.992-.549,2.015-1.055,3.038-1.529q-3.022,1.266.148.095c.875-.3,7.7-1.508,3.354-1.034a56.15,56.15,0,0,1,8.734-.032c3.924.179,10.063,1.656,15.305,3.2,13.755,4.04,28.068,11.729,40.621,21.36V543.993a151.281,151.281,0,0,0-41.823,41c-2.363,3.418-4.673,6.867-7.057,10.263a84.469,84.469,0,0,1-6.993,9.166c-7.352,8.818-13.132,14.145-21.961,19.219-8.059,4.641-16.371,5.823-27.161,5.253-4.377-.232-7.384-.918-13.417-2.479a125.64,125.64,0,0,1-15.274-5.169c3.006,1.2-3.407-1.593-4.008-1.878-2.11-1-4.188-2.078-6.255-3.164-3.544-1.867-6.993-3.9-10.4-6a115.19,115.19,0,0,1-9.936-6.761q4.446,10.933,8.892,21.856,4.351-11.344,8.7-22.7c3.787-9.862-4.093-21.212-13.523-23.807-10.928-3.006-20.031,3.681-23.807,13.523q-4.351,11.344-8.7,22.7c-3.344,8.734,2.447,16.887,8.892,21.856,30.326,23.332,76,39.914,113.328,25.758,24.355-9.23,41.4-28.427,56.01-49.217,2.321-3.3,4.567-6.666,6.856-10,.928-1.35,1.878-2.669,2.848-3.987q-3.5,4.462.053.095c1.73-2.089,3.6-4.05,5.464-6.012a143.484,143.484,0,0,1,15.01-13.512c-3.1,2.468,2.553-1.783,3.787-2.574,13.217-8.576,11.561-24.556,0-33.427-31.254-23.965-82.317-43.732-117.41-17.33-16.36,12.31-27.172,29.186-38.131,46.158q-1.266,1.962-2.595,3.871c-2.078,3,3.27-3.8.169-.243-2.69,3.091,3.871-2.289-1.3.949-2.036,1.276-2,1.023-5.327,1.878q-3.623.665-.865.264c-1.276.116-2.563.19-3.85.222a58.18,58.18,0,0,1-6.909-.243c-4.377-.338,4.061.77-1.129-.19-.8-.148-1.6-.327-2.394-.538C367.574,572.442,357.322,609.782,381.445,616.121Z" transform="translate(18.754 26.41)" fill="#1c0e09"/>
      <path id="Path_5071" data-name="Path 5071" d="M385.563,596.46s23.617,6.413,39.081-5.854c9.493-7.531,27.984-56.7,63.4-58.173s72.634,27.277,72.634,27.277A142.7,142.7,0,0,0,530.715,587c-9.789,12.067-27.393,47.139-59.459,57.413-43.722,14.008-94.405-25.252-94.405-25.252l8.7-22.7Z" transform="translate(19.773 27.412)" fill="#f0842a"/>
      <path id="Path_5072" data-name="Path 5072" d="M390.34,608.77s23.607,6.413,39.081-5.865c9.493-7.531,28.163-54.333,63.4-58.173,30.5-3.323,67.866,14.957,67.866,14.957s-37.214-28.754-72.634-27.277-53.911,50.631-63.4,58.173c-15.474,12.278-39.081,5.854-39.081,5.854l-8.7,22.7s2.743,2.12,7.5,5.211l5.981-15.59Z" transform="translate(19.775 27.411)" fill="#fbb040"/>
      <path id="Path_5073" data-name="Path 5073" d="M526.3,571.991c-10.527,11.424-27.393,47.139-59.459,57.413-33.48,10.727-71.031-9.778-86.8-19.978l-3.186,8.312S427.533,657,471.265,642.99c32.056-10.274,49.671-45.346,59.459-57.413a142.7,142.7,0,0,1,29.967-27.288A41.832,41.832,0,0,0,526.3,571.991Z" transform="translate(19.774 28.823)" fill="#f15a29"/>
      <path id="Path_5074" data-name="Path 5074" d="M556.511,559.7s-37.2-28.279-72.634-27.277c-13.618.39-25.157,8.576-30.748,14.788,0,0,5.053,3.523,17.679,4.778s16.919-1.287,16.919-1.287a36.18,36.18,0,0,1-3.565,15.643c-3.882,7.964-14.894,13.934-14.894,13.934s22.678,4.261,32.446-1.224,12.447-9.135,12.447-9.135-3.354,7.268-2.584,14.092c1.456,13.037,4.715,17.563,4.715,17.563,2.711-3.987,8.238-12.12,10.242-14.588A142.694,142.694,0,0,1,556.5,559.7Z" transform="translate(23.954 27.413)" fill="#fff"/>
      <path id="Path_5075" data-name="Path 5075" d="M453.731,546.566c-.2.211-.4.432-.591.643,0,0,4.567,3.186,15.9,4.578a46.155,46.155,0,0,1,19.619-7.046c30.5-3.323,67.866,14.957,67.866,14.957s-37.2-28.279-72.634-27.277c-11.845.5-21.792,6.318-30.146,14.145Z" transform="translate(23.955 27.413)" fill="#f1f2f2"/>
      <path id="Path_5076" data-name="Path 5076" d="M519.067,571.991c-2.859,3.1-6.181,7.985-10.147,13.67,1.519,10.284,4.114,14.208,4.314,14.482,4.029-5.823,7.341-10.917,10.052-14.314.074-.095.137-.179.211-.264a142.694,142.694,0,0,1,29.967-27.288,41.832,41.832,0,0,0-34.387,13.7Z" transform="translate(27.012 28.822)" fill="#e6e7e8"/>
      <path id="Path_5077" data-name="Path 5077" d="M229.811,511.63S160.5,593.937,190.583,611.678s74.923-58.837,74.923-58.837L229.811,511.63Z" transform="translate(9.15 26.275)" fill="#f0842a"/>
      <path id="Path_5078" data-name="Path 5078" d="M224.752,506.575a362.229,362.229,0,0,0-29.345,40.41c-10.2,16.255-26.581,42.519-17.13,62.318,4.4,9.208,14.989,13.892,24.862,13.069,12.046-1,22.383-8.607,31.117-16.392,15.179-13.512,27.646-30.969,38.079-48.342.095-.158.19-.316.285-.485,1.856-3.164,1.086-6.73-1.213-9.377q-17.847-20.6-35.695-41.211c-6.55-7.563-17.447,3.439-10.949,10.949q17.847,20.6,35.695,41.211-.6-4.7-1.213-9.377A222.882,222.882,0,0,1,232.157,586.2c-6.719,7.394-14.662,15.4-24.1,19.219-6.1,2.458-14.282,1.951-16.255-3.776-2.31-6.73,1.329-15.949,3.987-22.583,3.945-9.862,9.694-19.145,15.411-28.058a326.488,326.488,0,0,1,24.514-33.48c6.382-7.595-4.515-18.607-10.949-10.949Z" transform="translate(8.735 25.856)" fill="#1c0e09"/>
      <path id="Path_5079" data-name="Path 5079" d="M201.188,583.344c3.945-9.862,9.694-19.145,15.421-28.058s11.9-17.6,18.459-25.959c-1.825-2.11-3.639-4.209-5.464-6.308-6.856,8.649-13.269,17.679-19.219,26.95-5.717,8.913-11.466,18.2-15.411,28.058-2.658,6.645-6.3,15.854-3.987,22.583.928,2.711,3.259,4.24,6.1,4.852-1.994-6.687,1.519-15.622,4.114-22.119Z" transform="translate(9.547 26.9)" fill="#fbb040"/>
      <path id="Path_5080" data-name="Path 5080" d="M392.13,511.63s69.3,82.307,39.228,100.048-72.149-59.164-72.149-59.164l32.931-40.884Z" transform="translate(18.807 26.275)" fill="#f0842a"/>
      <path id="Path_5081" data-name="Path 5081" d="M387.057,517.527a338.761,338.761,0,0,1,23.7,32.224,201.883,201.883,0,0,1,15.917,28.585c2.932,6.6,6.1,15.632,4.536,22.425-1.287,5.633-8.069,7.152-14.145,5.369-9.4-2.753-17.236-11.3-23.6-18.29a203.566,203.566,0,0,1-27.193-38.817c-.4,3.122-.812,6.255-1.213,9.377Q381.535,537.959,398,517.517c6.2-7.7-4.683-18.723-10.949-10.949q-16.471,20.442-32.931,40.884c-2.257,2.806-3.027,6.065-1.213,9.377a218.648,218.648,0,0,0,32.8,45.378c14.282,14.989,41.3,31.507,57.455,9.419,12.637-17.267-4.6-45.884-13.459-60.778a344.949,344.949,0,0,0-31.549-44.091c-.053-.063-.105-.137-.169-.2-6.434-7.658-17.33,3.354-10.949,10.949Z" transform="translate(18.406 25.852)" fill="#1c0e09"/>
      <path id="Path_5082" data-name="Path 5082" d="M424.764,577.287A201.889,201.889,0,0,0,408.847,548.7c-5.707-8.7-11.751-17.246-18.206-25.442l-5.221,6.487c4.609,6.181,9.019,12.521,13.238,18.955a201.883,201.883,0,0,1,15.917,28.585c2.932,6.6,6.1,15.632,4.536,22.425a7.277,7.277,0,0,1-4.525,5.179c.19.063.38.137.58.19,6.076,1.783,12.848.264,14.145-5.369,1.551-6.793-1.614-15.822-4.536-22.425Z" transform="translate(20.243 26.913)" fill="#f15a29"/>
      <path id="Path_5083" data-name="Path 5083" d="M169.16,677.077c0,4.325,65.567,7.827,146.449,7.827s146.46-3.5,146.46-7.827-65.567-7.827-146.46-7.827S169.16,672.752,169.16,677.077Z" transform="translate(8.391 34.914)" fill="#1c0e09"/>
      <path id="Path_5084" data-name="Path 5084" d="M384.878,515.97s27.731,153.453,8.871,160.046-36.338-23.459-36.338-23.459-15.02,4.6-40.926,5.052a180.841,180.841,0,0,1-46.76-5.369s-19.314,33.416-40.167,26.528S241.836,515.58,241.836,515.58l143.053.38Z" transform="translate(11.324 26.492)" fill="#f0842a"/>
      <path id="Path_5085" data-name="Path 5085" d="M377.813,518.43c5.707,31.6,10.369,63.51,13.322,95.481,1.551,16.75,4,36.644.411,52.424a25.72,25.72,0,0,1-1,3.291c.422-1.15-.949,1.044-.158.19-.6.549-.411.411.57-.432,2.394-1.572-.548.105-1.624.211-2.964.274-5.664-1.034-8.154-2.447-6.972-3.945-12.668-11.276-16.687-18.111a7.779,7.779,0,0,0-8.744-3.555c-26,7.784-57.571,6.835-83.572-.306a7.822,7.822,0,0,0-8.744,3.555A71.474,71.474,0,0,1,248.135,666.9c-3.861,3.312-9.3,6.223-14.535,5.242-2.3-.432-.517-.074.222.886-1.108-1.445-.939-1.614-1.023-1.856-5.327-14.883-1.519-36.349.211-52.445,3.618-33.785,9.651-67.465,16.687-100.7q-3.734,2.848-7.468,5.685l143.053.38c9.989.032,9.978-15.453,0-15.485l-143.053-.38c-3.28,0-6.761,2.352-7.468,5.685-7.932,37.477-14.609,75.524-18.122,113.687a232.419,232.419,0,0,0-1.16,31.94c.316,6.983.918,15.326,4.979,21.307,6.793,10,20.991,7.563,30.283,2.869,10.58-5.348,18.881-15.885,25.157-25.674q.475-.744.918-1.487c-2.911,1.181-5.833,2.373-8.744,3.555,28.564,7.848,63.257,8.86,91.8.306-2.911-1.181-5.833-2.373-8.744-3.555A76.574,76.574,0,0,0,370.619,678.7c7.816,5.97,23.923,10.548,31.317,1.371,4.81-5.97,5.6-14.008,6.171-21.381.812-10.443.243-21.012-.432-31.444-2.458-37.815-8.217-75.651-14.936-112.938-1.772-9.82-16.687-5.643-14.926,4.114Z" transform="translate(10.92 26.089)" fill="#1c0e09"/>
      <path id="Path_5086" data-name="Path 5086" d="M384.374,613.1c-2.774-30.073-7.078-60.071-12.331-89.817-43.437-.116-48.595-.105-7.742,0,5.242,29.756,9.546,59.744,12.331,89.817,1.551,16.75,4,36.644.411,52.424-.148.643-.338,1.287-.538,1.92a11.557,11.557,0,0,0,6.076,1.35,6.161,6.161,0,0,0,1.361-.411,26.962,26.962,0,0,0,.854-2.859c3.586-15.78,1.139-35.663-.411-52.424Z" transform="translate(17.555 26.909)" fill="#f15a29"/>
      <path id="Path_5087" data-name="Path 5087" d="M241.916,617.956c3.407-31.845,8.976-63.6,15.5-94.975-3.228,0-6.445-.021-9.673-.021-6.519,31.38-12.1,63.151-15.506,95.006-1.719,16.086-5.538,37.551-.2,52.445a2.219,2.219,0,0,0,.348.886c.137.021.274.053.464.084a14.34,14.34,0,0,0,8.723-1.424c-5.095-14.873-1.35-36.053.348-51.981Z" transform="translate(11.687 26.896)" fill="#fbb040"/>
      <path id="Path_5088" data-name="Path 5088" d="M355.61,533.2a80.668,80.668,0,0,1,1.635,16.255c0,34.176-11.814,61.875-46.812,61.875s-46.812-27.71-46.812-61.875a80.738,80.738,0,0,1,1.645-16.255H355.6Z" transform="translate(13.568 27.458)" fill="#35b32b"/>
      <path id="Path_5089" data-name="Path 5089" d="M341.476,538.118c2.542,13.523,1.181,31.159-3.776,42.129-5.253,11.635-13.037,16.17-26.465,16.4a31.092,31.092,0,0,1-15.748-3.565c-4.641-2.542-7.014-5.77-9.957-11.286-5.9-11.054-7.141-29.851-4.536-43.68q-7.468,5.68-14.926,11.371H356.4c19.967,0,19.967-30.969,0-30.969H266.068c-6.455,0-13.67,4.673-14.925,11.371-4.251,22.5-2.532,46.8,7.647,67.539,9.894,20.136,30.832,29.83,52.445,30.189,21.465.359,40.874-10.084,51.633-28.68,11.634-20.094,12.647-46.823,8.46-69.048-1.561-8.3-11.424-12.911-19.05-10.812-8.639,2.373-12.373,10.759-10.812,19.05Z" transform="translate(12.765 26.653)" fill="#1c0e09"/>
      <path id="Path_5090" data-name="Path 5090" d="M355.61,533.2a80.668,80.668,0,0,1,1.635,16.255c0,34.176-11.814,61.875-46.812,61.875s-46.812-27.71-46.812-61.875a80.738,80.738,0,0,1,1.645-16.255H355.6Z" transform="translate(13.568 27.458)" fill="#fff1d2"/>
      <path id="Path_5091" data-name="Path 5091" d="M310.092,598.972c32.636,0,45.114-24.113,46.644-55.082.105,1.7.169,3.418.169,5.147,0,34.176-11.814,61.875-46.812,61.875S263.28,583.2,263.28,549.037c0-1.74.063-3.449.169-5.147C264.978,574.87,277.446,598.972,310.092,598.972Z" transform="translate(13.549 28.043)" fill="#feddaa"/>
      <path id="Path_5092" data-name="Path 5092" d="M574.121,414.532c2.152-1.413,4.525-3.08,7.183-5.105,18.206-13.881,30.273-33.226,30.273-33.226s-23.3,3.618-42.667-1.5c-.095-.021-.169-.053-.264-.074-3.491-19.219-9.177-45.367-18.385-78.551,9.24-9.957,42.3-51.3,32.509-124.014C571.421,87.806,533.353,50.54,533.353,50.54L480.686,82.131s-16.2,8.913-44.566,21.064c-14.472,6.2-20.917,14.936-23.765,22-44.175-13.459-63.215-16.5-89.437-16.5s-45.167,3.038-89.279,16.444c-2.859-7.057-9.314-15.759-23.744-21.951-28.364-12.151-44.566-21.064-44.566-21.064L112.664,50.54S74.586,87.806,63.247,172.064C53.5,244.4,86.168,285.688,95.608,295.919c-9.251,33.3-14.947,59.523-18.449,78.773a.081.081,0,0,0-.053.021c-19.366,5.126-42.667,1.5-42.667,1.5s12.067,19.345,30.273,33.226c2.584,1.962,4.894,3.6,6.993,4.989-.011.221-.021.38-.021.38l-23.891,1.835s68.014,129.572,274.524,129.572S598.065,416.642,598.065,416.642l-23.9-1.835s0-.095-.011-.264Z" transform="translate(1.007 1.005)" fill="#ffcf06"/>
      <path id="Path_5093" data-name="Path 5093" d="M584.9,432.245a153.289,153.289,0,0,0,44.4-45.272c3.65-5.8,3.407-13.723,0-19.535-4.778-8.154-13.122-10.211-21.856-8.892-1.508.232,6.455-.781,1.2-.211-3.365.369-6.751.548-10.126.686-8.185.316-16.075.158-23.712-2.057l13.523,13.523c-4.852-26.465-11.223-52.624-18.385-78.551q-2.484,9.414-4.979,18.828c38.87-42.213,44.808-102.158,35.357-156.459-5.211-29.925-15.263-59.481-30.241-85.956-6.044-10.7-13.238-21.824-22.035-30.494a19.531,19.531,0,0,0-23.459-3.027q-25.6,15.347-51.19,30.705c-7.626,4.578-15.864,8.259-23.9,12.046C429.47,87,406.117,94.3,396.645,116.426q10.933-4.446,21.856-8.892c-31.011-9.4-62-17.1-94.584-17.193-32.478-.084-63.542,7.8-94.426,17.141q10.933,4.446,21.856,8.892c-9.187-21.339-31.254-28.828-50.715-37.815-8.6-3.966-17.446-7.879-25.579-12.763q-25.806-15.49-51.622-30.969A19.533,19.533,0,0,0,99.97,37.853C91.479,46.229,84.644,56.872,78.652,67.1,63.474,93.02,53.812,122.3,48.179,151.688c-10.516,54.829-4.441,116.124,34.735,158.917q-2.484-9.414-4.979-18.828c-7.183,26-13.586,52.223-18.449,78.773l13.523-13.523c-7.014,2.025-13.9,2.12-21.4,2.046-3.639-.032-7.278-.285-10.907-.6-1.15-.105-2.3-.232-3.46-.369,6.529.77,4.747.654,3.333.443-7.067-1.065-13.512-.348-18.828,4.979-5.991,5.991-7.647,16.128-3.027,23.459A153.91,153.91,0,0,0,62.925,432.14l-9.588-16.708c0,.127-.011.253-.021.38l19.356-19.356L48.78,398.291c-14.8,1.139-23.881,15.516-16.708,29.123,10.516,19.946,27.3,37.773,43.764,52.856,41.77,38.258,94.268,63.267,149.255,75.788,123.075,28.026,270.695,4.831,360.659-89.669,11.107-11.666,22.341-24.693,30.009-38.975,7.289-13.575-2-27.995-16.708-29.123l-23.9-1.835,19.356,19.356a2.292,2.292,0,0,0-.011-.264c-.485-10.538-8.428-19.356-19.356-19.356-10.179,0-19.841,8.808-19.356,19.356a2.292,2.292,0,0,0,.011.264c.517,11.17,8.449,18.512,19.356,19.356l23.9,1.835q-8.354-14.556-16.708-29.123a121.689,121.689,0,0,1-9.884,14.873l-1.266,1.677c-1.92,2.532,3.217-4.135,1.213-1.582-.981,1.255-1.983,2.489-3,3.723-2.468,3.006-5.031,5.939-7.647,8.829a256.945,256.945,0,0,1-19.387,19.113c-3.766,3.365-7.658,6.593-11.6,9.736-.77.622-4.43,3.418-.3.253-1.086.833-2.183,1.645-3.27,2.458-2.637,1.962-5.327,3.861-8.027,5.728a297.746,297.746,0,0,1-33.269,19.778c-6.1,3.133-12.331,6.012-18.617,8.734,3.829-1.656-1.646.665-1.983.8q-2.532,1.028-5.084,2c-4.072,1.582-8.175,3.038-12.3,4.462a360.526,360.526,0,0,1-49.154,12.858c-70.06,13.449-147.652,8.227-215.529-18.649-.327-.127-5.833-2.394-2-.781-1.624-.686-3.228-1.392-4.842-2.11-3.143-1.392-6.244-2.859-9.346-4.346-6.371-3.069-12.6-6.413-18.733-9.926a286.35,286.35,0,0,1-30.484-20.221c-3.734-2.827,3.323,2.605-.306-.253-1.023-.812-2.036-1.635-3.059-2.458-1.962-1.593-3.9-3.228-5.823-4.884-3.882-3.333-7.637-6.793-11.308-10.348a242.868,242.868,0,0,1-16.972-18.206c-1.413-1.688-2.8-3.4-4.166-5.116-2.806-3.544,2.563,3.354.717.939-.57-.749-1.129-1.5-1.688-2.247q-2.911-3.94-5.6-8.027c-1.456-2.226-2.9-4.483-4.145-6.835q-8.354,14.556-16.708,29.123l23.891-1.835c11.054-.854,18.638-8.185,19.356-19.356.665-10.305-7.447-15.432-14.672-20.664C72.64,391.72,68.484,387.311,64.5,383.1c-2.025-2.131-3.924-4.377-5.812-6.624-.823-1-1.646-2.015-2.437-3.027,1.224,1.582,1.224,1.561,0-.084-1.424-1.93-2.816-3.892-4.093-5.928Q41.223,381.646,30.3,395.865c17.278,2.595,36.074,3.386,53.015-1.519,6.065-1.751,12.32-6.993,13.523-13.523,3.143-17.193,6.962-34.26,11.17-51.221q2.009-8.069,4.156-16.086c1.846-6.962,5.116-14.493,3.122-21.75-1.16-4.23-3.85-7.215-6.624-10.39-1.108-1.266-5.348-6.74-1.181-1.287a127.135,127.135,0,0,1-7.753-11.571c-1.466-2.447-2.816-4.958-4.124-7.479-.707-1.371-1.371-2.774-2.036-4.166-.454-.97-.907-1.951-1.34-2.932q.854,2.088,0-.011a140.149,140.149,0,0,1-10.242-46.886c-1.065-21.1,2.31-42.013,7.331-62.445a268.149,268.149,0,0,1,7.858-25.948c1.34-3.776,2.816-7.489,4.335-11.191-1.435,3.491.928-2,1.013-2.194.949-2.12,1.962-4.209,2.985-6.3a181.254,181.254,0,0,1,16.919-28.1c2.89-3.924-3.006,3.7.464-.57.749-.918,1.519-1.825,2.289-2.711.707-.8,1.424-1.614,2.183-2.363q-11.724,1.519-23.459,3.027,25.046,15.031,50.1,30.062c6.181,3.7,12.7,6.8,19.187,9.936,10.031,4.842,20.263,9.187,30.4,13.786a30.193,30.193,0,0,1,10.485,7.183c3.956,4.008-1.645-2.764,1.181,1.508a32.675,32.675,0,0,1,2.669,5.2c3.312,7.7,14.345,11.17,21.856,8.892,16.624-5.031,33.353-9.862,50.441-13.09,2.922-.548,5.854-1,8.787-1.435-4.6.665.928-.063,1.572-.137,1.645-.179,3.291-.316,4.936-.454,6.118-.506,12.267-.633,18.406-.654s12.288.2,18.417.654c2.764.2,5.527.506,8.28.833-4.673-.549,1.108.179,1.7.274,1.793.274,3.565.6,5.348.918,17.13,3.091,33.912,8.09,50.546,13.132,7.5,2.278,18.565-1.192,21.856-8.892.57-1.329,1.181-2.595,1.867-3.871.3-.538,3.27-4.588.77-1.487,3.3-4.072,4.557-4.673,9.409-7.4,9.768-5.485,20.737-9.261,30.874-14.071,6.9-3.28,13.892-6.54,20.453-10.474q25.347-15.205,50.683-30.4-11.724-1.519-23.459-3.027c.654.643,1.266,1.329,1.878,2.015.738.833,1.456,1.677,2.173,2.542.454.548.9,1.108,1.35,1.656,1.856,2.321-3.365-4.462-.454-.559a182.08,182.08,0,0,1,16.919,28.1c1.582,3.175,3.038,6.4,4.472,9.641-1.561-3.544.949,2.342.992,2.447.749,1.867,1.456,3.755,2.162,5.643a268.426,268.426,0,0,1,8.565,27.889c5.179,20.379,8.08,41.159,7.331,62.2-.559,15.6-3.818,30.642-10.063,46.654-2.036,5.232,1.561-3.47-.633,1.487-.633,1.435-1.319,2.848-2,4.261-1.266,2.605-2.658,5.158-4.082,7.679a122.576,122.576,0,0,1-8.417,12.826c-2.226,3,2.964-3.766.781-1.023-.5.622-1.013,1.234-1.519,1.846-.812.97-1.667,1.92-2.521,2.859-10.97,11.919-1.825,30.136,1.624,43.711,4.5,17.752,8.491,35.652,11.793,53.679,1.2,6.529,7.457,11.751,13.523,13.523,17.014,4.947,35.863,4.188,53.226,1.582q-10.933-14.224-21.856-28.427c-.8,1.266-1.656,2.5-2.51,3.723-.812,1.171-1.667,2.31-2.51,3.449,2.437-3.28-2.4,2.911-2.869,3.46a108.664,108.664,0,0,1-22.626,20.748c-8.744,5.854-12.521,16.961-6.941,26.476,5.084,8.681,17.7,12.826,26.476,6.941Z" transform="translate(0 0)" fill="#1c0e09"/>
      <path id="Path_5094" data-name="Path 5094" d="M574.121,414.532c2.152-1.413,4.525-3.08,7.183-5.105,18.206-13.881,30.273-33.226,30.273-33.226s-23.3,3.618-42.667-1.5c-.095-.021-.169-.053-.264-.074-3.491-19.219-9.177-45.367-18.385-78.551,9.24-9.957,42.3-51.3,32.509-124.014C571.421,87.806,533.353,50.54,533.353,50.54L480.686,82.131s-16.2,8.913-44.566,21.064c-14.472,6.2-20.917,14.936-23.765,22-44.175-13.459-63.215-16.5-89.437-16.5s-45.167,3.038-89.279,16.444c-2.859-7.057-9.314-15.759-23.744-21.951-28.364-12.151-44.566-21.064-44.566-21.064L112.664,50.54S74.586,87.806,63.247,172.064C53.5,244.4,86.168,285.688,95.608,295.919c-9.251,33.3-14.947,59.523-18.449,78.773a.081.081,0,0,0-.053.021c-19.366,5.126-42.667,1.5-42.667,1.5s12.067,19.345,30.273,33.226c2.584,1.962,4.894,3.6,6.993,4.989-.011.221-.021.38-.021.38l-23.891,1.835s68.014,129.572,274.524,129.572S598.065,416.642,598.065,416.642l-23.9-1.835s0-.095-.011-.264Z" transform="translate(1.007 1.005)" fill="#f0842a"/>
      <path id="Path_5095" data-name="Path 5095" d="M75.736,374.592a.179.179,0,0,0-.053.021,72.714,72.714,0,0,1-8.249,1.656c8.143.221,18.459-.2,27.857-2.69a.081.081,0,0,0,.053-.021c3.491-19.25,9.2-45.473,18.449-78.773-9.43-10.232-42.1-51.517-32.361-123.855C89.691,109.6,111.241,50.44,111.241,50.44S73.162,87.706,61.823,171.964C52.077,244.3,84.744,285.588,94.185,295.82,84.934,329.12,79.238,355.342,75.736,374.592Z" transform="translate(2.41 0.999)" fill="#fbb040"/>
      <path id="Path_5096" data-name="Path 5096" d="M542.987,374.592a.179.179,0,0,1,.053.021,72.713,72.713,0,0,0,8.249,1.656c-8.143.221-18.459-.2-27.857-2.69a.08.08,0,0,1-.053-.021c-3.491-19.25-9.2-45.473-18.449-78.773,9.43-10.232,42.1-51.517,32.361-123.855C529.032,109.6,507.483,50.44,507.483,50.44S545.561,87.706,556.9,171.964c9.746,72.339-22.921,113.624-32.361,123.855C533.789,329.12,539.485,355.342,542.987,374.592Z" transform="translate(26.793 0.999)" fill="#fbb040"/>
      <path id="Path_5097" data-name="Path 5097" d="M110.111,50.761s2.025,32.783,18.28,62.972,46.76,52.424,46.76,52.424l17.109-25.326,25.189-32.277S176.141,90.843,162.7,82.679,110.1,50.75,110.1,50.75Z" transform="translate(5.154 1.016)" fill="#f15a29"/>
      <path id="Path_5098" data-name="Path 5098" d="M512.128,50.761s-2.015,32.783-18.28,62.972-46.77,52.424-46.77,52.424L429.969,140.83l-25.2-32.277s41.317-17.71,54.744-25.874,52.6-31.929,52.6-31.929Z" transform="translate(21.304 1.016)" fill="#f15a29"/>
      <path id="Path_5099" data-name="Path 5099" d="M226.124,122.1s-15.115,6.793-23.986,13.175-30.368,27.868-30.368,27.868,4.715-21.349,16.919-36.876,23.849-20.242,23.849-20.242l15.8,4.156L226.124,122.1Z" transform="translate(8.534 4.045)" fill="#1e0f08"/>
      <path id="Path_5100" data-name="Path 5100" d="M392.616,122.1s15.1,6.793,23.986,13.175,30.357,27.868,30.357,27.868-4.715-21.349-16.909-36.876S406.2,106.02,406.2,106.02l-15.812,4.156,2.215,11.919Z" transform="translate(20.515 4.045)" fill="#1e0f08"/>
      <path id="Path_5101" data-name="Path 5101" d="M597.427,400.758c-7.183,5.58-56.9,41.992-120.49,34.45-68.246-8.1-67.054-90.618-154.613-90.618s-86.389,82.517-154.635,90.618C103,442.887,52.672,405.073,46.86,400.505c2.278,4.24,71.516,129.594,274.745,129.594s271.56-121.725,275.821-129.33Z" transform="translate(1.688 17.121)" fill="#fff"/>
      <path id="Path_5102" data-name="Path 5102" d="M317.6,285.35c88.91,0,166.28,10.073,206.046,82.992.738-1.424,2.141,19.714,2.141,19.714,0,79.553-44.576,153.306-210.719,152.62C150.642,540,111.72,467.61,111.72,388.056V368.163c39.819-70.967,117.073-82.8,205.877-82.8Z" transform="translate(5.243 13.874)" fill="#ffd7c3"/>
      <path id="Path_5103" data-name="Path 5103" d="M318.1,295.526c39.249.042,79.227,1.424,116.978,13.2,34.819,10.864,63,33.047,80.714,65.008,2.669,4.81,8.618,5.812,13.238,3.47a.979.979,0,0,0,.105-.053q-6.614-1.74-13.238-3.47c-1.572-3.006-.527-.285-.274,2.331.274,2.8.485,5.6.7,8.4a114.585,114.585,0,0,1,.084,13.459,155.7,155.7,0,0,1-4.472,31.106,116.26,116.26,0,0,1-30.885,54.808c-19.134,18.986-44.513,30.136-70.187,37.15-38.606,10.538-79.659,11.856-119.415,9.926-55.071-2.679-120.638-15.812-151.512-66.738-10.854-17.911-15.906-38.764-17.478-59.491-.77-10.095-.559-20.242-.559-30.357V368.8c0,5.4.622,1.371,1.994-.886,1.108-1.825,2.289-3.6,3.47-5.369a129.067,129.067,0,0,1,16.719-19.925C188.7,298.448,259.2,295.6,318.089,295.536c12.478-.011,12.478-19.366,0-19.356-68.763.084-147.525,6.076-195.909,61.516a161.572,161.572,0,0,0-15,20.453c-3.913,6.244-4.631,10.516-4.631,17.51,0,10.105-.105,20.2.665,30.283,1.709,22.531,7.183,44.65,18.069,64.554,28.322,51.77,88.235,70.862,143.232,77.475a447.667,447.667,0,0,0,125.132-2.7c29.893-4.915,59.86-14.493,85.112-31.57a135.981,135.981,0,0,0,52.909-69.649c4.609-13.586,6.856-27.952,7.858-42.234a121.628,121.628,0,0,0,.137-17.425c-.475-6.413,0-14.683-3.059-20.495-2.553-4.873-8.713-5.759-13.238-3.47a.493.493,0,0,1-.105.053q6.614,1.74,13.238,3.47c-19.588-35.336-50.546-59.544-88.488-72.655-40.03-13.828-83.994-15.084-125.923-15.126-12.478-.011-12.478,19.345,0,19.356Z" transform="translate(4.74 13.371)" fill="#1c0e09"/>
      <path id="Path_5104" data-name="Path 5104" d="M120.821,387.923c0,5.411.622,1.371,1.994-.886,1.108-1.825,2.289-3.6,3.47-5.369A128.481,128.481,0,0,1,143,361.742c44.618-44.175,115.111-47.023,174.011-47.087,39.26.042,79.226,1.424,116.978,13.2,34.355,10.717,62.223,32.467,79.975,63.742,0,.411.422,1.994.57,3.534.2,2.089.359,4.177.517,6.266.105-1.508.2-3.017.264-4.536a114.585,114.585,0,0,0-.084-13.459c-.211-2.8-.422-5.6-.7-8.4-.148-1.551-.57-3.133-.57-3.534-17.752-31.275-45.62-53.025-79.975-63.742-37.751-11.772-77.718-13.153-116.978-13.2-58.89.074-129.393,2.922-174.011,47.087a127.892,127.892,0,0,0-16.719,19.925c-1.181,1.772-2.363,3.555-3.47,5.369-1.371,2.257-1.994,6.287-1.994.886v5.464c0,5.169-.053,10.348,0,15.527v-.865Z" transform="translate(5.74 14.377)" fill="#ffad8d"/>
      <path id="Path_5105" data-name="Path 5105" d="M531.4,363.573a8.749,8.749,0,0,1,1.065,1.572c2.278,4.346,2.595,10.063,2.806,15.347.032-.475.084-.949.116-1.424a121.628,121.628,0,0,0,.137-17.425c-.475-6.413,0-14.683-3.059-20.495a8.387,8.387,0,0,0-1.065-1.572c-19.63-34.439-50.177-58.12-87.528-71.02-40.03-13.829-83.994-15.084-125.923-15.126-68.763.084-147.525,6.076-195.909,61.516a162.034,162.034,0,0,0-15.01,20.463c-3.913,6.244-4.631,10.516-4.631,17.51,0,6.5-.021,13,.158,19.493a26.37,26.37,0,0,1,4.472-13.006,159.99,159.99,0,0,1,15.01-20.463c48.384-55.441,127.146-61.432,195.909-61.516,41.929.042,85.893,1.3,125.923,15.126,37.351,12.9,67.908,36.591,87.528,71.02Z" transform="translate(4.732 12.124)" fill="#f15a29"/>
      <path id="Path_5106" data-name="Path 5106" d="M408.534,160.988c-4.5,9.092-23.164,9.019-41.675-.158S337,136.854,341.491,127.772s23.164-9.019,41.675.158,29.862,23.976,25.358,33.058Z" transform="translate(17.782 4.866)" fill="#fff"/>
      <path id="Path_5107" data-name="Path 5107" d="M427.114,170.963c-2.721,4.483-8.776,5.791-13.544,2.911s-6.424-8.86-3.7-13.343,8.776-5.791,13.533-2.9,6.424,8.85,3.713,13.333Z" transform="translate(21.511 6.79)" fill="#fff"/>
      <path id="Path_5108" data-name="Path 5108" d="M420.535,444.031c-1.108,5.031,7.352,11.17,18.892,13.712s21.792.517,22.9-4.5-7.352-11.17-18.892-13.712-21.792-.527-22.91,4.515Z" transform="translate(22.162 22.263)" fill="#f38b9e"/>
      <path id="Path_5109" data-name="Path 5109" d="M247.682,391.856a39.766,39.766,0,1,1-39.766-39.766A39.777,39.777,0,0,1,247.682,391.856Z" transform="translate(8.335 17.532)" fill="#1e0f08" fill-rule="evenodd"/>
      <path id="Path_5110" data-name="Path 5110" d="M245.854,391.958a38.383,38.383,0,0,1-37.836,37.836c-21.022.548-37.308-17.636-37.836-37.836-.548-21.022,17.636-37.308,37.836-37.836,21.022-.548,37.308,17.636,37.836,37.836.063,2.489,3.934,2.5,3.871,0a42.348,42.348,0,0,0-41.707-41.707c-23.153-.6-41.127,19.451-41.707,41.707-.6,23.153,19.451,41.127,41.707,41.707,23.153.6,41.127-19.461,41.707-41.707.063-2.5-3.808-2.489-3.871,0Z" transform="translate(8.234 17.43)" fill="#1c0e09"/>
      <path id="Path_5111" data-name="Path 5111" d="M230.85,403.965a6.445,6.445,0,1,1-6.445-6.445A6.451,6.451,0,0,1,230.85,403.965Z" transform="translate(11.065 20.021)" fill="#fff" fill-rule="evenodd"/>
      <path id="Path_5112" data-name="Path 5112" d="M211.209,385.614a16.634,16.634,0,1,1-16.634-16.634A16.634,16.634,0,0,1,211.209,385.614Z" transform="translate(8.872 18.457)" fill="#fff" fill-rule="evenodd"/>
      <path id="Path_5113" data-name="Path 5113" d="M195.567,444.031c1.108,5.031-7.352,11.17-18.892,13.712s-21.8.517-22.91-4.5,7.352-11.17,18.892-13.712,21.792-.527,22.9,4.515Z" transform="translate(7.542 22.263)" fill="#f38b9e"/>
      <path id="Path_5114" data-name="Path 5114" d="M449.9,391.856a39.771,39.771,0,1,1-39.766-39.766A39.777,39.777,0,0,1,449.9,391.856Z" transform="translate(19.418 17.532)" fill="#1e0f08" fill-rule="evenodd"/>
      <path id="Path_5115" data-name="Path 5115" d="M448.074,391.958a38.383,38.383,0,0,1-37.836,37.836c-21.022.548-37.308-17.636-37.836-37.836-.548-21.022,17.636-37.308,37.836-37.836,21.022-.548,37.308,17.636,37.836,37.836.063,2.489,3.934,2.5,3.871,0a42.341,42.341,0,0,0-41.707-41.707c-23.153-.6-41.127,19.451-41.707,41.707-.6,23.153,19.461,41.127,41.707,41.707,23.153.6,41.127-19.461,41.707-41.707C452.008,389.458,448.137,389.468,448.074,391.958Z" transform="translate(19.317 17.43)" fill="#1c0e09"/>
      <path id="Path_5116" data-name="Path 5116" d="M433.07,403.965a6.45,6.45,0,1,1-6.445-6.445A6.451,6.451,0,0,1,433.07,403.965Z" transform="translate(22.148 20.021)" fill="#fff" fill-rule="evenodd"/>
      <path id="Path_5117" data-name="Path 5117" d="M413.429,385.614a16.634,16.634,0,1,1-16.634-16.634A16.634,16.634,0,0,1,413.429,385.614Z" transform="translate(19.955 18.457)" fill="#fff" fill-rule="evenodd"/>
      <path id="Path_5118" data-name="Path 5118" d="M335.394,465.827c-.032.548.422-2.025-.127.527a13.532,13.532,0,0,1-2.015,5.084c-3.924,6.856-12.552,8.681-19.809,9.071-9.04.5-18.649-1.276-24.9-8.217a16.917,16.917,0,0,1-2.605-4.652c-.38-1.076-.981-5.285-.506-1.16-1.139-9.8-16.645-9.9-15.484,0,4.62,39.534,78.678,40.3,80.925-.643.549-9.978-14.936-9.926-15.485,0h0Z" transform="translate(13.911 23.357)" fill="#1c0e09"/>
    </g>
  </g>
</svg>
