<svg xmlns="http://www.w3.org/2000/svg" xmlns:xlink="http://www.w3.org/1999/xlink" width="307" height="300" viewBox="0 0 307 300">
  <defs>
    <clipPath id="clip-watchad_icon">
      <rect width="307" height="300"/>
    </clipPath>
  </defs>
  <g id="watchad_icon" clip-path="url(#clip-watchad_icon)">
    <g id="watchad_icon-2" data-name="watchad_icon" transform="translate(-0.43 -1.2)">
      <circle id="Ellipse_1059" data-name="Ellipse 1059" cx="26.6" cy="26.6" r="26.6" transform="translate(88.01 88.83)" fill="#1e464d"/>
      <circle id="Ellipse_1060" data-name="Ellipse 1060" cx="6.29" cy="6.29" r="6.29" transform="translate(126.53 3.2)" fill="#1e464d"/>
      <circle id="Ellipse_1061" data-name="Ellipse 1061" cx="6.29" cy="6.29" r="6.29" transform="translate(62.35 14.72)" fill="#1e464d"/>
      <rect id="Rectangle_66" data-name="Rectangle 66" width="19.26" height="33.06" rx="9.63" transform="matrix(0.946, -0.325, 0.325, 0.946, 248.687, 268.158)" fill="#1e464d"/>
      <rect id="Rectangle_67" data-name="Rectangle 67" width="19.26" height="33.06" rx="9.63" transform="translate(45.589 299.695) rotate(-155.02)" fill="#1e464d"/>
      <rect id="Rectangle_68" data-name="Rectangle 68" width="298.13" height="177.42" rx="31.92" transform="translate(4.43 100.39)" fill="#4e989f"/>
      <rect id="Rectangle_69" data-name="Rectangle 69" width="214.28" height="145.19" rx="32.61" transform="translate(23.49 121)" fill="#fff"/>
      <rect id="Rectangle_70" data-name="Rectangle 70" width="167.58" height="105.9" rx="18.82" transform="translate(48.51 140.64)" fill="#bc2228"/>
      <rect id="Rectangle_71" data-name="Rectangle 71" width="16.12" height="10.56" rx="4.94" transform="matrix(1, -0.005, 0.005, 1, 248.586, 148.656)" fill="#bc2228"/>
      <rect id="Rectangle_72" data-name="Rectangle 72" width="10.54" height="16.12" rx="4.93" transform="matrix(0.007, -1, 1, 0.007, 275.339, 159.114)" fill="#bc2228"/>
      <rect id="Rectangle_73" data-name="Rectangle 73" width="10.39" height="16.18" rx="4.87" transform="translate(248.556 175.96) rotate(-89.8)" fill="#bc2228"/>
      <rect id="Rectangle_74" data-name="Rectangle 74" width="16.16" height="10.39" rx="4.86" transform="translate(275.325 165.627) rotate(-0.2)" fill="#bc2228"/>
      <rect id="Rectangle_75" data-name="Rectangle 75" width="16.18" height="10.39" rx="4.86" transform="translate(248.556 182.971) rotate(-0.2)" fill="#bc2228"/>
      <rect id="Rectangle_76" data-name="Rectangle 76" width="10.33" height="16.29" rx="4.85" transform="matrix(0.005, -1, 1, 0.005, 275.186, 193.266)" fill="#bc2228"/>
      <circle id="Ellipse_1062" data-name="Ellipse 1062" cx="4.25" cy="4.25" r="4.25" transform="translate(249.025 208.616) rotate(-80.78)" fill="#bc2228"/>
      <circle id="Ellipse_1063" data-name="Ellipse 1063" cx="4.27" cy="4.27" r="4.27" transform="translate(265.47 200.83)" fill="#bc2228"/>
      <circle id="Ellipse_1064" data-name="Ellipse 1064" cx="4.26" cy="4.26" r="4.26" transform="translate(281.34 200.82)" fill="#bc2228"/>
      <circle id="Ellipse_1065" data-name="Ellipse 1065" cx="4.27" cy="4.27" r="4.27" transform="translate(249.62 215.56)" fill="#bc2228"/>
      <circle id="Ellipse_1066" data-name="Ellipse 1066" cx="4.28" cy="4.28" r="4.28" transform="translate(265.45 215.55)" fill="#bc2228"/>
      <circle id="Ellipse_1067" data-name="Ellipse 1067" cx="4.27" cy="4.27" r="4.27" transform="translate(281.33 215.57)" fill="#bc2228"/>
      <circle id="Ellipse_1068" data-name="Ellipse 1068" cx="4.25" cy="4.25" r="4.25" transform="translate(249.013 238.051) rotate(-80.78)" fill="#bc2228"/>
      <circle id="Ellipse_1069" data-name="Ellipse 1069" cx="4.27" cy="4.27" r="4.27" transform="translate(265.45 230.25)" fill="#bc2228"/>
      <circle id="Ellipse_1070" data-name="Ellipse 1070" cx="4.24" cy="4.24" r="4.24" transform="translate(281.35 230.28)" fill="#bc2228"/>
      <path id="B" d="M178.18,171.57a21.554,21.554,0,0,1,6.72,9.6,32.072,32.072,0,0,1,1.67,11.67,33.553,33.553,0,0,1-2.18,11.4q-5.355,13.68-20.92,16.39a86.707,86.707,0,0,1-26.02.24.555.555,0,0,1-.48-.56l-.06-53.71a.879.879,0,0,1,.74-.86,105.368,105.368,0,0,1,24.36-.79,28.979,28.979,0,0,1,16.17,6.61Zm-10.76,6.62a13.94,13.94,0,0,0-6.91-3.14,57.844,57.844,0,0,0-10-.42.976.976,0,0,0-.94.96l.06,35.49a.54.54,0,0,0,.49.53,29.728,29.728,0,0,0,9.63-.29q10.845-2.46,12.89-13.8a26.536,26.536,0,0,0-.89-13.18,13,13,0,0,0-4.34-6.15Z" fill="#fff"/>
      <path id="A" d="M94.96,207.53l-3.64,13.03a.8.8,0,0,1-.78.57H78.65a.383.383,0,0,1-.38-.36.2.2,0,0,1,.02-.11l16.89-55.04a.654.654,0,0,1,.62-.46l15.32-.06a1.1,1.1,0,0,1,1.05.78l16.9,53.96a.946.946,0,0,1-.61,1.19.863.863,0,0,1-.28.04l-11.71.04a1.107,1.107,0,0,1-1.05-.81l-3.89-12.99a.756.756,0,0,0-.71-.54l-15.25.24a.644.644,0,0,0-.6.51Zm7.81-32.13L97.4,196.72a.377.377,0,0,0,.24.47c.03,0,.07.01.1.01l11.16-.17a.392.392,0,0,0,.37-.41.18.18,0,0,0-.02-.1l-5.9-21.16c-.2-.73-.4-.72-.58.02Z" fill="#fff"/>
      <rect id="Rectangle_77" data-name="Rectangle 77" width="5.76" height="79.15" transform="translate(128.893 13.15) rotate(7.89)" fill="#1e464d"/>
      <rect id="Rectangle_78" data-name="Rectangle 78" width="5.76" height="79.15" transform="matrix(0.884, -0.468, 0.468, 0.884, 66.949, 23.452)" fill="#1e464d"/>
    </g>
  </g>
</svg>
